<svg width="40" height="40" viewBox="0 0 40 40" fill="none" xmlns="http://www.w3.org/2000/svg">
<g clip-path="url(#clip0_10_56)">
<path d="M20 3.33325C16.7036 3.33325 13.4813 4.31073 10.7405 6.14209C7.99966 7.97345 5.86346 10.5764 4.60199 13.6219C3.34053 16.6673 3.01048 20.0184 3.65357 23.2514C4.29665 26.4844 5.884 29.4542 8.21487 31.785C10.5457 34.1159 13.5155 35.7033 16.7485 36.3463C19.9815 36.9894 23.3326 36.6594 26.378 35.3979C29.4235 34.1365 32.0265 32.0002 33.8578 29.2594C35.6892 26.5186 36.6667 23.2963 36.6667 19.9999C36.6667 17.8112 36.2356 15.644 35.398 13.6219C34.5604 11.5998 33.3327 9.76245 31.7851 8.21481C30.2375 6.66716 28.4001 5.4395 26.378 4.60193C24.356 3.76435 22.1887 3.33325 20 3.33325ZM27.1667 16.0166L19.55 26.0166C19.3947 26.2183 19.1953 26.3817 18.9671 26.4944C18.7389 26.6071 18.4879 26.666 18.2333 26.6666C17.9802 26.6679 17.73 26.6116 17.5019 26.5019C17.2738 26.3922 17.0736 26.2319 16.9167 26.0333L12.85 20.8499C12.5781 20.5007 12.4561 20.0578 12.5108 19.6187C12.5655 19.1795 12.7925 18.7801 13.1417 18.5083C13.4909 18.2364 13.9337 18.1144 14.3729 18.1691C14.812 18.2238 15.2115 18.4507 15.4833 18.7999L18.2 22.2666L24.5 13.9333C24.6335 13.7582 24.8002 13.6111 24.9905 13.5004C25.1809 13.3897 25.3912 13.3176 25.6094 13.2882C25.8276 13.2588 26.0495 13.2727 26.2624 13.329C26.4752 13.3854 26.6749 13.4831 26.85 13.6166C27.0251 13.7501 27.1722 13.9168 27.2828 14.1071C27.3935 14.2975 27.4656 14.5078 27.495 14.726C27.5244 14.9442 27.5106 15.1661 27.4542 15.379C27.3979 15.5918 27.3002 15.7915 27.1667 15.9666V16.0166Z" fill="#B23633"/>
</g>
<defs>
<clipPath id="clip0_10_56">
<rect width="40" height="40" fill="white"/>
</clipPath>
</defs>
</svg>
