<svg width="303" height="96" viewBox="0 0 303 96" fill="none" xmlns="http://www.w3.org/2000/svg">
<path d="M273.929 70.1478L11.9902 70.1478C3.00496 70.1478 -2.04112 63.9805 3.52582 59.7527L11.1763 53.9539C14.1714 51.6848 14.2691 48.5236 11.4042 46.1963L2.38647 38.8654C-2.82236 34.6181 2.25619 28.6448 11.0786 28.6448L274.092 28.6448C277.413 28.6448 280.538 29.5563 282.589 31.1272L300.722 44.9939C303.685 47.263 303.75 50.4436 300.885 52.7514L282.589 67.5102C280.57 69.1393 277.348 70.109 273.929 70.109V70.1478Z" fill="#AB090D"/>
<path d="M98.4558 0.969727L204.814 0.969727" stroke="#59595B" stroke-linecap="round" stroke-linejoin="round"/>
<path d="M151.652 14.5456V1.60986" stroke="#59595B" stroke-linecap="round" stroke-linejoin="round"/>
<path d="M204.814 95.0303L98.4558 95.0303" stroke="#59595B" stroke-linecap="round" stroke-linejoin="round"/>
<path d="M151.652 81.4546V94.3903" stroke="#59595B" stroke-linecap="round" stroke-linejoin="round"/>
</svg>
