<svg width="49" height="49" viewBox="0 0 49 49" fill="none" xmlns="http://www.w3.org/2000/svg">
<g clip-path="url(#clip0_983_709)">
<path d="M12.8502 37.2521C13.1115 37.2521 13.3729 37.1521 13.5729 36.954L37.0358 13.4891C37.4339 13.091 37.4339 12.4438 37.0358 12.0457C36.6377 11.6475 35.9904 11.6475 35.5923 12.0457L12.8502 34.7878L1.74352 23.6811C1.34539 23.283 0.698184 23.283 0.300059 23.6811C-0.0980664 24.0793 -0.0980664 24.7265 0.300059 25.1246L12.1274 36.954C12.3275 37.1521 12.5889 37.2521 12.8502 37.2521Z" fill="#B23633"/>
<path d="M47.2565 12.0457L23.7937 35.5105C23.3956 35.9087 23.3956 36.5559 23.7937 36.954C23.9938 37.1541 24.2551 37.2521 24.5165 37.2521C24.7778 37.2521 25.0391 37.1521 25.2392 36.954L48.702 13.4891C49.1002 13.091 49.1002 12.4438 48.702 12.0457C48.3039 11.6475 47.6567 11.6475 47.2565 12.0457Z" fill="#B23633"/>
</g>
<defs>
<clipPath id="clip0_983_709">
<rect width="49" height="49" rx="3" fill="white"/>
</clipPath>
</defs>
</svg>
