<svg width="36" height="36" viewBox="0 0 36 36" fill="none" xmlns="http://www.w3.org/2000/svg">
<path d="M18 2.81342C11.9346 2.81342 7 7.74799 7 13.8134C7 21.3407 16.8439 32.3912 17.263 32.858C17.6567 33.2964 18.344 33.2957 18.737 32.858C19.1561 32.3912 29 21.3407 29 13.8134C28.9999 7.74799 24.0654 2.81342 18 2.81342ZM18 19.3477C14.9483 19.3477 12.4657 16.865 12.4657 13.8134C12.4657 10.7617 14.9484 8.27904 18 8.27904C21.0516 8.27904 23.5343 10.7618 23.5343 13.8134C23.5343 16.8651 21.0516 19.3477 18 19.3477Z" fill="#E5D2A5"/>
</svg>
