<svg width="42" height="51" viewBox="0 0 42 51" fill="none" xmlns="http://www.w3.org/2000/svg">
<path fill-rule="evenodd" clip-rule="evenodd" d="M19.5669 1.12222C18.2627 2.43836 15.8909 4.20537 13.8723 5.36461C10.3874 7.36574 7.18588 8.24022 2.52361 8.46405C-0.39674 8.60431 -0.210745 8.46051 0.298703 10.1823C0.641979 11.3427 0.775732 11.9194 1.21386 14.1262C1.44969 15.3139 1.50619 17.0714 1.51285 23.4234C1.51731 27.7315 1.60085 31.6147 1.69848 32.0531C1.79629 32.4914 1.9558 33.2732 2.05306 33.7907C2.56788 36.528 3.98859 39.221 5.83446 40.9586C7.44468 42.4745 9.17551 43.7056 13.0831 46.1148C15.0549 47.3305 19.5603 50.1729 20.6877 50.9124C20.866 51.0292 21.0464 51.0292 21.2238 50.9124C22.0725 50.3536 26.5655 47.4943 27.3476 47.0155C35.1133 42.2597 36.9621 40.6932 38.5015 37.5642C39.2764 35.9895 39.551 35.0768 40.0531 32.4073C40.3842 30.647 40.4352 29.67 40.4297 25.2064C40.4262 22.3661 40.3732 19.8515 40.3121 19.6183C40.1498 19.0002 40.5377 14.4749 40.8856 12.9273C41.2509 11.302 41.6688 9.79403 41.9116 9.22573C42.029 8.95015 42.0295 8.73961 41.9129 8.62804C41.8137 8.5333 40.9135 8.46848 39.9125 8.48371C37.4405 8.52161 33.7652 7.90569 31.951 7.14951C31.63 7.01563 31.3174 6.90619 31.2568 6.90619C31.1961 6.90619 30.5834 6.65383 29.8954 6.34516C27.79 5.40127 24.6611 3.29106 22.8497 1.59364C21.914 0.717041 21.0426 -0.000177058 20.9133 3.27875e-08C20.7842 0.000177124 20.1783 0.50524 19.5669 1.12222Z" fill="#B23633"/>
<path fill-rule="evenodd" clip-rule="evenodd" d="M14.5678 14.2387C14.2085 14.4015 13.9801 14.6236 13.8979 14.8897C13.8753 14.9625 13.8606 15.2009 13.8651 15.4193C13.8791 16.1059 13.78 16.5259 13.5672 16.6811C13.4888 16.7384 13.4446 16.8097 13.4486 16.8727C13.454 16.9572 13.4025 17.0011 13.1197 17.1533C12.4447 17.5165 12.1112 18.0059 12.2088 18.4898C12.2511 18.6991 12.3473 18.7807 12.4801 18.7201C12.5529 18.6868 12.567 18.7028 12.5984 18.8544C12.618 18.9491 12.7087 19.148 12.8 19.2967C13.0247 19.6631 13.0274 19.6964 12.8375 19.7651C12.2624 19.9731 12.2217 19.9983 12.2352 20.1371C12.2583 20.3743 12.3494 20.3903 12.7578 20.2292C13.1483 20.0752 13.1592 20.0774 13.2082 20.3204C13.2444 20.499 13.6191 21.1263 13.8515 21.3971C14.0381 21.6145 14.0516 21.6438 14.0175 21.7542C13.9487 21.977 13.9761 22.3471 14.08 22.5958C14.1922 22.8647 14.1825 22.8048 14.197 23.3155C14.2039 23.5576 14.2373 23.8075 14.2797 23.9342L14.3509 24.1467L14.0533 24.2023C13.7111 24.2663 13.4154 24.4377 13.4058 24.5778C13.4025 24.6259 13.396 24.6659 13.3912 24.6668C13.1602 24.7092 12.4945 25.0505 12.1444 25.3059C11.9684 25.4344 11.9668 25.4348 11.7909 25.3857C11.4459 25.2896 11.0386 25.3062 10.239 25.449C9.37049 25.6041 9.14658 25.6863 8.5676 26.0622C7.97167 26.4493 7.5583 26.8095 7.3909 27.0875C7.15057 27.4867 6.41699 28.4021 6.13278 28.6574C5.98942 28.7863 5.7997 28.9843 5.71118 29.0974L5.55025 29.3033L5.70414 29.174C6.08114 28.8575 6.19196 28.7741 6.21551 28.7893C6.26752 28.823 6.18363 29.1668 6.04185 29.5014C5.92969 29.7661 5.82582 29.92 5.60191 30.1532C5.44062 30.3212 5.29679 30.4953 5.28219 30.5402C5.25724 30.6168 5.26522 30.6151 5.4104 30.5118C5.49549 30.4512 5.57798 30.3994 5.59364 30.3965C5.6093 30.3936 5.47878 30.5965 5.30357 30.8473C4.89003 31.4392 4.85172 31.5312 4.91118 31.7895C4.93726 31.9029 4.9569 31.9476 4.95477 31.8889C4.94589 31.6404 4.96211 31.576 5.08043 31.3893C5.18804 31.2196 5.36881 31.0394 5.44564 31.0252C5.51341 31.0128 5.47337 31.1286 5.3622 31.2665C5.2821 31.3659 5.23701 31.4776 5.23752 31.5753C5.23811 31.6903 5.16758 31.8286 4.95345 32.1322C4.69092 32.5042 4.68099 32.5269 4.8272 32.4196C4.91452 32.3555 5.03907 32.2471 5.10406 32.1788C5.27517 31.9989 5.30664 32.0158 5.17051 32.2145C5.10565 32.3091 5.07206 32.383 5.09583 32.3786C5.11961 32.3743 5.15916 32.3428 5.18373 32.3088C5.21972 32.2588 5.22715 32.27 5.22192 32.3662C5.21323 32.5269 5.25542 32.5093 5.3137 32.3279C5.34913 32.2176 5.36909 32.1968 5.39135 32.2469C5.40783 32.284 5.40679 32.359 5.38901 32.4136C5.36692 32.4817 5.37 32.5013 5.39877 32.476C5.44398 32.4363 5.47087 32.4917 5.43258 32.5457C5.41983 32.5636 5.41882 32.6338 5.4303 32.7016C5.44349 32.7794 5.46341 32.8074 5.48443 32.7777C5.578 32.6457 5.58239 32.7498 5.49479 33.0224L5.39666 33.3278L5.54547 33.1313C5.62731 33.0231 5.71134 32.9044 5.73213 32.8675C5.75297 32.8305 5.79125 32.808 5.81723 32.8174C5.84321 32.8268 5.92119 32.7854 5.9905 32.7253C6.05986 32.6653 6.12616 32.6223 6.13785 32.6299C6.14955 32.6375 6.04663 32.7927 5.90916 32.975C5.68916 33.2666 5.67209 33.3041 5.76679 33.2867C5.82602 33.2758 6.01258 33.1952 6.18144 33.1075C6.35031 33.02 6.49131 32.9625 6.4948 32.9797C6.49828 32.997 6.43495 33.0757 6.35402 33.1547C6.27309 33.2337 6.17875 33.3432 6.14444 33.3982C6.08297 33.4964 6.08358 33.4972 6.18415 33.4469C6.28563 33.3961 6.28564 33.3968 6.1835 33.5551C6.08691 33.7048 6.09523 33.7002 6.32012 33.4814C6.45181 33.3532 6.63757 33.1701 6.7329 33.0744C6.82823 32.9787 6.94043 32.873 6.98228 32.8395C7.05703 32.7797 7.05736 32.7809 7.00269 32.9135C6.97211 32.9876 7.02497 32.9276 7.12015 32.7802C7.28633 32.5227 7.33963 32.4089 7.62109 31.7112C7.77895 31.3198 8.04093 30.7983 8.07016 30.8172C8.08221 30.825 8.09055 30.9448 8.08864 31.0833C8.08677 31.2219 8.09375 31.4013 8.10417 31.4821C8.11458 31.5629 8.11684 31.6689 8.10921 31.7175L8.09531 31.806L8.15034 31.71C8.34459 31.371 8.45638 30.8435 8.42735 30.4027C8.4193 30.2804 8.46184 29.9729 8.52189 29.7193C8.63828 29.2278 8.70609 29.0662 8.70291 29.2881C8.70131 29.3992 8.7079 29.3919 8.74978 29.2365C8.77659 29.137 8.82524 28.9443 8.85792 28.8082C8.91371 28.5757 9.18479 27.9127 9.33261 27.6469L9.39924 27.5273L9.36256 27.7059C9.34238 27.8042 9.30772 27.9437 9.28551 28.016L9.24524 28.1474L9.35159 28.0396C9.4938 27.8955 9.67352 27.6192 9.85453 27.2667C10.0094 26.9649 10.0871 26.9067 10.415 26.8465L10.5622 26.8194L10.4015 27.1175C9.9524 27.9512 9.90724 28.3878 10.0943 30.0852C10.1883 30.9387 10.1512 31.5389 9.96014 32.2519C9.84384 32.6857 9.7172 32.8769 9.25952 33.3098C8.80437 33.7402 8.68896 33.946 8.5798 34.5216C8.48064 35.0443 8.38459 35.3132 8.14569 35.737C7.79967 36.3508 7.4718 36.6537 6.91693 36.8724C6.60297 36.9961 6.54864 37.0804 6.51985 37.4883C6.49881 37.7859 6.60348 38.4376 6.703 38.6284C6.78309 38.7819 7.01745 38.8188 7.4754 38.7501C8.04783 38.6641 8.2735 38.5666 8.41808 38.3429C8.62636 38.0205 8.79154 37.7852 8.94654 37.5899C9.05096 37.4583 9.14194 37.2457 9.24597 36.8903C9.48799 36.0631 9.67333 35.6925 10.2086 34.965C10.7708 34.201 11.7945 32.991 12.3834 32.3945C13.2271 31.5398 13.6495 31.0916 13.8093 30.8817L13.9737 30.6658L14.1568 30.6925C14.2575 30.7073 14.4122 30.7069 14.5004 30.6917C14.703 30.6569 14.7447 30.7011 14.7152 30.9195C14.6973 31.0515 14.5847 31.2348 14.2521 31.6733C13.5774 32.5626 13.3787 32.9786 13.4528 33.3464C13.5274 33.7155 13.9757 33.945 14.8524 34.0627C15.2457 34.1154 15.3374 34.143 16.0791 34.4321C17.1505 34.8496 17.3782 35.0462 17.3551 35.5348L17.3441 35.7685L17.5227 35.8697C17.6209 35.9254 17.826 36.035 17.9784 36.1134C18.1309 36.1917 18.3335 36.3216 18.4286 36.4021C18.5237 36.4824 18.641 36.5508 18.6892 36.5537C18.8173 36.5618 19.0245 36.392 19.0826 36.2314C19.1514 36.0413 19.0919 35.3372 18.9725 34.9275C18.9191 34.7446 18.8414 34.4544 18.7997 34.2826C18.7431 34.0491 18.6929 33.9379 18.6014 33.8429C18.4631 33.6994 18.3614 33.6682 17.8723 33.6194C17.4811 33.5804 16.9146 33.4628 16.6279 33.3609C16.3411 33.259 16.0092 33.0821 15.9976 33.0252C15.9808 32.9414 16.5466 32.1973 16.9318 31.7966C17.1598 31.5596 17.3825 31.2697 17.529 31.0194C17.7945 30.5657 17.9063 30.474 18.2085 30.4621L18.4166 30.454L18.3445 30.2371C18.3048 30.1179 18.1943 29.89 18.0989 29.7307C17.7487 29.1467 17.6049 28.736 17.4069 27.7562C17.2962 27.2083 17.2354 26.9913 17.1548 26.8572C17.0831 26.7383 17.0427 26.6088 17.0308 26.4612L17.0132 26.2419L16.6202 26.0209C16.2058 25.7881 15.325 25.2347 15.6279 25.3977C16.1764 25.6926 16.1755 25.6938 15.6866 25.3048C15.5457 25.1927 15.3504 25.0022 15.2527 24.8814C15.155 24.7607 15.0027 24.6082 14.9142 24.5426C14.8257 24.477 14.7699 24.4089 14.7901 24.391C14.8752 24.3163 15.8199 24.0487 16.3292 23.9551L16.8794 23.854L16.9761 24.0404C17.1368 24.3499 17.3293 24.5896 17.7056 24.9488C18.0544 25.2817 18.3273 25.6191 18.3537 25.7504C18.3666 25.8144 18.3452 25.8249 18.0843 25.8833C17.9626 25.9105 17.8945 25.8666 17.262 25.3521C16.8828 25.0437 16.5269 24.761 16.4713 24.7239C16.4155 24.6869 16.6658 24.9696 17.0275 25.3522L17.685 26.0478L17.318 26.3034L17.7534 26.2311C18.0518 26.1816 18.1497 26.1763 18.065 26.2144C17.9472 26.2672 17.9499 26.2685 18.1211 26.242C18.2201 26.2266 18.3668 26.2145 18.4472 26.215L18.5932 26.216L18.6447 26.569C18.6801 26.8127 18.6791 26.9371 18.6417 26.9707C18.6119 26.9976 18.3535 27.0643 18.0675 27.1191C17.5956 27.2097 17.5609 27.2216 17.6906 27.2498C17.7691 27.2669 17.9945 27.283 18.1914 27.2855C18.3884 27.2881 18.5599 27.2969 18.5725 27.3052C18.5852 27.3133 18.5097 27.3376 18.4048 27.359C18.2271 27.3952 18.2233 27.3986 18.3508 27.4074C18.4261 27.4127 18.5405 27.4185 18.605 27.4204C18.718 27.4238 18.7227 27.4318 18.7282 27.6279C18.7313 27.7401 18.776 28.1044 18.8274 28.4376C18.8788 28.7709 18.9166 29.0734 18.9115 29.1098C18.9049 29.1558 18.7677 29.0836 18.458 28.8708L18.0139 28.5656L18.3396 28.9569C18.5187 29.1722 18.7616 29.464 18.8795 29.6055C19.0041 29.755 19.1058 29.922 19.1224 30.0045C19.1382 30.0825 19.2291 30.2781 19.3243 30.4392C19.4823 30.7063 19.4928 30.7395 19.444 30.8163C19.4146 30.8627 19.398 30.9989 19.4071 31.119C19.4247 31.3507 19.4204 31.3557 19.1214 31.4485C19.0516 31.4702 19.1125 31.4712 19.2569 31.4508L19.5194 31.4137L19.332 31.4885C19.2289 31.5296 19.0416 31.5749 18.9157 31.5891C18.6575 31.6183 18.6576 31.6652 18.9159 31.6903C19.0153 31.6999 19.1136 31.7415 19.1476 31.7885C19.2038 31.8663 19.2333 31.865 19.7917 31.7601C20.3873 31.6482 20.5643 31.5753 20.5394 31.4518C20.5311 31.4111 20.5736 31.3822 20.6679 31.3642C20.854 31.3288 21.1219 31.1442 21.1861 31.0073C21.2596 30.8504 21.1923 30.5619 21.0642 30.4853C20.9639 30.4251 20.9722 30.4207 21.5222 30.246C22.1505 30.0464 23.2352 29.7923 23.4176 29.802C23.573 29.8102 23.5936 29.9109 23.575 30.5681C23.5541 31.3038 23.4946 31.8431 23.4212 31.9609C23.3856 32.018 23.3291 32.2763 23.2956 32.5351C23.1806 33.4228 23.0732 33.6885 22.6901 34.0334C22.1033 34.5616 21.1314 35.3325 20.7593 35.565C20.1878 35.922 20.0909 36.0225 20.0509 36.2999C20.0027 36.6341 20.1038 37.1166 20.2571 37.2847C20.4114 37.4538 20.7942 37.6013 21.0897 37.6054C21.5248 37.6115 21.6985 37.4784 22.02 36.8923C22.0851 36.7735 22.2155 36.6459 22.4039 36.5165C22.6186 36.3692 22.7613 36.2213 22.9807 35.9185C23.1408 35.6973 23.5179 35.2294 23.8182 34.8788C24.1187 34.5282 24.426 34.1601 24.5012 34.0607C24.7101 33.7844 24.8752 33.3829 24.9567 32.9519C25.1556 31.9021 25.3718 31.1943 25.6394 30.7173C25.7913 30.4465 25.9381 29.9767 25.9397 29.7561C25.9409 29.5948 25.9604 29.5904 26.4934 29.6305C26.7195 29.6475 27.1846 29.6774 27.5268 29.6968C28.6117 29.7586 29.2807 29.9041 29.758 30.1825C29.9724 30.3075 30.0105 30.354 30.2364 30.7673C31.1163 32.3773 31.1433 32.4387 31.053 32.6314C30.9814 32.7843 31.052 33.1362 31.189 33.3086C31.4088 33.5854 31.9648 33.8592 32.2814 33.8466C32.5773 33.8348 32.8895 33.6629 32.9474 33.4797C33.0187 33.2543 32.8755 32.4882 32.7051 32.183C32.6333 32.0543 32.5323 31.8059 32.4807 31.6308C32.3707 31.2581 32.2195 30.9874 32.0466 30.8534C31.8695 30.7163 31.1328 29.8574 30.7177 29.3043C30.5109 29.0286 30.2858 28.7784 30.1772 28.7035C29.959 28.5532 29.3993 28.3318 28.6598 28.1036C27.6503 27.7919 27.4113 27.7147 27.367 27.6864C27.3422 27.6704 27.3589 27.4658 27.4049 27.2229C27.5405 26.5088 27.536 26.414 27.3016 25.0544C27.139 24.1112 27.0827 23.6739 27.0721 23.2703C27.061 22.8467 26.9303 20.9837 26.9018 20.8426C26.8781 20.7254 27.4091 20.8398 27.7697 21.0294C27.9136 21.1051 28.2182 21.2004 28.4901 21.2547C28.8996 21.3365 29.0085 21.3792 29.3231 21.5815C29.7497 21.8558 30.0022 21.9254 30.3343 21.8605C30.9872 21.7328 31.187 21.1619 30.9363 20.1411C30.8058 19.61 30.7522 19.541 30.0586 19.0118C29.7591 18.7833 29.3887 18.458 29.2353 18.289C28.754 17.7584 28.3291 17.3573 27.9655 17.0904C27.7724 16.9486 27.5369 16.7292 27.4423 16.603C27.3475 16.4766 27.1979 16.3198 27.1098 16.2545L26.9497 16.1358L26.9653 15.8992C26.9815 15.6562 26.9139 15.2315 26.834 15.0746C26.7721 14.9529 26.7028 14.9775 26.585 15.1632L26.4847 15.3211L26.6933 15.0682L26.6588 15.182C26.6398 15.2445 26.5673 15.4222 26.4976 15.5768C26.4278 15.7315 26.367 15.8667 26.3622 15.8775C26.3573 15.8882 26.3424 15.8898 26.3289 15.8811C26.3155 15.8724 26.3358 15.7639 26.374 15.64L26.4436 15.4149L26.3605 15.5591C26.3148 15.6384 26.2665 15.6955 26.2533 15.6862C26.24 15.6768 26.1892 15.5345 26.1406 15.3699C26.0428 15.0399 26.0178 14.9989 25.9245 15.0161C25.8431 15.031 25.6462 15.4967 25.5608 15.8764C25.4853 16.2129 25.5084 16.197 24.8902 16.3378C24.6269 16.3976 24.4022 16.4734 24.3108 16.5329C24.1772 16.6202 24.1183 16.6884 24.2014 16.6597C24.3702 16.6015 24.3131 16.6687 24.0889 16.7924C23.9365 16.8764 23.8035 16.9568 23.7934 16.971C23.7834 16.9852 23.9172 16.9612 24.0908 16.9178L24.4063 16.8388L24.2471 16.9412C24.1594 16.9976 23.919 17.2 23.7126 17.391C23.5063 17.582 23.2623 17.7718 23.1705 17.813C23.0386 17.8721 23.0223 17.8904 23.0926 17.9004C23.1629 17.9103 23.135 17.9408 22.9617 18.0447L22.7416 18.1763L22.986 18.1054C23.1205 18.0664 23.2327 18.0461 23.2357 18.0603C23.2385 18.0746 23.14 18.1631 23.0167 18.2572C22.8934 18.3513 22.7667 18.4508 22.735 18.4784C22.7035 18.5059 22.5573 18.6089 22.4101 18.7073C22.1528 18.8794 22.042 18.9945 22.2542 18.8692C22.3108 18.8359 22.4179 18.7895 22.4921 18.7662C22.6961 18.7022 22.8702 18.6211 22.9195 18.5666C22.9438 18.5398 23.0003 18.5186 23.0449 18.5195C23.1083 18.5207 23.0975 18.5431 22.9956 18.6214C22.9238 18.6766 22.789 18.7615 22.6962 18.8101C22.204 19.0675 21.9517 19.2361 21.6001 19.5426C21.4347 19.6867 21.4532 19.6841 21.7636 19.5194C22.0222 19.3821 22.6697 19.0941 22.7446 19.0832C22.8568 19.0666 22.4506 19.3244 22.2181 19.4174C21.8607 19.5602 21.7624 19.644 21.9955 19.6071L22.17 19.5795L21.9513 19.7023C21.831 19.7697 21.7253 19.8353 21.7163 19.848C21.7073 19.8607 21.866 19.8288 22.0692 19.7771C22.2722 19.7253 22.4403 19.6927 22.4426 19.7045C22.445 19.7162 22.312 19.8057 22.1471 19.9033C21.9823 20.0009 21.8701 20.089 21.8978 20.0991C21.9256 20.1092 21.8513 20.1962 21.7326 20.2925C21.6139 20.3888 21.5188 20.4773 21.5213 20.4893C21.5236 20.5012 21.5598 20.4846 21.6016 20.4522C21.6435 20.4198 21.7984 20.3599 21.9459 20.319L22.2142 20.2448L21.9746 20.4167C21.8428 20.5112 21.6333 20.6215 21.509 20.6618C21.3847 20.7021 21.2185 20.772 21.1398 20.8175L20.9967 20.9L21.2225 20.8616C21.3467 20.8404 21.4666 20.842 21.4889 20.8653C21.5114 20.8886 21.5084 20.8997 21.4823 20.8902C21.4344 20.8728 21.0216 21.1352 21.0302 21.1776C21.0328 21.1902 21.1383 21.1692 21.2648 21.131C21.517 21.0546 21.7431 21.0486 21.715 21.1191C21.7051 21.1438 21.6312 21.1762 21.5507 21.191C21.3848 21.2215 20.8876 21.4145 20.7368 21.507C20.66 21.554 20.742 21.5496 21.0891 21.4879C21.3379 21.4437 21.5345 21.4175 21.5259 21.4298C21.5172 21.4419 21.3175 21.4974 21.082 21.553C20.8466 21.6085 20.5891 21.6839 20.5099 21.7203C20.3735 21.7831 20.3797 21.7846 20.6277 21.7469L20.8897 21.7073L20.6019 21.819C20.3287 21.9251 20.307 21.9275 20.1708 21.8682L20.0274 21.8056L20.1712 21.6193C20.4046 21.3167 20.4301 20.9876 20.2455 20.6604C19.9281 20.0979 19.7208 20.0678 19.1107 20.4959L18.8147 20.7035L18.3294 20.6611C18.0625 20.6377 17.7603 20.5873 17.6578 20.5491C17.5554 20.5108 17.4544 20.4827 17.4334 20.4865C17.3947 20.4937 17.2876 19.8697 17.255 19.4467C17.2395 19.2447 17.2534 19.1999 17.3654 19.0934C17.4582 19.0052 17.556 18.96 17.7192 18.9301C17.8875 18.8991 18.008 18.8416 18.1953 18.7029C18.4865 18.4872 18.6002 18.2779 18.5531 18.0442C18.522 17.8904 18.5239 17.8878 18.7398 17.7991C18.8598 17.7498 19.1167 17.6435 19.3108 17.563C19.5048 17.4825 20.0098 17.2755 20.4328 17.1031C20.8557 16.9307 21.6321 16.614 22.158 16.3995C22.6839 16.1849 23.6006 15.8119 24.1954 15.5705C26.4386 14.66 27.9077 14.0504 29.2189 13.4862C30.939 12.746 32.9495 11.9099 33.1088 11.8687C33.2197 11.8399 33.5715 11.7093 33.8906 11.5783C34.5484 11.3086 34.6029 11.2931 34.6188 11.372C34.6267 11.4112 34.893 11.2705 35.4736 10.9203C35.9374 10.6406 36.3283 10.395 36.3421 10.3745C36.3559 10.3539 36.2131 10.3767 36.0249 10.4249C35.8367 10.4732 35.3838 10.5683 35.0185 10.6364C34.3782 10.7557 34.3559 10.7629 34.3978 10.8367C34.4309 10.8948 34.4184 10.9229 34.3457 10.9537C34.1917 11.0193 32.8533 11.5676 31.4864 12.1253C30.789 12.4097 29.4987 12.9388 28.6191 13.3008C27.7394 13.6629 26.3373 14.24 25.5033 14.5832C24.6695 14.9265 23.4457 15.4312 22.784 15.7048C22.1222 15.9784 21.5053 16.2258 21.413 16.2545C21.3206 16.2833 21.0852 16.3738 20.8898 16.4557C20.5072 16.616 19.7133 16.94 18.6841 17.3559C18.3295 17.4993 17.9905 17.6386 17.931 17.6655C17.8324 17.7101 17.8227 17.7048 17.8226 17.6066C17.8224 17.5112 17.8013 17.4973 17.6397 17.4861C17.3544 17.4661 17.087 17.5948 16.8515 17.8653L16.6544 18.0918L16.4308 17.7367C16.3079 17.5414 16.1922 17.3548 16.1738 17.322C16.1495 17.279 16.1978 17.2297 16.3468 17.1453C16.5476 17.0316 17.0904 16.5616 17.1269 16.4698C17.137 16.4447 17.0771 16.2863 16.9938 16.1179C16.9106 15.9495 16.8174 15.6871 16.7867 15.5349C16.7248 15.2283 16.4994 14.7384 16.3187 14.5179C16.1683 14.3344 15.8669 14.1405 15.646 14.0852C15.4258 14.0301 14.8459 14.1127 14.5678 14.2387ZM14.7002 14.4484L14.9667 14.4038C15.4459 14.3237 15.4995 14.3362 15.6896 14.5713C15.8951 14.8255 16.1485 15.271 16.182 15.4367C16.2096 15.5739 16.1516 15.621 15.8153 15.7331C15.636 15.7929 15.6175 15.8085 15.6882 15.8404C15.7647 15.8749 15.7692 15.8957 15.7477 16.1117L15.7245 16.3456L15.6259 16.2606C15.4941 16.147 15.4062 15.9277 15.4571 15.8393C15.479 15.801 15.4834 15.7609 15.4666 15.75C15.4161 15.7173 15.3128 16.0341 15.3379 16.1448C15.3585 16.2364 15.3652 16.2389 15.3972 16.1678C15.4279 16.0997 15.4607 16.1323 15.6154 16.3846C15.7156 16.5481 15.7946 16.6858 15.791 16.6907C15.7874 16.6957 15.5979 16.6782 15.3699 16.6519C14.3995 16.5398 14.1684 16.5512 14.5497 16.6923C14.6676 16.7359 14.7224 16.7656 14.6714 16.758C14.2276 16.6927 13.9262 16.6454 13.9116 16.6387C13.902 16.6342 13.9127 16.5074 13.9354 16.3568C13.9581 16.2062 13.9699 15.8499 13.9617 15.5649C13.9407 14.8408 13.935 14.8556 14.2527 14.7973C14.537 14.7451 15.0944 14.7712 15.2841 14.8457C15.3494 14.8713 15.4231 14.8812 15.4483 14.8677C15.521 14.8287 14.6043 14.6092 14.3949 14.6156L14.2052 14.6213L14.3178 14.5352C14.4889 14.4043 14.7241 14.2972 14.9461 14.2493L15.1462 14.2061L14.7002 14.4484ZM35.2539 10.7288C34.8749 10.8573 34.6971 10.9006 34.619 10.8836C34.391 10.834 34.5555 10.7662 35.1638 10.659L35.7803 10.5504L35.2539 10.7288ZM32.7025 11.7973C32.635 11.831 32.4115 11.9273 32.2057 12.0114C32 12.0954 31.5426 12.2867 31.1892 12.4366C30.2203 12.8476 29.1407 13.2935 28.2779 13.6388C27.6179 13.903 27.1412 14.1005 26.2266 14.4884C26.051 14.563 24.8998 15.0272 24.2711 15.277C24.065 15.3589 23.6714 15.5159 23.3966 15.6257C23.1218 15.7356 22.6628 15.9191 22.3766 16.0335C22.0904 16.1479 21.6436 16.3289 21.3837 16.4356C21.1239 16.5422 20.5337 16.7776 20.0721 16.9587C19.6104 17.1396 19.1858 17.3062 19.1285 17.3288C19.0712 17.3514 19.032 17.3579 19.0415 17.3434C19.0509 17.3288 19.5351 17.1198 20.1175 16.8789C20.7 16.638 21.4372 16.3284 21.756 16.1909C22.4316 15.8996 23.7718 15.3458 24.663 14.9896C25.0065 14.8524 25.689 14.5718 26.1795 14.3664C26.6701 14.1609 27.3898 13.865 27.779 13.7088C28.1682 13.5526 28.6082 13.3754 28.7569 13.315C28.9055 13.2546 29.2989 13.097 29.631 12.9647C29.9632 12.8326 30.5626 12.5925 30.9632 12.4313C32.294 11.8955 33.0766 11.6102 32.7025 11.7973ZM14.3232 15.4678C14.4105 15.5214 15.3505 15.4587 15.2673 15.4049C15.2321 15.3822 14.5189 15.393 14.3807 15.4184C14.3158 15.4302 14.2935 15.4495 14.3232 15.4678ZM16.1128 15.8989C16.1092 15.9609 16.0869 16.1051 16.0632 16.2196L16.0202 16.4276L15.9738 15.9635L15.8973 16.4502L15.8676 16.1764C15.8512 16.0258 15.8434 15.887 15.8502 15.868C15.8569 15.849 15.9202 15.8229 15.9908 15.81C16.1074 15.7886 16.1187 15.7968 16.1128 15.8989ZM16.2181 16.1603L16.1789 16.3125L16.1633 16.1058C16.1418 15.823 16.1673 15.7179 16.2178 15.8811C16.2395 15.951 16.2396 16.0766 16.2181 16.1603ZM14.23 16.7999C14.6031 16.8604 15.0379 16.9702 15.1013 17.0198C15.1295 17.0421 15.1756 17.1074 15.2038 17.165C15.2536 17.2671 15.2509 17.2697 15.0992 17.2652C15.0134 17.2625 14.7953 17.2181 14.6142 17.1665C14.4331 17.1148 14.1419 17.041 13.9671 17.0024C13.7205 16.948 13.6453 16.9128 13.6316 16.8453C13.616 16.7675 13.6318 16.7582 13.7825 16.7566C13.8751 16.7555 14.0764 16.7751 14.23 16.7999ZM13.9821 17.2426C14.2614 17.3622 14.5839 17.6281 14.6887 17.8253C14.7234 17.8906 14.7481 17.9492 14.7436 17.9554C14.7392 17.9617 14.6564 17.9465 14.5599 17.9217C14.4089 17.8829 13.9176 17.8667 13.7612 17.8955C13.6541 17.9152 13.7327 17.9812 13.8672 17.9846C14.0084 17.9881 14.3491 18.0863 14.3273 18.1171C14.3209 18.1261 14.1628 18.1241 13.9758 18.1127C13.4963 18.0833 13.1047 18.1626 12.7589 18.359C12.605 18.4463 12.4582 18.5216 12.4327 18.5263C12.4031 18.5317 12.3804 18.4638 12.3702 18.3395C12.351 18.106 12.478 17.8177 12.6707 17.6572L12.8055 17.5449L12.6747 17.7138C12.556 17.8672 12.4774 18.0369 12.4919 18.1088C12.495 18.124 12.562 18.0337 12.6407 17.9081C12.7772 17.6905 13.0323 17.477 13.4253 17.2514C13.6554 17.1192 13.6926 17.1186 13.9821 17.2426ZM14.9976 17.4395C15.0959 17.4599 15.2356 17.4776 15.3081 17.479C15.4237 17.4813 15.4592 17.5145 15.599 17.7499C15.6865 17.8973 15.7687 18.0751 15.7817 18.1449L15.8053 18.2719L15.7206 18.1586C15.6369 18.0465 15.6365 18.0479 15.6807 18.2851C15.7198 18.4944 15.7139 18.5317 15.6349 18.5775C15.4711 18.6725 14.9826 18.8474 14.9464 18.8241C14.927 18.8114 14.9388 18.6963 14.9728 18.5681C15.0664 18.2144 14.9822 17.8621 14.7293 17.5488C14.6224 17.4166 14.5335 17.3011 14.5318 17.2922C14.53 17.2833 14.5938 17.3045 14.6736 17.3393C14.7535 17.3742 14.8993 17.4192 14.9976 17.4395ZM25.8611 15.4467C25.7839 15.833 25.6139 16.2454 25.587 16.1121C25.5627 15.9915 25.8158 15.2509 25.8856 15.2381C25.8955 15.2363 25.8844 15.3302 25.8611 15.4467ZM13.6556 18.3014C13.5575 18.3467 13.5601 18.3492 13.7113 18.3541C13.7985 18.3569 13.9779 18.383 14.1101 18.4119C14.3476 18.4639 14.3513 18.4671 14.425 18.6815C14.4659 18.8009 14.5328 18.9569 14.5736 19.0282C14.6394 19.1431 14.6383 19.1727 14.5641 19.2878C14.5181 19.3593 14.4507 19.4829 14.4145 19.5626C14.3417 19.7226 14.245 20.2078 14.2813 20.2313C14.2939 20.2394 14.3632 20.1205 14.4353 19.9669C14.571 19.6778 14.806 19.3794 14.9134 19.3596C15.0085 19.3421 15.1867 19.6033 15.2654 19.8751C15.3259 20.0841 15.3255 20.1433 15.2631 20.2809C15.1591 20.5101 14.8665 20.7901 14.6631 20.8552L14.4916 20.9101L14.6291 20.9645C14.7757 21.0225 14.7179 21.0598 14.5559 21.0117C14.4435 20.9784 14.2896 20.7735 14.2575 20.6146C14.2439 20.547 14.1646 20.4536 14.0525 20.3729C13.8182 20.2042 13.547 19.8683 13.3708 19.5283C13.2147 19.227 13.0534 18.5899 13.0984 18.4517C13.1305 18.3531 13.2895 18.2928 13.5815 18.2686C13.7351 18.2559 13.745 18.2603 13.6556 18.3014ZM13.0246 18.8151C13.0643 19.0264 13.13 19.285 13.1705 19.3898C13.2199 19.5172 13.2292 19.5831 13.1983 19.5888C13.173 19.5934 13.1437 19.555 13.1333 19.5034C13.1229 19.4518 13.0583 19.3436 12.9896 19.263C12.9211 19.1823 12.8298 19.0169 12.787 18.8956C12.7153 18.6925 12.7161 18.6657 12.7982 18.5588C12.8473 18.495 12.902 18.4401 12.9199 18.4368C12.9377 18.4335 12.9848 18.6038 13.0246 18.8151ZM17.4517 17.7559C17.139 17.9926 17.1188 18.15 17.3828 18.2934L17.5155 18.3655L17.4074 18.3869C17.3082 18.4066 17.3065 18.4118 17.3863 18.4494C17.5106 18.5082 17.5031 18.5226 17.2978 18.6205C17.0959 18.7168 17.0384 18.7078 16.7511 18.5351C16.5995 18.4438 16.5877 18.4833 16.7136 18.6615L16.7929 18.7738L16.4577 19.0201C16.171 19.2309 16.114 19.2588 16.0626 19.2138C16.0137 19.1707 15.9986 19.1921 15.9799 19.3299C15.966 19.4326 15.9135 19.5354 15.846 19.5924C15.7221 19.697 15.7211 19.6959 15.6759 19.4129C15.6649 19.344 15.6307 19.2632 15.6 19.2334C15.559 19.1938 15.5552 19.2357 15.586 19.3907C15.6373 19.6492 15.609 19.8641 15.514 19.9377C15.4087 20.0192 15.41 20.0206 15.3263 19.7456C15.2838 19.6058 15.2146 19.3874 15.1727 19.2603C15.0993 19.0376 15.1004 19.0278 15.2009 18.983C15.2583 18.9574 15.3455 18.9485 15.3947 18.9631C15.454 18.9807 15.5073 18.971 15.5528 18.9344C15.6008 18.8958 15.6825 18.8872 15.8248 18.9061C16.021 18.9323 16.0354 18.9279 16.2265 18.7845C16.3354 18.7028 16.5633 18.4608 16.7326 18.2467C17.0866 17.7997 17.2182 17.6916 17.4607 17.6484L17.6346 17.6175L17.4517 17.7559ZM13.7524 18.7565C13.8085 19.0559 14.108 19.6365 14.1979 19.62C14.2853 19.604 14.0431 19.0045 13.8394 18.7325L13.7174 18.5695L13.7524 18.7565ZM24.2614 17.2962C23.9829 17.5795 23.7191 18.1705 23.2151 19.6391C23.0149 20.2225 22.8288 20.6712 22.6794 20.9299C22.5536 21.148 22.441 21.3282 22.4292 21.3303C22.4174 21.3325 22.5319 21.0553 22.6835 20.7143C22.9631 20.0857 23.0493 19.8626 23.2108 19.3498C23.3544 18.8937 23.7118 17.9957 23.8396 17.7696C23.9657 17.5467 24.2919 17.1638 24.3674 17.1499C24.3928 17.1452 24.345 17.2111 24.2614 17.2962ZM27.6951 17.2341C28.1321 17.5292 28.4664 17.8167 28.6931 18.0922C28.7932 18.2138 28.9957 18.4377 29.143 18.5896C29.5138 18.9719 29.5299 18.9937 29.3393 18.8576C29.1882 18.7496 28.3489 17.9626 28.2857 17.8695C28.2492 17.816 28.0178 17.6136 27.7575 17.4079C27.4834 17.1912 27.2424 16.9595 27.2329 16.9035C27.2289 16.8801 27.2554 16.8938 27.2919 16.9338C27.3284 16.9738 27.5097 17.1088 27.6951 17.2341ZM17.1472 19.1043C17.0518 19.183 16.8326 19.3512 16.6602 19.4778C16.3736 19.6884 16.0006 19.9862 15.6818 20.2589C15.6131 20.3176 15.5551 20.356 15.5528 20.3441C15.5434 20.2978 16.2632 19.6517 16.5985 19.4054C17.1195 19.0226 17.4991 18.8143 17.1472 19.1043ZM12.9983 19.8372C12.8916 19.9025 12.4908 20.0349 12.5179 19.9959C12.5422 19.961 12.8621 19.8329 12.9919 19.806L13.0784 19.7882L12.9983 19.8372ZM13.601 20.1267C13.6659 20.215 13.7985 20.3552 13.8957 20.4382C13.9929 20.5212 14.0809 20.6309 14.0914 20.682C14.1305 20.8731 14.2764 21.0871 14.4308 21.1798C14.5649 21.2602 14.6158 21.2674 14.7501 21.2244C14.8391 21.1959 14.993 21.0894 15.097 20.9843C15.2 20.8805 15.3085 20.7911 15.3383 20.7859C15.3682 20.7807 15.5035 20.8029 15.639 20.8354C15.8295 20.881 15.8972 20.9199 15.9362 21.006C15.9639 21.0674 15.9952 21.1352 16.0056 21.1568C16.016 21.1784 16.2305 21.2215 16.4821 21.2525C16.7729 21.2885 16.875 21.3134 16.7623 21.321C16.518 21.3374 15.0758 21.486 14.6465 21.539C14.2226 21.5913 14.3035 21.6331 14.7874 21.6118C14.9788 21.6033 15.2044 21.6175 15.2887 21.6434L15.442 21.6903L15.0557 21.7827C14.6809 21.8725 14.6764 21.8748 14.9051 21.8623C15.6171 21.8234 15.9412 21.8438 16.1421 21.9401C16.2907 22.0113 16.3504 22.0669 16.3671 22.1496C16.3987 22.3064 16.493 22.3537 16.7909 22.3622C16.9325 22.3663 17.042 22.3785 17.0343 22.3895C17.0266 22.4004 16.8029 22.4288 16.5374 22.4524C16.2717 22.476 15.6425 22.558 15.139 22.6344L14.2235 22.7735L14.1487 22.5972C14.0454 22.3538 14.0802 21.6182 14.1961 21.5969C14.2178 21.593 14.1829 21.5417 14.1185 21.4831C13.9015 21.2855 13.6315 20.8784 13.4641 20.4962C13.2849 20.0871 13.2749 20.0044 13.4015 19.9812C13.4555 19.9713 13.5229 20.0204 13.601 20.1267ZM17.1885 20.2288C17.3049 20.8693 17.3632 21.0529 17.3768 20.8212C17.3803 20.7604 17.3995 20.7076 17.4196 20.7039C17.4396 20.7002 17.5823 20.7318 17.7366 20.774C17.891 20.8162 18.0466 20.8461 18.0826 20.8404C18.1185 20.8347 18.3167 20.8441 18.5229 20.8616L18.8979 20.8931L19.059 20.7617C19.202 20.6452 19.2399 20.6322 19.3943 20.6472C19.5127 20.6586 19.6052 20.6438 19.6835 20.6008C19.945 20.4575 20.004 20.5942 19.7804 20.825C19.6179 20.9928 19.405 21.0683 19.295 20.9971C19.2496 20.9678 19.2222 20.9733 19.1819 21.0201C19.1385 21.0706 19.1187 21.0656 19.0737 20.9931C19.0294 20.9216 19.0234 20.9497 19.0425 21.1362L19.0665 21.3681L18.7079 21.4211C18.5107 21.4502 18.2603 21.4642 18.1518 21.4523L17.9543 21.4306L18.472 21.3208L18.1972 21.2849C18.0461 21.2652 17.8776 21.2299 17.8227 21.2064C17.6807 21.1458 17.5911 21.1696 17.65 21.2524C17.676 21.2889 17.7372 21.4558 17.7859 21.6231C17.891 21.9841 17.886 21.9823 18.5033 21.8755C19.037 21.7832 19.18 21.837 19.4677 22.238C19.5795 22.394 19.7259 22.581 19.793 22.6536C19.8601 22.7261 19.9158 22.7893 19.9167 22.7938C19.9176 22.7983 19.8293 22.8116 19.7205 22.8231C19.5353 22.8427 19.5127 22.8585 19.3702 23.0659C19.2863 23.1879 19.1608 23.3306 19.0911 23.383C18.9407 23.4961 18.3629 23.6574 18.3088 23.6012C18.2887 23.5805 18.211 23.3788 18.136 23.1533C18.01 22.7738 17.9975 22.7525 17.9687 22.8683C17.9427 22.9734 17.914 22.8694 17.7906 22.2225L17.6435 21.4514L17.4185 21.1735C17.2948 21.0208 17.1821 20.8399 17.1682 20.7715C17.1275 20.5702 17.0285 19.5726 17.049 19.5688C17.0594 19.5669 17.1221 19.8639 17.1885 20.2288ZM21.6834 20.1782C21.652 20.2069 21.646 20.2268 21.6698 20.2224C21.6937 20.2181 21.7389 20.191 21.7702 20.1623C21.8015 20.1337 21.8076 20.1138 21.7837 20.1182C21.7599 20.1226 21.7147 20.1497 21.6834 20.1782ZM21.6636 20.8094C21.652 20.8259 21.6149 20.8342 21.5812 20.828C21.5438 20.8211 21.5521 20.8094 21.6024 20.7982C21.6477 20.788 21.6753 20.7931 21.6636 20.8094ZM30.2621 19.4722C30.5459 19.7207 30.5965 19.8178 30.7079 20.3262C30.815 20.8152 30.8035 21.1368 30.6714 21.3515C30.5733 21.5108 30.561 21.4774 30.5839 21.1152C30.6103 20.6983 30.4772 20.2493 30.2353 19.9391C30.0463 19.6969 29.9101 19.3113 30.0072 19.2935C30.0303 19.2893 30.1449 19.3697 30.2621 19.4722ZM14.9398 22.8138C15.205 22.8038 15.4995 22.8077 15.594 22.8225L15.766 22.8493L15.1617 22.9765L15.4075 22.9682C15.9811 22.949 16.4429 22.9595 16.5179 22.9934C16.5656 23.0148 16.6145 23.0955 16.638 23.1914L16.6775 23.3532L17.2667 23.3746L16.9867 23.4358C16.2264 23.6019 15.2257 23.9377 14.7221 24.1956C14.6047 24.2558 14.4911 24.2937 14.4697 24.2798C14.4082 24.24 14.2735 23.4783 14.2776 23.1933C14.2827 22.8334 14.2869 22.8178 14.3773 22.8253C14.4215 22.8289 14.6746 22.8238 14.9398 22.8138ZM21.0968 21.7306C21.0986 21.7393 21.061 21.7536 21.0133 21.7624C20.9656 21.7711 20.9231 21.7614 20.919 21.7408C20.9147 21.7201 20.9523 21.7058 21.0025 21.709C21.0526 21.7121 21.0951 21.7219 21.0968 21.7306ZM20.2254 22.3175C20.2265 22.3224 20.189 22.3439 20.1423 22.3653C20.0786 22.3944 20.0299 22.3751 19.9469 22.2881C19.782 22.1148 19.8009 22.0949 20.0232 22.2073C20.1335 22.263 20.2245 22.3126 20.2254 22.3175ZM20.726 22.0257C20.7865 22.0363 20.8016 22.0543 20.7719 22.0805C20.7475 22.102 20.6677 22.1014 20.5946 22.0792C20.4855 22.0463 20.4773 22.0364 20.5488 22.0244C20.5966 22.0163 20.6764 22.0169 20.726 22.0257ZM26.7102 21.9002C26.7686 22.4315 26.8196 23.0299 26.8235 23.2301C26.8348 23.8162 26.9051 24.4259 27.0367 25.0772C27.1855 25.815 27.2329 26.5566 27.1556 26.9397C27.1242 27.0952 27.0917 27.2179 27.0832 27.2125C27.0747 27.207 27.0849 27.0351 27.106 26.8305C27.1408 26.4917 27.1269 26.3558 26.9509 25.3122C26.7343 24.0271 26.7141 23.8553 26.7019 23.188C26.6971 22.9289 26.6666 22.3834 26.6341 21.9758C26.5665 21.1308 26.5557 20.9031 26.584 20.9214C26.5949 20.9286 26.6517 21.369 26.7102 21.9002ZM20.3135 22.4096C20.3341 22.431 20.379 22.4318 20.4134 22.4115C20.4476 22.3911 20.5504 22.3838 20.6417 22.3953L20.8078 22.4161L20.413 22.6894L20.2685 22.5862C20.1889 22.5295 20.1202 22.4647 20.1157 22.4423C20.1046 22.3873 20.2663 22.3605 20.3135 22.4096ZM20.789 22.769C20.6527 22.9256 20.656 22.9249 20.5073 22.8222L20.3845 22.7373L20.8986 22.6433L20.789 22.769ZM20.2441 23.0109C20.3253 23.0606 20.4328 23.1507 20.483 23.211C20.5972 23.3483 20.6757 23.7614 20.6211 23.9382C20.5508 24.1658 20.2889 24.478 19.9727 24.7109C19.6292 24.964 19.5189 24.9919 19.8041 24.7537C20.0504 24.5476 20.3909 24.0863 20.4567 23.8691C20.5612 23.5243 20.3475 23.1333 19.9803 22.9975L19.7857 22.9256L19.9411 22.9231C20.0266 22.9218 20.163 22.9613 20.2441 23.0109ZM14.0681 24.8248C14.1529 24.87 14.3068 25.0069 14.4103 25.1291C14.7241 25.4997 14.9583 25.6445 15.3684 25.7211L15.7293 25.7885L15.5011 25.8093C15.1508 25.841 14.7565 25.7125 14.3868 25.4462L14.0684 25.2168L13.8421 25.5057C13.4862 25.9604 12.9446 26.4821 12.3179 26.9741C10.9283 28.065 10.7938 28.3565 10.8811 30.0862C10.9752 31.9506 10.7835 32.6381 9.95203 33.4166C9.49979 33.8402 9.3986 34.0321 9.24054 34.7664C9.14658 35.2031 8.92836 35.7161 8.70513 36.025C8.54631 36.2448 7.99266 36.702 7.85457 36.7274C7.80802 36.7359 7.81013 36.7604 7.86451 36.8437C7.99061 37.0367 8.13488 37.668 8.09304 37.8438L8.05559 38.001L7.99929 37.7401C7.94822 37.5037 7.84034 37.2656 7.64849 36.9663C7.59187 36.8779 7.56104 36.8659 7.48198 36.901C7.31119 36.977 7.37007 36.9139 7.67856 36.6904C8.06268 36.4121 8.27989 36.1701 8.48749 35.7891C8.69126 35.4152 8.74235 35.2474 8.83084 34.6621C8.92428 34.0441 9.02034 33.863 9.4868 33.4258C9.84319 33.0915 9.98742 32.8776 10.1249 32.4784C10.2452 32.1293 10.3749 31.2319 10.3691 30.7885C10.3672 30.6481 10.3378 30.2402 10.3036 29.8821C10.1949 28.7424 10.2164 28.1519 10.3811 27.7524C10.5825 27.2636 11.0279 26.7 11.8619 25.878C12.4739 25.2751 13.089 24.9015 13.6467 24.7941C13.8726 24.7506 13.9378 24.7553 14.0681 24.8248ZM9.11728 26.1594C8.29379 26.6112 7.62038 27.2476 7.40303 27.7794C7.34738 27.9156 7.2724 28.2465 7.23636 28.5147C7.13799 29.2482 6.91749 29.6727 6.23136 30.4497L5.93856 30.7812L6.27334 30.313C6.81991 29.5486 7.01458 29.0955 7.11195 28.3609C7.13886 28.1578 7.20019 27.8923 7.24824 27.7708C7.37748 27.4441 7.81848 26.9455 8.27769 26.607C8.50014 26.4429 9.33454 25.9776 9.44182 25.9577C9.47758 25.951 9.33159 26.0418 9.11728 26.1594ZM20.9414 24.3821C20.8886 24.5482 20.5241 25.0437 20.3712 25.1573C20.1483 25.3227 19.6716 25.5821 19.5918 25.5813C19.5456 25.5808 19.6061 25.5303 19.7352 25.4615C20.1887 25.22 20.3863 25.0464 20.6715 24.6388C20.8251 24.4193 20.958 24.2424 20.9667 24.2459C20.9755 24.2495 20.964 24.3107 20.9414 24.3821ZM8.95647 26.9153C8.94821 26.9254 8.8971 26.9649 8.84293 27.003C8.75005 27.0683 8.7485 27.0676 8.81562 26.9923C8.87406 26.9268 9.00595 26.8546 8.95647 26.9153ZM14.4337 26.0782C14.8045 26.249 15.3659 26.3529 15.8518 26.3405C15.9565 26.338 16.093 26.3627 16.1554 26.3957C16.2688 26.4556 16.2688 26.4556 15.9934 26.5076C15.4773 26.6051 14.9728 26.5231 14.5363 26.2706C14.3393 26.1567 14.1916 26.0236 14.2502 26.0129C14.2666 26.0099 14.3493 26.0392 14.4337 26.0782ZM24.2785 24.5321C24.5407 24.5842 25.1694 25.0448 25.6716 25.5524C26.0654 25.9504 26.3843 26.5554 26.3035 26.751C26.2692 26.8339 25.9737 26.527 25.523 25.9403C25.1065 25.3981 25.0066 25.3064 24.6639 25.1506C24.3655 25.015 24.0608 24.9787 23.6192 25.0261C23.2029 25.0707 23.0923 25.0339 23.1977 24.8855C23.3584 24.6592 23.9486 24.4663 24.2785 24.5321ZM7.57536 28.464C7.54234 28.8067 7.45951 29.1753 7.3521 29.4574C7.25819 29.704 6.77039 30.4381 6.69074 30.4527C6.67004 30.4565 6.74695 30.3139 6.86163 30.1358C6.97637 29.9577 7.06637 29.7928 7.06165 29.7694C7.05692 29.746 7.0748 29.6924 7.10133 29.6502C7.21138 29.4754 7.38292 28.895 7.42627 28.5508C7.48263 28.1037 7.49178 28.0757 7.55035 28.1706C7.57569 28.2116 7.58695 28.3437 7.57536 28.464ZM6.52846 28.6361C6.4642 28.7181 6.39195 28.7888 6.36792 28.7932C6.30116 28.8055 6.41263 28.5779 6.49111 28.5418C6.63541 28.4754 6.64181 28.4914 6.52846 28.6361ZM17.382 26.5872C17.3524 26.6617 17.4913 26.6684 17.9319 26.6138C18.1973 26.581 18.3349 26.5488 18.3293 26.5209C18.3171 26.4607 18.1691 26.4554 17.758 26.5003C17.5306 26.5251 17.3942 26.5567 17.382 26.5872ZM5.21183 30.7101C5.19897 30.7282 5.1941 30.771 5.201 30.8052C5.21617 30.8803 5.26346 30.8242 5.25934 30.736C5.25607 30.6665 5.24646 30.6613 5.21183 30.7101ZM24.5714 28.4738C25.0332 28.7938 25.4843 28.9473 26.214 29.0322C26.5613 29.0727 27.0985 29.1003 27.4079 29.0936C28.1561 29.0774 28.8183 29.1099 29.1292 29.1783C29.5398 29.2686 29.9603 29.516 30.2095 29.8137C30.477 30.1335 30.7811 30.6107 31.0139 31.0756C31.2442 31.536 31.2869 31.599 31.622 31.9728C31.7771 32.1458 31.9279 32.343 31.9574 32.411C32.0132 32.5402 32.2008 32.6695 32.4034 32.7183C32.6535 32.7786 32.2058 32.8155 31.9083 32.7592C31.7501 32.7292 31.6149 32.7126 31.608 32.7223C31.6011 32.732 31.6921 32.7958 31.8101 32.8641L32.0245 32.9881L31.9846 33.2327C31.9627 33.3671 31.9251 33.4877 31.9011 33.5005C31.776 33.5676 31.2231 33.1119 31.1819 32.9078C31.169 32.8439 31.1842 32.6999 31.2157 32.5877C31.2696 32.3953 31.2664 32.368 31.1594 32.1134C31.0969 31.9648 30.816 31.4504 30.5351 30.9703C29.9573 29.9826 29.9169 29.9416 29.2999 29.7142C28.7861 29.5249 28.3856 29.4585 27.4611 29.4093C26.1767 29.3409 25.8254 29.3043 25.462 29.2016C24.8976 29.042 24.2916 28.5839 24.0831 28.1595C24.0368 28.0652 24.0402 28.0656 24.1585 28.1671C24.2265 28.2255 24.4123 28.3635 24.5714 28.4738ZM18.3755 29.6379C18.4338 29.931 18.7227 30.6349 18.8071 30.6895C18.8787 30.7358 18.7095 30.1185 18.5533 29.7633C18.375 29.3581 18.3108 29.3127 18.3755 29.6379ZM15.039 31.1791C15.0902 31.4223 15.0263 31.5671 14.6488 32.0623C14.1873 32.6675 14.0782 32.8778 14.1194 33.0818C14.1725 33.3454 14.5058 33.4968 16.1667 34.0119C16.8726 34.2308 17.2916 34.4271 17.4268 34.6022C17.5139 34.715 17.5678 34.7344 17.8979 34.7708C18.1028 34.7934 18.3582 34.8449 18.4653 34.8853L18.6601 34.9586L18.5037 34.9643C18.2166 34.9747 17.7245 35.0016 17.6768 35.0095C17.6463 35.0145 17.6531 35.0999 17.6962 35.2521C17.7503 35.4431 17.8075 35.5311 18.0023 35.7232C18.4898 36.2041 18.4943 36.2382 18.0344 35.9708C17.805 35.8376 17.5778 35.7223 17.5294 35.7145C17.4539 35.7026 17.439 35.6709 17.4255 35.4937C17.4006 35.1663 17.2252 34.8825 16.9325 34.6961C16.7112 34.5552 16.0698 34.2726 16.0003 34.2854C15.9847 34.2883 15.7913 34.2258 15.5708 34.1464C15.3502 34.0672 14.9769 33.9708 14.7412 33.9322C14.1337 33.8326 13.8864 33.7571 13.6887 33.6106C13.5352 33.4968 13.5154 33.4634 13.5103 33.3106C13.5017 33.054 13.7192 32.6485 14.2615 31.9103C14.7261 31.2777 14.8324 31.0657 14.7963 30.8447C14.7723 30.698 15.0051 31.0188 15.039 31.1791ZM5.62529 32.6036C5.61844 32.6404 5.60517 32.6718 5.59579 32.6735C5.58642 32.6752 5.57309 32.6486 5.5662 32.6145C5.5593 32.5803 5.57257 32.5488 5.59569 32.5446C5.61877 32.5404 5.6321 32.5669 5.62529 32.6036ZM6.0461 32.5585C6.03732 32.5661 5.98552 32.6273 5.93107 32.6945C5.87662 32.7619 5.82788 32.7964 5.82281 32.7713C5.80912 32.7034 5.9136 32.5721 5.99286 32.5575C6.03091 32.5506 6.05489 32.551 6.0461 32.5585ZM18.3581 30.5905C18.3379 30.6275 18.3221 30.7094 18.323 30.7727C18.3242 30.8678 18.372 30.9181 18.5994 31.0631C18.9099 31.2613 19.0306 31.2391 18.7294 31.0392C18.5804 30.9404 18.5183 30.8648 18.4648 30.7168C18.4098 30.565 18.3869 30.5379 18.3581 30.5905ZM23.8448 29.9959C24.0608 30.3826 24.1757 30.9954 24.1551 31.6489C24.1099 33.0776 23.9114 33.568 23.1052 34.2436C21.8331 35.3093 20.9463 36.0807 20.8224 36.2293C20.7104 36.3634 20.6902 36.4174 20.7275 36.483C20.7926 36.5978 21.0196 36.798 21.2089 36.9078C21.3206 36.9726 21.3396 36.9952 21.2739 36.9856C21.1441 36.9665 20.9163 36.8716 20.7259 36.7574L20.5642 36.6605L20.5606 36.902C20.5586 37.0348 20.5492 37.145 20.5395 37.1467C20.5299 37.1485 20.478 37.0967 20.4242 37.0315C20.307 36.8895 20.2118 36.4786 20.2429 36.2487C20.2658 36.0787 20.3166 36.0332 21.0089 35.5612C21.7694 35.0426 23.0394 33.9647 23.2136 33.6899C23.3518 33.4719 23.4241 33.2127 23.5116 32.6224C23.6327 31.8048 23.7249 30.0883 23.6646 29.7726C23.6468 29.679 23.7152 29.764 23.8448 29.9959ZM19.1041 30.9233C18.9409 31.1574 18.9381 31.1675 19.0471 31.1384C19.11 31.1216 19.1994 31.0661 19.2458 31.0151C19.3023 30.953 19.3068 30.9355 19.2595 30.962C19.1635 31.0157 19.1599 30.9595 19.2504 30.8229C19.2915 30.7608 19.3139 30.7026 19.3002 30.6938C19.2866 30.685 19.1983 30.7883 19.1041 30.9233ZM19.6864 31.2233C19.7353 31.5704 19.7342 31.6147 19.6799 31.4823C19.5864 31.2542 19.5609 31.1011 19.5886 30.9338C19.6019 30.8535 19.616 30.7915 19.6199 30.7961C19.624 30.8007 19.6538 30.9929 19.6864 31.2233ZM18.3792 31.2092C18.3911 31.257 18.4034 31.2649 18.4106 31.2294C18.417 31.1972 18.4083 31.1617 18.391 31.1506C18.3739 31.1396 18.3686 31.1659 18.3792 31.2092ZM19.964 30.9016C20.1561 30.9306 20.1645 30.9638 20.0024 31.0536C19.82 31.1546 19.8039 31.1518 19.776 31.0135C19.7476 30.8726 19.7526 30.8697 19.964 30.9016ZM6.88589 37.7179C6.95796 37.9738 6.97777 38.1225 6.95896 38.267C6.94473 38.3759 6.92595 38.4422 6.9172 38.4143C6.89401 38.3402 6.69502 37.3479 6.67623 37.2124C6.66114 37.104 6.66395 37.1052 6.72363 37.2321C6.75849 37.3063 6.8315 37.5249 6.88589 37.7179Z" fill="#E5D2A5"/>
</svg>
