<svg width="32" height="32" viewBox="0 0 32 32" fill="none" xmlns="http://www.w3.org/2000/svg">
<rect width="32" height="32" rx="5" fill="#AB090D"/>
<path d="M22.2668 20.3987L18.8668 16.9987L18.4002 17.4654L17.7335 16.7987C18.3335 15.9987 18.6668 15.0654 18.6668 13.9987C18.6668 11.3987 16.6002 9.33203 14.0002 9.33203C11.4002 9.33203 9.3335 11.3987 9.3335 13.9987C9.3335 16.5987 11.4002 18.6654 14.0002 18.6654C15.0668 18.6654 16.0002 18.332 16.8002 17.732L17.4668 18.3987L17.0002 18.8654L20.4002 22.2654C20.9335 22.7987 21.7335 22.7987 22.2668 22.2654C22.8002 21.732 22.8002 20.932 22.2668 20.3987ZM14.0002 17.332C12.1335 17.332 10.6668 15.8654 10.6668 13.9987C10.6668 12.132 12.1335 10.6654 14.0002 10.6654C15.8668 10.6654 17.3335 12.132 17.3335 13.9987C17.3335 15.8654 15.8668 17.332 14.0002 17.332Z" fill="white"/>
</svg>
