<svg width="26" height="18" viewBox="0 0 26 18" fill="none" xmlns="http://www.w3.org/2000/svg">
<path d="M25.7915 1.25474C25.7661 1.20863 25.7378 1.1642 25.7068 1.12171L17.8887 7.57334L25.6403 16.5161C25.8732 16.2067 25.9994 15.8301 26.0001 15.4429V2.09218C26.0003 1.80015 25.9286 1.51255 25.7915 1.25474Z" fill="#AB090D"/>
<path d="M0.302326 1.12171C0.271301 1.1642 0.243026 1.20863 0.217674 1.25474C0.0773672 1.51174 0.00260199 1.79938 0 2.09218V15.4429C0.000653958 15.8301 0.126892 16.2067 0.359767 16.5161L8.1114 7.57334L0.302326 1.12171Z" fill="#AB090D"/>
<path d="M12.9998 9.77427C13.5178 9.77299 14.0191 9.59125 14.4177 9.26032L25.0293 0.492878C24.7752 0.365094 24.4944 0.299797 24.21 0.302413H1.78952C1.50416 0.303539 1.22322 0.372996 0.970215 0.504971L11.5818 9.27241C11.9823 9.59855 12.4833 9.77589 12.9998 9.77427Z" fill="#AB090D"/>
<path d="M14.9954 9.97683C14.4345 10.4419 13.7287 10.6965 13.0001 10.6965C12.2714 10.6965 11.5656 10.4419 11.0047 9.97683L8.80985 8.16288L1.07031 17.0815C1.29706 17.1813 1.54211 17.2328 1.78985 17.2326H24.2103C24.4581 17.2328 24.7031 17.1813 24.9298 17.0815L17.1903 8.16288L14.9954 9.97683Z" fill="#AB090D"/>
</svg>
