<svg width="25" height="29" viewBox="0 0 25 29" fill="none" xmlns="http://www.w3.org/2000/svg">
<g clip-path="url(#clip0_929_1674)">
<path fill-rule="evenodd" clip-rule="evenodd" d="M11.5385 0.638125C10.7694 1.38652 9.37076 2.39129 8.18038 3.05047C6.12538 4.18836 4.23746 4.68561 1.48815 4.81289C-0.233954 4.89265 -0.124275 4.81088 0.176143 5.78995C0.37857 6.44975 0.457443 6.7777 0.715804 8.03255C0.854869 8.7079 0.88819 9.70725 0.892119 13.3192C0.894744 15.7689 0.944011 17.977 1.00158 18.2263C1.05926 18.4755 1.15332 18.9201 1.21067 19.2143C1.51426 20.7708 2.35204 22.3022 3.44054 23.2902C4.39008 24.1522 5.41073 24.8522 7.715 26.2222C8.87777 26.9134 11.5346 28.5297 12.1994 28.9502C12.3045 29.0166 12.4109 29.0166 12.5155 28.9502C13.016 28.6325 15.6655 27.0066 16.1267 26.7343C20.706 24.03 21.7963 23.1393 22.7041 21.36C23.161 20.4646 23.3229 19.9456 23.619 18.4277C23.8142 17.4267 23.8443 16.8712 23.8411 14.3331C23.839 12.718 23.8078 11.2881 23.7717 11.1555C23.676 10.8041 23.9048 8.2308 24.1099 7.3508C24.3254 6.4266 24.5718 5.56915 24.7149 5.246C24.7842 5.0893 24.7845 4.96958 24.7157 4.90614C24.6572 4.85227 24.1264 4.81541 23.5361 4.82407C22.0784 4.84562 19.9111 4.49539 18.8412 4.06541C18.652 3.98928 18.4677 3.92705 18.4319 3.92705C18.3961 3.92705 18.0348 3.78355 17.6291 3.60803C16.3876 3.07131 14.5424 1.87139 13.4743 0.906185C12.9225 0.407729 12.4087 -0.00010068 12.3324 1.86439e-08C12.2563 0.000100718 11.899 0.287293 11.5385 0.638125Z" fill="#E5D2A5"/>
<path fill-rule="evenodd" clip-rule="evenodd" d="M8.5907 8.09649C8.3788 8.18909 8.24412 8.31534 8.19564 8.46669C8.18233 8.50809 8.17363 8.64364 8.1763 8.76784C8.18456 9.15824 8.12613 9.39704 8.00064 9.48534C7.95439 9.51789 7.92831 9.55844 7.9307 9.59424C7.93385 9.64234 7.90352 9.66729 7.73673 9.75384C7.33869 9.96034 7.14206 10.2386 7.19961 10.5138C7.22456 10.6328 7.28124 10.6792 7.35956 10.6447C7.40249 10.6258 7.41081 10.6349 7.42934 10.7211C7.44092 10.7749 7.49439 10.8881 7.5482 10.9726C7.68075 11.1809 7.68233 11.1999 7.57032 11.239C7.23119 11.3572 7.20722 11.3715 7.21515 11.4505C7.2288 11.5854 7.28249 11.5945 7.52336 11.5029C7.75363 11.4153 7.76005 11.4165 7.78896 11.5547C7.81026 11.6563 8.03124 12.013 8.16831 12.167C8.27831 12.2906 8.2863 12.3072 8.26619 12.37C8.22559 12.4967 8.24179 12.7071 8.30303 12.8486C8.36918 13.0015 8.36347 12.9674 8.372 13.2578C8.37608 13.3955 8.39581 13.5376 8.42081 13.6096L8.46276 13.7304L8.28727 13.7621C8.08548 13.7984 7.91113 13.8959 7.90548 13.9756C7.90352 14.0029 7.89967 14.0257 7.89684 14.0262C7.76064 14.0503 7.36809 14.2444 7.16162 14.3896C7.05782 14.4627 7.05689 14.4629 6.95314 14.435C6.74972 14.3803 6.50956 14.3898 6.03804 14.471C5.52586 14.5592 5.39383 14.6059 5.0524 14.8197C4.70099 15.0398 4.45723 15.2446 4.35851 15.4027C4.2168 15.6297 3.7842 16.1502 3.61661 16.2954C3.53207 16.3686 3.42019 16.4812 3.368 16.5456L3.27309 16.6626L3.36384 16.5891C3.58616 16.4091 3.65151 16.3617 3.66539 16.3704C3.69606 16.3895 3.6466 16.585 3.56299 16.7753C3.49685 16.9258 3.43559 17.0133 3.30356 17.1459C3.20845 17.2414 3.12363 17.3404 3.11502 17.366C3.10031 17.4095 3.10501 17.4085 3.19063 17.3498C3.24081 17.3154 3.28945 17.2859 3.29868 17.2842C3.30792 17.2826 3.23095 17.398 3.12763 17.5406C2.88377 17.8772 2.86118 17.9295 2.89624 18.0763C2.91162 18.1408 2.9232 18.1662 2.92195 18.1329C2.91671 17.9916 2.92627 17.9549 2.99605 17.8488C3.0595 17.7523 3.1661 17.6498 3.21141 17.6418C3.25137 17.6347 3.22776 17.7005 3.1622 17.779C3.11497 17.8355 3.08838 17.899 3.08868 17.9545C3.08903 18.0199 3.04744 18.0986 2.92117 18.2712C2.76636 18.4828 2.7605 18.4956 2.84672 18.4346C2.89821 18.3982 2.97165 18.3366 3.00998 18.2977C3.11088 18.1954 3.12944 18.205 3.04917 18.318C3.01092 18.3718 2.99111 18.4138 3.00513 18.4113C3.01915 18.4089 3.04248 18.391 3.05696 18.3716C3.07819 18.3432 3.08257 18.3496 3.07948 18.4043C3.07436 18.4956 3.09924 18.4856 3.13361 18.3825C3.1545 18.3198 3.16627 18.308 3.17939 18.3364C3.18911 18.3575 3.1885 18.4002 3.17801 18.4312C3.16499 18.4699 3.1668 18.4811 3.18377 18.4667C3.21043 18.4441 3.22628 18.4756 3.20371 18.5063C3.19619 18.5165 3.19559 18.5564 3.20236 18.595C3.21014 18.6392 3.22189 18.6552 3.23428 18.6383C3.28946 18.5632 3.29205 18.6224 3.24039 18.7774L3.18252 18.9511L3.27028 18.8393C3.31854 18.7778 3.36809 18.7103 3.38035 18.6893C3.39264 18.6683 3.41521 18.6555 3.43053 18.6608C3.44585 18.6662 3.49183 18.6426 3.53271 18.6085C3.57361 18.5743 3.6127 18.5499 3.6196 18.5542C3.6265 18.5585 3.56581 18.6468 3.48474 18.7505C3.35501 18.9163 3.34494 18.9376 3.40079 18.9277C3.43571 18.9215 3.54573 18.8757 3.64531 18.8258C3.74489 18.776 3.82803 18.7433 3.83009 18.7531C3.83214 18.763 3.7948 18.8077 3.74707 18.8526C3.69935 18.8976 3.64372 18.9598 3.62349 18.9911C3.58724 19.0469 3.58759 19.0474 3.6469 19.0188C3.70675 18.9899 3.70675 18.9903 3.64652 19.0803C3.58956 19.1654 3.59446 19.1628 3.72708 19.0384C3.80474 18.9655 3.91428 18.8614 3.9705 18.807C4.02671 18.7526 4.09288 18.6925 4.11755 18.6734C4.16163 18.6394 4.16183 18.6401 4.12959 18.7155C4.11156 18.7576 4.14273 18.7235 4.19886 18.6397C4.29685 18.4933 4.32828 18.4286 4.49426 18.0318C4.58734 17.8093 4.74183 17.5127 4.75907 17.5235C4.76618 17.5279 4.77109 17.596 4.76996 17.6748C4.76886 17.7536 4.77298 17.8556 4.77912 17.9016C4.78526 17.9475 4.78659 18.0078 4.78209 18.0354L4.7739 18.0857L4.80635 18.0311C4.9209 17.8384 4.98682 17.5384 4.9697 17.2878C4.96495 17.2182 4.99004 17.0434 5.02545 16.8992C5.09408 16.6197 5.13407 16.5278 5.1322 16.654C5.13125 16.7172 5.13514 16.713 5.15983 16.6246C5.17564 16.5681 5.20433 16.4585 5.22361 16.3811C5.2565 16.2489 5.41636 15.8719 5.50352 15.7208L5.54282 15.6527L5.52119 15.7543C5.50928 15.8102 5.48885 15.8895 5.47575 15.9306L5.452 16.0054L5.51472 15.9441C5.59858 15.8621 5.70456 15.705 5.8113 15.5046C5.9026 15.333 5.94842 15.2999 6.14178 15.2656L6.22858 15.2502L6.13385 15.4197C5.86901 15.8938 5.84238 16.142 5.95271 17.1072C6.00814 17.5926 5.98624 17.9339 5.87358 18.3393C5.80499 18.586 5.73032 18.6947 5.46043 18.9408C5.19202 19.1856 5.12397 19.3026 5.0596 19.6299C5.00113 19.9271 4.94449 20.08 4.80361 20.321C4.59956 20.67 4.40622 20.8423 4.07902 20.9666C3.89388 21.037 3.86184 21.0849 3.84486 21.3168C3.83245 21.4861 3.89418 21.8566 3.95287 21.9651C4.00009 22.0524 4.13829 22.0734 4.40834 22.0343C4.7459 21.9854 4.87898 21.93 4.96424 21.8028C5.08706 21.6195 5.18446 21.4857 5.27586 21.3746C5.33744 21.2998 5.39109 21.1789 5.45244 20.9768C5.59515 20.5064 5.70445 20.2957 6.0201 19.882C6.35162 19.4476 6.95526 18.7596 7.30255 18.4204C7.8001 17.9344 8.04918 17.6795 8.14341 17.5602L8.24037 17.4374L8.34831 17.4526C8.40771 17.461 8.4989 17.4608 8.55092 17.4521C8.67043 17.4323 8.69499 17.4575 8.6776 17.5816C8.66706 17.6567 8.60064 17.7609 8.4045 18.0103C8.00662 18.516 7.88945 18.7525 7.9332 18.9616C7.97717 19.1715 8.24151 19.302 8.75852 19.3689C8.99043 19.3989 9.0445 19.4146 9.48189 19.579C10.1137 19.8164 10.2479 19.9282 10.2343 20.206L10.2278 20.3389L10.3331 20.3965C10.3911 20.4281 10.512 20.4905 10.6019 20.535C10.6918 20.5796 10.8113 20.6534 10.8674 20.6992C10.9235 20.7449 10.9926 20.7837 11.021 20.7854C11.0966 20.79 11.2187 20.6935 11.253 20.6021C11.2936 20.494 11.2585 20.0937 11.1881 19.8607C11.1566 19.7567 11.1108 19.5917 11.0862 19.494C11.0528 19.3612 11.0232 19.298 10.9693 19.244C10.8877 19.1624 10.8277 19.1446 10.5393 19.1169C10.3086 19.0947 9.97456 19.0278 9.80548 18.9699C9.6364 18.912 9.44064 18.8114 9.43385 18.779C9.4239 18.7313 9.75755 18.3082 9.98472 18.0804C10.1192 17.9456 10.2505 17.7808 10.3369 17.6384C10.4934 17.3805 10.5593 17.3283 10.7375 17.3216L10.8603 17.3169L10.8178 17.1936C10.7943 17.1258 10.7292 16.9962 10.6729 16.9057C10.4665 16.5736 10.3816 16.34 10.2649 15.7829C10.1996 15.4714 10.1637 15.348 10.1162 15.2717C10.074 15.2041 10.0501 15.1305 10.0431 15.0465L10.0327 14.9218L9.80097 14.7962C9.55662 14.6638 9.03717 14.3491 9.21581 14.4418C9.53923 14.6095 9.53874 14.6102 9.25043 14.389C9.16733 14.3252 9.05217 14.2169 8.99456 14.1482C8.93695 14.0796 8.84711 13.9929 8.79494 13.9556C8.74276 13.9183 8.70983 13.8795 8.72179 13.8694C8.77195 13.8269 9.32901 13.6747 9.62934 13.6215L9.9538 13.564L10.0109 13.67C10.1056 13.846 10.2191 13.9823 10.441 14.1865C10.6467 14.3758 10.8076 14.5677 10.8232 14.6423C10.8308 14.6787 10.8182 14.6847 10.6643 14.7179C10.5925 14.7334 10.5524 14.7084 10.1794 14.4159C9.95581 14.2405 9.74597 14.0797 9.71314 14.0587C9.68026 14.0376 9.82787 14.1984 10.0411 14.4159L10.4289 14.8115L10.3206 14.8842L10.2124 14.9568L10.4692 14.9157C10.6452 14.8875 10.7029 14.8845 10.6529 14.9062C10.5835 14.9362 10.5851 14.937 10.686 14.9219C10.7444 14.9131 10.8309 14.9062 10.8783 14.9065L10.9644 14.9071L10.9948 15.1078C11.0156 15.2464 11.0151 15.3171 10.993 15.3363C10.9754 15.3515 10.8231 15.3895 10.6544 15.4206C10.3761 15.4721 10.3557 15.4789 10.4322 15.495C10.4785 15.5047 10.6114 15.5138 10.7275 15.5153C10.8436 15.5167 10.9448 15.5217 10.9522 15.5264C10.9597 15.5311 10.9152 15.5449 10.8533 15.557C10.7485 15.5776 10.7463 15.5796 10.8215 15.5846C10.8659 15.5876 10.9334 15.5909 10.9714 15.592C11.038 15.5939 11.0408 15.5984 11.044 15.7099C11.0459 15.7737 11.0722 15.9809 11.1025 16.1704C11.1329 16.3599 11.1552 16.5319 11.1521 16.5526C11.1483 16.5788 11.0673 16.5377 10.8847 16.4167L10.6228 16.2432L10.8149 16.4657C10.9205 16.5881 11.0637 16.754 11.1333 16.8345C11.2067 16.9195 11.2667 17.0144 11.2765 17.0613C11.2858 17.1057 11.3394 17.2169 11.3955 17.3085C11.4887 17.4604 11.4949 17.4793 11.4661 17.523C11.4488 17.5493 11.439 17.6268 11.4444 17.6951C11.4548 17.8268 11.4522 17.8297 11.2759 17.8824C11.2347 17.8948 11.2706 17.8954 11.3558 17.8838L11.5106 17.8627L11.4001 17.9052C11.3393 17.9286 11.2289 17.9543 11.1546 17.9624C11.0023 17.979 11.0024 18.0057 11.1547 18.0199C11.2134 18.0254 11.2713 18.0491 11.2914 18.0758C11.3245 18.12 11.3419 18.1193 11.6712 18.0596C12.0224 17.996 12.1268 17.9545 12.1121 17.8843C12.1072 17.8612 12.1323 17.8448 12.1879 17.8345C12.2976 17.8144 12.4556 17.7094 12.4934 17.6316C12.5368 17.5423 12.4971 17.3783 12.4216 17.3347C12.3624 17.3005 12.3673 17.298 12.6916 17.1987C13.0621 17.0852 13.7018 16.9407 13.8093 16.9462C13.901 16.9509 13.9131 17.0081 13.9022 17.3818C13.8898 17.8002 13.8547 18.1068 13.8115 18.1738C13.7905 18.2063 13.7572 18.3532 13.7374 18.5003C13.6696 19.0051 13.6062 19.1562 13.3803 19.3523C13.0343 19.6526 12.4612 20.091 12.2417 20.2232C11.9048 20.4262 11.8476 20.4834 11.824 20.6411C11.7956 20.8311 11.8552 21.1055 11.9456 21.2011C12.0366 21.2972 12.2623 21.3811 12.4366 21.3834C12.6932 21.3869 12.7956 21.3112 12.9852 20.9779C13.0236 20.9104 13.1005 20.8378 13.2116 20.7643C13.3382 20.6805 13.4223 20.5964 13.5517 20.4242C13.6461 20.2984 13.8685 20.0324 14.0456 19.833C14.2228 19.6336 14.404 19.4243 14.4483 19.3678C14.5715 19.2107 14.6688 18.9824 14.7169 18.7373C14.8342 18.1404 14.9617 17.7379 15.1195 17.4667C15.2091 17.3127 15.2956 17.0455 15.2966 16.9201C15.2973 16.8284 15.3088 16.8259 15.6231 16.8487C15.7565 16.8583 16.0307 16.8753 16.2325 16.8864C16.8723 16.9215 17.2668 17.0043 17.5483 17.1626C17.6747 17.2336 17.6971 17.2601 17.8303 17.4951C18.3492 18.4106 18.3652 18.4455 18.3119 18.5551C18.2697 18.642 18.3113 18.8421 18.3921 18.9402C18.5217 19.0975 18.8496 19.2532 19.0362 19.2461C19.2108 19.2394 19.3948 19.1416 19.429 19.0374C19.471 18.9093 19.3866 18.4737 19.2861 18.3001C19.2438 18.2269 19.1842 18.0857 19.1538 17.9861C19.0889 17.7742 18.9998 17.6202 18.8978 17.5441C18.7934 17.4661 18.359 16.9777 18.1142 16.6632C17.9922 16.5064 17.8594 16.3642 17.7954 16.3216C17.6668 16.2361 17.3367 16.1102 16.9006 15.9804C16.3053 15.8032 16.1644 15.7593 16.1383 15.7432C16.1236 15.7341 16.1335 15.6178 16.1606 15.4797C16.2406 15.0736 16.2379 15.0197 16.0997 14.2466C16.0038 13.7103 15.9706 13.4616 15.9644 13.2321C15.9578 12.9912 15.8808 11.9319 15.864 11.8516C15.85 11.785 16.1631 11.85 16.3758 11.9579C16.4606 12.0009 16.6402 12.0551 16.8005 12.086C17.0421 12.1325 17.1062 12.1568 17.2918 12.2718C17.5433 12.4278 17.6922 12.4674 17.8881 12.4304C18.2731 12.3578 18.3909 12.0332 18.243 11.4528C18.1661 11.1508 18.1345 11.1115 17.7255 10.8106C17.5489 10.6807 17.3305 10.4957 17.24 10.3996C16.9562 10.0979 16.7056 9.86984 16.4912 9.71804C16.3773 9.63744 16.2385 9.51269 16.1827 9.44089C16.1268 9.36904 16.0386 9.27989 15.9866 9.24274L15.8922 9.17524L15.9014 9.04069C15.9109 8.90254 15.8711 8.66104 15.824 8.57179C15.7875 8.50259 15.7466 8.51659 15.6771 8.62219L15.618 8.71199L15.6795 8.64009L15.741 8.56819L15.7206 8.63289C15.7094 8.66844 15.6667 8.76949 15.6256 8.85739C15.5844 8.94534 15.5486 9.02224 15.5458 9.02834C15.5429 9.03444 15.5341 9.03539 15.5261 9.03044C15.5182 9.02544 15.5302 8.96379 15.5527 8.89334L15.5937 8.76534L15.5447 8.84729C15.5178 8.89239 15.4893 8.92489 15.4815 8.91959C15.4737 8.91424 15.4437 8.83334 15.415 8.73974C15.3574 8.55209 15.3427 8.52879 15.2877 8.53854C15.2396 8.54704 15.1235 8.81184 15.0732 9.02774C15.0286 9.21909 15.0423 9.21004 14.6777 9.29009C14.5224 9.32414 14.3899 9.36724 14.3361 9.40104C14.2573 9.45069 14.2225 9.48944 14.2716 9.47314C14.3711 9.44004 14.3374 9.47829 14.2052 9.54859C14.1153 9.59639 14.0369 9.64209 14.031 9.65014C14.025 9.65824 14.104 9.64459 14.2063 9.61989L14.3924 9.57499L14.2985 9.63324C14.2468 9.66529 14.105 9.78039 13.9833 9.88899C13.8616 9.99759 13.7178 10.1055 13.6636 10.1289C13.5859 10.1625 13.5762 10.1729 13.6177 10.1786C13.6591 10.1843 13.6427 10.2016 13.5405 10.2607L13.4107 10.3355L13.5548 10.2952C13.6341 10.273 13.7003 10.2615 13.7021 10.2696C13.7037 10.2777 13.6456 10.328 13.5729 10.3815C13.5002 10.435 13.4255 10.4916 13.4068 10.5073C13.3883 10.5229 13.302 10.5815 13.2152 10.6375C13.0635 10.7353 12.9981 10.8008 13.1233 10.7295C13.1567 10.7106 13.2198 10.6842 13.2636 10.671C13.3839 10.6346 13.4865 10.5884 13.5156 10.5575C13.5299 10.5422 13.5633 10.5302 13.5896 10.5307C13.6269 10.5313 13.6206 10.5441 13.5605 10.5886C13.5181 10.62 13.4387 10.6683 13.384 10.6959C13.0937 10.8423 12.9449 10.9381 12.7375 11.1124C12.64 11.1944 12.651 11.1929 12.834 11.0992C12.9865 11.0212 13.3683 10.8574 13.4125 10.8512C13.4786 10.8418 13.2391 10.9884 13.102 11.0412C12.8912 11.1224 12.8333 11.1701 12.9708 11.1491L13.0736 11.1334L12.9447 11.2032C12.8737 11.2416 12.8114 11.2789 12.8061 11.2861C12.8008 11.2933 12.8944 11.2752 13.0142 11.2458C13.1339 11.2163 13.233 11.1978 13.2344 11.2045C13.2358 11.2111 13.1574 11.262 13.0602 11.3175C12.9629 11.373 12.8968 11.4231 12.9131 11.4289C12.9295 11.4346 12.8857 11.4841 12.8157 11.5388C12.7457 11.5936 12.6896 11.6439 12.6911 11.6507C12.6925 11.6575 12.7138 11.6481 12.7385 11.6297C12.7631 11.6112 12.8545 11.5772 12.9415 11.5539L13.0997 11.5117L12.9584 11.6095C12.8807 11.6632 12.7572 11.7259 12.6839 11.7488C12.6105 11.7717 12.5125 11.8115 12.4661 11.8374L12.3817 11.8843L12.5149 11.8624C12.5881 11.8504 12.6589 11.8513 12.672 11.8645C12.6853 11.8778 12.6835 11.8841 12.6681 11.8787C12.6399 11.8688 12.3965 12.018 12.4015 12.0421C12.403 12.0493 12.4653 12.0374 12.5398 12.0156C12.6886 11.9722 12.8219 11.9688 12.8053 12.0089C12.7995 12.0229 12.7559 12.0413 12.7084 12.0498C12.6106 12.0671 12.3174 12.1768 12.2285 12.2294C12.1832 12.2562 12.2316 12.2537 12.4362 12.2186C12.583 12.1934 12.6989 12.1785 12.6938 12.1855C12.6887 12.1924 12.5709 12.224 12.4321 12.2556C12.2933 12.2872 12.1414 12.33 12.0947 12.3507C12.0142 12.3864 12.0179 12.3873 12.1642 12.3659L12.3186 12.3433L12.149 12.4068C11.9878 12.4672 11.975 12.4686 11.8947 12.4348L11.8102 12.3992L11.8949 12.2933C12.0326 12.1212 12.0477 11.9341 11.9388 11.748C11.7516 11.4282 11.6294 11.4111 11.2696 11.6545L11.095 11.7725L10.8089 11.7484C10.6515 11.7351 10.4733 11.7065 10.4128 11.6847C10.3524 11.663 10.2929 11.647 10.2805 11.6492C10.2577 11.6532 10.1945 11.2984 10.1753 11.0579C10.1661 10.943 10.1743 10.9176 10.2404 10.857C10.2951 10.8068 10.3528 10.7812 10.449 10.7641C10.5483 10.7465 10.6193 10.7138 10.7298 10.635C10.9015 10.5123 10.9686 10.3933 10.9408 10.2604C10.9224 10.1729 10.9236 10.1715 11.0509 10.121C11.1216 10.093 11.2731 10.0326 11.3876 9.98679C11.502 9.94099 11.7998 9.82329 12.0492 9.72529C12.2986 9.62724 12.7565 9.44719 13.0666 9.32519C13.3767 9.20314 13.9173 8.99104 14.268 8.85379C15.5908 8.33604 16.4571 7.98944 17.2303 7.66859C18.2447 7.24769 19.4302 6.77229 19.5242 6.74884C19.5896 6.73249 19.797 6.65819 19.9852 6.58374C20.3731 6.43034 20.4052 6.42154 20.4146 6.46644C20.4193 6.48869 20.5763 6.40869 20.9187 6.20959C21.1922 6.05054 21.4227 5.91089 21.4308 5.89919C21.439 5.88749 21.3548 5.90044 21.2438 5.92789C21.1328 5.95534 20.8657 6.00944 20.6503 6.04814C20.2727 6.11599 20.2596 6.12009 20.2843 6.16204C20.3038 6.19509 20.2965 6.21104 20.2536 6.22859C20.1628 6.26584 19.3735 6.57764 18.5674 6.89474C18.1562 7.05649 17.3953 7.35734 16.8766 7.56319C16.3579 7.76909 15.5311 8.09724 15.0393 8.29239C14.5475 8.48759 13.8259 8.77459 13.4357 8.93019C13.0455 9.08574 12.6817 9.22644 12.6272 9.24274C12.5728 9.25909 12.434 9.31059 12.3187 9.35714C12.0931 9.44829 11.6249 9.63254 11.018 9.86904C10.8089 9.95054 10.609 10.0298 10.5739 10.0451C10.5158 10.0704 10.51 10.0674 10.51 10.0116C10.5099 9.95734 10.4974 9.94944 10.4022 9.94304C10.2339 9.93169 10.0762 10.0049 9.93738 10.1587L9.82113 10.2875L9.68928 10.0855C9.61678 9.97449 9.54858 9.86839 9.53771 9.84974C9.52342 9.82529 9.55189 9.79724 9.63972 9.74929C9.75814 9.68464 10.0783 9.41734 10.0998 9.36514C10.1057 9.35089 10.0704 9.26084 10.0213 9.16504C9.97222 9.06929 9.91727 8.92009 9.89912 8.83354C9.86265 8.65919 9.72972 8.38064 9.62314 8.25524C9.5345 8.15094 9.35673 8.04064 9.22646 8.00924C9.09662 7.97789 8.75467 8.02484 8.5907 8.09649ZM8.80026 8.14684L8.66874 8.21574L8.82592 8.19039C9.10847 8.14484 9.1401 8.15194 9.25222 8.28564C9.37336 8.43019 9.52282 8.68349 9.54255 8.77769C9.55885 8.85574 9.52461 8.88249 9.3263 8.94624C9.22059 8.98024 9.20967 8.98914 9.25135 9.00729C9.29646 9.02689 9.29912 9.03874 9.28646 9.16154L9.27276 9.29454L9.21461 9.24619C9.13689 9.18159 9.0851 9.05694 9.1151 9.00664C9.12803 8.98489 9.13059 8.96204 9.1207 8.95589C9.09092 8.93729 9.02999 9.11739 9.04477 9.18039C9.05695 9.23244 9.06091 9.23389 9.07977 9.19344C9.09787 9.15469 9.11722 9.17324 9.20847 9.31674C9.26755 9.40969 9.31412 9.48799 9.312 9.49079C9.30988 9.49364 9.19814 9.48369 9.06369 9.46869C8.49146 9.40499 8.35515 9.41144 8.57999 9.49169C8.64956 9.51649 8.68184 9.53334 8.65178 9.52904C8.39005 9.49189 8.21233 9.46499 8.20374 9.46119C8.19809 9.45864 8.20439 9.38654 8.21776 9.30094C8.23113 9.21529 8.23809 9.01269 8.23325 8.85064C8.22086 8.43889 8.21755 8.44729 8.40488 8.41414C8.57249 8.38444 8.90119 8.39929 9.01309 8.44164C9.05157 8.45619 9.09505 8.46184 9.10988 8.45419C9.15276 8.43199 8.61222 8.30719 8.48874 8.31079L8.37684 8.31404L8.44325 8.26509C8.54418 8.19064 8.68287 8.12979 8.81374 8.10254L8.93173 8.07794L8.80026 8.14684ZM20.7891 6.10069C20.5656 6.17374 20.4608 6.19839 20.4147 6.18869C20.2803 6.16049 20.3773 6.12194 20.736 6.06099L21.0996 5.99924L20.7891 6.10069ZM19.2846 6.70824C19.2448 6.72744 19.113 6.78219 18.9916 6.82999C18.8703 6.87774 18.6006 6.98654 18.3922 7.07179C17.8209 7.30549 17.1842 7.55904 16.6754 7.75539C16.2862 7.90564 16.0051 8.01789 15.4658 8.23849C15.3622 8.28089 14.6834 8.54484 14.3127 8.68689C14.1911 8.73349 13.959 8.82274 13.7969 8.88519C13.6349 8.94769 13.3642 9.05204 13.1955 9.11709C13.0267 9.18214 12.7632 9.28504 12.61 9.34569C12.4568 9.40634 12.1087 9.54019 11.8365 9.64314C11.5643 9.74604 11.3139 9.84079 11.2801 9.85364C11.2463 9.86649 11.2232 9.87019 11.2288 9.86194C11.2343 9.85364 11.5199 9.73479 11.8633 9.59779C12.2068 9.46079 12.6415 9.28474 12.8295 9.20659C13.2279 9.04094 14.0182 8.72604 14.5437 8.52349C14.7463 8.44544 15.1487 8.28594 15.438 8.16909C15.7273 8.05229 16.1517 7.88399 16.3812 7.79519C16.6108 7.70639 16.8702 7.60559 16.9579 7.57124C17.0455 7.53689 17.2775 7.44729 17.4734 7.37209C17.6692 7.29694 18.0227 7.16044 18.2589 7.06874C19.0437 6.76409 19.5052 6.60189 19.2846 6.70824ZM8.44646 8.79539C8.49793 8.82589 9.05222 8.79024 9.00314 8.75964C8.98244 8.74674 8.56184 8.75289 8.48037 8.76729C8.44206 8.77404 8.4289 8.78499 8.44646 8.79539ZM9.50173 9.04054C9.49961 9.07579 9.48646 9.15779 9.47249 9.22289L9.44717 9.34119L9.43347 9.20924L9.41977 9.07729L9.39722 9.21569L9.37467 9.35404L9.35717 9.19834C9.34749 9.11269 9.34287 9.03379 9.34689 9.02299C9.35086 9.01219 9.3882 8.99734 9.42983 8.98999C9.49858 8.97779 9.50521 8.98249 9.50173 9.04054ZM9.56385 9.18919L9.54075 9.27574L9.53151 9.15819C9.51885 8.99739 9.53391 8.93759 9.56369 9.03039C9.57646 9.07014 9.57651 9.14159 9.56385 9.18919ZM8.39146 9.55289C8.61151 9.58729 8.86787 9.64969 8.90526 9.67794C8.92189 9.69059 8.94912 9.72774 8.96575 9.76049C8.9951 9.81854 8.99347 9.82004 8.90401 9.81744C8.85347 9.81594 8.72483 9.79069 8.61803 9.76134C8.51124 9.73194 8.33956 9.68999 8.23646 9.66804C8.09102 9.63709 8.04668 9.61704 8.03863 9.57869C8.02939 9.53444 8.03874 9.52914 8.1276 9.52824C8.18222 9.52764 8.30092 9.53874 8.39146 9.55289ZM8.24532 9.80459C8.40999 9.87259 8.60015 10.0238 8.66195 10.1359C8.68244 10.1731 8.697 10.2064 8.69434 10.2099C8.69173 10.2135 8.64293 10.2048 8.58602 10.1907C8.497 10.1687 8.20727 10.1595 8.11505 10.1758C8.05189 10.187 8.09825 10.2246 8.17755 10.2265C8.26081 10.2285 8.46173 10.2843 8.44885 10.3019C8.4451 10.307 8.35184 10.3058 8.24157 10.2993C7.95885 10.2826 7.72793 10.3277 7.52396 10.4394C7.43325 10.489 7.34668 10.5319 7.33162 10.5345C7.31418 10.5376 7.30081 10.499 7.29477 10.4283C7.28347 10.2955 7.35836 10.1316 7.472 10.0403L7.55146 9.97649L7.47434 10.0725C7.40434 10.1598 7.35798 10.2563 7.36651 10.2971C7.36836 10.3058 7.40787 10.2544 7.45429 10.183C7.53477 10.0593 7.68521 9.93789 7.91695 9.80959C8.05265 9.73444 8.07456 9.73409 8.24532 9.80459ZM8.84412 9.91659C8.90211 9.92814 8.9845 9.93824 9.02722 9.93904C9.09537 9.94034 9.11635 9.95919 9.19874 10.093C9.25037 10.1769 9.29885 10.278 9.30651 10.3177L9.32043 10.3899L9.27048 10.3254C9.22113 10.2617 9.22086 10.2625 9.24695 10.3974C9.26999 10.5164 9.26651 10.5376 9.21994 10.5637C9.12336 10.6177 8.83526 10.7171 8.81396 10.7039C8.80249 10.6967 8.80945 10.6312 8.8295 10.5583C8.88472 10.3572 8.83505 10.1568 8.68592 9.97874C8.62287 9.90354 8.57048 9.83784 8.56945 9.83279C8.56836 9.82774 8.60602 9.83979 8.65309 9.85959C8.70015 9.87944 8.78613 9.90504 8.84412 9.91659ZM15.2503 8.78339C15.2047 9.00309 15.1045 9.23759 15.0886 9.16174C15.0743 9.09319 15.2235 8.67209 15.2647 8.66479C15.2705 8.66374 15.264 8.71714 15.2503 8.78339ZM8.05276 10.4067C7.99494 10.4324 7.99646 10.4338 8.08559 10.4366C8.137 10.4382 8.24282 10.453 8.32075 10.4695C8.46081 10.499 8.46303 10.5009 8.50646 10.6228C8.53059 10.6907 8.57005 10.7794 8.59412 10.8199C8.63293 10.8853 8.63227 10.9021 8.58852 10.9675C8.56135 11.0082 8.52162 11.0785 8.50026 11.1238C8.45733 11.2148 8.40032 11.4907 8.42173 11.504C8.42918 11.5087 8.47005 11.441 8.51255 11.3537C8.59255 11.1893 8.73113 11.0196 8.7945 11.0084C8.85054 10.9984 8.95564 11.1469 9.00206 11.3015C9.03771 11.4203 9.03749 11.454 9.0007 11.5322C8.93934 11.6626 8.76684 11.8218 8.64689 11.8588L8.54575 11.89L8.62684 11.921C8.71325 11.9539 8.67918 11.9752 8.58369 11.9478C8.51738 11.9289 8.42662 11.8124 8.40771 11.722C8.39967 11.6836 8.35293 11.6304 8.28684 11.5846C8.14863 11.4886 7.98874 11.2976 7.88483 11.1043C7.79276 10.933 7.69765 10.5707 7.72418 10.4921C7.74309 10.436 7.83689 10.4018 8.00907 10.388C8.09967 10.3808 8.10548 10.3833 8.05276 10.4067ZM7.68064 10.6987C7.70407 10.8189 7.74282 10.9659 7.76673 11.0255C7.79586 11.098 7.8013 11.1355 7.78309 11.1387C7.7682 11.1413 7.75092 11.1195 7.74477 11.0901C7.73863 11.0608 7.70053 10.9993 7.66005 10.9534C7.61961 10.9075 7.56581 10.8135 7.54053 10.7445C7.49825 10.629 7.49874 10.6138 7.54717 10.553C7.57613 10.5167 7.60836 10.4855 7.6189 10.4836C7.62939 10.4818 7.65722 10.5786 7.68064 10.6987ZM10.2913 10.0965C10.1069 10.2311 10.095 10.3206 10.2506 10.4021L10.3289 10.4431L10.2652 10.4553C10.2067 10.4665 10.2056 10.4694 10.2527 10.4908C10.326 10.5242 10.3216 10.5324 10.2005 10.5881C10.0815 10.6429 10.0475 10.6377 9.87814 10.5395C9.78874 10.4876 9.78179 10.5101 9.85602 10.6114L9.90282 10.6753L9.70515 10.8153C9.53608 10.9352 9.50244 10.9511 9.47217 10.9255C9.44331 10.901 9.43439 10.9131 9.42336 10.9915C9.41521 11.0499 9.38423 11.1083 9.34445 11.1408C9.27135 11.2002 9.27075 11.1996 9.24412 11.0387C9.23765 10.9995 9.21749 10.9536 9.19934 10.9366C9.17515 10.9141 9.17293 10.9379 9.19108 11.0261C9.22135 11.173 9.20467 11.2952 9.14863 11.3371C9.08657 11.3834 9.08733 11.3842 9.03798 11.2279C9.01287 11.1484 8.97211 11.0242 8.94738 10.9519C8.90412 10.8253 8.90472 10.8197 8.96401 10.7942C8.99787 10.7797 9.04928 10.7746 9.07831 10.7829C9.11325 10.7929 9.14472 10.7874 9.17151 10.7666C9.19983 10.7446 9.24803 10.7398 9.33195 10.7505C9.4476 10.7654 9.45613 10.7629 9.5688 10.6814C9.63304 10.6349 9.76738 10.4973 9.86727 10.3755C10.076 10.1214 10.1536 10.0599 10.2966 10.0353L10.3991 10.0178L10.2913 10.0965ZM8.10983 10.6654C8.14293 10.8357 8.31956 11.1658 8.37255 11.1564C8.42407 11.1473 8.28124 10.8064 8.16113 10.6518L8.08918 10.5591L8.10983 10.6654ZM14.3069 9.83509C14.1427 9.99619 13.9871 10.3322 13.6899 11.1673C13.5719 11.499 13.4621 11.7542 13.374 11.9013C13.2998 12.0253 13.2334 12.1278 13.2265 12.129C13.2196 12.1302 13.2871 11.9726 13.3765 11.7787C13.5413 11.4213 13.5922 11.2944 13.6874 11.0028C13.7721 10.7435 13.9828 10.2328 14.0582 10.1043C14.1325 9.97754 14.3249 9.75979 14.3694 9.75189C14.3844 9.74924 14.3562 9.78669 14.3069 9.83509ZM16.3317 9.79974C16.5894 9.96759 16.7866 10.131 16.9203 10.2877C16.9793 10.3568 17.0987 10.4841 17.1856 10.5705C17.4042 10.7879 17.4137 10.8003 17.3013 10.7229C17.2122 10.6615 16.7173 10.214 16.68 10.1611C16.6585 10.1306 16.5221 10.0156 16.3685 9.89859C16.2069 9.77539 16.0648 9.64364 16.0592 9.61179C16.0568 9.59849 16.0725 9.60629 16.094 9.62899C16.1155 9.65174 16.2224 9.72854 16.3317 9.79974ZM10.1117 10.8632C10.0555 10.908 9.92624 11.0036 9.82456 11.0756C9.65554 11.1953 9.43559 11.3647 9.2476 11.5197C9.20711 11.5531 9.17287 11.5749 9.17151 11.5682C9.16597 11.5419 9.59043 11.1745 9.78814 11.0344C10.0954 10.8167 10.3192 10.6983 10.1117 10.8632ZM7.66515 11.2799C7.60222 11.3171 7.36586 11.3924 7.38189 11.3702C7.39619 11.3503 7.58483 11.2775 7.6614 11.2622L7.71238 11.2521L7.66515 11.2799ZM8.02059 11.4446C8.05885 11.4948 8.13706 11.5745 8.19434 11.6217C8.25168 11.6689 8.30358 11.7313 8.30977 11.7603C8.33282 11.869 8.41885 11.9907 8.50988 12.0434C8.58896 12.0891 8.61896 12.0932 8.6982 12.0687C8.75064 12.0525 8.8414 11.992 8.90276 11.9322C8.96347 11.8732 9.02744 11.8224 9.04505 11.8194C9.06265 11.8164 9.14244 11.8291 9.22238 11.8476C9.33467 11.8735 9.37461 11.8956 9.3976 11.9446C9.41396 11.9795 9.43238 12.018 9.43852 12.0303C9.44467 12.0426 9.57113 12.0671 9.71956 12.0847C9.89102 12.1052 9.95124 12.1194 9.88477 12.1237C9.7407 12.133 8.89026 12.2175 8.63711 12.2476C8.38711 12.2774 8.43483 12.3011 8.72015 12.289C8.83303 12.2842 8.96608 12.2923 9.01581 12.307L9.10619 12.3337L8.87842 12.3862C8.65738 12.4373 8.65472 12.4386 8.78956 12.4315C9.20945 12.4094 9.40059 12.421 9.51901 12.4757C9.60668 12.5162 9.64189 12.5478 9.65173 12.5948C9.67037 12.684 9.72597 12.7109 9.90162 12.7157C9.9851 12.7181 10.0497 12.725 10.0452 12.7312C10.0406 12.7375 9.90869 12.7536 9.75211 12.767C9.59548 12.7804 9.22439 12.8271 8.92749 12.8705L8.38765 12.9496L8.34352 12.8494C8.2826 12.711 8.30314 12.2927 8.37151 12.2806C8.38428 12.2783 8.36369 12.2492 8.32575 12.2159C8.19776 12.1035 8.03858 11.872 7.93983 11.6547C7.83418 11.422 7.82825 11.375 7.90293 11.3618C7.93477 11.3562 7.9745 11.3841 8.02059 11.4446ZM10.1361 11.5026C10.2047 11.8668 10.2391 11.9712 10.2471 11.8395C10.2492 11.8049 10.2605 11.7749 10.2724 11.7728C10.2842 11.7707 10.3683 11.7886 10.4593 11.8126C10.5503 11.8366 10.6421 11.8536 10.6633 11.8504C10.6845 11.8471 10.8014 11.8525 10.923 11.8624L11.1441 11.8804L11.2391 11.8056C11.3234 11.7394 11.3458 11.732 11.4368 11.7405C11.5067 11.747 11.5612 11.7386 11.6074 11.7142C11.7616 11.6327 11.7964 11.7104 11.6645 11.8416C11.5687 11.937 11.4431 11.98 11.3783 11.9395C11.3515 11.9228 11.3353 11.926 11.3116 11.9526C11.286 11.9813 11.2743 11.9784 11.2478 11.9372C11.2217 11.8966 11.2181 11.9125 11.2294 12.0186L11.2435 12.1505L11.0321 12.1806C10.9158 12.1971 10.7681 12.2051 10.7041 12.1983L10.5877 12.186L10.7403 12.1548L10.893 12.1236L10.7309 12.1032C10.6418 12.092 10.5424 12.0719 10.51 12.0585C10.4264 12.0241 10.3735 12.0376 10.4083 12.0847C10.4236 12.1054 10.4597 12.2003 10.4884 12.2955C10.5504 12.5007 10.5474 12.4997 10.9114 12.439C11.2261 12.3865 11.3105 12.4171 11.4801 12.6451C11.546 12.7338 11.6324 12.8401 11.6719 12.8814C11.7115 12.9227 11.7443 12.9586 11.7449 12.9612C11.7454 12.9637 11.6934 12.9713 11.6292 12.9778C11.52 12.989 11.5067 12.9979 11.4226 13.1159C11.3731 13.1852 11.2991 13.2664 11.258 13.2962C11.1693 13.3605 10.8286 13.4522 10.7967 13.4203C10.7849 13.4085 10.7391 13.2938 10.6948 13.1656C10.6205 12.9498 10.6131 12.9377 10.5962 13.0035C10.5808 13.0633 10.5639 13.0041 10.4911 12.6363L10.4044 12.1978L10.2717 12.0398C10.1987 11.953 10.1323 11.8501 10.1241 11.8112C10.1001 11.6968 10.0417 11.1295 10.0539 11.1273C10.0599 11.1262 10.0969 11.2951 10.1361 11.5026ZM12.7867 11.4739C12.7682 11.4902 12.7646 11.5015 12.7787 11.499C12.7928 11.4965 12.8194 11.4811 12.8379 11.4648C12.8564 11.4485 12.8599 11.4372 12.8459 11.4397C12.8318 11.4422 12.8052 11.4576 12.7867 11.4739ZM12.775 11.8328C12.7682 11.8421 12.7463 11.8469 12.7264 11.8433C12.7044 11.8394 12.7093 11.8328 12.7389 11.8264C12.7656 11.8206 12.7819 11.8235 12.775 11.8328ZM17.8455 11.0724C18.0128 11.2137 18.0427 11.2689 18.1084 11.558C18.1715 11.8361 18.1648 12.0189 18.0868 12.141C18.029 12.2316 18.0217 12.2126 18.0353 12.0067C18.0508 11.7696 17.9723 11.5143 17.8297 11.3379C17.7183 11.2002 17.6379 10.9809 17.6952 10.9708C17.7088 10.9684 17.7764 11.0141 17.8455 11.0724ZM8.81005 12.9725C8.96646 12.9668 9.1401 12.9691 9.19581 12.9775L9.29722 12.9927L9.11907 13.0289L8.94092 13.065L9.08586 13.0603C9.42407 13.0494 9.6964 13.0554 9.74064 13.0746C9.76874 13.0868 9.7976 13.1327 9.81146 13.1872L9.83477 13.2792L10.0085 13.2853L10.1822 13.2914L10.0171 13.3262C9.56874 13.4207 8.97863 13.6116 8.68168 13.7582C8.61244 13.7925 8.54543 13.814 8.53282 13.8061C8.49657 13.7835 8.41711 13.3504 8.41956 13.1883C8.42255 12.9837 8.42505 12.9748 8.47836 12.9791C8.50439 12.9811 8.65369 12.9782 8.81005 12.9725ZM12.4408 12.3566C12.4418 12.3615 12.4197 12.3697 12.3915 12.3747C12.3634 12.3796 12.3384 12.3741 12.3359 12.3624C12.3334 12.3506 12.3556 12.3425 12.3852 12.3443C12.4147 12.3461 12.4398 12.3516 12.4408 12.3566ZM11.9269 12.6903C11.9275 12.6931 11.9055 12.7053 11.8779 12.7175C11.8404 12.734 11.8116 12.7231 11.7627 12.6736C11.6655 12.5751 11.6766 12.5637 11.8077 12.6276C11.8727 12.6593 11.9264 12.6875 11.9269 12.6903ZM12.2221 12.5244C12.2578 12.5304 12.2667 12.5407 12.2492 12.5556C12.2348 12.5678 12.1878 12.5674 12.1447 12.5548C12.0803 12.5361 12.0755 12.5305 12.1176 12.5236C12.1458 12.519 12.1929 12.5194 12.2221 12.5244ZM15.751 12.453C15.7854 12.7551 15.8155 13.0954 15.8178 13.2092C15.8244 13.5425 15.8659 13.8892 15.9435 14.2595C16.0312 14.6791 16.0592 15.1008 16.0136 15.3186C15.9951 15.407 15.9759 15.4768 15.9709 15.4737C15.9659 15.4706 15.9719 15.3729 15.9843 15.2565C16.0049 15.0639 15.9967 14.9866 15.8929 14.3932C15.7652 13.6624 15.7533 13.5647 15.7461 13.1853C15.7433 13.038 15.7253 12.7278 15.7061 12.496C15.6662 12.0155 15.6599 11.8861 15.6765 11.8965C15.683 11.9005 15.7165 12.151 15.751 12.453ZM11.9789 12.7427C11.991 12.7549 12.0175 12.7553 12.0378 12.7438C12.058 12.7322 12.1186 12.728 12.1724 12.7345L12.2704 12.7464L12.154 12.8241L12.0375 12.9018L11.9523 12.8431C11.9054 12.8109 11.8649 12.774 11.8622 12.7613C11.8557 12.73 11.951 12.7148 11.9789 12.7427ZM12.2593 12.9471C12.1789 13.0361 12.1809 13.0357 12.0931 12.9773L12.0208 12.929L12.1723 12.9023L12.3239 12.8756L12.2593 12.9471ZM11.9379 13.0846C11.9858 13.1129 12.0492 13.1641 12.0789 13.1984C12.1462 13.2765 12.1924 13.5113 12.1603 13.6119C12.1188 13.7413 11.9643 13.9188 11.7779 14.0513C11.5753 14.1952 11.5103 14.2111 11.6785 14.0756C11.8237 13.9584 12.0245 13.6961 12.0633 13.5726C12.1249 13.3765 11.9989 13.1542 11.7824 13.077L11.6677 13.0361L11.7593 13.0347C11.8097 13.0339 11.8901 13.0564 11.9379 13.0846ZM8.29602 14.116C8.34602 14.1417 8.43679 14.2196 8.49782 14.2891C8.68287 14.4998 8.82097 14.5821 9.06276 14.6257L9.27559 14.664L9.14102 14.6758C8.93445 14.6939 8.70195 14.6208 8.48396 14.4694L8.29619 14.3389L8.16276 14.5032C7.95287 14.7618 7.63347 15.0584 7.2639 15.3382C6.4445 15.9585 6.36515 16.1242 6.41668 17.1078C6.47217 18.168 6.35912 18.5589 5.8688 19.0016C5.60211 19.2424 5.54244 19.3515 5.44923 19.7691C5.39382 20.0174 5.26514 20.3091 5.13351 20.4848C5.03985 20.6097 4.71337 20.8697 4.63194 20.8842C4.60449 20.889 4.60573 20.9029 4.6378 20.9503C4.71216 21.06 4.79723 21.419 4.77256 21.519L4.75048 21.6084L4.71727 21.46C4.68716 21.3256 4.62355 21.1902 4.51042 21.02C4.47702 20.9698 4.45884 20.9629 4.41222 20.9829C4.31151 21.0261 4.34623 20.9902 4.52814 20.8631C4.75466 20.7049 4.88275 20.5673 5.00517 20.3506C5.12533 20.138 5.15545 20.0426 5.20764 19.7098C5.26274 19.3584 5.31938 19.2554 5.59445 19.0068C5.80461 18.8167 5.88967 18.6951 5.97075 18.4681C6.04168 18.2696 6.11814 17.7593 6.11472 17.5072C6.11363 17.4273 6.0963 17.1954 6.07613 16.9918C6.012 16.3437 6.02467 16.0079 6.12178 15.7807C6.24059 15.5028 6.5032 15.1823 6.99505 14.7149C7.35592 14.3721 7.71863 14.1596 8.04749 14.0986C8.18075 14.0738 8.21918 14.0765 8.29602 14.116ZM5.37655 14.8749C4.89094 15.1318 4.49383 15.4937 4.36567 15.7961C4.33285 15.8735 4.28863 16.0617 4.26738 16.2142C4.20937 16.6313 4.07934 16.8727 3.67474 17.3145L3.50208 17.503L3.6995 17.2368C4.02181 16.8021 4.1366 16.5445 4.19402 16.1267C4.20989 16.0113 4.24605 15.8603 4.27439 15.7912C4.3506 15.6054 4.61065 15.3219 4.88145 15.1294C5.01262 15.0361 5.50467 14.7715 5.56793 14.7602C5.58901 14.7564 5.50293 14.8081 5.37655 14.8749ZM12.3491 13.8643C12.318 13.9587 12.1031 14.2405 12.0129 14.3051C11.8815 14.3992 11.6004 14.5466 11.5533 14.5462C11.526 14.5459 11.5617 14.5172 11.6379 14.4781C11.9053 14.3407 12.0218 14.242 12.19 14.0103C12.2806 13.8854 12.359 13.7849 12.3641 13.7869C12.3692 13.7889 12.3625 13.8237 12.3491 13.8643ZM5.28172 15.3047C5.27685 15.3105 5.24671 15.3329 5.21476 15.3546C5.16 15.3917 5.15908 15.3914 5.19866 15.3485C5.23312 15.3113 5.3109 15.2702 5.28172 15.3047ZM8.51162 14.8287C8.73026 14.9259 9.0613 14.985 9.34787 14.9779C9.40956 14.9765 9.4901 14.9905 9.52689 15.0093C9.59374 15.0433 9.59374 15.0433 9.43135 15.0729C9.127 15.1284 8.8295 15.0817 8.57211 14.9382C8.45592 14.8734 8.36885 14.7977 8.40342 14.7916C8.41309 14.7899 8.46184 14.8066 8.51162 14.8287ZM14.317 13.9496C14.4716 13.9792 14.8424 14.2411 15.1385 14.5298C15.3707 14.7561 15.5588 15.1001 15.5111 15.2113C15.4909 15.2585 15.3167 15.084 15.0509 14.7503C14.8053 14.442 14.7464 14.3899 14.5443 14.3013C14.3683 14.2242 14.1886 14.2035 13.9282 14.2305C13.6827 14.2559 13.6175 14.2349 13.6797 14.1505C13.7744 14.0219 14.1224 13.9122 14.317 13.9496ZM4.46729 16.1854C4.44782 16.3803 4.39897 16.5898 4.33563 16.7503C4.28026 16.8905 3.99261 17.3079 3.94563 17.3162C3.93343 17.3184 3.97878 17.2373 4.04641 17.136C4.11407 17.0347 4.16714 16.941 4.16436 16.9277C4.16157 16.9144 4.17211 16.8839 4.18776 16.8599C4.25265 16.7605 4.35381 16.4305 4.37937 16.2347C4.41261 15.9805 4.418 15.9646 4.45254 16.0185C4.46748 16.0419 4.47412 16.117 4.46729 16.1854ZM3.84994 16.2832C3.81205 16.3299 3.76944 16.3701 3.75527 16.3726C3.7159 16.3796 3.78163 16.2501 3.82792 16.2296C3.91301 16.1919 3.91678 16.201 3.84994 16.2832ZM10.2502 15.1182C10.2328 15.1605 10.3147 15.1644 10.5744 15.1333C10.731 15.1147 10.8121 15.0963 10.8088 15.0805C10.8016 15.0462 10.7143 15.0432 10.4719 15.0688C10.3378 15.0829 10.2574 15.1008 10.2502 15.1182ZM3.07353 17.4626C3.06595 17.4729 3.06308 17.4972 3.06715 17.5167C3.07609 17.5594 3.10398 17.5275 3.10155 17.4773C3.09962 17.4378 3.09395 17.4348 3.07353 17.4626ZM14.4897 16.1909C14.7621 16.3729 15.028 16.4602 15.4584 16.5085C15.6631 16.5315 15.9799 16.5472 16.1624 16.5434C16.6036 16.5342 16.9941 16.5527 17.1774 16.5915C17.4196 16.6429 17.6675 16.7836 17.8145 16.9529C17.9722 17.1347 18.1516 17.406 18.2888 17.6704C18.4246 17.9322 18.4498 17.968 18.6474 18.1806C18.7389 18.2789 18.8278 18.3911 18.8452 18.4298C18.8781 18.5032 18.9887 18.5767 19.1082 18.6045C19.2557 18.6388 18.9917 18.6598 18.8162 18.6277C18.7229 18.6107 18.6433 18.6012 18.6392 18.6068C18.6351 18.6123 18.6887 18.6486 18.7583 18.6874L18.8848 18.7579L18.8612 18.897C18.8483 18.9734 18.8261 19.042 18.812 19.0493C18.7383 19.0874 18.4122 18.8283 18.3879 18.7122C18.3803 18.6759 18.3892 18.594 18.4078 18.5302C18.4396 18.4208 18.4377 18.4053 18.3746 18.2605C18.3378 18.176 18.1721 17.8835 18.0065 17.6105C17.6658 17.0489 17.6419 17.0256 17.2781 16.8963C16.9751 16.7886 16.739 16.7509 16.1937 16.7229C15.4364 16.684 15.2292 16.6632 15.0149 16.6048C14.6821 16.514 14.3247 16.2536 14.2018 16.0122C14.1745 15.9586 14.1765 15.9588 14.2462 16.0166C14.2864 16.0498 14.3959 16.1282 14.4897 16.1909ZM10.836 16.8529C10.8704 17.0196 11.0408 17.4198 11.0906 17.4509C11.1328 17.4772 11.033 17.1262 10.9409 16.9242C10.8358 16.6938 10.7979 16.668 10.836 16.8529ZM8.86852 17.7293C8.89874 17.8675 8.86102 17.9499 8.63842 18.2315C8.3663 18.5756 8.30195 18.6952 8.32624 18.8112C8.3576 18.9611 8.55412 19.0472 9.53352 19.3401C9.94977 19.4645 10.1969 19.5762 10.2766 19.6757C10.328 19.7399 10.3598 19.7509 10.5544 19.7716C10.6753 19.7844 10.8259 19.8137 10.889 19.8367L11.0038 19.8784L10.9117 19.8816C10.7423 19.8875 10.4522 19.9028 10.424 19.9073C10.406 19.9102 10.41 19.9587 10.4355 20.0453C10.4674 20.1539 10.5011 20.2039 10.616 20.3132C10.9035 20.5866 10.9061 20.606 10.6349 20.454C10.4996 20.3782 10.3656 20.3126 10.3371 20.3082C10.2926 20.3014 10.2838 20.2834 10.2759 20.1827C10.2612 19.9965 10.1577 19.8351 9.9851 19.7291C9.85461 19.649 9.47641 19.4883 9.43543 19.4956C9.42619 19.4972 9.31217 19.4617 9.18211 19.4166C9.05206 19.3715 8.83195 19.3167 8.69293 19.2947C8.33467 19.2381 8.18885 19.1952 8.07227 19.1119C7.98179 19.0472 7.9701 19.0282 7.96706 18.9413C7.962 18.7954 8.09026 18.5648 8.41005 18.145C8.68401 17.7853 8.74673 17.6648 8.72543 17.5391C8.71124 17.4557 8.84858 17.6381 8.86852 17.7293ZM3.31734 18.5393C3.31331 18.5602 3.30548 18.578 3.29995 18.579C3.29443 18.58 3.28657 18.5649 3.2825 18.5455C3.27843 18.526 3.28626 18.5081 3.29989 18.5057C3.3135 18.5033 3.32136 18.5184 3.31734 18.5393ZM3.5655 18.5136C3.56032 18.5179 3.52977 18.5527 3.49766 18.591C3.46556 18.6293 3.43681 18.6489 3.43382 18.6346C3.42575 18.596 3.48736 18.5214 3.5341 18.5131C3.55654 18.5091 3.57068 18.5094 3.5655 18.5136ZM10.8258 17.3946C10.8139 17.4156 10.8046 17.4622 10.8051 17.4982C10.8058 17.5522 10.834 17.5808 10.9681 17.6633C11.1512 17.776 11.2224 17.7634 11.0447 17.6497C10.9569 17.5935 10.9203 17.5505 10.8887 17.4664C10.8563 17.3801 10.8428 17.3647 10.8258 17.3946ZM14.0612 17.0565C14.1886 17.2764 14.2564 17.6248 14.2442 17.9964C14.2176 18.8088 14.1005 19.0876 13.6251 19.4718C12.875 20.0778 12.3521 20.5164 12.279 20.6009C12.2129 20.6772 12.201 20.7079 12.223 20.7452C12.2614 20.8105 12.3953 20.9243 12.5069 20.9868C12.5728 21.0236 12.584 21.0365 12.5452 21.031C12.4687 21.0201 12.3343 20.9662 12.2221 20.9012L12.1267 20.8461L12.1246 20.9835C12.1234 21.059 12.1179 21.1216 12.1122 21.1226C12.1065 21.1236 12.0759 21.0942 12.0442 21.0571C11.975 20.9763 11.9189 20.7427 11.9372 20.612C11.9508 20.5153 11.9807 20.4894 12.389 20.221C12.8374 19.9261 13.5863 19.3132 13.689 19.157C13.7705 19.033 13.8132 18.8856 13.8648 18.55C13.9362 18.0851 13.9905 17.109 13.955 16.9295C13.9445 16.8763 13.9848 16.9246 14.0612 17.0565ZM11.2657 17.5838C11.1694 17.7169 11.1678 17.7227 11.2321 17.7061C11.2692 17.6966 11.3219 17.665 11.3493 17.636C11.3826 17.6007 11.3852 17.5907 11.3573 17.6058C11.3008 17.6363 11.2986 17.6044 11.3519 17.5267C11.3762 17.4914 11.3894 17.4583 11.3814 17.4533C11.3733 17.4483 11.3212 17.507 11.2657 17.5838ZM11.6091 17.7544C11.6379 17.9518 11.6373 17.977 11.6053 17.9017C11.5501 17.772 11.5351 17.6849 11.5514 17.5898C11.5592 17.5441 11.5675 17.5089 11.5699 17.5115C11.5723 17.5141 11.5899 17.6234 11.6091 17.7544ZM10.8383 17.7464C10.8453 17.7736 10.8525 17.7781 10.8567 17.7579C10.8605 17.7396 10.8554 17.7194 10.8452 17.7131C10.8351 17.7068 10.832 17.7217 10.8383 17.7464ZM11.7728 17.5715C11.8861 17.588 11.891 17.6068 11.7954 17.6579C11.6879 17.7153 11.6784 17.7137 11.6619 17.6351C11.6452 17.555 11.6481 17.5533 11.7728 17.5715ZM4.06071 21.4474C4.10321 21.5929 4.11489 21.6775 4.1038 21.7596C4.09541 21.8216 4.08433 21.8593 4.07918 21.8434C4.0655 21.8013 3.94816 21.237 3.93708 21.16C3.92818 21.0983 3.92983 21.099 3.96503 21.1712C3.98558 21.2133 4.02864 21.3377 4.06071 21.4474Z" fill="#E5D2A5"/>
</g>
<defs>
<clipPath id="clip0_929_1674">
<rect width="25" height="29" fill="white"/>
</clipPath>
</defs>
</svg>
