<svg width="87" height="87" viewBox="0 0 87 87" fill="none" xmlns="http://www.w3.org/2000/svg">
<path d="M43.5 0C19.4578 0 0 19.4561 0 43.5C0 67.5422 19.4561 87 43.5 87C67.5422 87 87 67.5439 87 43.5C87 19.4578 67.5439 0 43.5 0ZM33.1494 61.8499C33.1494 61.8499 18.1245 46.8189 17.0445 45.7409C14.642 43.3384 14.642 39.4288 17.0445 37.0284C19.4532 34.6197 23.3485 34.6197 25.7571 37.0284L35.4841 46.7554C36.6936 47.9649 38.6565 47.9565 39.8559 46.7409L61.2133 25.0755C63.6138 22.6402 67.5358 22.6237 69.9567 25.0448C72.3407 27.4288 72.3551 31.322 69.9874 33.7246C46.7943 57.2564 42.3897 61.8478 42.3897 61.8478C39.8435 64.3939 35.6977 64.3961 33.1494 61.8499Z" fill="#E4E4E4" fill-opacity="0.49"/>
</svg>
