<svg width="44" height="53" viewBox="0 0 44 53" fill="none" xmlns="http://www.w3.org/2000/svg">
<g clip-path="url(#clip0_975_510)">
<path fill-rule="evenodd" clip-rule="evenodd" d="M20.3077 1.16623C18.9541 2.53399 16.4925 4.37029 14.3975 5.57499C10.7807 7.65459 7.45793 8.56336 2.61915 8.79597C-0.41176 8.94173 -0.218723 8.79229 0.310011 10.5816C0.666283 11.7875 0.8051 12.3868 1.25982 14.6802C1.50457 15.9144 1.56321 17.7408 1.57013 24.342C1.57475 28.819 1.66146 32.8545 1.76278 33.31C1.8643 33.7656 2.02984 34.578 2.13079 35.1158C2.6651 37.9604 4.1396 40.7591 6.05535 42.5648C7.72653 44.1401 9.52288 45.4195 13.5784 47.9232C15.6249 49.1866 20.3008 52.1404 21.4709 52.9089C21.6559 53.0303 21.8432 53.0303 22.0274 52.9089C22.9081 52.3283 27.5713 49.3568 28.383 48.8592C36.4426 43.9169 38.3615 42.289 39.9592 39.0372C40.7634 37.4008 41.0484 36.4523 41.5695 33.6781C41.9131 31.8488 41.966 30.8335 41.9603 26.1949C41.9567 23.2432 41.9017 20.63 41.8383 20.3876C41.6698 19.7453 42.0724 15.0425 42.4335 13.4342C42.8127 11.7452 43.2464 10.1781 43.4983 9.58752C43.6202 9.30114 43.6207 9.08234 43.4996 8.96639C43.3967 8.86793 42.4625 8.80058 41.4235 8.8164C38.8579 8.85579 35.0435 8.21571 33.1606 7.42988C32.8274 7.29074 32.5031 7.17701 32.4401 7.17701C32.3771 7.17701 31.7413 6.91476 31.0272 6.59399C28.8421 5.61308 25.5947 3.42012 23.7148 1.65613C22.7436 0.74516 21.8393 -0.000184001 21.7051 3.40733e-08C21.5711 0.00018407 20.9422 0.525053 20.3077 1.16623Z" fill="#E5D2A5"/>
<path fill-rule="evenodd" clip-rule="evenodd" d="M15.1196 14.7971C14.7466 14.9663 14.5096 15.197 14.4243 15.4736C14.4008 15.5493 14.3855 15.797 14.3902 16.024C14.4047 16.7375 14.3019 17.1739 14.0811 17.3353C13.9997 17.3948 13.9537 17.4689 13.958 17.5343C13.9635 17.6222 13.9101 17.6678 13.6166 17.826C12.916 18.2034 12.5699 18.712 12.6712 19.2149C12.7151 19.4324 12.8149 19.5172 12.9527 19.4542C13.0283 19.4196 13.0429 19.4362 13.0756 19.5938C13.0959 19.6922 13.1901 19.899 13.2848 20.0535C13.518 20.4342 13.5208 20.4688 13.3237 20.5403C12.7268 20.7564 12.6846 20.7825 12.6986 20.9268C12.7226 21.1733 12.8171 21.19 13.241 21.0226C13.6463 20.8625 13.6576 20.8648 13.7085 21.1173C13.746 21.3029 14.1349 21.9548 14.3761 22.2363C14.5697 22.4622 14.5838 22.4926 14.5484 22.6074C14.477 22.8388 14.5055 23.2234 14.6133 23.4819C14.7297 23.7614 14.7196 23.6992 14.7346 24.2299C14.7418 24.4815 14.7765 24.7412 14.8205 24.8728L14.8944 25.0936L14.5855 25.1514C14.2304 25.2179 13.9235 25.3961 13.9136 25.5416C13.9101 25.5916 13.9033 25.6332 13.8984 25.6341C13.6587 25.6782 12.9678 26.0329 12.6044 26.2983C12.4217 26.4319 12.4201 26.4322 12.2375 26.3812C11.8794 26.2814 11.4567 26.2986 10.6269 26.447C9.72544 26.6082 9.49306 26.6936 8.89215 27.0843C8.27367 27.4866 7.84465 27.8608 7.6709 28.1498C7.42148 28.5646 6.66012 29.5159 6.36516 29.7813C6.21637 29.9151 6.01946 30.1209 5.9276 30.2385L5.76057 30.4524L5.92029 30.3181C6.31156 29.9892 6.42658 29.9025 6.45101 29.9183C6.50499 29.9533 6.41793 30.3106 6.27079 30.6583C6.15438 30.9334 6.04657 31.0933 5.81418 31.3357C5.64679 31.5103 5.49752 31.6912 5.48236 31.7379C5.45647 31.8175 5.46475 31.8156 5.61543 31.7084C5.70374 31.6454 5.78935 31.5915 5.8056 31.5885C5.82185 31.5856 5.68639 31.7964 5.50456 32.057C5.07535 32.6721 5.03559 32.7677 5.09731 33.0361C5.12438 33.154 5.14476 33.2004 5.14255 33.1395C5.13333 32.8812 5.15016 32.8142 5.27296 32.6202C5.38465 32.4439 5.57226 32.2566 5.652 32.2419C5.72234 32.229 5.68079 32.3493 5.5654 32.4927C5.48227 32.5959 5.43548 32.712 5.436 32.8135C5.43661 32.933 5.36341 33.0768 5.14117 33.3923C4.86871 33.7789 4.85841 33.8024 5.01015 33.6909C5.10077 33.6243 5.23003 33.5117 5.29749 33.4407C5.47508 33.2538 5.50774 33.2713 5.36645 33.4778C5.29914 33.5762 5.26428 33.6529 5.28895 33.6484C5.31362 33.6439 5.35468 33.6112 5.38018 33.5758C5.41753 33.5239 5.42524 33.5355 5.41981 33.6355C5.41079 33.8024 5.45458 33.7841 5.51507 33.5956C5.55184 33.481 5.57256 33.4595 5.59566 33.5115C5.61276 33.55 5.61168 33.628 5.59323 33.6847C5.5703 33.7554 5.57349 33.7758 5.60335 33.7496C5.65028 33.7083 5.67818 33.7659 5.63845 33.822C5.62521 33.8406 5.62417 33.9135 5.63608 33.984C5.64977 34.0649 5.67045 34.094 5.69225 34.0631C5.78937 33.926 5.79392 34.0341 5.70301 34.3174L5.60116 34.6348L5.75561 34.4306C5.84055 34.3182 5.92776 34.1948 5.94934 34.1564C5.97097 34.1179 6.0107 34.0946 6.03765 34.1043C6.06462 34.1141 6.14555 34.0711 6.21749 34.0087C6.28948 33.9462 6.35828 33.9017 6.37042 33.9095C6.38256 33.9174 6.27574 34.0787 6.13307 34.2682C5.90474 34.5712 5.88702 34.6101 5.98531 34.592C6.04678 34.5807 6.24041 34.497 6.41566 34.4059C6.59093 34.3149 6.73725 34.2551 6.74088 34.273C6.7445 34.291 6.67876 34.3728 6.59477 34.4549C6.51078 34.537 6.41287 34.6508 6.37726 34.7079C6.31346 34.81 6.31409 34.8108 6.41847 34.7585C6.5238 34.7058 6.52381 34.7065 6.4178 34.871C6.31755 35.0265 6.32618 35.0218 6.55959 34.7944C6.69627 34.6612 6.88905 34.4709 6.988 34.3714C7.08693 34.272 7.20339 34.1622 7.24681 34.1274C7.3244 34.0652 7.32474 34.0664 7.268 34.2042C7.23626 34.2812 7.29113 34.2189 7.38991 34.0657C7.56238 33.7981 7.61769 33.6799 7.90982 32.9548C8.07365 32.5481 8.34554 32.0061 8.37588 32.0257C8.38839 32.0339 8.39704 32.1583 8.39506 32.3022C8.39312 32.4463 8.40037 32.6328 8.41118 32.7167C8.42198 32.8007 8.42433 32.9108 8.41641 32.9614L8.40198 33.0533L8.4591 32.9535C8.6607 32.6012 8.77672 32.0531 8.74659 31.595C8.73824 31.4679 8.78239 31.1483 8.84471 30.8848C8.96551 30.374 9.03589 30.2061 9.03259 30.4366C9.03093 30.5521 9.03777 30.5446 9.08123 30.383C9.10905 30.2796 9.15955 30.0793 9.19347 29.9379C9.25137 29.6963 9.53271 29.0073 9.68612 28.7311L9.75528 28.6068L9.71721 28.7925C9.69626 28.8945 9.6603 29.0395 9.63725 29.1147L9.59545 29.2513L9.70583 29.1392C9.85342 28.9895 10.0399 28.7024 10.2278 28.336C10.3885 28.0224 10.4691 27.9619 10.8095 27.8993L10.9622 27.8712L10.7955 28.1809C10.3294 29.0473 10.2825 29.501 10.4767 31.265C10.5743 32.152 10.5357 32.7758 10.3374 33.5167C10.2167 33.9675 10.0853 34.1662 9.61027 34.6161C9.13788 35.0634 9.01811 35.2772 8.90482 35.8754C8.80191 36.4186 8.70222 36.698 8.45427 37.1385C8.09515 37.7763 7.75487 38.0911 7.17899 38.3184C6.85315 38.447 6.79676 38.5345 6.76688 38.9584C6.74504 39.2677 6.85367 39.9449 6.95697 40.1432C7.04009 40.3028 7.28331 40.3412 7.75861 40.2697C8.3527 40.1803 8.58692 40.079 8.73698 39.8465C8.95314 39.5115 9.12457 39.267 9.28544 39.064C9.39381 38.9272 9.48824 38.7063 9.59621 38.337C9.84739 37.4773 10.0398 37.0922 10.5953 36.3362C11.1788 35.5422 12.2412 34.2848 12.8524 33.6649C13.7281 32.7767 14.1665 32.3109 14.3323 32.0928L14.503 31.8684L14.6929 31.8962C14.7975 31.9115 14.958 31.9111 15.0495 31.8953C15.2599 31.8591 15.3031 31.9051 15.2725 32.132C15.2539 32.2693 15.1371 32.4597 14.7918 32.9154C14.0916 33.8396 13.8854 34.2719 13.9624 34.6541C14.0397 35.0377 14.505 35.2762 15.4149 35.3984C15.8231 35.4533 15.9182 35.482 16.6881 35.7824C17.8 36.2163 18.0363 36.4206 18.0124 36.9283L18.0009 37.1712L18.1863 37.2764C18.2882 37.3342 18.501 37.4482 18.6593 37.5296C18.8176 37.611 19.0278 37.746 19.1265 37.8296C19.2252 37.9131 19.3469 37.9841 19.3969 37.9872C19.5299 37.9956 19.7449 37.8192 19.8053 37.6522C19.8766 37.4547 19.8149 36.723 19.691 36.2972C19.6356 36.1071 19.5549 35.8055 19.5116 35.627C19.4529 35.3844 19.4008 35.2688 19.3059 35.1701C19.1623 35.021 19.0567 34.9885 18.5492 34.9378C18.1431 34.8973 17.5551 34.7751 17.2576 34.6691C16.96 34.5633 16.6155 34.3795 16.6035 34.3203C16.586 34.2332 17.1732 33.4599 17.573 33.0435C17.8097 32.7972 18.0408 32.496 18.1929 32.2358C18.4683 31.7644 18.5844 31.6691 18.898 31.6567L19.114 31.6482L19.0392 31.4229C18.998 31.299 18.8833 31.0621 18.7843 30.8966C18.4209 30.2897 18.2716 29.8629 18.0661 28.8447C17.9512 28.2753 17.8881 28.0498 17.8044 27.9105C17.7301 27.7868 17.6881 27.6523 17.6758 27.4989L17.6575 27.271L17.2496 27.0414C16.8196 26.7994 15.9053 26.2243 16.2197 26.3937C16.789 26.7001 16.7881 26.7014 16.2807 26.2972C16.1344 26.1807 15.9317 25.9827 15.8303 25.8572C15.729 25.7317 15.5708 25.5733 15.479 25.5051C15.3872 25.4369 15.3292 25.3661 15.3503 25.3475C15.4386 25.2699 16.419 24.9918 16.9476 24.8946L17.5186 24.7895L17.619 24.9831C17.7858 25.3048 17.9856 25.5539 18.3761 25.9272C18.7381 26.2731 19.0213 26.6237 19.0488 26.7602C19.0621 26.8267 19.04 26.8377 18.7692 26.8983C18.6428 26.9266 18.5722 26.881 17.9158 26.3463C17.5221 26.0258 17.1528 25.732 17.0951 25.6935C17.0372 25.655 17.297 25.9488 17.6723 26.3464L18.3547 27.0693L18.1643 27.2022L17.9738 27.3349L18.4257 27.2597C18.7354 27.2083 18.8371 27.2028 18.7491 27.2424C18.6268 27.2973 18.6297 27.2987 18.8073 27.2711C18.9101 27.2551 19.0623 27.2425 19.1457 27.243L19.2973 27.2441L19.3507 27.6109C19.3875 27.8642 19.3865 27.9934 19.3477 28.0284C19.3167 28.0563 19.0486 28.1257 18.7518 28.1826C18.2619 28.2767 18.226 28.2891 18.3605 28.3185C18.442 28.3362 18.676 28.3529 18.8803 28.3556C19.0847 28.3582 19.2627 28.3674 19.2758 28.3759C19.289 28.3844 19.2107 28.4097 19.1017 28.4319C18.9173 28.4695 18.9134 28.4731 19.0457 28.4822C19.1238 28.4877 19.2426 28.4937 19.3096 28.4957C19.4269 28.4992 19.4317 28.5075 19.4374 28.7113C19.4406 28.8279 19.487 29.2066 19.5404 29.5528C19.5938 29.8992 19.633 30.2135 19.6276 30.2513C19.6208 30.2992 19.4784 30.2242 19.157 30.003L18.6961 29.6859L19.0341 30.0925C19.22 30.3162 19.4721 30.6195 19.5944 30.7665C19.7238 30.9219 19.8293 31.0954 19.8466 31.1811C19.8629 31.2622 19.9573 31.4655 20.0561 31.6329C20.2201 31.9105 20.231 31.945 20.1803 32.0248C20.1498 32.073 20.1326 32.2145 20.1421 32.3393C20.1603 32.5801 20.1558 32.5853 19.8455 32.6817C19.773 32.7043 19.8363 32.7054 19.9861 32.6842L20.2586 32.6456L20.0641 32.7233C19.9571 32.7661 19.7627 32.8131 19.632 32.8279C19.364 32.8583 19.3641 32.907 19.6322 32.933C19.7354 32.943 19.8374 32.9863 19.8727 33.0351C19.931 33.116 19.9617 33.1146 20.5412 33.0056C21.1593 32.8894 21.3431 32.8135 21.3171 32.6852C21.3086 32.6429 21.3527 32.6129 21.4506 32.5942C21.6437 32.5574 21.9218 32.3656 21.9883 32.2233C22.0647 32.0602 21.9948 31.7604 21.8619 31.6808C21.7577 31.6183 21.7664 31.6137 22.3372 31.4321C22.9892 31.2247 24.1151 30.9606 24.3044 30.9707C24.4656 30.9793 24.4871 31.0839 24.4677 31.7668C24.446 32.5314 24.3842 33.0918 24.3081 33.2143C24.2712 33.2736 24.2125 33.5421 24.1777 33.811C24.0583 34.7335 23.9469 35.0096 23.5493 35.368C22.9403 35.9169 21.9316 36.7181 21.5454 36.9597C20.9523 37.3307 20.8517 37.4352 20.8102 37.7234C20.7602 38.0707 20.8651 38.5721 21.0243 38.7469C21.1844 38.9226 21.5816 39.0758 21.8883 39.0801C22.34 39.0864 22.5202 38.9482 22.8538 38.339C22.9214 38.2156 23.0568 38.083 23.2523 37.9486C23.4752 37.7954 23.6232 37.6417 23.8509 37.3271C24.0171 37.0972 24.4084 36.611 24.7202 36.2466C25.032 35.8822 25.3509 35.4997 25.4289 35.3964C25.6458 35.1093 25.8171 34.692 25.9018 34.2441C26.1082 33.1532 26.3326 32.4176 26.6102 31.9219C26.7679 31.6405 26.9203 31.1522 26.922 30.923C26.9232 30.7554 26.9434 30.7508 27.4966 30.7925C27.7313 30.8101 28.214 30.8412 28.5691 30.8614C29.6951 30.9256 30.3895 31.0768 30.8848 31.3662C31.1073 31.496 31.1468 31.5443 31.3813 31.9739C32.2946 33.647 32.3226 33.7108 32.2289 33.9111C32.1545 34.07 32.2278 34.4357 32.3699 34.6149C32.5981 34.9024 33.1751 35.187 33.5037 35.1739C33.8108 35.1617 34.1348 34.983 34.195 34.7926C34.2689 34.5584 34.1204 33.7623 33.9435 33.445C33.869 33.3113 33.7642 33.0532 33.7106 32.8713C33.5964 32.4839 33.4395 32.2025 33.2601 32.0634C33.0762 31.9208 32.3117 31.0283 31.8809 30.4535C31.6662 30.167 31.4326 29.907 31.3199 29.8292C31.0935 29.6729 30.5126 29.4429 29.7451 29.2057C28.6973 28.8818 28.4493 28.8016 28.4032 28.7722C28.3775 28.7555 28.3949 28.5429 28.4427 28.2905C28.5834 27.5484 28.5787 27.4498 28.3354 26.0369C28.1666 25.0568 28.1083 24.6023 28.0973 24.1829C28.0857 23.7427 27.95 21.8066 27.9205 21.6599C27.8959 21.5381 28.447 21.657 28.8212 21.8541C28.9706 21.9328 29.2867 22.0318 29.5689 22.0882C29.9939 22.1732 30.1069 22.2176 30.4335 22.4279C30.8761 22.7129 31.1382 22.7853 31.483 22.7177C32.1606 22.5851 32.3679 21.9918 32.1077 20.931C31.9723 20.3791 31.9166 20.3073 31.1968 19.7574C30.886 19.5199 30.5016 19.1819 30.3423 19.0062C29.8428 18.4548 29.4019 18.038 29.0244 17.7606C28.824 17.6133 28.5796 17.3853 28.4814 17.2541C28.3831 17.1228 28.2278 16.9598 28.1364 16.8919L27.9701 16.7686L27.9864 16.5227C28.0031 16.2702 27.933 15.8288 27.8501 15.6657C27.7859 15.5393 27.714 15.5648 27.5916 15.7578L27.4876 15.922L27.5958 15.7905L27.7041 15.6591L27.6683 15.7774C27.6486 15.8424 27.5733 16.027 27.501 16.1877C27.4286 16.3484 27.3654 16.489 27.3604 16.5001C27.3554 16.5113 27.3399 16.513 27.3259 16.5039C27.312 16.4948 27.333 16.3821 27.3727 16.2534L27.4449 16.0195L27.3586 16.1692C27.3113 16.2516 27.2612 16.311 27.2474 16.3014C27.2336 16.2916 27.1809 16.1437 27.1304 15.9727C27.0289 15.6297 27.003 15.5871 26.9062 15.605C26.8216 15.6205 26.6173 16.1044 26.5288 16.499C26.4503 16.8487 26.4743 16.8322 25.8327 16.9785C25.5594 17.0407 25.3262 17.1195 25.2314 17.1812C25.0927 17.272 25.0316 17.3428 25.1179 17.313C25.293 17.2525 25.2338 17.3224 25.0011 17.4509C24.8429 17.5383 24.7049 17.6218 24.6944 17.6365C24.684 17.6513 24.8229 17.6264 25.003 17.5812L25.3305 17.4992L25.1652 17.6056C25.0743 17.6642 24.8247 17.8745 24.6105 18.073C24.3964 18.2715 24.1432 18.4688 24.0479 18.5115C23.911 18.573 23.8941 18.592 23.9671 18.6024C24.04 18.6127 24.0111 18.6444 23.8312 18.7523L23.6028 18.8891L23.8564 18.8155C23.996 18.7749 24.1125 18.7538 24.1155 18.7686C24.1185 18.7834 24.0163 18.8754 23.8883 18.9732C23.7603 19.071 23.6288 19.1744 23.596 19.203C23.5632 19.2316 23.4114 19.3387 23.2587 19.441C22.9916 19.6198 22.8767 19.7394 23.0969 19.6092C23.1557 19.5746 23.2668 19.5264 23.3438 19.5022C23.5556 19.4357 23.7362 19.3513 23.7874 19.2948C23.8126 19.2669 23.8712 19.2449 23.9175 19.2458C23.9834 19.247 23.9722 19.2703 23.8664 19.3517C23.7919 19.4091 23.652 19.4973 23.5557 19.5478C23.0448 19.8153 22.7829 19.9904 22.418 20.309C22.2464 20.4588 22.2656 20.456 22.5877 20.2849C22.8561 20.1422 23.5281 19.8429 23.6059 19.8315C23.7223 19.8143 23.3008 20.0823 23.0594 20.1789C22.6885 20.3273 22.5865 20.4143 22.8284 20.3761L23.0095 20.3474L22.7825 20.4749C22.6577 20.545 22.548 20.6132 22.5386 20.6263C22.5293 20.6396 22.6941 20.6064 22.9049 20.5527C23.1156 20.4989 23.2901 20.465 23.2925 20.4772C23.2949 20.4894 23.1569 20.5824 22.9858 20.6838C22.8147 20.7852 22.6983 20.8768 22.7271 20.8873C22.7558 20.8978 22.6788 20.9882 22.5556 21.0883C22.4324 21.1883 22.3336 21.2803 22.3362 21.2928C22.3387 21.3052 22.3762 21.2879 22.4196 21.2543C22.4631 21.2206 22.6238 21.1584 22.777 21.1159L23.0554 21.0387L22.8067 21.2174C22.67 21.3156 22.4525 21.4302 22.3235 21.4721C22.1945 21.5139 22.022 21.5866 21.9403 21.6339L21.7918 21.7196L22.0261 21.6797C22.1551 21.6576 22.2795 21.6594 22.3026 21.6835C22.326 21.7077 22.3228 21.7193 22.2958 21.7095C22.2461 21.6914 21.8177 21.964 21.8266 22.0081C21.8293 22.0212 21.9388 21.9994 22.07 21.9597C22.3318 21.8802 22.5665 21.874 22.5373 21.9473C22.527 21.973 22.4503 22.0066 22.3667 22.0221C22.1946 22.0537 21.6786 22.2543 21.522 22.3504C21.4424 22.3993 21.5275 22.3947 21.8877 22.3306C22.146 22.2846 22.35 22.2574 22.341 22.2702C22.332 22.2828 22.1247 22.3404 21.8803 22.3982C21.636 22.4559 21.3688 22.5343 21.2865 22.5721C21.145 22.6373 21.1515 22.6389 21.4089 22.5998L21.6807 22.5586L21.3821 22.6746C21.0985 22.7849 21.076 22.7875 20.9346 22.7258L20.7858 22.6607L20.935 22.4671C21.1773 22.1526 21.2038 21.8106 21.0122 21.4706C20.6828 20.886 20.4677 20.8548 19.8344 21.2996L19.5272 21.5154L19.0235 21.4713C18.7465 21.447 18.4328 21.3947 18.3265 21.3549C18.2202 21.3152 18.1154 21.2859 18.0936 21.2899C18.0534 21.2973 17.9422 20.6489 17.9085 20.2094C17.8923 19.9994 17.9068 19.9529 18.0231 19.8422C18.1193 19.7505 18.2209 19.7036 18.3902 19.6724C18.5649 19.6403 18.69 19.5805 18.8843 19.4364C19.1866 19.2122 19.3046 18.9947 19.2556 18.7519C19.2234 18.592 19.2254 18.5893 19.4494 18.4971C19.574 18.4458 19.8407 18.3355 20.0421 18.2518C20.2434 18.1681 20.7675 17.9529 21.2066 17.7738C21.6455 17.5947 22.4513 17.2656 22.9971 17.0426C23.5429 16.8196 24.4943 16.4319 25.1116 16.1811C27.4397 15.2349 28.9644 14.6014 30.3253 14.015C32.1105 13.2458 34.1971 12.377 34.3625 12.3341C34.4775 12.3042 34.8426 12.1685 35.1739 12.0324C35.8566 11.752 35.9131 11.736 35.9296 11.818C35.9379 11.8587 36.2142 11.7125 36.8168 11.3486C37.2981 11.0579 37.7038 10.8027 37.7181 10.7813C37.7325 10.7599 37.5843 10.7836 37.389 10.8338C37.1937 10.8839 36.7235 10.9828 36.3445 11.0535C35.6799 11.1775 35.6567 11.185 35.7003 11.2617C35.7346 11.3221 35.7217 11.3513 35.6462 11.3833C35.4864 11.4514 34.0973 12.0212 32.6786 12.6008C31.9548 12.8964 30.6157 13.4462 29.7028 13.8224C28.7898 14.1987 27.3346 14.7984 26.4691 15.1551C25.6036 15.5118 24.3335 16.0364 23.6468 16.3207C22.96 16.605 22.3197 16.8622 22.2238 16.8919C22.128 16.9218 21.8837 17.0159 21.6809 17.101C21.2838 17.2676 20.4598 17.6043 19.3917 18.0366C19.0236 18.1855 18.6718 18.3303 18.61 18.3583C18.5077 18.4046 18.4976 18.3992 18.4975 18.2971C18.4973 18.1979 18.4754 18.1835 18.3077 18.1718C18.0116 18.1511 17.7341 18.2848 17.4897 18.5659L17.2851 18.8013L17.0531 18.4322C16.9255 18.2293 16.8054 18.0354 16.7863 18.0013C16.7611 17.9566 16.8113 17.9053 16.9658 17.8177C17.1743 17.6996 17.7376 17.211 17.7755 17.1156C17.786 17.0896 17.7238 16.925 17.6374 16.7499C17.551 16.5749 17.4543 16.3023 17.4224 16.1441C17.3582 15.8255 17.1242 15.3164 16.9367 15.0872C16.7806 14.8966 16.4678 14.695 16.2385 14.6376C16.01 14.5803 15.4081 14.6661 15.1196 14.7971ZM15.4884 14.8891L15.2569 15.015L15.5335 14.9687C16.0308 14.8854 16.0865 14.8984 16.2838 15.1428C16.497 15.4069 16.7601 15.8699 16.7948 16.042C16.8235 16.1847 16.7632 16.2336 16.4142 16.3501C16.2282 16.4122 16.2089 16.4285 16.2823 16.4616C16.3617 16.4975 16.3664 16.5191 16.3441 16.7435L16.32 16.9866L16.2176 16.8982C16.0809 16.7802 15.9897 16.5524 16.0425 16.4605C16.0653 16.4207 16.0698 16.3789 16.0524 16.3677C15.9999 16.3337 15.8927 16.6629 15.9187 16.778C15.9402 16.8731 15.9471 16.8758 15.9803 16.8018C16.0122 16.731 16.0462 16.7649 16.2068 17.0272C16.3108 17.1971 16.3928 17.3402 16.389 17.3453C16.3853 17.3505 16.1887 17.3323 15.952 17.3049C14.9449 17.1885 14.705 17.2003 15.1007 17.3469C15.2231 17.3922 15.28 17.423 15.2271 17.4152C14.7664 17.3473 14.4536 17.2981 14.4385 17.2912C14.4286 17.2865 14.4397 17.1548 14.4632 16.9983C14.4867 16.8418 14.499 16.4715 14.4904 16.1753C14.4686 15.4228 14.4628 15.4382 14.7925 15.3776C15.0875 15.3233 15.666 15.3505 15.863 15.4279C15.9307 15.4545 16.0072 15.4648 16.0333 15.4508C16.1088 15.4102 15.1574 15.1821 14.9401 15.1887L14.7432 15.1947L14.86 15.1052C15.0377 14.9691 15.2818 14.8579 15.5121 14.8081L15.7198 14.7632L15.4884 14.8891ZM36.5888 11.1496C36.1955 11.2831 36.0108 11.3281 35.9298 11.3104C35.6932 11.2589 35.8639 11.1884 36.4952 11.077L37.1351 10.9642L36.5888 11.1496ZM33.9407 12.2599C33.8707 12.295 33.6388 12.3951 33.4252 12.4824C33.2117 12.5697 32.737 12.7685 32.3702 12.9243C31.3646 13.3515 30.2442 13.8148 29.3487 14.1737C28.6637 14.4483 28.1689 14.6534 27.2197 15.0566C27.0374 15.1341 25.8426 15.6165 25.1902 15.8761C24.9762 15.9612 24.5678 16.1244 24.2826 16.2385C23.9974 16.3527 23.521 16.5434 23.224 16.6623C22.9269 16.7812 22.4632 16.9693 22.1935 17.0801C21.9239 17.1909 21.3113 17.4356 20.8322 17.6237C20.3531 17.8118 19.9124 17.9849 19.8529 18.0084C19.7934 18.0319 19.7528 18.0387 19.7626 18.0236C19.7724 18.0084 20.2749 17.7912 20.8793 17.5408C21.4839 17.2904 22.249 16.9687 22.5798 16.8259C23.2811 16.5231 24.672 15.9476 25.5969 15.5775C25.9534 15.4348 26.6617 15.1433 27.1709 14.9298C27.68 14.7163 28.427 14.4087 28.8309 14.2464C29.2348 14.0841 29.6915 13.8999 29.8458 13.8371C30.0001 13.7744 30.4083 13.6106 30.753 13.4732C31.0978 13.3358 31.7199 13.0864 32.1356 12.9188C33.5168 12.362 34.3291 12.0656 33.9407 12.2599ZM14.8657 16.0744C14.9563 16.1301 15.9318 16.065 15.8455 16.009C15.809 15.9855 15.0688 15.9967 14.9254 16.023C14.8579 16.0354 14.8348 16.0554 14.8657 16.0744ZM16.723 16.5224C16.7192 16.5868 16.6961 16.7367 16.6715 16.8557L16.6269 17.0719L16.6028 16.8307L16.5787 16.5896L16.539 16.8425L16.4993 17.0954L16.4685 16.8108C16.4515 16.6543 16.4434 16.5101 16.4505 16.4903C16.4574 16.4706 16.5231 16.4435 16.5964 16.43C16.7174 16.4077 16.7291 16.4163 16.723 16.5224ZM16.8323 16.7941L16.7916 16.9523L16.7754 16.7374C16.7531 16.4435 16.7796 16.3343 16.832 16.5039C16.8545 16.5765 16.8546 16.7071 16.8323 16.7941ZM14.7689 17.4588C15.1562 17.5216 15.6074 17.6357 15.6732 17.6873C15.7025 17.7104 15.7504 17.7783 15.7796 17.8382C15.8313 17.9443 15.8284 17.947 15.671 17.9423C15.582 17.9395 15.3556 17.8934 15.1677 17.8397C14.9797 17.786 14.6775 17.7093 14.4961 17.6692C14.2401 17.6127 14.1621 17.576 14.1479 17.5059C14.1317 17.4251 14.1481 17.4154 14.3045 17.4137C14.4006 17.4126 14.6095 17.4329 14.7689 17.4588ZM14.5117 17.9188C14.8015 18.043 15.1362 18.3194 15.245 18.5243C15.281 18.5922 15.3066 18.6531 15.302 18.6596C15.2974 18.6661 15.2115 18.6503 15.1113 18.6245C14.9546 18.5842 14.4447 18.5674 14.2824 18.5973C14.1713 18.6177 14.2528 18.6864 14.3924 18.6899C14.5389 18.6936 14.8926 18.7956 14.8699 18.8276C14.8633 18.837 14.6992 18.8348 14.5051 18.823C14.0075 18.7924 13.6011 18.8749 13.2421 19.0789C13.0824 19.1697 12.9301 19.248 12.9036 19.2528C12.8729 19.2585 12.8493 19.1878 12.8387 19.0587C12.8188 18.816 12.9506 18.5165 13.1506 18.3496L13.2905 18.2329L13.1548 18.4085C13.0316 18.5679 12.95 18.7443 12.965 18.8189C12.9682 18.8348 13.0378 18.7409 13.1195 18.6104C13.2611 18.3843 13.5259 18.1624 13.9338 17.9279C14.1726 17.7906 14.2111 17.7899 14.5117 17.9188ZM15.5656 18.1235C15.6676 18.1446 15.8126 18.163 15.8878 18.1645C16.0078 18.1669 16.0447 18.2013 16.1897 18.4459C16.2806 18.5992 16.3659 18.784 16.3794 18.8565L16.4039 18.9885L16.316 18.8707C16.2291 18.7543 16.2286 18.7557 16.2745 19.0022C16.3151 19.2196 16.309 19.2585 16.227 19.3061C16.057 19.4048 15.55 19.5865 15.5125 19.5623C15.4923 19.5492 15.5046 19.4295 15.5398 19.2963C15.637 18.9287 15.5496 18.5625 15.2871 18.237C15.1762 18.0996 15.084 17.9795 15.0822 17.9703C15.0802 17.9611 15.1465 17.9831 15.2294 18.0193C15.3122 18.0556 15.4635 18.1024 15.5656 18.1235ZM26.8404 16.0524C26.7602 16.454 26.5838 16.8825 26.5559 16.7439C26.5307 16.6186 26.7933 15.849 26.8658 15.8357C26.8761 15.8338 26.8646 15.9314 26.8404 16.0524ZM14.1728 19.0192C14.071 19.0662 14.0737 19.0688 14.2306 19.0739C14.321 19.0768 14.5073 19.1039 14.6444 19.1339C14.8909 19.1879 14.8949 19.1913 14.9713 19.4141C15.0138 19.5382 15.0832 19.7003 15.1256 19.7744C15.1939 19.8938 15.1927 19.9245 15.1157 20.0442C15.0679 20.1185 14.998 20.2469 14.9604 20.3297C14.8848 20.496 14.7845 21.0003 14.8222 21.0247C14.8353 21.0332 14.9072 20.9095 14.982 20.7499C15.1228 20.4495 15.3667 20.1394 15.4782 20.1188C15.5769 20.1006 15.7619 20.372 15.8435 20.6545C15.9063 20.8717 15.9059 20.9333 15.8412 21.0762C15.7332 21.3144 15.4296 21.6054 15.2185 21.6731L15.0404 21.7301L15.1832 21.7867C15.3352 21.8469 15.2753 21.8857 15.1072 21.8357C14.9905 21.8011 14.8308 21.5882 14.7975 21.4231C14.7833 21.3528 14.7011 21.2557 14.5848 21.1719C14.3415 20.9965 14.0601 20.6474 13.8772 20.2941C13.7152 19.981 13.5478 19.319 13.5945 19.1753C13.6278 19.0728 13.7929 19.0102 14.0959 18.9851C14.2553 18.9718 14.2656 18.9764 14.1728 19.0192ZM13.5179 19.5529C13.5591 19.7725 13.6273 20.0412 13.6694 20.1502C13.7206 20.2826 13.7302 20.3511 13.6982 20.357C13.672 20.3618 13.6415 20.3219 13.6307 20.2682C13.6199 20.2147 13.5529 20.1022 13.4816 20.0184C13.4104 19.9345 13.3157 19.7627 13.2713 19.6366C13.1968 19.4255 13.1977 19.3977 13.2829 19.2866C13.3339 19.2203 13.3906 19.1633 13.4092 19.1598C13.4277 19.1564 13.4766 19.3333 13.5179 19.5529ZM18.1126 18.4522C17.7881 18.6982 17.7671 18.8618 18.0411 19.0108L18.1788 19.0857L18.0666 19.108C17.9637 19.1285 17.9619 19.1338 18.0447 19.173C18.1737 19.234 18.166 19.249 17.9529 19.3508C17.7433 19.4508 17.6836 19.4414 17.3855 19.262C17.2281 19.1671 17.2159 19.2081 17.3465 19.3934L17.4289 19.5101L17.081 19.766C16.7834 19.985 16.7242 20.0141 16.6709 19.9673C16.6201 19.9225 16.6045 19.9447 16.585 20.0879C16.5707 20.1947 16.5162 20.3015 16.4462 20.3608C16.3175 20.4694 16.3164 20.4683 16.2696 20.1742C16.2582 20.1026 16.2227 20.0187 16.1908 19.9877C16.1482 19.9465 16.1443 19.9901 16.1762 20.1512C16.2295 20.4197 16.2001 20.6431 16.1015 20.7195C15.9923 20.8043 15.9936 20.8057 15.9068 20.52C15.8626 20.3747 15.7908 20.1477 15.7473 20.0157C15.6712 19.7842 15.6722 19.774 15.7766 19.7274C15.8362 19.7009 15.9267 19.6916 15.9777 19.7068C16.0392 19.7251 16.0946 19.715 16.1418 19.6769C16.1916 19.6368 16.2765 19.6279 16.4242 19.6476C16.6277 19.6747 16.6427 19.6701 16.841 19.5212C16.9541 19.4362 17.1905 19.1847 17.3663 18.9622C17.7336 18.4978 17.8702 18.3854 18.122 18.3405L18.3024 18.3084L18.1126 18.4522ZM14.2732 19.4921C14.3315 19.8032 14.6423 20.4066 14.7356 20.3894C14.8263 20.3728 14.5749 19.7497 14.3635 19.4671L14.2369 19.2978L14.2732 19.4921ZM25.1801 17.9745C24.8911 18.2689 24.6172 18.8831 24.0942 20.4092C23.8865 21.0155 23.6932 21.4818 23.5382 21.7507C23.4076 21.9774 23.2907 22.1646 23.2786 22.1668C23.2663 22.1691 23.3851 21.881 23.5425 21.5266C23.8326 20.8734 23.9221 20.6415 24.0897 20.1087C24.2387 19.6347 24.6097 18.7014 24.7424 18.4665C24.8732 18.2349 25.2117 17.8369 25.2902 17.8225C25.3165 17.8176 25.2669 17.8861 25.1801 17.9745ZM28.7438 17.9099C29.1974 18.2167 29.5443 18.5154 29.7796 18.8017C29.8835 18.9281 30.0936 19.1607 30.2466 19.3186C30.6314 19.7159 30.648 19.7386 30.4502 19.5971C30.2934 19.4849 29.4223 18.667 29.3567 18.5703C29.3189 18.5147 29.0787 18.3044 28.8085 18.0906C28.5241 17.8654 28.2739 17.6246 28.2641 17.5664C28.26 17.5421 28.2875 17.5564 28.3254 17.5978C28.3632 17.6394 28.5514 17.7798 28.7438 17.9099ZM17.7966 19.8535C17.6976 19.9353 17.4701 20.11 17.2911 20.2416C16.9937 20.4605 16.6066 20.77 16.2757 21.0534C16.2044 21.1144 16.1442 21.1542 16.1418 21.1419C16.132 21.0938 16.8791 20.4224 17.2271 20.1664C17.7679 19.7686 18.1618 19.5522 17.7966 19.8535ZM13.4906 20.6151C13.3798 20.683 12.9638 20.8206 12.9921 20.78C13.0172 20.7438 13.3492 20.6106 13.484 20.5828L13.5737 20.5642L13.4906 20.6151ZM14.1162 20.916C14.1835 21.0078 14.3211 21.1534 14.422 21.2397C14.5229 21.3259 14.6142 21.44 14.6251 21.4931C14.6657 21.6916 14.8171 21.9141 14.9773 22.0104C15.1165 22.094 15.1693 22.1014 15.3088 22.0567C15.4011 22.0271 15.5608 21.9164 15.6688 21.8072C15.7756 21.6993 15.8882 21.6065 15.9192 21.6011C15.9502 21.5956 16.0906 21.6187 16.2313 21.6525C16.4289 21.6999 16.4992 21.7403 16.5397 21.8298C16.5685 21.8936 16.6009 21.964 16.6117 21.9865C16.6225 22.0089 16.8451 22.0537 17.1063 22.0859C17.4081 22.1233 17.5141 22.1493 17.3971 22.1571C17.1436 22.1742 15.6468 22.3286 15.2012 22.3837C14.7612 22.438 14.8452 22.4814 15.3474 22.4593C15.5461 22.4505 15.7802 22.4653 15.8677 22.4921L16.0268 22.5409L15.6259 22.637C15.2369 22.7303 15.2322 22.7326 15.4695 22.7197C16.2086 22.6793 16.545 22.7005 16.7534 22.8005C16.9077 22.8745 16.9697 22.9323 16.987 23.0182C17.0198 23.1811 17.1176 23.2303 17.4268 23.2391C17.5737 23.2434 17.6874 23.2561 17.6794 23.2675C17.6714 23.2789 17.4392 23.3083 17.1636 23.3329C16.888 23.3574 16.2349 23.4427 15.7123 23.5221L14.7622 23.6666L14.6845 23.4834C14.5773 23.2305 14.6135 22.466 14.7338 22.4439C14.7563 22.4398 14.72 22.3865 14.6532 22.3256C14.428 22.1202 14.1478 21.6971 13.974 21.3C13.7881 20.8748 13.7776 20.7889 13.9091 20.7648C13.9651 20.7545 14.035 20.8055 14.1162 20.916ZM17.8394 21.0221C17.9602 21.6877 18.0208 21.8785 18.0348 21.6377C18.0385 21.5745 18.0585 21.5197 18.0793 21.5158C18.1001 21.512 18.2481 21.5448 18.4083 21.5887C18.5685 21.6325 18.73 21.6636 18.7673 21.6576C18.8046 21.6517 19.0104 21.6616 19.2244 21.6797L19.6136 21.7125L19.7808 21.5759C19.9291 21.4549 19.9685 21.4414 20.1288 21.4569C20.2517 21.4688 20.3476 21.4534 20.4289 21.4087C20.7003 21.2598 20.7615 21.4018 20.5294 21.6417C20.3608 21.816 20.1399 21.8945 20.0256 21.8205C19.9786 21.7901 19.9501 21.7958 19.9083 21.8444C19.8632 21.8969 19.8427 21.8917 19.796 21.8164C19.7501 21.7421 19.7438 21.7712 19.7637 21.965L19.7885 22.2061L19.4163 22.2611C19.2116 22.2914 18.9519 22.306 18.8392 22.2936L18.6342 22.271L18.9029 22.214L19.1716 22.1569L18.8863 22.1197C18.7295 22.0992 18.5546 22.0625 18.4976 22.0381C18.3503 21.9751 18.2573 21.9998 18.3184 22.0859C18.3454 22.1238 18.4089 22.2972 18.4594 22.4711C18.5686 22.8462 18.5633 22.8444 19.204 22.7334C19.7579 22.6374 19.9064 22.6933 20.2049 23.1101C20.3209 23.2722 20.4729 23.4665 20.5426 23.542C20.6122 23.6174 20.67 23.683 20.6709 23.6877C20.6719 23.6924 20.5802 23.7062 20.4673 23.7182C20.2751 23.7385 20.2517 23.7549 20.1037 23.9705C20.0167 24.0972 19.8864 24.2455 19.8141 24.3C19.658 24.4176 19.0583 24.5852 19.0022 24.5268C18.9813 24.5052 18.9007 24.2957 18.8228 24.0613C18.6921 23.6669 18.6791 23.6448 18.6492 23.7651C18.6221 23.8743 18.5924 23.7662 18.4643 23.0939L18.3117 22.2926L18.0782 22.0039C17.9497 21.8452 17.8328 21.6572 17.8184 21.5861C17.7761 21.3769 17.6734 20.3401 17.6947 20.3362C17.7054 20.3342 17.7706 20.6429 17.8394 21.0221ZM22.5045 20.9696C22.472 20.9994 22.4656 21.02 22.4904 21.0154C22.5152 21.011 22.5621 20.9828 22.5946 20.953C22.6271 20.9232 22.6334 20.9026 22.6086 20.9071C22.5839 20.9117 22.537 20.9399 22.5045 20.9696ZM22.484 21.6255C22.472 21.6426 22.4334 21.6513 22.3984 21.6448C22.3597 21.6376 22.3683 21.6255 22.4204 21.6138C22.4675 21.6032 22.4961 21.6085 22.484 21.6255ZM31.408 20.2359C31.7025 20.4941 31.7551 20.595 31.8706 21.1234C31.9818 21.6315 31.9699 21.9657 31.8328 22.1888C31.731 22.3543 31.7182 22.3197 31.742 21.9433C31.7693 21.51 31.6312 21.0434 31.3801 20.721C31.184 20.4694 31.0427 20.0687 31.1434 20.0501C31.1674 20.0457 31.2864 20.1293 31.408 20.2359ZM15.5056 23.7085C15.7809 23.6981 16.0865 23.7022 16.1845 23.7175L16.363 23.7454L16.0495 23.8115L15.7359 23.8775L15.991 23.8689C16.5863 23.849 17.0656 23.8599 17.1435 23.8951C17.1929 23.9174 17.2437 24.0013 17.2681 24.1009L17.3091 24.269L17.6149 24.2801L17.9206 24.2913L17.6299 24.3549C16.8409 24.5275 15.8023 24.8764 15.2797 25.1444C15.1578 25.207 15.0399 25.2464 15.0177 25.232C14.9539 25.1906 14.814 24.399 14.8183 24.1029C14.8236 23.7289 14.828 23.7126 14.9218 23.7204C14.9677 23.7242 15.2304 23.7189 15.5056 23.7085ZM21.8957 22.5828C21.8976 22.5918 21.8585 22.6067 21.809 22.6159C21.7595 22.6249 21.7154 22.6148 21.7111 22.5934C21.7067 22.5719 21.7458 22.557 21.7978 22.5603C21.8498 22.5636 21.8939 22.5737 21.8957 22.5828ZM20.9914 23.1927C20.9924 23.1978 20.9536 23.2201 20.9051 23.2423C20.839 23.2726 20.7884 23.2526 20.7023 23.1621C20.5312 22.9821 20.5508 22.9614 20.7815 23.0781C20.8959 23.1361 20.9904 23.1876 20.9914 23.1927ZM21.5108 22.8894C21.5737 22.9005 21.5894 22.9192 21.5585 22.9465C21.5331 22.9688 21.4504 22.9681 21.3745 22.9451C21.2613 22.9108 21.2528 22.9006 21.3269 22.8881C21.3765 22.8797 21.4594 22.8803 21.5108 22.8894ZM27.7216 22.759C27.7823 23.3112 27.8352 23.9331 27.8392 24.1411C27.851 24.7502 27.9239 25.3838 28.0604 26.0606C28.2149 26.8273 28.2641 27.598 28.1839 27.9962C28.1513 28.1577 28.1175 28.2853 28.1087 28.2796C28.0999 28.274 28.1106 28.0953 28.1324 27.8827C28.1685 27.5306 28.1541 27.3894 27.9715 26.3048C27.7466 24.9693 27.7256 24.7908 27.713 24.0973C27.708 23.8281 27.6764 23.2612 27.6426 22.8376C27.5725 21.9595 27.5613 21.7229 27.5906 21.7419C27.602 21.7493 27.6609 22.207 27.7216 22.759ZM21.0827 23.2884C21.1041 23.3107 21.1507 23.3115 21.1864 23.2904C21.222 23.2692 21.3286 23.2616 21.4234 23.2735L21.5958 23.2952L21.3909 23.4372L21.186 23.5792L21.036 23.472C20.9535 23.413 20.8821 23.3457 20.8774 23.3224C20.866 23.2653 21.0337 23.2374 21.0827 23.2884ZM21.5763 23.662C21.4348 23.8246 21.4382 23.824 21.2839 23.7172L21.1564 23.629L21.4232 23.5801L21.69 23.5313L21.5763 23.662ZM21.0107 23.9133C21.0949 23.965 21.2066 24.0585 21.2587 24.1212C21.3772 24.264 21.4586 24.6932 21.402 24.8769C21.329 25.1135 21.0572 25.4379 20.7291 25.68C20.3725 25.943 20.2581 25.972 20.554 25.7244C20.8097 25.5103 21.163 25.0309 21.2313 24.8051C21.3398 24.4468 21.118 24.0405 20.7369 23.8994L20.535 23.8246L20.6963 23.8221C20.7849 23.8207 20.9265 23.8617 21.0107 23.9133ZM14.6009 25.7983C14.6889 25.8453 14.8487 25.9876 14.9561 26.1146C15.2818 26.4997 15.5248 26.6502 15.9504 26.7297L16.325 26.7998L16.0881 26.8214C15.7246 26.8544 15.3154 26.7209 14.9317 26.4441L14.6012 26.2057L14.3664 26.506C13.997 26.9785 13.4348 27.5206 12.7844 28.0319C11.3422 29.1656 11.2026 29.4685 11.2933 31.2661C11.3909 33.2036 11.192 33.918 10.329 34.7271C9.85964 35.1673 9.75461 35.3666 9.59057 36.1298C9.49305 36.5836 9.26657 37.1167 9.0349 37.4378C8.87006 37.6661 8.29545 38.1413 8.15213 38.1677C8.10382 38.1766 8.10601 38.202 8.16244 38.2886C8.29332 38.4891 8.44305 39.1452 8.39963 39.3278L8.36076 39.4912L8.30232 39.2201C8.24932 38.9744 8.13736 38.727 7.93825 38.416C7.87948 38.3241 7.84749 38.3116 7.76543 38.3481C7.58818 38.4271 7.64929 38.3615 7.96946 38.1292C8.36812 37.84 8.59356 37.5885 8.80901 37.1926C9.0205 36.804 9.07352 36.6297 9.16537 36.0214C9.26234 35.3792 9.36204 35.191 9.84615 34.7366C10.216 34.3893 10.3657 34.1669 10.5084 33.7521C10.6333 33.3893 10.7679 32.4567 10.7618 31.9959C10.7599 31.85 10.7294 31.4261 10.6939 31.054C10.581 29.8695 10.6033 29.2559 10.7743 28.8407C10.9834 28.3327 11.4456 27.7471 12.3112 26.8929C12.9463 26.2663 13.5847 25.878 14.1635 25.7664C14.398 25.7212 14.4657 25.7261 14.6009 25.7983ZM9.46264 27.1853C8.60798 27.6548 7.90907 28.3162 7.68349 28.8688C7.62574 29.0103 7.54792 29.3542 7.51052 29.633C7.40842 30.3952 7.17957 30.8363 6.46747 31.6438L6.16358 31.9884L6.51104 31.5018C7.0783 30.7074 7.28034 30.2365 7.38139 29.473C7.40933 29.2621 7.47297 28.9861 7.52285 28.8599C7.65698 28.5203 8.11467 28.0022 8.59127 27.6504C8.82214 27.4799 9.68813 26.9963 9.79947 26.9757C9.83659 26.9687 9.68507 27.0631 9.46264 27.1853ZM21.7344 25.3382C21.6796 25.5108 21.3014 26.0259 21.1427 26.1438C20.9113 26.3158 20.4166 26.5853 20.3337 26.5845C20.2857 26.584 20.3486 26.5315 20.4826 26.46C20.9532 26.209 21.1583 26.0286 21.4543 25.6051C21.6138 25.3769 21.7517 25.1931 21.7607 25.1968C21.7698 25.2004 21.7579 25.264 21.7344 25.3382ZM9.29575 27.9708C9.28718 27.9813 9.23413 28.0223 9.17791 28.062C9.08152 28.1298 9.0799 28.1291 9.14956 28.0508C9.21022 27.9827 9.3471 27.9077 9.29575 27.9708ZM14.9804 27.1008C15.3652 27.2784 15.9478 27.3864 16.4522 27.3735C16.5607 27.3709 16.7025 27.3965 16.7673 27.4308C16.8849 27.493 16.8849 27.493 16.5991 27.5471C16.0634 27.6485 15.5398 27.5632 15.0868 27.3009C14.8823 27.1824 14.7291 27.0442 14.7899 27.033C14.807 27.0299 14.8928 27.0604 14.9804 27.1008ZM25.1978 25.4941C25.47 25.5483 26.1225 26.027 26.6437 26.5545C27.0524 26.9681 27.3834 27.5968 27.2995 27.8001C27.2639 27.8862 26.9573 27.5673 26.4894 26.9576C26.0572 26.3941 25.9535 26.2988 25.5979 26.1369C25.2881 25.996 24.9719 25.9582 24.5136 26.0075C24.0815 26.0539 23.9667 26.0156 24.0761 25.8614C24.243 25.6263 24.8554 25.4258 25.1978 25.4941ZM7.86235 29.5802C7.82808 29.9364 7.74211 30.3194 7.63064 30.6126C7.53318 30.8689 7.02691 31.6318 6.94424 31.647C6.92275 31.6509 7.00257 31.5027 7.1216 31.3176C7.24068 31.1325 7.33409 30.9612 7.32919 30.9369C7.32428 30.9125 7.34284 30.8568 7.37038 30.8129C7.48458 30.6313 7.66262 30.0282 7.70762 29.6704C7.76611 29.2059 7.77561 29.1767 7.83639 29.2753C7.86269 29.318 7.87438 29.4552 7.86235 29.5802ZM6.77581 29.7591C6.70912 29.8443 6.63414 29.9178 6.60919 29.9224C6.5399 29.9352 6.6556 29.6986 6.73705 29.6611C6.88682 29.5921 6.89345 29.6087 6.77581 29.7591ZM18.0403 27.6298C18.0096 27.7072 18.1537 27.7143 18.611 27.6575C18.8864 27.6234 19.0292 27.5899 19.0234 27.5609C19.0108 27.4983 18.8572 27.4929 18.4305 27.5396C18.1945 27.5653 18.0529 27.5981 18.0403 27.6298ZM5.40933 31.9144C5.39599 31.9333 5.39094 31.9778 5.3981 32.0133C5.41384 32.0913 5.46293 32.033 5.45864 31.9413C5.45526 31.8691 5.44528 31.8637 5.40933 31.9144ZM25.5018 29.5904C25.9811 29.923 26.4493 30.0825 27.2066 30.1707C27.5671 30.2129 28.1246 30.2415 28.4457 30.2345C29.2222 30.2177 29.9095 30.2515 30.2322 30.3225C30.6583 30.4164 31.0948 30.6735 31.3534 30.9829C31.631 31.3152 31.9467 31.8111 32.1882 32.2943C32.4272 32.7727 32.4716 32.8382 32.8194 33.2266C32.9803 33.4064 33.1369 33.6113 33.1675 33.6821C33.2254 33.8163 33.4201 33.9506 33.6304 34.0013C33.8899 34.064 33.4253 34.1024 33.1165 34.0438C32.9523 34.0127 32.812 33.9954 32.8049 34.0056C32.7977 34.0156 32.8921 34.0819 33.0145 34.1529L33.2371 34.2818L33.1957 34.5359C33.1729 34.6756 33.1339 34.8009 33.109 34.8143C32.9792 34.884 32.4053 34.4105 32.3626 34.1983C32.3492 34.1319 32.365 33.9823 32.3977 33.8657C32.4536 33.6657 32.4503 33.6374 32.3392 33.3727C32.2744 33.2183 31.9828 32.6838 31.6913 32.1848C31.0916 31.1584 31.0498 31.1158 30.4094 30.8795C29.8761 30.6827 29.4605 30.6137 28.5009 30.5626C27.1679 30.4916 26.8033 30.4535 26.4261 30.3467C25.8403 30.1809 25.2114 29.7049 24.9951 29.2638C24.947 29.1658 24.9505 29.1662 25.0733 29.2717C25.1439 29.3324 25.3367 29.4758 25.5018 29.5904ZM19.0713 30.8001C19.1319 31.1048 19.4317 31.8363 19.5194 31.893C19.5936 31.9411 19.4181 31.2996 19.2559 30.9305C19.0708 30.5094 19.0042 30.4622 19.0713 30.8001ZM15.6085 32.4018C15.6617 32.6545 15.5953 32.805 15.2035 33.3197C14.7246 33.9485 14.6114 34.1671 14.6541 34.3791C14.7093 34.6531 15.0552 34.8104 16.7789 35.3457C17.5115 35.5732 17.9465 35.7772 18.0868 35.9592C18.1772 36.0764 18.2331 36.0965 18.5757 36.1343C18.7884 36.1578 19.0534 36.2114 19.1646 36.2533L19.3667 36.3295L19.2045 36.3355C18.9064 36.3462 18.3957 36.3742 18.3462 36.3824C18.3145 36.3876 18.3216 36.4764 18.3664 36.6345C18.4225 36.833 18.4819 36.9245 18.684 37.1241C19.19 37.6239 19.1946 37.6593 18.7173 37.3815C18.4792 37.243 18.2435 37.1231 18.1932 37.1151C18.1149 37.1027 18.0994 37.0698 18.0854 36.8856C18.0596 36.5453 17.8775 36.2505 17.5737 36.0567C17.344 35.9103 16.6784 35.6167 16.6063 35.6299C16.59 35.6329 16.3893 35.568 16.1604 35.4855C15.9315 35.4032 15.5442 35.303 15.2995 35.2628C14.6689 35.1594 14.4123 35.0809 14.2071 34.9287C14.0479 34.8104 14.0273 34.7757 14.0219 34.6169C14.013 34.3502 14.2388 33.9289 14.8016 33.1617C15.2838 32.5043 15.3942 32.284 15.3567 32.0543C15.3317 31.9018 15.5734 32.2353 15.6085 32.4018ZM5.83845 33.8822C5.83134 33.9204 5.81757 33.953 5.80784 33.9548C5.79811 33.9566 5.78428 33.929 5.77713 33.8935C5.76996 33.858 5.78374 33.8253 5.80773 33.8209C5.83169 33.8165 5.84552 33.8441 5.83845 33.8822ZM6.2752 33.8353C6.26608 33.8432 6.21231 33.9068 6.1558 33.9767C6.0993 34.0467 6.04871 34.0825 6.04345 34.0564C6.02924 33.9859 6.13768 33.8495 6.21994 33.8343C6.25942 33.8271 6.28431 33.8275 6.2752 33.8353ZM19.0533 31.7902C19.0324 31.8285 19.0159 31.9137 19.0169 31.9795C19.0181 32.0783 19.0678 32.1305 19.3038 32.2813C19.626 32.4872 19.7513 32.4642 19.4386 32.2565C19.2841 32.1537 19.2196 32.0752 19.164 31.9214C19.107 31.7637 19.0832 31.7355 19.0533 31.7902ZM24.7477 31.1722C24.9719 31.5741 25.0912 32.2109 25.0698 32.89C25.0229 34.3747 24.8169 34.8843 23.9801 35.5865C22.6599 36.694 21.7395 37.4956 21.6109 37.65C21.4947 37.7894 21.4737 37.8455 21.5124 37.9138C21.58 38.033 21.8156 38.2411 22.0121 38.3552C22.128 38.4225 22.1477 38.446 22.0795 38.436C21.9448 38.4162 21.7084 38.3176 21.5107 38.1989L21.343 38.0982L21.3392 38.3492C21.3371 38.4872 21.3274 38.6017 21.3173 38.6035C21.3074 38.6053 21.2534 38.5515 21.1977 38.4837C21.076 38.3361 20.9772 37.9091 21.0094 37.6702C21.0332 37.4936 21.086 37.4463 21.8045 36.9557C22.5938 36.4168 23.9118 35.2966 24.0926 35.0111C24.2361 34.7846 24.3112 34.5152 24.4019 33.9017C24.5276 33.0521 24.6233 31.2682 24.5607 30.9401C24.5422 30.8429 24.6132 30.9312 24.7477 31.1722ZM19.8275 32.136C19.6582 32.3793 19.6553 32.3898 19.7684 32.3595C19.8337 32.3421 19.9265 32.2844 19.9747 32.2314C20.0333 32.1668 20.0379 32.1486 19.9888 32.1762C19.8892 32.232 19.8854 32.1736 19.9794 32.0317C20.022 31.9671 20.0454 31.9067 20.0311 31.8975C20.0169 31.8883 19.9253 31.9957 19.8275 32.136ZM20.4319 32.4477C20.4827 32.8085 20.4815 32.8545 20.4252 32.7169C20.3281 32.4799 20.3017 32.3208 20.3304 32.1469C20.3442 32.0635 20.3588 31.999 20.3629 32.0038C20.3671 32.0085 20.3981 32.2083 20.4319 32.4477ZM19.0752 32.4331C19.0876 32.4828 19.1003 32.491 19.1078 32.4541C19.1145 32.4207 19.1054 32.3838 19.0875 32.3722C19.0697 32.3607 19.0642 32.388 19.0752 32.4331ZM20.72 32.1135C20.9194 32.1436 20.9281 32.1781 20.7599 32.2714C20.5706 32.3764 20.5538 32.3734 20.5249 32.2297C20.4954 32.0833 20.5006 32.0803 20.72 32.1135ZM7.14678 39.1971C7.22158 39.463 7.24214 39.6175 7.22261 39.7677C7.20784 39.8809 7.18835 39.9498 7.17927 39.9207C7.15521 39.8438 6.94868 38.8126 6.92918 38.6717C6.91352 38.5591 6.91643 38.5604 6.97837 38.6922C7.01455 38.7692 7.09033 38.9965 7.14678 39.1971Z" fill="#E5D2A5"/>
</g>
<defs>
<clipPath id="clip0_975_510">
<rect width="44" height="53" rx="3" fill="white"/>
</clipPath>
</defs>
</svg>
