<svg width="42" height="49" viewBox="0 0 42 49" fill="none" xmlns="http://www.w3.org/2000/svg">
<g clip-path="url(#clip0_10_84)">
<path fill-rule="evenodd" clip-rule="evenodd" d="M19.3846 1.07821C18.0926 2.34274 15.7429 4.04046 13.743 5.15423C10.2906 7.07688 7.11894 7.91707 2.5001 8.13212C-0.393043 8.26688 -0.208781 8.12872 0.29592 9.78302C0.635998 10.8979 0.768505 11.452 1.20255 13.5722C1.43618 14.7133 1.49216 16.4019 1.49876 22.5049C1.50317 26.644 1.58594 30.3749 1.68266 30.7961C1.77956 31.2172 1.93758 31.9684 2.03393 32.4655C2.54396 35.0955 3.95143 37.6829 5.7801 39.3524C7.37533 40.8088 9.09002 41.9917 12.9612 44.3064C14.9147 45.4744 19.3781 48.2053 20.495 48.9158C20.6716 49.028 20.8504 49.028 21.0261 48.9158C21.8668 48.379 26.318 45.6318 27.0928 45.1718C34.7861 40.6024 36.6178 39.0974 38.1428 36.091C38.9105 34.5781 39.1825 33.7012 39.68 31.1364C40.0079 29.4451 40.0585 28.5064 40.053 24.2179C40.0496 21.489 39.9971 19.073 39.9365 18.849C39.7757 18.2551 40.16 13.9072 40.5047 12.4203C40.8666 10.8587 41.2806 9.40994 41.5211 8.86393C41.6374 8.59916 41.638 8.39688 41.5224 8.28969C41.4241 8.19866 40.5324 8.13638 39.5406 8.15102C37.0917 8.18743 33.4506 7.59566 31.6533 6.86913C31.3353 6.7405 31.0257 6.63535 30.9656 6.63535C30.9054 6.63535 30.2985 6.3929 29.6168 6.09633C27.5311 5.18946 24.4313 3.162 22.6368 1.53114C21.7098 0.688921 20.8466 -0.000170114 20.7185 3.15017e-08C20.5906 0.000170178 19.9903 0.485426 19.3846 1.07821Z" fill="#E5D2A5"/>
<path fill-rule="evenodd" clip-rule="evenodd" d="M14.4321 13.6804C14.0761 13.8369 13.8499 14.0502 13.7684 14.3059C13.746 14.3759 13.7314 14.6049 13.7359 14.8148C13.7498 15.4744 13.6516 15.8779 13.4408 16.0271C13.3631 16.0821 13.3193 16.1506 13.3233 16.2111C13.3286 16.2924 13.2777 16.3345 12.9974 16.4808C12.3287 16.8297 11.9984 17.2999 12.0951 17.7648C12.137 17.9659 12.2322 18.0443 12.3638 17.9861C12.4359 17.9541 12.4499 17.9694 12.481 18.1152C12.5005 18.2061 12.5903 18.3973 12.6807 18.5401C12.9034 18.8921 12.906 18.9241 12.7179 18.9902C12.1481 19.19 12.1079 19.2141 12.1212 19.3475C12.1441 19.5755 12.2343 19.5908 12.639 19.4361C13.0258 19.288 13.0366 19.2902 13.0852 19.5237C13.121 19.6952 13.4922 20.2979 13.7225 20.5582C13.9073 20.767 13.9207 20.7951 13.8869 20.9012C13.8187 21.1152 13.8459 21.4708 13.9488 21.7098C14.06 21.9682 14.0504 21.9106 14.0647 22.4013C14.0715 22.6339 14.1047 22.874 14.1467 22.9957L14.2172 23.1998L13.9224 23.2533C13.5833 23.3147 13.2904 23.4795 13.2809 23.6141C13.2777 23.6603 13.2712 23.6987 13.2664 23.6996C13.0376 23.7404 12.3781 24.0682 12.0313 24.3137C11.8569 24.4371 11.8553 24.4374 11.681 24.3903C11.3393 24.298 10.9358 24.3139 10.1436 24.4511C9.28319 24.6001 9.06137 24.6791 8.48778 25.0403C7.8974 25.4122 7.48789 25.7582 7.32204 26.0254C7.08395 26.4089 6.3572 27.2884 6.07565 27.5337C5.93362 27.6575 5.74566 27.8478 5.65797 27.9565L5.49854 28.1543L5.651 28.0301C6.02449 27.7259 6.13427 27.6458 6.1576 27.6605C6.20912 27.6928 6.12602 28.0231 5.98556 28.3446C5.87445 28.5989 5.77154 28.7467 5.54971 28.9709C5.38993 29.1322 5.24744 29.2995 5.23298 29.3427C5.20826 29.4163 5.21616 29.4146 5.35999 29.3154C5.44429 29.2572 5.52601 29.2073 5.54152 29.2045C5.55704 29.2018 5.42773 29.3967 5.25416 29.6377C4.84447 30.2064 4.80651 30.2948 4.86542 30.5429C4.89126 30.6519 4.91072 30.6948 4.90861 30.6385C4.89981 30.3997 4.91588 30.3378 5.0331 30.1584C5.1397 29.9954 5.31879 29.8223 5.39491 29.8087C5.46204 29.7967 5.42238 29.9079 5.31224 30.0405C5.23289 30.136 5.18822 30.2433 5.18872 30.3371C5.18931 30.4476 5.11943 30.5805 4.9073 30.8722C4.64722 31.2297 4.63738 31.2514 4.78223 31.1483C4.86873 31.0867 4.99212 30.9827 5.05651 30.917C5.22602 30.7442 5.2572 30.7604 5.12234 30.9513C5.05809 31.0422 5.0248 31.1132 5.04835 31.109C5.07191 31.1048 5.1111 31.0746 5.13544 31.0419C5.17109 30.9939 5.17845 31.0046 5.17327 31.097C5.16466 31.2514 5.20645 31.2345 5.2642 31.0602C5.29929 30.9543 5.31907 30.9343 5.34112 30.9824C5.35744 31.0181 5.35641 31.0901 5.3388 31.1426C5.31691 31.208 5.31996 31.2268 5.34847 31.2026C5.39326 31.1644 5.4199 31.2176 5.38197 31.2695C5.36933 31.2867 5.36834 31.3541 5.3797 31.4193C5.39277 31.494 5.41251 31.521 5.43333 31.4924C5.52603 31.3656 5.53038 31.4656 5.4436 31.7275L5.34638 32.0209L5.49381 31.8321C5.57489 31.7282 5.65813 31.6142 5.67873 31.5787C5.69937 31.5431 5.7373 31.5215 5.76303 31.5305C5.78877 31.5396 5.86602 31.4998 5.93469 31.4421C6.0034 31.3844 6.06908 31.3431 6.08067 31.3504C6.09225 31.3577 5.99029 31.5069 5.8541 31.682C5.63615 31.9621 5.61924 31.9981 5.71307 31.9814C5.77174 31.9709 5.95657 31.8935 6.12385 31.8093C6.29115 31.7252 6.43083 31.6699 6.43429 31.6865C6.43774 31.7031 6.375 31.7787 6.29482 31.8546C6.21465 31.9305 6.12119 32.0357 6.0872 32.0885C6.0263 32.1829 6.0269 32.1837 6.12654 32.1353C6.22707 32.0866 6.22708 32.0873 6.12589 32.2393C6.0302 32.3831 6.03844 32.3787 6.26124 32.1685C6.3917 32.0454 6.57573 31.8694 6.67017 31.7775C6.76461 31.6855 6.87577 31.584 6.91722 31.5518C6.99128 31.4944 6.99161 31.4955 6.93745 31.6229C6.90715 31.6941 6.95953 31.6365 7.05382 31.4948C7.21845 31.2474 7.27125 31.1381 7.55009 30.4677C7.70648 30.0917 7.96601 29.5906 7.99497 29.6088C8.00691 29.6163 8.01517 29.7314 8.01328 29.8644C8.01142 29.9976 8.01835 30.17 8.02866 30.2477C8.03898 30.3253 8.04122 30.4271 8.03366 30.4738L8.01989 30.5588L8.07441 30.4665C8.26685 30.1409 8.37759 29.6341 8.34883 29.2105C8.34086 29.093 8.38301 28.7976 8.44249 28.5539C8.5578 28.0817 8.62498 27.9265 8.62183 28.1396C8.62024 28.2464 8.62677 28.2394 8.66826 28.09C8.69482 27.9945 8.74302 27.8093 8.7754 27.6785C8.83066 27.4552 9.09922 26.8182 9.24566 26.5629L9.31167 26.4479L9.27533 26.6195C9.25534 26.7139 9.22101 26.848 9.199 26.9174L9.1591 27.0437L9.26447 26.9402C9.40535 26.8017 9.58339 26.5362 9.76272 26.1975C9.91611 25.9076 9.99308 25.8517 10.3179 25.7938L10.4638 25.7678L10.3046 26.0542C9.85968 26.8552 9.81494 27.2746 10.0003 28.9055C10.0934 29.7255 10.0566 30.3022 9.86735 30.9872C9.75212 31.4041 9.62667 31.5877 9.17325 32.0036C8.72234 32.4172 8.60801 32.6149 8.49987 33.1679C8.40163 33.6701 8.30647 33.9285 8.0698 34.3357C7.727 34.9254 7.40219 35.2164 6.85249 35.4265C6.54145 35.5454 6.48763 35.6263 6.45911 36.0182C6.43826 36.3042 6.54195 36.9303 6.64055 37.1137C6.7199 37.2612 6.95207 37.2966 7.40576 37.2306C7.97285 37.1479 8.19642 37.0543 8.33965 36.8393C8.54599 36.5296 8.70963 36.3035 8.86318 36.1159C8.96663 35.9894 9.05677 35.7852 9.15983 35.4438C9.3996 34.649 9.58321 34.2929 10.1135 33.5939C10.6705 32.8599 11.6846 31.6974 12.268 31.1242C13.1039 30.3031 13.5224 29.8725 13.6807 29.6708L13.8436 29.4633L14.0249 29.489C14.1247 29.5032 14.2779 29.5029 14.3653 29.4882C14.5661 29.4548 14.6073 29.4973 14.5781 29.707C14.5604 29.8339 14.4488 30.01 14.1193 30.4313C13.4509 31.2858 13.254 31.6855 13.3275 32.0388C13.4014 32.3934 13.8455 32.6139 14.7141 32.727C15.1037 32.7777 15.1945 32.8042 15.9293 33.082C16.9907 33.4831 17.2163 33.672 17.1934 34.1414L17.1825 34.3659L17.3594 34.4632C17.4567 34.5167 17.6599 34.622 17.8109 34.6973C17.962 34.7725 18.1627 34.8973 18.2569 34.9746C18.3512 35.0518 18.4673 35.1175 18.5151 35.1204C18.642 35.1281 18.8472 34.965 18.9048 34.8106C18.9729 34.628 18.9141 33.9515 18.7957 33.5579C18.7429 33.3821 18.6659 33.1033 18.6245 32.9383C18.5685 32.714 18.5187 32.6071 18.4281 32.5158C18.2911 32.378 18.1903 32.348 17.7058 32.3011C17.3182 32.2637 16.757 32.1506 16.4729 32.0527C16.1889 31.9549 15.86 31.7849 15.8486 31.7302C15.8319 31.6496 16.3924 30.9348 16.7741 30.5498C17 30.3221 17.2205 30.0435 17.3657 29.803C17.6287 29.3672 17.7394 29.2791 18.0388 29.2677L18.245 29.2598L18.1736 29.0515C18.1342 28.9369 18.0248 28.7179 17.9303 28.5649C17.5834 28.0038 17.4409 27.6092 17.2447 26.6679C17.1351 26.1415 17.0748 25.933 16.9949 25.8041C16.924 25.6898 16.8839 25.5654 16.8721 25.4236L16.8547 25.2129L16.4654 25.0006C16.0549 24.7769 15.1822 24.2452 15.4823 24.4018C16.0256 24.6851 16.0248 24.6863 15.5405 24.3126C15.4008 24.2049 15.2074 24.0219 15.1106 23.9058C15.0138 23.7898 14.8629 23.6433 14.7752 23.5803C14.6876 23.5172 14.6322 23.4518 14.6523 23.4346C14.7366 23.3628 15.6725 23.1057 16.177 23.0158L16.7221 22.9187L16.818 23.0977C16.9771 23.3951 17.1679 23.6254 17.5407 23.9705C17.8862 24.2904 18.1565 24.6145 18.1827 24.7406C18.1955 24.8021 18.1743 24.8123 17.9158 24.8684C17.7952 24.8945 17.7278 24.8523 17.1012 24.358C16.7255 24.0617 16.373 23.79 16.3178 23.7545C16.2626 23.7189 16.5106 23.9905 16.8688 24.3581L17.5202 25.0264L17.3384 25.1493L17.1566 25.272L17.588 25.2025C17.8836 25.1549 17.9807 25.1499 17.8967 25.1865C17.78 25.2372 17.7827 25.2385 17.9523 25.213C18.0503 25.1982 18.1957 25.1865 18.2753 25.1871L18.42 25.1881L18.471 25.5272C18.506 25.7614 18.5051 25.8808 18.468 25.9132C18.4385 25.9389 18.1825 26.0031 17.8992 26.0557C17.4316 26.1427 17.3973 26.1542 17.5258 26.1813C17.6036 26.1977 17.8269 26.2132 18.0219 26.2156C18.217 26.2181 18.387 26.2265 18.3995 26.2345C18.4121 26.2423 18.3373 26.2656 18.2333 26.2862C18.0573 26.321 18.0535 26.3243 18.1798 26.3327C18.2544 26.3378 18.3678 26.3434 18.4317 26.3452C18.5436 26.3484 18.5483 26.3561 18.5537 26.5445C18.5568 26.6523 18.6011 27.0024 18.652 27.3225C18.703 27.6427 18.7404 27.9333 18.7353 27.9683C18.7288 28.0126 18.5928 27.9432 18.2861 27.7387L17.8461 27.4455L18.1687 27.8215C18.3461 28.0283 18.5868 28.3087 18.7036 28.4446C18.827 28.5882 18.9278 28.7487 18.9443 28.8279C18.9599 28.9029 19.0499 29.0908 19.1442 29.2456C19.3008 29.5023 19.3112 29.5341 19.2628 29.608C19.2337 29.6525 19.2173 29.7833 19.2263 29.8987C19.2438 30.1214 19.2395 30.1262 18.9433 30.2153C18.8741 30.2362 18.9344 30.2372 19.0775 30.2176L19.3375 30.1819L19.1519 30.2537C19.0497 30.2933 18.8642 30.3368 18.7395 30.3505C18.4837 30.3785 18.4837 30.4235 18.7397 30.4476C18.8382 30.4568 18.9355 30.4969 18.9692 30.542C19.0249 30.6168 19.0541 30.6155 19.6073 30.5147C20.1973 30.4072 20.3727 30.3371 20.348 30.2185C20.3399 30.1794 20.382 30.1517 20.4754 30.1344C20.6597 30.1003 20.9251 29.923 20.9887 29.7914C21.0615 29.6406 20.9949 29.3635 20.868 29.2899C20.7685 29.2321 20.7769 29.2279 21.3217 29.06C21.9441 28.8682 23.0187 28.6241 23.1994 28.6334C23.3534 28.6413 23.3738 28.738 23.3554 29.3695C23.3347 30.0763 23.2757 30.5945 23.203 30.7077C23.1677 30.7625 23.1118 31.0107 23.0785 31.2593C22.9646 32.1122 22.8582 32.3675 22.4787 32.6988C21.8973 33.2063 20.9345 33.947 20.5658 34.1704C19.9998 34.5134 19.9037 34.61 19.8641 34.8765C19.8163 35.1976 19.9165 35.6611 20.0684 35.8227C20.2213 35.9851 20.6004 36.1268 20.8932 36.1308C21.3243 36.1366 21.4963 36.0088 21.8148 35.4456C21.8794 35.3315 22.0085 35.2089 22.1952 35.0846C22.4079 34.943 22.5492 34.8009 22.7666 34.5101C22.9252 34.2975 23.2988 33.848 23.5963 33.5111C23.894 33.1742 24.1984 32.8206 24.2729 32.7251C24.4799 32.4597 24.6434 32.0738 24.7242 31.6598C24.9212 30.6511 25.1354 29.9711 25.4005 29.5128C25.551 29.2526 25.6964 28.8012 25.6981 28.5893C25.6992 28.4343 25.7185 28.4301 26.2465 28.4686C26.4706 28.4849 26.9313 28.5136 27.2703 28.5323C28.3452 28.5917 29.0079 28.7315 29.4808 28.999C29.6932 29.119 29.7309 29.1637 29.9547 29.5609C30.8264 31.1077 30.8532 31.1667 30.7637 31.3518C30.6928 31.4988 30.7627 31.8369 30.8984 32.0025C31.1162 32.2684 31.667 32.5315 31.9806 32.5194C32.2738 32.5081 32.583 32.3429 32.6405 32.1668C32.7111 31.9503 32.5693 31.2143 32.4004 30.921C32.3293 30.7974 32.2292 30.5587 32.1781 30.3905C32.0691 30.0324 31.9194 29.7723 31.7481 29.6436C31.5726 29.5118 30.8428 28.6867 30.4316 28.1552C30.2267 27.8903 30.0036 27.65 29.8961 27.578C29.6799 27.4335 29.1254 27.2209 28.3928 27.0016C27.3927 26.7022 27.1559 26.628 27.112 26.6008C27.0874 26.5854 27.1041 26.3888 27.1496 26.1555C27.2839 25.4694 27.2795 25.3782 27.0473 24.072C26.8861 23.1658 26.8304 22.7456 26.8199 22.3579C26.8089 21.9509 26.6794 20.1609 26.6512 20.0253C26.6277 19.9127 27.1537 20.0226 27.511 20.2048C27.6535 20.2776 27.9553 20.3691 28.2246 20.4213C28.6304 20.4999 28.7382 20.5409 29.0499 20.7353C29.4725 20.9988 29.7227 21.0657 30.0517 21.0033C30.6985 20.8806 30.8965 20.3322 30.648 19.3514C30.5188 18.8411 30.4657 18.7748 29.7785 18.2664C29.4819 18.0468 29.1149 17.7343 28.9629 17.5719C28.4861 17.0621 28.0652 16.6768 27.7049 16.4203C27.5137 16.2841 27.2804 16.0733 27.1866 15.952C27.0927 15.8306 26.9445 15.68 26.8573 15.6172L26.6986 15.5031L26.7141 15.2758C26.7301 15.0424 26.6632 14.6343 26.584 14.4835C26.5227 14.3666 26.4541 14.3902 26.3373 14.5687L26.2379 14.7204L26.3413 14.5989L26.4447 14.4774L26.4104 14.5867C26.3916 14.6468 26.3198 14.8176 26.2507 14.9661C26.1816 15.1147 26.1214 15.2446 26.1166 15.2549C26.1118 15.2652 26.097 15.2668 26.0836 15.2585C26.0703 15.25 26.0904 15.1459 26.1283 15.0268L26.1972 14.8105L26.1149 14.949C26.0697 15.0252 26.0218 15.0801 26.0087 15.0712C25.9955 15.0621 25.9452 14.9254 25.897 14.7673C25.8001 14.4502 25.7754 14.4109 25.683 14.4273C25.6023 14.4417 25.4073 14.8891 25.3227 15.2539C25.2478 15.5772 25.2708 15.5619 24.6583 15.6972C24.3974 15.7547 24.1748 15.8275 24.0843 15.8847C23.952 15.9685 23.8936 16.034 23.976 16.0065C24.1432 15.9506 24.0866 16.0152 23.8645 16.134C23.7135 16.2147 23.5817 16.2919 23.5718 16.3055C23.5618 16.3192 23.6944 16.2962 23.8663 16.2544L24.1789 16.1786L24.0212 16.277C23.9343 16.3311 23.6961 16.5256 23.4917 16.7091C23.2873 16.8926 23.0456 17.075 22.9546 17.1146C22.824 17.1713 22.8078 17.1889 22.8775 17.1985C22.9471 17.2081 22.9195 17.2374 22.7477 17.3372L22.5297 17.4636L22.7719 17.3955C22.9051 17.358 23.0163 17.3385 23.0192 17.3522C23.022 17.3659 22.9244 17.451 22.8023 17.5414C22.6801 17.6318 22.5545 17.7274 22.5232 17.7538C22.492 17.7803 22.3471 17.8793 22.2013 17.9738C21.9464 18.1392 21.8366 18.2497 22.0469 18.1294C22.103 18.0973 22.209 18.0528 22.2825 18.0304C22.4847 17.9689 22.6571 17.8909 22.7059 17.8387C22.73 17.8129 22.786 17.7925 22.8302 17.7934C22.893 17.7945 22.8823 17.816 22.7813 17.8913C22.7102 17.9443 22.5767 18.0259 22.4848 18.0726C21.9971 18.3199 21.7471 18.4818 21.3988 18.7763C21.235 18.9148 21.2534 18.9123 21.5608 18.754C21.817 18.6221 22.4585 18.3455 22.5327 18.3349C22.6438 18.319 22.2415 18.5667 22.0111 18.656C21.657 18.7932 21.5597 18.8737 21.7906 18.8383L21.9634 18.8118L21.7468 18.9297C21.6276 18.9945 21.5229 19.0576 21.514 19.0697C21.5051 19.082 21.6623 19.0513 21.8636 19.0016C22.0647 18.9519 22.2312 18.9205 22.2335 18.9319C22.2359 18.9431 22.1041 19.0291 21.9408 19.1229C21.7775 19.2167 21.6663 19.3013 21.6938 19.311C21.7213 19.3207 21.6477 19.4043 21.5301 19.4968C21.4125 19.5893 21.3183 19.6744 21.3207 19.6859C21.3231 19.6974 21.3589 19.6814 21.4004 19.6503C21.4418 19.6191 21.5953 19.5616 21.7415 19.5223L22.0073 19.451L21.7699 19.6162C21.6393 19.707 21.4318 19.8129 21.3086 19.8516C21.1854 19.8903 21.0208 19.9576 20.9428 20.0012L20.801 20.0805L21.0247 20.0436C21.1478 20.0232 21.2666 20.0248 21.2887 20.0471C21.311 20.0695 21.308 20.0802 21.2821 20.0711C21.2347 20.0544 20.8258 20.3065 20.8343 20.3472C20.8368 20.3594 20.9414 20.3392 21.0667 20.3024C21.3165 20.229 21.5405 20.2233 21.5127 20.291C21.5029 20.3148 21.4297 20.3458 21.3499 20.3601C21.1855 20.3894 20.693 20.5748 20.5436 20.6637C20.4675 20.7089 20.5488 20.7046 20.8926 20.6453C21.1391 20.6028 21.3339 20.5777 21.3253 20.5895C21.3167 20.6012 21.1189 20.6545 20.8856 20.7079C20.6524 20.7613 20.3973 20.8337 20.3188 20.8686C20.1836 20.929 20.1899 20.9304 20.4356 20.8942L20.695 20.8561L20.41 20.9634C20.1393 21.0654 20.1178 21.0678 19.9829 21.0107L19.8408 20.9506L19.9832 20.7716C20.2145 20.4809 20.2398 20.1646 20.0569 19.8503C19.7425 19.3098 19.5371 19.2809 18.9327 19.6922L18.6394 19.8917L18.1586 19.851C17.8942 19.8285 17.5948 19.7801 17.4933 19.7433C17.3918 19.7066 17.2918 19.6795 17.2709 19.6833C17.2326 19.6901 17.1265 19.0906 17.0943 18.6842C17.0788 18.4901 17.0926 18.4471 17.2037 18.3448C17.2955 18.26 17.3925 18.2166 17.5541 18.1878C17.7209 18.1581 17.8402 18.1028 18.0258 17.9696C18.3143 17.7623 18.4269 17.5612 18.3802 17.3367C18.3494 17.1889 18.3513 17.1864 18.5652 17.1012C18.6841 17.0538 18.9386 16.9518 19.1309 16.8744C19.3231 16.797 19.8234 16.5981 20.2424 16.4325C20.6614 16.2669 21.4306 15.9626 21.9516 15.7565C22.4726 15.5503 23.3808 15.1919 23.9699 14.96C26.1923 14.0852 27.6477 13.4995 28.9467 12.9574C30.6508 12.2462 32.6425 11.443 32.8004 11.4033C32.9102 11.3757 33.2587 11.2502 33.5749 11.1244C34.2265 10.8652 34.2805 10.8503 34.2963 10.9262C34.3041 10.9638 34.5679 10.8286 35.1431 10.4922C35.6026 10.2235 35.9898 9.9875 36.0035 9.96773C36.0172 9.94797 35.8758 9.96985 35.6893 10.0162C35.5029 10.0626 35.0541 10.154 34.6923 10.2194C34.0579 10.3341 34.0358 10.341 34.0773 10.4119C34.1101 10.4677 34.0978 10.4947 34.0257 10.5243C33.8732 10.5872 32.5473 11.1141 31.193 11.6499C30.5021 11.9232 29.2239 12.4315 28.3525 12.7793C27.481 13.1272 26.092 13.6817 25.2657 14.0114C24.4396 14.3412 23.2273 14.8262 22.5717 15.0891C21.9161 15.3519 21.305 15.5896 21.2135 15.6172C21.122 15.6448 20.8888 15.7318 20.6952 15.8105C20.3161 15.9645 19.5296 16.2758 18.51 16.6754C18.1587 16.8131 17.8229 16.947 17.7639 16.9729C17.6663 17.0157 17.6566 17.0106 17.6565 16.9163C17.6563 16.8246 17.6354 16.8113 17.4754 16.8004C17.1927 16.7813 16.9278 16.905 16.6945 17.1648L16.4992 17.3824L16.2777 17.0412C16.1559 16.8536 16.0414 16.6743 16.0231 16.6428C15.9991 16.6015 16.0469 16.5541 16.1945 16.4731C16.3934 16.3638 16.9312 15.9122 16.9674 15.824C16.9773 15.7999 16.918 15.6478 16.8355 15.4859C16.7531 15.3241 16.6608 15.072 16.6303 14.9258C16.569 14.6312 16.3457 14.1605 16.1666 13.9486C16.0177 13.7724 15.719 13.586 15.5002 13.533C15.2821 13.48 14.7076 13.5594 14.4321 13.6804ZM14.7842 13.7655L14.5632 13.8819L14.8273 13.8391C15.302 13.7621 15.3551 13.7741 15.5435 14C15.747 14.2443 15.9981 14.6722 16.0312 14.8314C16.0586 14.9633 16.0011 15.0085 15.6679 15.1162C15.4903 15.1736 15.472 15.1887 15.542 15.2194C15.6178 15.2525 15.6223 15.2725 15.601 15.48L15.578 15.7047L15.4803 15.623C15.3497 15.5139 15.2627 15.3032 15.3131 15.2183C15.3348 15.1815 15.3391 15.1429 15.3225 15.1325C15.2725 15.1011 15.1701 15.4054 15.195 15.5118C15.2154 15.5998 15.2221 15.6022 15.2538 15.5339C15.2842 15.4684 15.3167 15.4997 15.47 15.7422C15.5692 15.8993 15.6475 16.0316 15.6439 16.0363C15.6403 16.0411 15.4526 16.0243 15.2267 15.999C14.2654 15.8913 14.0364 15.9022 14.4141 16.0378C14.531 16.0797 14.5852 16.1082 14.5347 16.1009C14.095 16.0382 13.7964 15.9927 13.782 15.9863C13.7725 15.982 13.7831 15.8602 13.8056 15.7155C13.828 15.5708 13.8397 15.2285 13.8316 14.9547C13.8108 14.259 13.8052 14.2731 14.1199 14.2171C14.4015 14.167 14.9537 14.192 15.1417 14.2636C15.2064 14.2882 15.2794 14.2977 15.3043 14.2848C15.3764 14.2473 14.4683 14.0364 14.2608 14.0425L14.0728 14.048L14.1844 13.9653C14.354 13.8395 14.587 13.7367 14.8068 13.6906L15.005 13.6491L14.7842 13.7655ZM34.9255 10.3082C34.55 10.4316 34.3738 10.4733 34.2965 10.4569C34.0706 10.4092 34.2336 10.3441 34.8362 10.2411L35.447 10.1368L34.9255 10.3082ZM32.3978 11.3348C32.331 11.3672 32.1095 11.4597 31.9057 11.5405C31.7019 11.6211 31.2487 11.805 30.8987 11.949C29.9388 12.3439 28.8692 12.7723 28.0145 13.1041C27.3606 13.3579 26.8883 13.5476 25.9823 13.9203C25.8083 13.992 24.6678 14.438 24.045 14.678C23.8407 14.7567 23.4509 14.9075 23.1786 15.013C22.9064 15.1186 22.4516 15.295 22.1681 15.4049C21.8846 15.5148 21.4419 15.6887 21.1845 15.7911C20.9271 15.8936 20.3424 16.1198 19.8851 16.2937C19.4277 16.4676 19.0071 16.6277 18.9503 16.6494C18.8935 16.6711 18.8547 16.6774 18.8641 16.6634C18.8734 16.6494 19.3531 16.4486 19.9301 16.2171C20.5071 15.9856 21.2375 15.6881 21.5533 15.5561C22.2227 15.2762 23.5503 14.7441 24.4332 14.4019C24.7735 14.27 25.4496 14.0005 25.9356 13.8031C26.4216 13.6057 27.1346 13.3214 27.5202 13.1713C27.9058 13.0213 28.3417 12.851 28.489 12.7929C28.6362 12.7349 29.0259 12.5835 29.355 12.4564C29.684 12.3295 30.2779 12.0988 30.6747 11.9439C31.9931 11.4291 32.7685 11.1551 32.3978 11.3348ZM14.1898 14.8613C14.2763 14.9128 15.2075 14.8526 15.125 14.8009C15.0902 14.7791 14.3836 14.7895 14.2468 14.8138C14.1824 14.8252 14.1603 14.8437 14.1898 14.8613ZM15.9626 15.2755C15.9591 15.3351 15.937 15.4736 15.9135 15.5836L15.871 15.7835L15.848 15.5606L15.825 15.3376L15.7871 15.5715L15.7492 15.8052L15.7198 15.5422C15.7035 15.3974 15.6958 15.2641 15.7025 15.2459C15.7092 15.2276 15.7719 15.2025 15.8418 15.1901C15.9573 15.1695 15.9685 15.1774 15.9626 15.2755ZM16.067 15.5267L16.0282 15.6729L16.0127 15.4743C15.9914 15.2026 16.0167 15.1016 16.0667 15.2584C16.0882 15.3255 16.0883 15.4463 16.067 15.5267ZM14.0974 16.1412C14.4671 16.1994 14.8978 16.3048 14.9606 16.3525C14.9885 16.3739 15.0343 16.4367 15.0622 16.492C15.1115 16.5901 15.1088 16.5926 14.9585 16.5882C14.8736 16.5857 14.6574 16.543 14.478 16.4934C14.2986 16.4438 14.0102 16.3729 13.837 16.3358C13.5927 16.2835 13.5182 16.2496 13.5046 16.1848C13.4891 16.1101 13.5048 16.1011 13.6541 16.0996C13.7459 16.0986 13.9453 16.1173 14.0974 16.1412ZM13.8519 16.5665C14.1285 16.6814 14.448 16.9369 14.5518 17.1264C14.5862 17.1892 14.6107 17.2454 14.6062 17.2514C14.6018 17.2574 14.5199 17.2428 14.4243 17.219C14.2747 17.1817 13.788 17.1662 13.633 17.1938C13.5269 17.2127 13.6048 17.2762 13.738 17.2795C13.8779 17.2828 14.2154 17.3771 14.1938 17.4068C14.1875 17.4154 14.0308 17.4135 13.8456 17.4025C13.3706 17.3743 12.9827 17.4505 12.64 17.6391C12.4876 17.723 12.3422 17.7954 12.3169 17.7999C12.2876 17.8051 12.2651 17.7398 12.255 17.6204C12.236 17.3961 12.3618 17.1191 12.5527 16.9648L12.6862 16.857L12.5566 17.0193C12.439 17.1667 12.3611 17.3297 12.3755 17.3988C12.3786 17.4134 12.445 17.3266 12.5229 17.206C12.6582 16.9969 12.9109 16.7917 13.3002 16.575C13.5282 16.448 13.565 16.4474 13.8519 16.5665ZM14.8579 16.7558C14.9553 16.7753 15.0937 16.7923 15.1655 16.7937C15.28 16.7959 15.3152 16.8277 15.4536 17.0539C15.5404 17.1956 15.6218 17.3664 15.6347 17.4335L15.6581 17.5555L15.5741 17.4466C15.4912 17.3389 15.4908 17.3403 15.5346 17.5681C15.5733 17.7692 15.5675 17.8051 15.4892 17.8491C15.327 17.9404 14.843 18.1084 14.8072 18.086C14.7879 18.0739 14.7996 17.9632 14.8333 17.8401C14.9261 17.5002 14.8426 17.1617 14.5921 16.8608C14.4862 16.7337 14.3981 16.6227 14.3964 16.6142C14.3946 16.6056 14.4579 16.626 14.5369 16.6594C14.616 16.693 14.7604 16.7362 14.8579 16.7558ZM25.6202 14.841C25.5437 15.2123 25.3753 15.6085 25.3486 15.4803C25.3245 15.3645 25.5753 14.653 25.6445 14.6406C25.6542 14.6389 25.6433 14.7291 25.6202 14.841ZM13.5284 17.5839C13.4312 17.6274 13.4338 17.6297 13.5835 17.6345C13.6699 17.6372 13.8477 17.6622 13.9786 17.69C14.2139 17.7399 14.2176 17.743 14.2906 17.949C14.3311 18.0637 14.3974 18.2136 14.4379 18.2821C14.5031 18.3925 14.502 18.4209 14.4285 18.5315C14.3828 18.6002 14.3161 18.719 14.2802 18.7955C14.208 18.9493 14.1123 19.4154 14.1482 19.438C14.1608 19.4459 14.2294 19.3315 14.3008 19.184C14.4352 18.9063 14.668 18.6195 14.7745 18.6005C14.8686 18.5837 15.0452 18.8346 15.1232 19.0958C15.1831 19.2966 15.1827 19.3535 15.1209 19.4856C15.0178 19.7059 14.728 19.9749 14.5265 20.0375L14.3566 20.0902L14.4928 20.1425C14.638 20.1982 14.5808 20.2341 14.4203 20.1879C14.3089 20.1558 14.1565 19.959 14.1247 19.8063C14.1112 19.7414 14.0327 19.6516 13.9216 19.5741C13.6894 19.412 13.4208 19.0893 13.2463 18.7626C13.0916 18.4731 12.9318 17.861 12.9764 17.7282C13.0081 17.6334 13.1657 17.5756 13.455 17.5523C13.6072 17.5401 13.6169 17.5443 13.5284 17.5839ZM12.9032 18.0773C12.9426 18.2803 13.0077 18.5288 13.0478 18.6295C13.0968 18.7519 13.1059 18.8153 13.0753 18.8207C13.0503 18.8252 13.0213 18.7882 13.011 18.7386C13.0006 18.6891 12.9366 18.5851 12.8686 18.5077C12.8007 18.4301 12.7103 18.2713 12.6678 18.1547C12.5968 17.9595 12.5976 17.9338 12.679 17.8311C12.7276 17.7698 12.7818 17.7171 12.7995 17.7139C12.8171 17.7107 12.8639 17.8743 12.9032 18.0773ZM17.2891 17.0597C16.9793 17.2872 16.9593 17.4384 17.2208 17.5761L17.3523 17.6454L17.2452 17.666C17.147 17.6849 17.1452 17.6899 17.2243 17.726C17.3475 17.7825 17.3401 17.7963 17.1366 17.8904C16.9366 17.983 16.8796 17.9742 16.595 17.8083C16.4448 17.7206 16.4331 17.7586 16.5579 17.9298L16.6365 18.0377L16.3044 18.2743C16.0204 18.4768 15.9638 18.5037 15.913 18.4604C15.8645 18.4191 15.8495 18.4396 15.831 18.572C15.8173 18.6706 15.7652 18.7694 15.6984 18.8242C15.5756 18.9247 15.5746 18.9237 15.5299 18.6517C15.519 18.5855 15.4851 18.5079 15.4546 18.4793C15.414 18.4412 15.4103 18.4815 15.4408 18.6304C15.4916 18.8787 15.4636 19.0852 15.3694 19.1559C15.2652 19.2342 15.2664 19.2356 15.1835 18.9714C15.1414 18.8371 15.0729 18.6272 15.0313 18.5051C14.9587 18.2911 14.9597 18.2817 15.0593 18.2387C15.1162 18.2141 15.2025 18.2056 15.2513 18.2196C15.31 18.2365 15.3629 18.2272 15.4079 18.192C15.4554 18.1549 15.5364 18.1467 15.6774 18.1648C15.8717 18.1899 15.886 18.1857 16.0753 18.048C16.1832 17.9694 16.4089 17.7369 16.5768 17.5312C16.9274 17.1018 17.0577 16.9979 17.2981 16.9564L17.4703 16.9267L17.2891 17.0597ZM13.6242 18.0211C13.6799 18.3087 13.9766 18.8666 14.0656 18.8507C14.1522 18.8353 13.9122 18.2593 13.7104 17.998L13.5896 17.8414L13.6242 18.0211ZM24.0353 16.618C23.7595 16.8903 23.4981 17.4581 22.9988 18.869C22.8005 19.4296 22.6161 19.8607 22.4681 20.1092C22.3435 20.3188 22.2319 20.4919 22.2203 20.4939C22.2086 20.4961 22.322 20.2297 22.4722 19.9021C22.7491 19.2982 22.8346 19.0838 22.9945 18.5911C23.1368 18.1529 23.4909 17.2901 23.6175 17.0729C23.7424 16.8587 24.0655 16.4908 24.1404 16.4775C24.1655 16.473 24.1182 16.5363 24.0353 16.618ZM27.437 16.5583C27.87 16.8419 28.2012 17.1181 28.4258 17.3828C28.5249 17.4996 28.7255 17.7147 28.8715 17.8607C29.2388 18.228 29.2547 18.249 29.0659 18.1182C28.9163 18.0145 28.0848 17.2583 28.0221 17.1689C27.9861 17.1174 27.7568 16.923 27.4989 16.7253C27.2273 16.5172 26.9886 16.2946 26.9792 16.2407C26.9752 16.2183 27.0015 16.2315 27.0377 16.2698C27.0737 16.3082 27.2534 16.438 27.437 16.5583ZM16.9874 18.3553C16.8929 18.4309 16.6758 18.5924 16.505 18.7141C16.221 18.9164 15.8515 19.2025 15.5357 19.4645C15.4677 19.521 15.4102 19.5578 15.4079 19.5464C15.3986 19.502 16.1117 18.8812 16.4438 18.6445C16.9601 18.2767 17.336 18.0766 16.9874 18.3553ZM12.8772 19.0593C12.7715 19.1221 12.3744 19.2493 12.4013 19.2118C12.4253 19.1783 12.7422 19.0552 12.8709 19.0294L12.9565 19.0123L12.8772 19.0593ZM13.4743 19.3375C13.5386 19.4224 13.67 19.557 13.7662 19.6368C13.8626 19.7165 13.9497 19.822 13.9602 19.8711C13.9989 20.0546 14.1434 20.2603 14.2963 20.3493C14.4292 20.4266 14.4796 20.4335 14.6127 20.3921C14.7008 20.3648 14.8533 20.2625 14.9564 20.1615C15.0584 20.0617 15.1658 19.9759 15.1954 19.9709C15.225 19.9658 15.359 19.9872 15.4933 20.0185C15.682 20.0622 15.7491 20.0996 15.7877 20.1824C15.8152 20.2413 15.8461 20.3065 15.8565 20.3273C15.8668 20.348 16.0792 20.3894 16.3286 20.4192C16.6167 20.4537 16.7178 20.4777 16.6062 20.485C16.3641 20.5008 14.9354 20.6436 14.5101 20.6944C14.0901 20.7447 14.1702 20.7848 14.6496 20.7644C14.8392 20.7563 15.0627 20.7699 15.1463 20.7947L15.2981 20.8398L14.9155 20.9286C14.5441 21.0149 14.5397 21.0171 14.7662 21.0051C15.4716 20.9677 15.7927 20.9873 15.9917 21.0798C16.139 21.1483 16.1981 21.2017 16.2146 21.2811C16.246 21.4317 16.3394 21.4772 16.6345 21.4854C16.7747 21.4893 16.8833 21.5011 16.8756 21.5115C16.8679 21.5221 16.6463 21.5493 16.3833 21.572C16.1201 21.5947 15.4967 21.6735 14.9979 21.7469L14.091 21.8806L14.0169 21.7112C13.9145 21.4773 13.949 20.7705 14.0639 20.7501C14.0853 20.7463 14.0507 20.697 13.987 20.6408C13.772 20.4509 13.5045 20.0597 13.3386 19.6925C13.1612 19.2994 13.1512 19.22 13.2767 19.1977C13.3302 19.1882 13.3969 19.2354 13.4743 19.3375ZM17.0283 19.4356C17.1437 20.051 17.2015 20.2274 17.2149 20.0048C17.2184 19.9463 17.2374 19.8956 17.2573 19.8921C17.2772 19.8885 17.4185 19.9189 17.5713 19.9594C17.7243 20 17.8785 20.0287 17.9141 20.0232C17.9497 20.0177 18.1461 20.0268 18.3503 20.0436L18.7219 20.0739L18.8815 19.9476C19.0231 19.8357 19.0607 19.8232 19.2136 19.8376C19.331 19.8486 19.4225 19.8344 19.5001 19.7931C19.7592 19.6554 19.8176 19.7867 19.5961 20.0084C19.4351 20.1696 19.2242 20.2422 19.1152 20.1738C19.0703 20.1456 19.0431 20.1509 19.0032 20.1959C18.9602 20.2444 18.9405 20.2396 18.896 20.17C18.8522 20.1013 18.8461 20.1282 18.8651 20.3074L18.8889 20.5303L18.5336 20.5811C18.3382 20.6091 18.0902 20.6226 17.9827 20.6111L17.787 20.5903L18.0435 20.5375L18.2999 20.4848L18.0277 20.4504C17.8779 20.4314 17.711 20.3975 17.6566 20.3749C17.516 20.3167 17.4273 20.3395 17.4856 20.4191C17.5113 20.4542 17.572 20.6145 17.6202 20.7753C17.7244 21.1221 17.7193 21.1204 18.3309 21.0177C18.8596 20.929 19.0013 20.9807 19.2863 21.3661C19.3971 21.5159 19.5421 21.6955 19.6086 21.7653C19.6751 21.835 19.7302 21.8957 19.7311 21.9001C19.7321 21.9044 19.6446 21.9171 19.5368 21.9282C19.3533 21.9471 19.331 21.9622 19.1897 22.1615C19.1066 22.2786 18.9823 22.4158 18.9132 22.4661C18.7642 22.5748 18.1918 22.7298 18.1382 22.6758C18.1183 22.6559 18.0414 22.4621 17.967 22.2454C17.8422 21.8808 17.8298 21.8604 17.8013 21.9716C17.7755 22.0726 17.7471 21.9727 17.6248 21.3511L17.4791 20.6103L17.2562 20.3433C17.1336 20.1966 17.022 20.0228 17.0083 19.9571C16.9679 19.7637 16.8698 18.8051 16.8902 18.8015C16.9004 18.7996 16.9626 19.085 17.0283 19.4356ZM21.4814 19.3871C21.4503 19.4146 21.4443 19.4337 21.4679 19.4295C21.4916 19.4253 21.5363 19.3993 21.5674 19.3718C21.5984 19.3442 21.6044 19.3251 21.5808 19.3294C21.5571 19.3336 21.5124 19.3596 21.4814 19.3871ZM21.4618 19.9935C21.4503 20.0093 21.4135 20.0173 21.3801 20.0113C21.3431 20.0047 21.3513 19.9935 21.4011 19.9827C21.446 19.9729 21.4733 19.9778 21.4618 19.9935ZM29.9801 18.7087C30.2613 18.9475 30.3115 19.0408 30.4218 19.5292C30.5279 19.999 30.5166 20.308 30.3856 20.5143C30.2885 20.6673 30.2762 20.6353 30.299 20.2873C30.3251 19.8867 30.1933 19.4553 29.9536 19.1573C29.7664 18.9246 29.6315 18.5541 29.7276 18.537C29.7505 18.5329 29.8641 18.6102 29.9801 18.7087ZM14.8006 21.9193C15.0634 21.9096 15.3551 21.9134 15.4487 21.9276L15.6191 21.9534L15.3198 22.0145L15.0205 22.0756L15.264 22.0676C15.8322 22.0492 16.2897 22.0592 16.364 22.0918C16.4112 22.1124 16.4597 22.1899 16.483 22.282L16.5222 22.4375L16.8141 22.4478L17.1059 22.4581L16.8284 22.5169C16.0752 22.6765 15.0838 22.999 14.585 23.2468C14.4686 23.3047 14.3561 23.3411 14.3349 23.3278C14.274 23.2896 14.1405 22.5577 14.1446 22.2839C14.1496 21.9381 14.1538 21.9231 14.2434 21.9303C14.2871 21.9338 14.5379 21.9289 14.8006 21.9193ZM20.9003 20.8785C20.902 20.8869 20.8648 20.9006 20.8175 20.9091C20.7703 20.9175 20.7282 20.9082 20.7241 20.8883C20.7199 20.8685 20.7571 20.8547 20.8068 20.8577C20.8565 20.8608 20.8986 20.8701 20.9003 20.8785ZM20.037 21.4424C20.038 21.4472 20.0009 21.4678 19.9547 21.4883C19.8916 21.5163 19.8433 21.4978 19.7611 21.4141C19.5977 21.2477 19.6165 21.2285 19.8367 21.3365C19.9459 21.3901 20.0361 21.4377 20.037 21.4424ZM20.5329 21.162C20.5929 21.1723 20.6078 21.1896 20.5784 21.2148C20.5542 21.2354 20.4752 21.2348 20.4028 21.2135C20.2947 21.1818 20.2865 21.1723 20.3573 21.1608C20.4047 21.153 20.4838 21.1536 20.5329 21.162ZM26.4614 21.0415C26.5193 21.5519 26.5697 22.1269 26.5736 22.3192C26.5848 22.8824 26.6545 23.4682 26.7848 24.0938C26.9322 24.8027 26.9792 25.5153 26.9026 25.8834C26.8715 26.0327 26.8393 26.1507 26.8309 26.1454C26.8225 26.1402 26.8326 25.975 26.8534 25.7784C26.8879 25.4529 26.8742 25.3224 26.6999 24.3197C26.4852 23.085 26.4652 22.9199 26.4531 22.2787C26.4484 22.0298 26.4182 21.5057 26.386 21.1141C26.319 20.3023 26.3083 20.0835 26.3363 20.1011C26.3471 20.1079 26.4034 20.5311 26.4614 21.0415ZM20.1242 21.5309C20.1447 21.5515 20.1891 21.5523 20.2232 21.5327C20.2571 21.5131 20.3589 21.5061 20.4494 21.5171L20.614 21.5371L20.4184 21.6684L20.2228 21.7997L20.0797 21.7006C20.0009 21.6461 19.9327 21.5839 19.9283 21.5623C19.9173 21.5095 20.0775 21.4837 20.1242 21.5309ZM20.5953 21.8763C20.4603 22.0266 20.4636 22.026 20.3162 21.9273L20.1946 21.8458L20.4492 21.8006L20.7039 21.7554L20.5953 21.8763ZM20.0555 22.1087C20.1359 22.1564 20.2424 22.2429 20.2922 22.3009C20.4053 22.4328 20.483 22.8296 20.429 22.9995C20.3593 23.2183 20.0998 23.5182 19.7867 23.742C19.4463 23.9851 19.3371 24.012 19.6196 23.783C19.8636 23.5851 20.2009 23.1419 20.2661 22.9331C20.3696 22.6019 20.1579 22.2263 19.7941 22.0957L19.6014 22.0266L19.7553 22.0243C19.84 22.023 19.9751 22.0609 20.0555 22.1087ZM13.9371 23.8514C14.0211 23.8948 14.1735 24.0263 14.2761 24.1438C14.587 24.4999 14.819 24.6389 15.2252 24.7125L15.5827 24.7773L15.3567 24.7972C15.0096 24.8277 14.619 24.7043 14.2528 24.4484L13.9373 24.228L13.7132 24.5056C13.3606 24.9425 12.824 25.4437 12.2031 25.9164C10.8265 26.9646 10.6932 27.2445 10.7798 28.9065C10.873 30.6978 10.6831 31.3583 9.85931 32.1063C9.41128 32.5132 9.31103 32.6976 9.15445 33.4031C9.06136 33.8227 8.84518 34.3156 8.62403 34.6124C8.46669 34.8235 7.91819 35.2628 7.78139 35.2872C7.73527 35.2954 7.73737 35.3189 7.79124 35.399C7.91617 35.5843 8.05909 36.1909 8.01764 36.3598L7.98054 36.5109L7.92476 36.2602C7.87417 36.033 7.76729 35.8043 7.57724 35.5168C7.52114 35.4319 7.4906 35.4203 7.41227 35.454C7.24307 35.5271 7.30141 35.4664 7.60702 35.2516C7.98757 34.9843 8.20275 34.7518 8.40842 34.3857C8.61029 34.0265 8.6609 33.8653 8.74857 33.3029C8.84113 32.7091 8.9363 32.5352 9.39841 32.1151C9.75148 31.7939 9.89438 31.5884 10.0306 31.2048C10.1498 30.8694 10.2782 30.0072 10.2725 29.5813C10.2706 29.4463 10.2415 29.0544 10.2076 28.7104C10.0999 27.6153 10.1212 27.048 10.2843 26.6641C10.4839 26.1945 10.9251 25.6531 11.7514 24.8633C12.3577 24.284 12.967 23.925 13.5195 23.8219C13.7434 23.7801 13.808 23.7846 13.9371 23.8514ZM9.03234 25.1337C8.21652 25.5677 7.54938 26.1792 7.33406 26.6901C7.27893 26.8209 7.20464 27.1389 7.16894 27.3966C7.07148 28.1013 6.85304 28.5092 6.1733 29.2557L5.88323 29.5742L6.21489 29.1244C6.75637 28.39 6.94923 27.9546 7.04569 27.2488C7.07235 27.0537 7.1331 26.7986 7.18071 26.6819C7.30875 26.368 7.74564 25.8889 8.20057 25.5637C8.42094 25.406 9.24758 24.9589 9.35385 24.9399C9.38928 24.9334 9.24465 25.0207 9.03234 25.1337ZM20.7463 23.426C20.6939 23.5856 20.3329 24.0617 20.1815 24.1708C19.9606 24.3298 19.4884 24.5789 19.4093 24.5783C19.3635 24.5778 19.4234 24.5292 19.5514 24.4631C20.0006 24.231 20.1963 24.0643 20.4789 23.6727C20.6311 23.4617 20.7628 23.2918 20.7714 23.2952C20.78 23.2986 20.7687 23.3574 20.7463 23.426ZM8.87303 25.8599C8.86485 25.8696 8.81421 25.9075 8.76054 25.9442C8.66853 26.0069 8.66699 26.0063 8.73349 25.9339C8.79138 25.8709 8.92205 25.8016 8.87303 25.8599ZM14.2993 25.0556C14.6666 25.2197 15.2227 25.3196 15.7042 25.3077C15.8078 25.3052 15.9431 25.329 16.0049 25.3607C16.1172 25.4182 16.1172 25.4182 15.8444 25.4682C15.3331 25.5619 14.8333 25.4831 14.4009 25.2405C14.2057 25.131 14.0594 25.0032 14.1175 24.9929C14.1337 24.99 14.2156 25.0182 14.2993 25.0556ZM24.0523 23.5701C24.3121 23.6202 24.9349 24.0628 25.4325 24.5505C25.8225 24.9328 26.1385 25.5142 26.0584 25.7021C26.0245 25.7817 25.7318 25.4869 25.2852 24.9231C24.8726 24.4022 24.7736 24.3141 24.4341 24.1644C24.1385 24.0341 23.8366 23.9992 23.3991 24.0448C22.9867 24.0877 22.8771 24.0523 22.9816 23.9097C23.1408 23.6923 23.7254 23.5069 24.0523 23.5701ZM7.50479 27.3479C7.47207 27.6772 7.39001 28.0312 7.2836 28.3024C7.19057 28.5392 6.70732 29.2446 6.6284 29.2586C6.60789 29.2622 6.68409 29.1252 6.79771 28.9541C6.91137 28.783 7.00054 28.6246 6.99586 28.6021C6.99117 28.5796 7.00888 28.5281 7.03517 28.4875C7.14419 28.3196 7.31413 27.762 7.35708 27.4313C7.41292 27.0017 7.42198 26.9748 7.48001 27.0659C7.50511 27.1054 7.51626 27.2323 7.50479 27.3479ZM6.46763 27.5132C6.40398 27.592 6.3324 27.6599 6.30859 27.6642C6.24245 27.676 6.35288 27.4573 6.43064 27.4226C6.57359 27.3589 6.57993 27.3742 6.46763 27.5132ZM17.2201 25.5447C17.1908 25.6162 17.3284 25.6227 17.7648 25.5703C18.0278 25.5388 18.1641 25.5077 18.1585 25.481C18.1465 25.4231 17.9998 25.418 17.5925 25.4612C17.3673 25.485 17.2321 25.5154 17.2201 25.5447ZM5.16327 29.5059C5.15053 29.5233 5.14571 29.5644 5.15255 29.5973C5.16757 29.6695 5.21443 29.6156 5.21034 29.5307C5.2071 29.464 5.19758 29.459 5.16327 29.5059ZM24.3425 27.3572C24.8 27.6648 25.2468 27.8122 25.9698 27.8938C26.3138 27.9327 26.846 27.9593 27.1525 27.9528C27.8938 27.9372 28.5498 27.9685 28.8578 28.0341C29.2646 28.1209 29.6812 28.3586 29.9281 28.6447C30.1931 28.9519 30.4944 29.4103 30.7249 29.8571C30.9531 30.2994 30.9955 30.3599 31.3274 30.7191C31.481 30.8852 31.6305 31.0747 31.6597 31.1401C31.7149 31.2642 31.9008 31.3884 32.1015 31.4353C32.3493 31.4933 31.9058 31.5287 31.611 31.4746C31.4543 31.4458 31.3204 31.4298 31.3136 31.4392C31.3067 31.4485 31.3968 31.5098 31.5137 31.5754L31.7262 31.6946L31.6866 31.9295C31.6649 32.0587 31.6276 32.1745 31.6039 32.1869C31.48 32.2513 30.9322 31.8135 30.8914 31.6174C30.8786 31.556 30.8936 31.4177 30.9249 31.3099C30.9783 31.125 30.9751 31.0988 30.8691 30.8542C30.8072 30.7114 30.5289 30.2172 30.2506 29.7559C29.6782 28.8069 29.6382 28.7675 29.0269 28.549C28.5179 28.3671 28.1212 28.3034 27.2052 28.2561C25.9328 28.1904 25.5848 28.1553 25.2247 28.0565C24.6656 27.9032 24.0653 27.4631 23.8587 27.0553C23.8129 26.9647 23.8162 26.9651 23.9334 27.0627C24.0008 27.1187 24.1849 27.2513 24.3425 27.3572ZM18.2043 28.4757C18.2621 28.7574 18.5483 29.4337 18.6319 29.4861C18.7028 29.5306 18.5352 28.9375 18.3805 28.5963C18.2038 28.2069 18.1402 28.1633 18.2043 28.4757ZM14.8989 29.9565C14.9496 30.1901 14.8863 30.3293 14.5123 30.8051C14.0551 31.3865 13.947 31.5886 13.9878 31.7846C14.0405 32.0378 14.3707 32.1833 16.0161 32.6782C16.7154 32.8885 17.1305 33.0772 17.2645 33.2454C17.3507 33.3537 17.4042 33.3723 17.7311 33.4073C17.9342 33.429 18.1872 33.4785 18.2933 33.5173L18.4862 33.5878L18.3314 33.5933C18.0468 33.6032 17.5594 33.6291 17.5121 33.6367C17.4819 33.6415 17.4886 33.7235 17.5313 33.8698C17.5849 34.0533 17.6416 34.1378 17.8346 34.3224C18.3176 34.7845 18.3219 34.8172 17.8663 34.5603C17.6391 34.4323 17.414 34.3215 17.3661 34.3141C17.2913 34.3026 17.2765 34.2722 17.2632 34.1019C17.2385 33.7873 17.0647 33.5147 16.7747 33.3356C16.5555 33.2002 15.9201 32.9287 15.8513 32.941C15.8357 32.9438 15.6442 32.8837 15.4257 32.8075C15.2072 32.7314 14.8374 32.6387 14.6039 32.6016C14.002 32.506 13.757 32.4334 13.5612 32.2926C13.4091 32.1833 13.3895 32.1512 13.3844 32.0044C13.3759 31.7579 13.5914 31.3683 14.1286 30.659C14.5889 30.0512 14.6942 29.8475 14.6585 29.6352C14.6346 29.4942 14.8653 29.8025 14.8989 29.9565ZM5.57288 31.3251C5.56609 31.3605 5.55295 31.3906 5.54366 31.3923C5.53437 31.3939 5.52117 31.3684 5.51434 31.3356C5.5075 31.3028 5.52065 31.2725 5.54356 31.2685C5.56642 31.2644 5.57962 31.2899 5.57288 31.3251ZM5.98977 31.2818C5.98107 31.2891 5.92975 31.3479 5.87581 31.4125C5.82187 31.4772 5.77358 31.5103 5.76856 31.4863C5.75499 31.421 5.8585 31.2949 5.93703 31.2809C5.97472 31.2742 5.99847 31.2746 5.98977 31.2818ZM18.1871 29.391C18.1671 29.4265 18.1514 29.5052 18.1523 29.566C18.1535 29.6574 18.2009 29.7057 18.4261 29.8451C18.7337 30.0354 18.8533 30.0141 18.5549 29.8221C18.4073 29.7272 18.3458 29.6545 18.2927 29.5123C18.2383 29.3665 18.2156 29.3405 18.1871 29.391ZM23.6226 28.8197C23.8366 29.1913 23.9505 29.78 23.93 30.4078C23.8853 31.7805 23.6886 32.2517 22.8899 32.9008C21.6297 33.9248 20.7512 34.6658 20.6284 34.8086C20.5175 34.9375 20.4975 34.9893 20.5343 35.0524C20.5989 35.1627 20.8238 35.3551 21.0113 35.4606C21.122 35.5228 21.1408 35.5446 21.0757 35.5353C20.9471 35.5169 20.7214 35.4258 20.5328 35.316L20.3726 35.2229L20.3691 35.455C20.3671 35.5826 20.3578 35.6884 20.3482 35.6901C20.3387 35.6918 20.2872 35.642 20.234 35.5794C20.1178 35.4429 20.0235 35.0481 20.0543 34.8273C20.077 34.664 20.1273 34.6202 20.8132 34.1667C21.5666 33.6684 22.8247 32.6329 22.9973 32.3688C23.1342 32.1594 23.2059 31.9104 23.2926 31.3432C23.4125 30.5577 23.5038 28.9084 23.4441 28.6051C23.4265 28.5152 23.4943 28.5969 23.6226 28.8197ZM18.9261 29.7108C18.7644 29.9357 18.7617 29.9454 18.8697 29.9174C18.932 29.9013 19.0205 29.848 19.0665 29.799C19.1225 29.7392 19.1269 29.7224 19.08 29.7479C18.985 29.7995 18.9813 29.7455 19.071 29.6143C19.1117 29.5546 19.134 29.4987 19.1204 29.4903C19.1069 29.4817 19.0194 29.581 18.9261 29.7108ZM19.503 29.9989C19.5515 30.3325 19.5504 30.3751 19.4966 30.2478C19.4039 30.0287 19.3787 29.8816 19.4061 29.7208C19.4192 29.6437 19.4332 29.5841 19.4371 29.5885C19.4412 29.5929 19.4707 29.7776 19.503 29.9989ZM18.208 29.9854C18.2198 30.0314 18.2319 30.039 18.239 30.0049C18.2454 29.9739 18.2368 29.9398 18.2197 29.9292C18.2027 29.9185 18.1975 29.9438 18.208 29.9854ZM19.778 29.6899C19.9684 29.7178 19.9767 29.7496 19.8161 29.8359C19.6354 29.933 19.6194 29.9303 19.5917 29.7974C19.5636 29.662 19.5685 29.6592 19.778 29.6899ZM6.82174 36.2389C6.89314 36.4848 6.91276 36.6276 6.89412 36.7664C6.88003 36.8711 6.86142 36.9348 6.85275 36.9079C6.82978 36.8368 6.63265 35.8834 6.61403 35.7532C6.59908 35.6491 6.60186 35.6502 6.66099 35.7721C6.69552 35.8434 6.76785 36.0535 6.82174 36.2389Z" fill="#E5D2A5"/>
</g>
<defs>
<clipPath id="clip0_10_84">
<rect width="42" height="49" fill="white"/>
</clipPath>
</defs>
</svg>
