<svg width="222" height="54" fill="none" xmlns="http://www.w3.org/2000/svg"><path fill-rule="evenodd" clip-rule="evenodd" d="M21.23 1.19a32.98 32.98 0 0 1-6.18 4.49C11.27 7.8 7.8 8.72 2.74 8.96c-3.17.15-2.97 0-2.42 1.82.38 1.23.52 1.84 1 4.18.25 1.25.31 3.12.32 9.84 0 4.56.1 8.67.2 9.14l.39 1.84c.56 2.9 2.1 5.75 4.1 7.59 1.75 1.6 3.63 2.9 7.87 5.46 2.14 1.28 7.02 4.3 8.25 5.08.19.12.39.12.58 0 .92-.6 5.8-3.62 6.64-4.13 8.43-5.03 10.44-6.7 12.1-10 .85-1.67 1.14-2.64 1.69-5.47.36-1.86.41-2.9.4-7.62 0-3-.05-5.67-.12-5.92-.18-.65.24-5.44.62-7.08.4-1.72.85-3.32 1.12-3.92.12-.3.12-.52 0-.63-.11-.1-1.09-.17-2.17-.16-2.69.04-6.67-.6-8.64-1.41a15 15 0 0 1-2.23-.85c-2.29-1-5.68-3.24-7.65-5.03A12.1 12.1 0 0 0 22.7 0c-.14 0-.8.53-1.46 1.19Z" fill="#B23633"/><path fill-rule="evenodd" clip-rule="evenodd" d="M15.8 15.08c-.38.17-.63.4-.72.69-.02.07-.04.33-.04.56.02.72-.09 1.17-.32 1.33-.08.06-.13.14-.13.2 0 .1-.05.14-.35.3-.74.39-1.1.9-1 1.42.05.22.16.3.3.24.08-.03.1-.02.13.14.02.1.12.31.22.47.24.39.25.43.04.5-.62.22-.67.24-.65.4.02.24.12.26.56.09.43-.16.44-.16.5.1.03.18.44.85.69 1.14.2.23.22.26.18.37-.08.24-.05.63.07.9.12.28.1.22.12.76.01.25.05.52.1.65l.07.23-.32.06c-.37.06-.7.25-.7.4l-.02.09c-.25.04-.97.4-1.35.67-.2.14-.2.14-.39.09a3.9 3.9 0 0 0-1.68.07c-.94.16-1.19.25-1.81.65-.65.4-1.1.79-1.28 1.08a11.57 11.57 0 0 1-1.82 2.13l-.18.22.17-.14c.4-.34.53-.42.55-.4.06.03-.03.4-.18.75a2 2 0 0 1-.48.69c-.18.17-.33.36-.35.4-.03.09-.02.09.14-.02l.2-.13c.02 0-.13.22-.32.48-.44.63-.49.73-.42 1 .03.12.05.17.05.1-.01-.26 0-.33.13-.52.12-.18.32-.37.4-.39.07-.01.03.11-.1.26a.53.53 0 0 0-.13.32c0 .12-.07.27-.3.6-.29.39-.3.41-.14.3.1-.07.23-.19.3-.26.18-.19.22-.17.07.04-.07.1-.1.18-.08.17.02 0 .07-.03.1-.07.03-.05.04-.04.04.06-.01.17.03.15.1-.04.03-.12.06-.14.08-.09.02.04.02.12 0 .18-.03.07-.02.1 0 .07.06-.05.09.01.04.07v.17c.02.08.04.1.06.08.1-.14.1-.03.01.25l-.1.33.16-.21.2-.28c.02-.04.06-.06.1-.05.02 0 .1-.04.18-.1l.16-.1c.01 0-.1.17-.25.36-.24.31-.26.35-.15.33.06 0 .26-.1.45-.19.18-.09.33-.15.34-.13 0 .02-.07.1-.16.18-.08.09-.19.2-.22.26-.07.1-.07.1.04.05.11-.05.11-.05 0 .12-.1.16-.1.15.15-.08a49.96 49.96 0 0 0 .72-.68c.08-.06.08-.06.02.08-.04.08.02.01.13-.14.18-.27.23-.4.54-1.13.17-.42.45-.97.49-.95l.02.28.01.42c.01.09.02.2 0 .25v.1l.05-.1c.21-.36.34-.92.3-1.39 0-.13.04-.45.1-.72.13-.52.2-.7.2-.46 0 .12 0 .11.05-.05l.12-.46c.06-.24.36-.95.52-1.23l.07-.12-.04.19-.08.32-.05.14.12-.11c.15-.15.35-.45.54-.82.17-.32.25-.38.61-.44l.16-.03-.17.31c-.5.89-.54 1.35-.34 3.14.1.9.06 1.54-.14 2.3-.13.46-.27.66-.76 1.12-.5.45-.62.67-.74 1.28-.1.56-.21.84-.47 1.29a2.4 2.4 0 0 1-1.33 1.2c-.35.13-.4.22-.44.65-.02.32.1 1 .2 1.21.09.16.34.2.84.13.62-.1.87-.2 1.02-.43.23-.34.4-.6.58-.8.11-.14.2-.36.32-.74.26-.88.47-1.27 1.05-2.04.6-.8 1.72-2.09 2.36-2.72.91-.9 1.37-1.38 1.54-1.6l.18-.23.2.03h.37c.22-.04.27 0 .24.24-.02.14-.15.33-.5.8-.74.94-.95 1.38-.87 1.77.08.39.56.63 1.52.76.42.05.52.08 1.33.39 1.16.44 1.4.65 1.38 1.17l-.01.24.2.11.49.26c.16.08.38.22.49.3.1.09.23.16.28.16.14.01.36-.17.43-.34.07-.2 0-.94-.12-1.38l-.2-.68c-.05-.25-.1-.37-.2-.47-.16-.15-.27-.18-.8-.23a7.2 7.2 0 0 1-1.35-.28c-.3-.1-.67-.3-.68-.35-.02-.1.6-.88 1.01-1.3.25-.25.5-.56.65-.83.29-.48.4-.57.74-.59h.22l-.08-.23a3.37 3.37 0 0 0-.26-.54 5.52 5.52 0 0 1-.75-2.1 3.28 3.28 0 0 0-.28-.94.92.92 0 0 1-.13-.42l-.02-.23-.43-.24a7.81 7.81 0 0 1-1.07-.66c.6.31.6.32.06-.1a3.62 3.62 0 0 1-.47-.45c-.1-.12-.27-.28-.37-.35-.1-.07-.15-.15-.13-.16.09-.08 1.12-.37 1.67-.47l.6-.1.1.2c.17.32.38.58.8.96.37.35.67.7.7.85 0 .06-.01.07-.3.14-.13.02-.2-.02-.89-.57l-.86-.66c-.06-.04.21.26.6.66l.72.74-.4.27.47-.08c.33-.05.43-.05.34-.01-.13.05-.12.05.06.03.1-.02.27-.03.36-.03h.15l.06.37c.04.26.04.4 0 .43-.04.03-.32.1-.63.15-.5.1-.55.11-.4.14.08.02.32.04.54.04.21 0 .4.01.41.02.02.01-.07.04-.18.06-.2.04-.2.04-.06.05l.28.01c.12 0 .12.02.13.22 0 .12.05.5.1.86.06.35.1.67.1.71 0 .05-.16-.03-.5-.25l-.47-.32.35.41.58.69c.14.16.25.33.27.42.02.08.11.29.22.46.17.28.18.32.13.4a.67.67 0 0 0-.04.32c.02.24.01.25-.31.35-.08.02-.01.02.14 0l.29-.04-.2.08c-.12.04-.32.1-.46.1-.28.04-.28.09 0 .11.11.01.22.06.26.1.06.1.09.09.7-.02.64-.12.83-.2.8-.33 0-.04.04-.07.15-.1.2-.03.49-.22.56-.37.08-.16 0-.47-.13-.55-.11-.07-.1-.07.5-.25.67-.22 1.85-.49 2.05-.48.17.01.19.12.17.82a5.08 5.08 0 0 1-.17 1.47c-.04.06-.1.33-.13.6-.13.95-.24 1.23-.66 1.6-.64.55-1.7 1.37-2.1 1.62-.62.38-.72.48-.76.78-.06.35.05.86.22 1.04.17.18.58.33.9.34.48 0 .66-.14 1.01-.76.07-.12.21-.26.42-.4.23-.15.39-.3.62-.63.18-.23.59-.73.91-1.1.33-.37.66-.76.74-.87.23-.29.41-.71.5-1.17.21-1.11.45-1.86.74-2.37.16-.28.32-.78.33-1.01 0-.17.02-.18.6-.14l1.12.07c1.17.07 1.9.22 2.42.52.23.13.27.18.52.62.95 1.7.98 1.77.88 1.97-.07.16 0 .54.15.72.24.3.84.58 1.19.57.32-.01.66-.2.72-.4a2.73 2.73 0 0 0-.26-1.36c-.08-.14-.2-.4-.25-.59-.12-.4-.28-.68-.47-.82-.2-.15-.99-1.06-1.44-1.64-.22-.3-.47-.56-.59-.64-.23-.16-.84-.4-1.64-.63-1.1-.33-1.36-.42-1.4-.45-.03-.01-.01-.23.04-.49.14-.75.14-.85-.12-2.3-.17-1-.23-1.45-.25-1.88 0-.45-.15-2.42-.18-2.57-.03-.13.55 0 .94.2.16.08.49.18.78.23.45.1.57.14.9.35.47.3.74.37 1.1.3.71-.14.93-.74.66-1.82-.14-.57-.2-.64-.96-1.2a8.28 8.28 0 0 1-.89-.77 9.73 9.73 0 0 0-1.38-1.26c-.2-.15-.46-.39-.56-.52-.1-.13-.27-.3-.36-.37l-.18-.13.02-.25c.02-.25-.06-.7-.14-.87-.07-.13-.15-.1-.27.1l-.11.16.22-.27-.03.13a5.05 5.05 0 0 1-.36.74c-.02-.01 0-.13.05-.26l.07-.24-.09.15c-.05.09-.1.15-.11.14a1.83 1.83 0 0 1-.13-.34c-.1-.35-.13-.39-.23-.37-.09.02-.3.5-.4.91-.08.36-.05.34-.72.49-.29.06-.53.14-.63.2-.15.1-.21.17-.12.14.18-.06.12 0-.12.14-.17.09-.31.17-.32.19-.01.01.13-.01.32-.06l.34-.08-.17.1c-.1.07-.36.28-.58.48-.22.2-.49.4-.59.45-.14.06-.16.08-.08.1.07 0 .04.04-.15.15l-.23.14.26-.08c.15-.04.27-.06.27-.05 0 .02-.1.11-.24.21-.13.1-.27.2-.3.24l-.35.24c-.28.18-.4.3-.17.17.06-.04.17-.09.25-.11.23-.07.41-.15.47-.21a.2.2 0 0 1 .13-.05c.07 0 .06.02-.05.1a2.7 2.7 0 0 1-.32.2c-.54.28-.81.46-1.2.78-.17.15-.15.15.18-.02.28-.15.99-.45 1.07-.46.12-.02-.32.25-.57.35-.39.15-.5.24-.24.2l.19-.03-.24.13c-.13.07-.25.14-.26.16 0 0 .17-.02.39-.08l.4-.08c0 .02-.14.11-.32.21-.18.1-.3.2-.27.21.03.01-.05.1-.18.2s-.23.2-.23.21c0 .02.04 0 .09-.03.04-.04.21-.1.37-.15l.3-.07-.27.18c-.14.1-.37.21-.5.26a2.6 2.6 0 0 0-.4.16l-.16.09.25-.04c.13-.02.26-.02.29 0 .02.03.02.04-.01.03-.05-.02-.5.26-.5.3.01.02.13 0 .26-.05.28-.08.52-.08.5 0-.02.02-.1.05-.19.07-.18.03-.72.23-.88.33-.08.05 0 .05.38-.02.27-.05.49-.07.48-.06l-.49.13c-.25.06-.53.14-.62.18-.14.06-.14.07.13.03l.29-.05-.32.12c-.3.11-.32.12-.46.05l-.16-.06.16-.2a.85.85 0 0 0 .08-1.01c-.35-.6-.57-.63-1.23-.18l-.33.22-.52-.04a3.99 3.99 0 0 1-.97-.19c-.05 0-.16-.65-.2-1.1-.01-.21 0-.26.12-.37.1-.1.2-.14.39-.18.18-.03.3-.09.51-.24.32-.23.44-.45.4-.7-.04-.16-.04-.16.2-.25a240.9 240.9 0 0 0 1.83-.74l1.87-.75 2.21-.87c2.44-.97 4.03-1.61 5.45-2.21a128.04 128.04 0 0 1 5.07-2.02c.72-.29.78-.3.8-.22a16.33 16.33 0 0 0 1.87-1.06 22.61 22.61 0 0 1-1.44.28c-.7.13-.72.14-.68.21.04.07.03.1-.05.13a722.73 722.73 0 0 1-6.22 2.48 60333.88 60333.88 0 0 1-7.82 3.13l-.56.21a260.81 260.81 0 0 1-3.21 1.28c-.11.05-.12.05-.12-.06 0-.1-.02-.11-.2-.13-.31-.02-.6.12-.86.4l-.2.25-.25-.38c-.14-.2-.26-.4-.28-.44-.03-.04.03-.1.19-.19.21-.12.8-.61.84-.71a1.2 1.2 0 0 0-.14-.37c-.1-.18-.2-.46-.23-.62a3.07 3.07 0 0 0-.5-1.08c-.17-.2-.5-.4-.73-.46-.24-.05-.87.03-1.17.17Zm.15.22.29-.05c.52-.08.58-.07.78.18.23.27.5.74.54.91.03.15-.04.2-.4.32-.2.06-.21.08-.14.11.09.04.09.06.07.29l-.03.25-.1-.1c-.15-.11-.24-.35-.19-.44.03-.04.03-.08.01-.1-.05-.03-.17.3-.14.42.02.1.03.1.07.03.03-.07.07-.04.23.23l.2.32-.46-.04c-1.06-.12-1.3-.1-.9.04.13.05.2.08.14.07l-.83-.12s0-.14.03-.3c.03-.16.04-.54.03-.84-.02-.77-.03-.75.31-.81.31-.06.92-.03 1.12.05.07.03.15.04.18.02.08-.04-.91-.27-1.14-.26h-.2l.12-.09c.18-.14.44-.25.68-.3l.21-.05-.48.26Zm22.3-3.94c-.41.14-.6.18-.69.16-.24-.05-.07-.12.6-.23l.66-.12-.57.19Zm-2.77 1.13-.54.23-1.1.45-3.16 1.27-2.22.9a231.68 231.68 0 0 1-3.07 1.2l-1.11.44a153.17 153.17 0 0 0-2.5.98 1032.31 1032.31 0 0 0-1.12.4l1.17-.49 1.78-.73a162.41 162.41 0 0 1 4.8-1.93 157.13 157.13 0 0 1 3.74-1.48l1.45-.57c1.44-.56 2.29-.87 1.88-.67Zm-19.94 3.89c.1.05 1.12-.01 1.03-.07a6.24 6.24 0 0 0-.97.02c-.07 0-.1.03-.06.05Zm1.94.45c0 .07-.03.22-.05.34l-.05.22-.05-.49-.08.52-.03-.3c-.02-.15-.03-.3-.02-.32 0-.02.07-.05.15-.06.13-.02.14-.01.13.1Zm.12.28-.05.16-.01-.22c-.03-.3 0-.4.06-.23.02.07.02.2 0 .3Zm-2.16.68c.4.06.88.18.95.23.03.02.08.1.1.15.06.11.06.12-.1.11-.1 0-.34-.05-.53-.1l-.7-.18c-.27-.06-.35-.1-.37-.16-.02-.09 0-.1.16-.1.1 0 .32.02.49.05Zm-.27.47c.3.12.65.4.77.61l.06.14s-.1 0-.2-.03c-.17-.05-.7-.06-.87-.03-.11.02-.03.09.12.1.15 0 .52.1.5.13h-.39c-.52-.03-.94.05-1.32.26-.16.1-.32.17-.35.18-.03 0-.06-.07-.07-.2a.91.91 0 0 1 .33-.72l.14-.12-.14.18c-.13.16-.21.34-.2.41 0 .02.08-.08.17-.2.14-.24.42-.46.85-.7.25-.14.29-.14.6-.01Zm1.1.2c.11.03.26.05.34.05.13 0 .16.03.32.28.09.16.18.35.2.42l.02.14-.1-.12c-.08-.12-.08-.12-.04.13.05.22.04.26-.05.31-.17.1-.7.29-.74.26-.02-.01-.01-.13.03-.27.1-.37 0-.75-.27-1.08a3.94 3.94 0 0 1-.21-.27l.15.05c.09.04.25.08.35.1Zm11.79-2.1c-.08.4-.27.84-.3.7a2.4 2.4 0 0 1 .33-.93s0 .1-.03.23Zm-13.24 3.02c-.11.05-.1.05.06.05.1 0 .29.03.43.06.26.06.26.06.34.29l.16.37c.07.12.07.15 0 .27-.06.08-.13.2-.17.3-.08.16-.18.68-.14.7l.16-.28c.15-.3.4-.62.52-.64.1-.02.3.26.38.54.07.23.07.29 0 .43-.11.25-.43.54-.65.61l-.19.06.15.06c.16.06.1.1-.08.05-.12-.04-.29-.25-.32-.42-.01-.07-.1-.17-.22-.26a2.75 2.75 0 0 1-1.04-2.03c.04-.1.21-.17.53-.2.16-.01.17 0 .08.04Zm-.69.54c.05.23.12.5.16.61.05.14.06.2.03.21-.03 0-.06-.03-.07-.09a.78.78 0 0 0-.16-.25 1.47 1.47 0 0 1-.22-.4c-.07-.2-.07-.24.02-.35a.48.48 0 0 1 .13-.13c.02 0 .07.18.11.4Zm4.8-1.12c-.33.25-.36.42-.07.57l.14.08-.11.02c-.11.02-.11.02-.03.06.14.07.13.08-.1.19-.21.1-.27.09-.58-.1-.17-.1-.18-.05-.05.14l.1.12-.37.26c-.31.22-.38.25-.43.2-.05-.04-.07-.02-.1.13a.46.46 0 0 1-.14.27c-.13.12-.13.11-.18-.19a.4.4 0 0 0-.08-.19c-.05-.04-.05 0-.02.17.06.27.03.5-.08.58-.11.09-.11.09-.2-.2l-.17-.52c-.08-.23-.08-.24.03-.29a.37.37 0 0 1 .21-.02c.07.02.13 0 .18-.03.05-.04.14-.05.3-.03.2.03.22.02.43-.13.11-.09.36-.34.55-.57.38-.47.52-.59.79-.63l.18-.04-.2.15Zm-4 1.06c.05.32.38.93.48.91.09-.01-.17-.65-.4-.94l-.13-.17.04.2Zm11.4-1.55c-.3.3-.6.93-1.14 2.48-.22.62-.42 1.1-.58 1.37l-.27.43c-.02 0 .1-.3.27-.66.3-.66.4-.9.57-1.44.16-.48.55-1.44.69-1.68.13-.23.49-.64.57-.65.03 0-.02.06-.12.15Zm3.72-.06c.47.31.84.61 1.08.9.11.14.33.37.5.53.4.4.41.43.2.29a15.2 15.2 0 0 1-1.14-1.05c-.04-.06-.29-.27-.57-.49-.3-.23-.56-.47-.57-.53 0-.03.02-.01.06.03.04.04.24.19.44.32Zm-11.44 1.98-.53.4a19.85 19.85 0 0 0-1.2.91c-.01-.05.77-.73 1.13-1 .57-.4.98-.62.6-.31Zm-4.5.77c-.12.07-.56.21-.53.17.03-.03.38-.17.52-.2l.1-.02-.1.05Zm.65.31c.07.1.21.24.32.33.1.09.2.2.21.26.04.2.2.43.37.53.14.08.2.09.34.04.1-.03.27-.14.38-.25.11-.11.23-.2.26-.21l.33.05c.2.05.28.09.32.18l.08.16c0 .02.24.07.51.1.32.04.43.07.3.08-.26.01-1.82.17-2.29.23-.46.05-.37.1.15.07.21 0 .46 0 .55.04l.17.05-.42.1c-.41.09-.42.1-.17.08.78-.04 1.13-.02 1.34.08.17.08.23.13.25.22.03.17.14.22.46.23.15 0 .27.01.26.03a33.32 33.32 0 0 0-2.06.26l-.99.14-.08-.18c-.11-.26-.07-1.04.05-1.06.03 0-.01-.06-.08-.12-.24-.21-.53-.64-.71-1.05-.2-.43-.2-.52-.07-.54.06-.01.13.04.22.15Zm3.89.1c.13.69.19.88.2.64 0-.07.03-.12.05-.13.02 0 .18.03.34.08l.38.07c.04-.01.25 0 .48.02l.4.03.18-.14c.15-.12.2-.13.36-.12.13.01.23 0 .32-.05.28-.15.34 0 .1.24-.17.18-.4.26-.52.18-.05-.03-.08-.02-.13.03-.04.05-.07.04-.11-.03-.05-.08-.06-.05-.04.15l.03.25-.4.05c-.2.03-.48.05-.6.03l-.2-.02.55-.12-.3-.03a2.23 2.23 0 0 1-.4-.09c-.16-.06-.25-.04-.19.05.03.04.1.22.15.4.11.38.1.38.78.26.58-.1.73-.04 1.04.39a5.98 5.98 0 0 0 .49.58l-.21.04c-.2.02-.23.03-.38.25-.1.13-.23.28-.3.34-.17.12-.8.29-.85.23-.03-.02-.11-.24-.2-.47-.13-.4-.14-.43-.17-.3-.03.1-.06 0-.2-.69l-.16-.82-.24-.3a1.56 1.56 0 0 1-.27-.42c-.05-.21-.15-1.27-.13-1.27.01 0 .08.31.15.7Zm4.88-.04c-.04.03-.04.05-.02.04.03 0 .08-.03.11-.06.04-.03.04-.05.02-.05a.3.3 0 0 0-.11.07Zm-.02.66c-.02.02-.06.03-.1.02-.03 0-.03-.02.03-.03.05 0 .08 0 .07.01Zm9.33-1.41c.3.26.36.36.48.9.12.52.1.86-.04 1.09-.1.17-.12.13-.1-.25.03-.44-.11-.92-.37-1.25-.2-.25-.36-.66-.25-.68.02 0 .15.08.28.19ZM16.2 24.16h.71l.19.03-.66.14.27-.01c.62-.02 1.12-.01 1.2.03.05.02.1.1.13.2l.05.18.63.02-.3.06c-.82.18-1.91.54-2.46.8-.12.07-.25.11-.27.1a3.84 3.84 0 0 1-.2-1.15c0-.38 0-.4.1-.4h.61ZM22.89 23l-.09.03c-.05.01-.1 0-.1-.02s.03-.04.09-.03l.1.02Zm-.94.62-.1.05c-.06.03-.12.01-.2-.08-.19-.18-.17-.2.08-.09l.22.12Zm.54-.3c.06 0 .08.02.05.05-.03.02-.11.02-.2 0-.11-.04-.12-.05-.04-.06a.7.7 0 0 1 .19 0Zm6.5-.14c.05.56.11 1.2.11 1.4.02.63.1 1.27.24 1.96.16.78.2 1.57.12 1.97l-.07.3a5.12 5.12 0 0 0-.14-2.01 11.45 11.45 0 0 1-.28-2.26c0-.27-.04-.85-.07-1.28a4.38 4.38 0 0 1-.06-1.12c.02.01.08.48.14 1.04Zm-6.95.54c.02.02.07.02.1 0a.53.53 0 0 1 .26-.02l.18.02-.43.3-.16-.12a.55.55 0 0 1-.16-.15c-.02-.06.16-.08.21-.03Zm.52.38c-.15.16-.15.16-.3.05l-.14-.09.56-.1-.12.14Zm-.6.25c.1.06.21.15.26.22.13.14.21.58.15.77-.07.24-.36.57-.7.81-.37.27-.5.3-.18.05.27-.22.63-.7.7-.94.12-.36-.11-.78-.51-.92l-.21-.08h.17c.09 0 .24.04.33.1Zm-6.7 1.93c.1.04.26.19.38.32.34.39.59.54 1.04.62l.39.08-.25.02c-.38.03-.8-.1-1.21-.39l-.35-.24-.24.3a9.93 9.93 0 0 1-1.65 1.56c-1.51 1.16-1.66 1.46-1.56 3.3.1 1.97-.11 2.7-1.01 3.52-.5.45-.6.65-.77 1.43-.1.46-.34 1-.58 1.33a3.2 3.2 0 0 1-.93.75c-.05 0-.05.03.01.12.14.2.3.87.25 1.06l-.04.17-.06-.28c-.06-.25-.17-.5-.38-.82-.06-.1-.1-.1-.18-.07-.19.08-.12.02.21-.22.42-.3.65-.55.88-.96.22-.4.28-.57.37-1.19.1-.65.2-.85.71-1.3.39-.36.55-.59.7-1.01a7.3 7.3 0 0 0 .26-1.79c0-.15-.03-.58-.07-.96-.12-1.2-.1-1.83.08-2.26.22-.51.7-1.1 1.61-1.98a4.04 4.04 0 0 1 1.94-1.15c.24-.04.31-.04.45.04Zm-5.37 1.4a4.23 4.23 0 0 0-1.86 1.72c-.06.15-.14.5-.18.78-.1.78-.34 1.23-1.09 2.05l-.32.35.37-.5c.59-.8.8-1.28.9-2.06.04-.22.1-.5.15-.63a3.6 3.6 0 0 1 1.12-1.23 9.19 9.19 0 0 1 1.26-.69c.04 0-.11.1-.35.22Zm12.83-1.87c-.06.17-.45.7-.62.82a3.6 3.6 0 0 1-.84.45c-.05 0 .01-.06.15-.13.5-.26.71-.44 1.02-.87l.32-.42s0 .07-.03.15Zm-13 2.68-.13.1c-.1.06-.1.06-.02-.02.06-.07.2-.15.15-.08Zm5.94-.89c.4.18 1.01.3 1.54.28.11 0 .26.02.33.06.12.06.12.06-.18.12-.56.1-1.1.01-1.58-.25-.21-.12-.37-.27-.3-.28l.2.07Zm10.68-1.63c.29.05.97.54 1.51 1.08.43.42.78 1.06.69 1.26-.04.1-.36-.23-.85-.85-.45-.58-.56-.67-.93-.84a2.09 2.09 0 0 0-1.13-.13c-.45.05-.57 0-.46-.15.17-.24.81-.44 1.17-.37ZM8.22 30.14c-.04.36-.13.75-.24 1.05-.1.26-.63 1.04-.72 1.05-.02 0 .06-.14.19-.33.12-.19.22-.36.21-.39a4.05 4.05 0 0 0 .4-1.29c.06-.47.07-.5.13-.4.03.04.04.18.03.3Zm-1.14.18a.62.62 0 0 1-.17.17c-.07.01.05-.23.13-.27.16-.07.17-.05.04.1Zm11.78-2.17c-.03.08.12.09.6.03.28-.04.43-.07.43-.1-.02-.06-.18-.07-.62-.02-.25.03-.4.06-.41.1Zm-13.2 4.37c-.02.02-.02.06-.02.1.02.08.07.02.07-.08 0-.07-.02-.08-.05-.02Zm21-2.37c.5.34 1 .5 1.78.59.38.04.96.07 1.3.07.81-.02 1.53.01 1.87.08.44.1.9.36 1.17.68.29.34.62.84.87 1.33.25.5.3.56.66.95.17.19.33.4.36.47.07.13.27.27.49.32.27.07-.22.1-.54.05a1.38 1.38 0 0 0-.32-.04c-.01 0 .09.08.22.15l.23.13-.05.26c-.02.14-.06.27-.09.28-.13.07-.73-.41-.78-.63a.9.9 0 0 1 .04-.34c.06-.2.06-.23-.06-.5-.07-.15-.37-.7-.68-1.2-.63-1.05-.67-1.1-1.34-1.34-.56-.2-1-.27-2-.32-1.39-.07-1.77-.11-2.16-.22a2.61 2.61 0 0 1-1.5-1.1c-.05-.1-.05-.1.08 0l.45.33Zm-6.72 1.23c.06.31.37 1.06.47 1.11.07.05-.11-.6-.28-.98-.2-.43-.26-.47-.2-.13Zm-3.62 1.63c.05.26-.02.41-.43.94-.5.64-.61.86-.57 1.08.06.28.42.44 2.22.98.77.23 1.22.44 1.37.63.1.12.15.14.51.18.22.02.5.07.62.12l.2.08h-.16l-.9.05c-.03 0-.03.1.02.26.06.2.12.3.33.5.53.5.54.54.04.26-.25-.14-.5-.27-.55-.27-.08-.02-.1-.05-.11-.24a1.08 1.08 0 0 0-.54-.84 4.7 4.7 0 0 0-1-.44l-.48-.14a6.29 6.29 0 0 0-.9-.23c-.65-.1-.92-.19-1.14-.34-.16-.12-.19-.16-.2-.32 0-.27.24-.7.82-1.48.5-.67.62-.9.58-1.13-.02-.16.23.18.27.35ZM6.1 34.52c0 .04-.02.07-.03.08l-.03-.07c0-.03 0-.07.03-.07s.04.02.03.06Zm.46-.05-.12.15c-.06.07-.12.1-.12.08-.02-.07.1-.21.18-.23h.06Zm13.36-2.08a.46.46 0 0 0-.04.2c0 .1.05.15.3.3.34.21.47.19.14-.02a.6.6 0 0 1-.29-.35c-.05-.16-.08-.19-.11-.13Zm5.95-.63c.24.41.36 1.06.34 1.75-.05 1.51-.27 2.03-1.14 2.75a46.34 46.34 0 0 0-2.48 2.1c-.12.14-.14.2-.1.27.07.12.32.33.52.45.12.07.14.1.07.08a1.99 1.99 0 0 1-.6-.24l-.17-.1v.25c0 .14-.01.26-.02.26a.51.51 0 0 1-.13-.12 1.39 1.39 0 0 1-.2-.83c.03-.18.08-.23.84-.73a15.2 15.2 0 0 0 2.39-1.98c.15-.23.23-.5.32-1.13.13-.86.23-2.68.17-3.02-.02-.1.05 0 .2.24Zm-5.14.98c-.18.25-.18.26-.06.23a.53.53 0 0 0 .21-.13c.06-.07.07-.08.02-.06-.1.06-.11 0-.01-.14.04-.07.07-.13.05-.14-.01-.01-.1.1-.21.24Zm.63.32c.05.37.05.41 0 .27a.99.99 0 0 1-.07-.72l.07.45Zm-1.42-.02c.01.06.03.06.04.03 0-.04 0-.08-.03-.09-.01 0-.02.02 0 .07Zm1.72-.32c.21.03.22.07.04.16-.2.1-.21.1-.24-.04-.03-.15-.03-.15.2-.12ZM7.47 39.94c.08.27.1.43.08.58-.01.11-.04.18-.04.15-.03-.07-.25-1.13-.27-1.27-.01-.11 0-.11.06.02l.17.52Z" fill="#E5D2A5"/><path d="M69.19 13.9v.23h-1.57v5.58h4.92v-5.58h-1.57v-.23h5.6v.23H75v11.63h1.57V26h-5.6v-.24h1.57v-5.81h-4.92v5.81h1.57V26h-5.6v-.24h1.57V14.13H63.6v-.23h5.59ZM87.96 13.9v2.9h-.22a5.6 5.6 0 0 0-.3-.73 3.17 3.17 0 0 0-1.51-1.63c-.38-.2-.85-.3-1.4-.3h-2.71v5.25h.95c.42 0 .77-.06 1.06-.17.29-.13.53-.3.73-.51.19-.23.35-.5.47-.8.13-.32.23-.67.3-1.06h.23v5.3h-.22a8.42 8.42 0 0 0-.3-.96c-.1-.3-.25-.57-.43-.8-.17-.24-.4-.43-.67-.56-.26-.14-.59-.2-.98-.2h-1.14v6.13h2.79a3.52 3.52 0 0 0 2.51-1c.33-.32.6-.69.82-1.1.21-.44.38-.9.5-1.38h.21V26H77.8v-.24h1.56V14.13H77.8v-.23h10.17ZM94.75 19.39c.51 0 .91-.07 1.2-.2.3-.14.52-.32.67-.55.15-.24.24-.5.27-.8a7 7 0 0 0-.03-2.18 2.25 2.25 0 0 0-.34-.88 1.4 1.4 0 0 0-.66-.53 2.85 2.85 0 0 0-1.06-.17c-.12 0-.25 0-.37.02l-.38.03v5.26h.7Zm-.7 6.37c.31.04.64.05.99.05.36 0 .69-.04.97-.12.3-.09.54-.25.75-.49.2-.24.35-.57.46-.98a6.81 6.81 0 0 0 .11-2.45 2.8 2.8 0 0 0-.28-.97 2.07 2.07 0 0 0-.7-.82 2.14 2.14 0 0 0-1.31-.36h-.99v6.14Zm-4.03-11.63v-.23h2.57a58.04 58.04 0 0 0 2.82-.05c.45 0 .91.04 1.4.13.48.1.93.24 1.32.46.41.22.75.5 1 .87.27.36.4.81.4 1.36 0 .48-.13.9-.4 1.24-.24.33-.55.6-.91.81a6.42 6.42 0 0 1-2.13.71v.08c.45.03.9.1 1.38.22.48.11.91.3 1.31.54a2.67 2.67 0 0 1 1.38 2.45c0 .67-.17 1.22-.51 1.65-.33.42-.74.75-1.23 1-.47.25-.99.43-1.54.53a8.9 8.9 0 0 1-1.45.13L94 26.02 92.6 26h-2.58v-.24h1.57V14.13h-1.57ZM112.02 17.36a12.7 12.7 0 0 0-.46-1.17c-.17-.42-.4-.8-.68-1.14a3.12 3.12 0 0 0-2.57-1.19 3.6 3.6 0 0 0-1.96.46c-.47.3-.83.73-1.08 1.28-.24.54-.4 1.2-.46 1.95-.07.75-.1 1.57-.1 2.47 0 1.17.06 2.15.2 2.92s.34 1.38.63 1.84c.3.45.67.77 1.12.95.47.18 1.02.27 1.65.27.5 0 .97-.1 1.38-.3.42-.21.78-.48 1.1-.8a5.72 5.72 0 0 0 1.28-2.5h.27V26h-.27c-.06-.14-.13-.23-.2-.27a.61.61 0 0 0-.37-.09c-.13 0-.3.04-.52.1l-.75.2c-.27.08-.57.14-.9.2a6.28 6.28 0 0 1-5.47-1.7 6.7 6.7 0 0 1-1.4-2 5.8 5.8 0 0 1-.53-2.46c0-.96.2-1.83.58-2.62a6.89 6.89 0 0 1 3.55-3.28c.77-.3 1.5-.46 2.23-.46.35 0 .69.04 1 .1.32.07.61.15.87.23.27.07.51.13.72.2.21.07.4.1.56.1.16 0 .28-.01.35-.05.08-.04.14-.15.17-.3h.28v3.46h-.22ZM117.96 25.76h1.43V26h-5.46v-.24h1.56V14.13h-1.56v-.23h5.46v.23h-1.43v5.4h1.34c.38 0 .69-.05.94-.14.26-.1.47-.26.64-.46.17-.22.3-.49.38-.82.09-.33.14-.72.17-1.19.02-.46.05-.9.1-1.29.06-.4.15-.74.27-1.02.13-.3.3-.52.5-.68.2-.17.47-.25.8-.25.23 0 .46.02.7.08a1.53 1.53 0 0 1 1.16 1.51c0 .43-.1.75-.32.94-.21.2-.52.29-.92.29-.64 0-.97-.27-.97-.82 0-.18.02-.34.06-.47a6.8 6.8 0 0 1 .27-.69c.04-.1.06-.2.06-.28a.59.59 0 0 0-.03-.2c-.01-.07-.08-.11-.2-.11-.33 0-.6.2-.82.6-.2.4-.33.98-.37 1.75-.03.5-.06.95-.12 1.34-.05.37-.13.7-.24.97-.1.27-.25.5-.44.66-.18.16-.42.27-.72.34v.07c.56.09 1.05.19 1.48.29.44.09.82.23 1.14.42.32.2.57.47.75.84.2.35.31.83.36 1.44l.13 1.7c.05.42.1.74.16.97.06.23.15.37.25.44.11.07.27.1.46.1.23 0 .41-.06.56-.18l.4-.38.16.16-.34.32a1.81 1.81 0 0 1-.88.4c-.2.04-.46.06-.77.06-.63 0-1.13-.1-1.48-.27-.34-.2-.6-.43-.76-.72a2.4 2.4 0 0 1-.32-.92c-.04-.34-.06-.66-.07-.96l-.1-1.33a3.44 3.44 0 0 0-.28-1.14c-.13-.33-.34-.6-.63-.8a2 2 0 0 0-1.19-.3h-1.27v5.96ZM132.04 13.9v.23h-1.56v10.22l5-9.57v-.65h-1.57v-.23h5.6v.23h-1.57v11.63h1.56V26h-5.59v-.24h1.57V15.31l-5 9.57v.88h1.56V26h-5.6v-.24h1.57V14.13h-1.56v-.23h5.6ZM146.29 13.9v.23h-1.57v10.22l5-9.57v-.65h-1.56v-.23h5.59v.23h-1.56v11.63h1.56V26h-5.6v-.24h1.57V15.31l-5 9.57v.88h1.57V26h-5.6v-.24h1.57V14.13h-1.57v-.23h5.6Zm1-.77a5.47 5.47 0 0 1-2.14-.46 2.25 2.25 0 0 1-.7-.54 1.17 1.17 0 0 1-.27-.75c0-.34.08-.62.25-.83.17-.23.5-.34 1-.34.27 0 .49.07.67.22.18.15.27.36.27.64 0 .32-.05.56-.13.73-.1.17-.14.35-.14.53 0 .2.12.34.36.43a2.73 2.73 0 0 0 1.63.02c.26-.1.39-.24.39-.45a2.58 2.58 0 0 0-.14-.53l-.1-.32a2.09 2.09 0 0 1-.03-.4c0-.28.09-.49.27-.63.18-.16.4-.24.66-.24.84 0 1.26.39 1.26 1.17 0 .27-.1.52-.27.73-.17.22-.4.4-.7.56-.28.15-.61.26-.99.34-.37.08-.75.12-1.15.12ZM169.38 22.67c0 .56-.15 1.07-.45 1.51a3.6 3.6 0 0 1-1.17 1.12c-.5.3-1.09.54-1.77.7a8.74 8.74 0 0 1-3.06.19 4.74 4.74 0 0 1-1.65-.56c-.3-.16-.57-.34-.81-.55-.24-.2-.43-.43-.58-.68-.14-.26-.2-.54-.2-.85 0-.34.1-.61.3-.81.2-.22.54-.33 1-.33.22 0 .4.03.53.09.14.05.24.12.32.2.08.07.14.15.17.24.04.1.06.17.06.24 0 .17-.02.32-.06.46l-.1.37-.1.38c-.03.12-.05.26-.05.4 0 .26.05.47.15.62.1.13.22.24.36.32.2.1.42.17.7.22.27.04.56.07.88.07.96 0 1.67-.25 2.1-.75.45-.51.67-1.36.67-2.55 0-1.16-.21-1.97-.65-2.43-.43-.47-1.07-.7-1.93-.7h-1.6v-.24h1.58c.44 0 .8-.05 1.07-.15.28-.1.5-.27.66-.5.17-.22.29-.5.34-.86.06-.35.09-.78.09-1.3a3.4 3.4 0 0 0-.51-2c-.34-.47-.89-.71-1.65-.71-.57 0-1.04.11-1.43.34-.38.22-.7.5-.97.85-.26.34-.47.72-.64 1.14-.16.4-.3.8-.43 1.17h-.22v-3.47h.27c.04.16.1.26.17.3.08.04.2.06.36.06.15 0 .32-.04.51-.1.2-.07.4-.14.65-.2a4.4 4.4 0 0 1 1.77-.32c.55-.01 1.1.05 1.66.16a5.4 5.4 0 0 1 1.51.53c.46.24.83.55 1.1.93.3.38.43.82.43 1.35 0 .48-.1.9-.32 1.24-.2.32-.48.6-.82.81-.32.22-.7.39-1.12.51-.42.12-.83.2-1.24.27v.07c.35.02.76.09 1.23.19s.92.27 1.34.5c.43.25.8.57 1.09.98.3.4.46.92.46 1.53ZM173.54 20.97h3.91l-2-4.64-1.9 4.64Zm-2.24 4.8 5.06-12.35h.46l5.36 12.34h1.46V26h-5.71v-.24h1.58l-1.97-4.55h-4.08l-1.89 4.55h1.51V26h-3.2v-.24h1.42ZM186.06 26c.15 0 .3-.05.44-.14a3.26 3.26 0 0 0 1.05-1.6c.23-.69.42-1.44.57-2.27a42.63 42.63 0 0 0 .6-5.27c.05-.9.09-1.77.11-2.59h-1.63v-.23h9.2v.23h-1.57v11.63h1.57V26h-5.6v-.24h1.57V14.13h-3.27a78.5 78.5 0 0 1-.34 5.05c-.1.96-.23 1.9-.39 2.82-.16.92-.36 1.73-.61 2.44-.2.56-.45 1.01-.76 1.34-.31.33-.67.5-1.1.5a2.67 2.67 0 0 1-1.43-.46 2 2 0 0 1-.5-.6 1.74 1.74 0 0 1-.19-.82c0-.43.13-.73.38-.92.26-.18.6-.27 1-.27.34 0 .59.08.75.24.17.16.25.36.25.6 0 .16-.02.32-.07.45-.04.13-.1.25-.15.36l-.13.34a1.3 1.3 0 0 0-.06.38c0 .28.1.42.31.42ZM200.48 19.98c0 1.18.06 2.16.2 2.94.14.77.35 1.4.63 1.86.3.45.67.77 1.12.95.47.18 1.02.27 1.65.27.83 0 1.48-.15 1.95-.46.5-.32.85-.75 1.1-1.3.23-.55.38-1.2.44-1.95a27.73 27.73 0 0 0 .01-4.72 5.6 5.6 0 0 0-.42-1.9c-.24-.56-.6-1-1.1-1.31a3.46 3.46 0 0 0-1.98-.5c-.8 0-1.43.16-1.9.46-.48.3-.84.71-1.1 1.26a6.25 6.25 0 0 0-.49 1.94c-.07.75-.11 1.57-.11 2.46Zm-2.77 0c0-.96.19-1.83.57-2.62a6.89 6.89 0 0 1 3.56-3.28 5.98 5.98 0 0 1 4.55-.01 6.28 6.28 0 0 1 4.05 5.86c0 .85-.18 1.66-.53 2.43a6.6 6.6 0 0 1-3.42 3.38 6.28 6.28 0 0 1-6.87-1.3 6.7 6.7 0 0 1-1.39-2 5.8 5.8 0 0 1-.52-2.46ZM211.78 14.13v-.23h9.64v2.9h-.22a7.6 7.6 0 0 0-.53-1.1c-.18-.33-.4-.6-.64-.83a2.52 2.52 0 0 0-.89-.55 3.3 3.3 0 0 0-1.17-.19h-2.16v11.63h1.58V26h-5.6v-.24h1.56V14.13h-1.57Z" fill="#000"/><path d="m70.16 46-2.96-3.85h-1.92V46h-.86v-8.4h.86v3.77h1.92l2.84-3.77H71l-3.12 4.08 3.3 4.32h-1.02ZM75.7 37.6c2.13 0 3.42 1.08 3.42 2.88 0 1.79-1.3 2.87-3.43 2.87h-2.25V46h-.9v-8.4h3.15Zm-.03 4.97c1.68 0 2.57-.77 2.57-2.09 0-1.34-.9-2.11-2.57-2.11h-2.23v4.2h2.23ZM81.84 45.23h5.05V46h-5.94v-8.4h5.76v.77h-4.87v2.99h4.34v.75h-4.34v3.12ZM95.32 45.23h1.26v2.65h-.83V46h-7.33l-.01 1.88h-.83v-2.65h.43c1.2-.07 1.46-2.23 1.55-4.9l.1-2.73h5.66v7.63Zm-4.97-4.82c-.07 2.18-.28 4.21-1.08 4.82h5.17v-6.86h-4.02l-.07 2.04ZM98.39 46v-8.4h.87v6.96l5.38-6.96h.8V46h-.87v-6.95L99.19 46h-.8ZM113.78 37.6v.77h-2.96V46h-.87v-7.63H107v-.77h6.78ZM121.48 37.6h.87V46h-.87v-3.88h-5.26V46h-.89v-8.4h.9v3.74h5.25V37.6ZM128.7 40.6c1.99 0 3.06.9 3.06 2.64 0 1.81-1.16 2.76-3.23 2.76h-3.34v-8.4h.88v3h2.64Zm4.52 5.4v-8.4h.87V46h-.87Zm-4.72-.7c1.55 0 2.38-.7 2.38-2.05 0-1.3-.8-1.93-2.38-1.93h-2.44v3.97h2.44ZM140.42 36.99c-1.2 0-1.94-.58-1.95-1.55h.66c.01.65.53 1.03 1.3 1.03.75 0 1.27-.38 1.29-1.03h.66c-.02.97-.77 1.55-1.96 1.55Zm-3.5 9.01v-8.4h.88v6.96l5.37-6.96h.8V46h-.87v-6.95L137.72 46h-.8ZM152.12 37.53a4.11 4.11 0 0 1 4.18 4.27 4.11 4.11 0 0 1-4.18 4.27c-1.3 0-2.42-.4-3.16-1.23l.55-.57c.7.71 1.57 1.01 2.58 1.01a3.3 3.3 0 0 0 3.3-3.2h-4.32v-.72h4.32a3.29 3.29 0 0 0-3.3-3.04c-1.01 0-1.89.3-2.58 1l-.55-.56a4.18 4.18 0 0 1 3.16-1.23ZM164.17 46l-2.96-3.85h-1.92V46h-.87v-8.4h.87v3.77h1.92l2.84-3.77h.96l-3.12 4.08 3.3 4.32h-1.02ZM170.22 46.07a4.21 4.21 0 0 1-4.4-4.27c0-2.46 1.88-4.27 4.4-4.27 1.23 0 2.34.4 3.08 1.22l-.56.57c-.69-.7-1.53-1-2.49-1a3.43 3.43 0 0 0-3.55 3.48c0 2 1.53 3.48 3.55 3.48.96 0 1.8-.3 2.49-1l.56.56a4.08 4.08 0 0 1-3.08 1.23ZM175.13 37.6h7.07V46h-.87v-7.63H176V46h-.88v-8.4ZM185.93 45.23h5.05V46h-5.94v-8.4h5.76v.77h-4.88v2.99h4.35v.75h-4.34v3.12ZM196.1 37.6c2.13 0 3.42 1.08 3.42 2.88 0 1.79-1.3 2.87-3.43 2.87h-2.25V46h-.9v-8.4h3.15Zm-.03 4.97c1.68 0 2.56-.77 2.56-2.09 0-1.34-.88-2.11-2.56-2.11h-2.23v4.2h2.23ZM206.56 37.6v.77h-2.95V46h-.87v-7.63h-2.96v-.77h6.78Z" fill="#535353"/></svg>