<svg width="38" height="38" viewBox="0 0 38 38" fill="none" xmlns="http://www.w3.org/2000/svg">
<path d="M19.0001 30.875C18.6964 30.875 18.3924 30.7589 18.1605 30.5271L6.28551 18.6521C5.8215 18.1881 5.8215 17.4367 6.28551 16.9729C6.74953 16.5092 7.50092 16.5089 7.96464 16.9729L19.0001 28.0084L30.0355 16.9729C30.4995 16.5089 31.2509 16.5089 31.7146 16.9729C32.1784 17.437 32.1787 18.1884 31.7146 18.6521L19.8396 30.5271C19.6078 30.7589 19.3038 30.875 19.0001 30.875ZM19.8396 21.0271L31.7146 9.15208C32.1787 8.68806 32.1787 7.93667 31.7146 7.47295C31.2506 7.00923 30.4992 7.00894 30.0355 7.47295L19.0001 18.5084L7.96464 7.47295C7.50062 7.00894 6.74923 7.00894 6.28551 7.47295C5.82179 7.93697 5.8215 8.68836 6.28551 9.15208L18.1605 21.0271C18.3924 21.2589 18.6964 21.375 19.0001 21.375C19.3038 21.375 19.6078 21.2589 19.8396 21.0271Z" fill="black"/>
</svg>
