<svg width="42" height="49" viewBox="0 0 42 49" fill="none" xmlns="http://www.w3.org/2000/svg">
<g clip-path="url(#clip0_971_303)">
<path fill-rule="evenodd" clip-rule="evenodd" d="M19.3846 1.07821C18.0926 2.34274 15.7429 4.04046 13.743 5.15423C10.2906 7.07688 7.11894 7.91707 2.5001 8.13212C-0.393043 8.26688 -0.208781 8.12872 0.29592 9.78302C0.635998 10.8979 0.768505 11.452 1.20255 13.5722C1.43618 14.7133 1.49216 16.4019 1.49876 22.5049C1.50317 26.644 1.58594 30.3749 1.68266 30.7961C1.77956 31.2172 1.93758 31.9684 2.03393 32.4655C2.54396 35.0955 3.95143 37.6829 5.7801 39.3524C7.37533 40.8088 9.09002 41.9917 12.9612 44.3064C14.9147 45.4744 19.3781 48.2053 20.495 48.9158C20.6716 49.028 20.8504 49.028 21.0261 48.9158C21.8668 48.379 26.318 45.6318 27.0928 45.1718C34.7861 40.6024 36.6178 39.0974 38.1428 36.091C38.9105 34.5781 39.1825 33.7012 39.68 31.1364C40.0079 29.4451 40.0585 28.5064 40.053 24.2179C40.0496 21.489 39.9971 19.073 39.9365 18.849C39.7757 18.2551 40.16 13.9072 40.5047 12.4203C40.8666 10.8587 41.2806 9.40994 41.5211 8.86393C41.6374 8.59916 41.638 8.39688 41.5224 8.28969C41.4241 8.19866 40.5324 8.13638 39.5406 8.15102C37.0917 8.18743 33.4506 7.59566 31.6533 6.86913C31.3353 6.7405 31.0257 6.63535 30.9656 6.63535C30.9054 6.63535 30.2985 6.3929 29.6168 6.09633C27.5311 5.18946 24.4313 3.162 22.6368 1.53114C21.7098 0.688921 20.8466 -0.000170114 20.7185 3.15017e-08C20.5906 0.000170178 19.9903 0.485426 19.3846 1.07821Z" fill="#E5D2A5"/>
<path fill-rule="evenodd" clip-rule="evenodd" d="M14.4319 13.6804C14.0759 13.8369 13.8497 14.0502 13.7683 14.3059C13.7459 14.3759 13.7313 14.6049 13.7357 14.8148C13.7496 15.4744 13.6515 15.8779 13.4407 16.0271C13.363 16.0821 13.3191 16.1506 13.3231 16.2111C13.3284 16.2924 13.2775 16.3345 12.9973 16.4808C12.3286 16.8297 11.9982 17.2999 12.0949 17.7648C12.1368 17.9659 12.2321 18.0443 12.3636 17.9861C12.4358 17.9541 12.4497 17.9694 12.4809 18.1152C12.5003 18.2061 12.5902 18.3973 12.6805 18.5401C12.9032 18.8921 12.9059 18.9241 12.7177 18.9902C12.148 19.19 12.1077 19.2141 12.121 19.3475C12.1439 19.5755 12.2342 19.5908 12.6388 19.4361C13.0257 19.288 13.0364 19.2902 13.085 19.5237C13.1208 19.6952 13.4921 20.2979 13.7223 20.5582C13.9071 20.767 13.9205 20.7951 13.8868 20.9012C13.8186 21.1152 13.8458 21.4708 13.9487 21.7098C14.0598 21.9682 14.0502 21.9106 14.0645 22.4013C14.0714 22.6339 14.1045 22.874 14.1465 22.9957L14.217 23.1998L13.9222 23.2533C13.5832 23.3147 13.2903 23.4795 13.2808 23.6141C13.2775 23.6603 13.271 23.6987 13.2663 23.6996C13.0375 23.7404 12.378 24.0682 12.0311 24.3137C11.8567 24.4371 11.8552 24.4374 11.6809 24.3903C11.3391 24.298 10.9356 24.3139 10.1435 24.4511C9.28302 24.6001 9.0612 24.6791 8.48761 25.0403C7.89724 25.4122 7.48772 25.7582 7.32187 26.0254C7.08379 26.4089 6.35703 27.2884 6.07548 27.5337C5.93345 27.6575 5.74549 27.8478 5.65781 27.9565L5.49837 28.1543L5.65083 28.0301C6.02432 27.7259 6.1341 27.6458 6.15743 27.6605C6.20895 27.6928 6.12585 28.0231 5.9854 28.3446C5.87428 28.5989 5.77137 28.7467 5.54955 28.9709C5.38976 29.1322 5.24727 29.2995 5.23281 29.3427C5.20809 29.4163 5.21599 29.4146 5.35982 29.3154C5.44413 29.2572 5.52584 29.2073 5.54136 29.2045C5.55687 29.2018 5.42756 29.3967 5.25399 29.6377C4.8443 30.2064 4.80635 30.2948 4.86526 30.5429C4.8911 30.6519 4.91055 30.6948 4.90844 30.6385C4.89964 30.3997 4.91571 30.3378 5.03293 30.1584C5.13953 29.9954 5.31862 29.8223 5.39474 29.8087C5.46188 29.7967 5.42221 29.9079 5.31207 30.0405C5.23272 30.136 5.18805 30.2433 5.18856 30.3371C5.18914 30.4476 5.11926 30.5805 4.90713 30.8722C4.64705 31.2297 4.63721 31.2514 4.78206 31.1483C4.86856 31.0867 4.99195 30.9827 5.05634 30.917C5.22585 30.7442 5.25703 30.7604 5.12217 30.9513C5.05792 31.0422 5.02464 31.1132 5.04818 31.109C5.07174 31.1048 5.11093 31.0746 5.13527 31.0419C5.17092 30.9939 5.17828 31.0046 5.1731 31.097C5.16449 31.2514 5.20629 31.2345 5.26403 31.0602C5.29913 30.9543 5.3189 30.9343 5.34095 30.9824C5.35728 31.0181 5.35625 31.0901 5.33863 31.1426C5.31675 31.208 5.3198 31.2268 5.3483 31.2026C5.3931 31.1644 5.41973 31.2176 5.3818 31.2695C5.36916 31.2867 5.36817 31.3541 5.37954 31.4193C5.3926 31.494 5.41234 31.521 5.43316 31.4924C5.52586 31.3656 5.53021 31.4656 5.44343 31.7275L5.34621 32.0209L5.49364 31.8321C5.57472 31.7282 5.65796 31.6142 5.67856 31.5787C5.6992 31.5431 5.73713 31.5215 5.76286 31.5305C5.7886 31.5396 5.86585 31.4998 5.93452 31.4421C6.00324 31.3844 6.06891 31.3431 6.0805 31.3504C6.09209 31.3577 5.99013 31.5069 5.85394 31.682C5.63598 31.9621 5.61907 31.9981 5.7129 31.9814C5.77157 31.9709 5.9564 31.8935 6.12369 31.8093C6.29098 31.7252 6.43066 31.6699 6.43412 31.6865C6.43757 31.7031 6.37483 31.7787 6.29465 31.8546C6.21448 31.9305 6.12102 32.0357 6.08703 32.0885C6.02613 32.1829 6.02673 32.1837 6.12637 32.1353C6.22691 32.0866 6.22691 32.0873 6.12572 32.2393C6.03003 32.3831 6.03827 32.3787 6.26107 32.1685C6.39154 32.0454 6.57556 31.8694 6.67001 31.7775C6.76444 31.6855 6.8756 31.584 6.91706 31.5518C6.99111 31.4944 6.99144 31.4955 6.93728 31.6229C6.90699 31.6941 6.95936 31.6365 7.05365 31.4948C7.21828 31.2474 7.27108 31.1381 7.54992 30.4677C7.70631 30.0917 7.96584 29.5906 7.9948 29.6088C8.00675 29.6163 8.015 29.7314 8.01311 29.8644C8.01126 29.9976 8.01818 30.17 8.02849 30.2477C8.03881 30.3253 8.04105 30.4271 8.03349 30.4738L8.01972 30.5588L8.07424 30.4665C8.26668 30.1409 8.37742 29.6341 8.34866 29.2105C8.34069 29.093 8.38284 28.7976 8.44232 28.5539C8.55763 28.0817 8.62481 27.9265 8.62166 28.1396C8.62007 28.2464 8.6266 28.2394 8.66809 28.09C8.69465 27.9945 8.74285 27.8093 8.77523 27.6785C8.83049 27.4552 9.09905 26.8182 9.24549 26.5629L9.3115 26.4479L9.27516 26.6195C9.25517 26.7139 9.22084 26.848 9.19883 26.9174L9.15893 27.0437L9.2643 26.9402C9.40518 26.8017 9.58323 26.5362 9.76255 26.1975C9.91594 25.9076 9.99291 25.8517 10.3178 25.7938L10.4636 25.7678L10.3044 26.0542C9.85951 26.8552 9.81477 27.2746 10.0001 28.9055C10.0933 29.7255 10.0565 30.3022 9.86718 30.9872C9.75196 31.4041 9.6265 31.5877 9.17309 32.0036C8.72217 32.4172 8.60784 32.6149 8.4997 33.1679C8.40146 33.6701 8.30631 33.9285 8.06963 34.3357C7.72684 34.9254 7.40202 35.2164 6.85232 35.4265C6.54128 35.5454 6.48746 35.6263 6.45894 36.0182C6.43809 36.3042 6.54179 36.9303 6.64039 37.1137C6.71973 37.2612 6.9519 37.2966 7.40559 37.2306C7.97268 37.1479 8.19625 37.0543 8.33949 36.8393C8.54583 36.5296 8.70946 36.3035 8.86302 36.1159C8.96646 35.9894 9.0566 35.7852 9.15966 35.4438C9.39943 34.649 9.58304 34.2929 10.1133 33.5939C10.6703 32.8599 11.6844 31.6974 12.2678 31.1242C13.1037 30.3031 13.5222 29.8725 13.6805 29.6708L13.8434 29.4633L14.0247 29.489C14.1245 29.5032 14.2777 29.5029 14.3651 29.4882C14.5659 29.4548 14.6072 29.4973 14.5779 29.707C14.5602 29.8339 14.4487 30.01 14.1191 30.4313C13.4507 31.2858 13.2538 31.6855 13.3273 32.0388C13.4012 32.3934 13.8453 32.6139 14.7139 32.727C15.1035 32.7777 15.1943 32.8042 15.9292 33.082C16.9906 33.4831 17.2161 33.672 17.1933 34.1414L17.1823 34.3659L17.3593 34.4632C17.4566 34.5167 17.6597 34.622 17.8108 34.6973C17.9619 34.7725 18.1625 34.8973 18.2568 34.9746C18.351 35.0518 18.4671 35.1175 18.5149 35.1204C18.6418 35.1281 18.8471 34.965 18.9047 34.8106C18.9728 34.628 18.9139 33.9515 18.7956 33.5579C18.7427 33.3821 18.6657 33.1033 18.6244 32.9383C18.5683 32.714 18.5185 32.6071 18.428 32.5158C18.2909 32.378 18.1901 32.348 17.7057 32.3011C17.3181 32.2637 16.7568 32.1506 16.4728 32.0527C16.1887 31.9549 15.8599 31.7849 15.8484 31.7302C15.8317 31.6496 16.3922 30.9348 16.7739 30.5498C16.9998 30.3221 17.2204 30.0435 17.3656 29.803C17.6285 29.3672 17.7393 29.2791 18.0386 29.2677L18.2448 29.2598L18.1734 29.0515C18.1341 28.9369 18.0246 28.7179 17.9301 28.5649C17.5832 28.0038 17.4407 27.6092 17.2446 26.6679C17.1349 26.1415 17.0747 25.933 16.9948 25.8041C16.9238 25.6898 16.8837 25.5654 16.872 25.4236L16.8545 25.2129L16.4652 25.0006C16.0547 24.7769 15.182 24.2452 15.4821 24.4018C16.0255 24.6851 16.0247 24.6863 15.5403 24.3126C15.4007 24.2049 15.2072 24.0219 15.1104 23.9058C15.0136 23.7898 14.8627 23.6433 14.7751 23.5803C14.6874 23.5172 14.6321 23.4518 14.6522 23.4346C14.7364 23.3628 15.6723 23.1057 16.1769 23.0158L16.7219 22.9187L16.8178 23.0977C16.977 23.3951 17.1677 23.6254 17.5405 23.9705C17.886 24.2904 18.1563 24.6145 18.1825 24.7406C18.1953 24.8021 18.1741 24.8123 17.9157 24.8684C17.795 24.8945 17.7277 24.8523 17.101 24.358C16.7253 24.0617 16.3728 23.79 16.3177 23.7545C16.2624 23.7189 16.5104 23.9905 16.8687 24.3581L17.52 25.0264L17.3383 25.1493L17.1565 25.272L17.5878 25.2025C17.8834 25.1549 17.9805 25.1499 17.8965 25.1865C17.7798 25.2372 17.7825 25.2385 17.9521 25.213C18.0502 25.1982 18.1955 25.1865 18.2751 25.1871L18.4198 25.1881L18.4708 25.5272C18.5059 25.7614 18.5049 25.8808 18.4679 25.9132C18.4383 25.9389 18.1824 26.0031 17.899 26.0557C17.4315 26.1427 17.3971 26.1542 17.5256 26.1813C17.6034 26.1977 17.8267 26.2132 18.0218 26.2156C18.2169 26.2181 18.3868 26.2265 18.3993 26.2345C18.4119 26.2423 18.3371 26.2656 18.2331 26.2862C18.0571 26.321 18.0533 26.3243 18.1796 26.3327C18.2542 26.3378 18.3676 26.3434 18.4315 26.3452C18.5435 26.3484 18.5481 26.3561 18.5535 26.5445C18.5566 26.6523 18.6009 27.0024 18.6518 27.3225C18.7028 27.6427 18.7402 27.9333 18.7351 27.9683C18.7286 28.0126 18.5927 27.9432 18.2859 27.7387L17.8459 27.4455L18.1686 27.8215C18.346 28.0283 18.5867 28.3087 18.7034 28.4446C18.8269 28.5882 18.9276 28.7487 18.9441 28.8279C18.9597 28.9029 19.0498 29.0908 19.1441 29.2456C19.3007 29.5023 19.3111 29.5341 19.2627 29.608C19.2335 29.6525 19.2171 29.7833 19.2262 29.8987C19.2436 30.1214 19.2393 30.1262 18.9431 30.2153C18.8739 30.2362 18.9343 30.2372 19.0773 30.2176L19.3374 30.1819L19.1517 30.2537C19.0496 30.2933 18.864 30.3368 18.7393 30.3505C18.4835 30.3785 18.4836 30.4235 18.7395 30.4476C18.838 30.4568 18.9353 30.4969 18.969 30.542C19.0247 30.6168 19.054 30.6155 19.6072 30.5147C20.1972 30.4072 20.3726 30.3371 20.3478 30.2185C20.3397 30.1794 20.3818 30.1517 20.4752 30.1344C20.6595 30.1003 20.925 29.923 20.9885 29.7914C21.0614 29.6406 20.9947 29.3635 20.8678 29.2899C20.7684 29.2321 20.7767 29.2279 21.3215 29.06C21.9439 28.8682 23.0186 28.6241 23.1993 28.6334C23.3532 28.6413 23.3737 28.738 23.3552 29.3695C23.3345 30.0763 23.2755 30.5945 23.2028 30.7077C23.1676 30.7625 23.1116 31.0107 23.0784 31.2593C22.9644 32.1122 22.8581 32.3675 22.4785 32.6988C21.8972 33.2063 20.9344 33.947 20.5657 34.1704C19.9996 34.5134 19.9035 34.61 19.8639 34.8765C19.8162 35.1976 19.9163 35.6611 20.0683 35.8227C20.2211 35.9851 20.6003 36.1268 20.893 36.1308C21.3241 36.1366 21.4962 36.0088 21.8146 35.4456C21.8792 35.3315 22.0084 35.2089 22.195 35.0846C22.4077 34.943 22.5491 34.8009 22.7664 34.5101C22.9251 34.2975 23.2986 33.848 23.5962 33.5111C23.8938 33.1742 24.1982 32.8206 24.2727 32.7251C24.4797 32.4597 24.6432 32.0738 24.724 31.6598C24.9211 30.6511 25.1353 29.9711 25.4003 29.5128C25.5508 29.2526 25.6963 28.8012 25.6979 28.5893C25.6991 28.4343 25.7183 28.4301 26.2464 28.4686C26.4704 28.4849 26.9311 28.5136 27.2702 28.5323C28.345 28.5917 29.0078 28.7315 29.4806 28.999C29.693 29.119 29.7307 29.1637 29.9545 29.5609C30.8263 31.1077 30.853 31.1667 30.7636 31.3518C30.6926 31.4988 30.7625 31.8369 30.8982 32.0025C31.116 32.2684 31.6668 32.5315 31.9805 32.5194C32.2736 32.5081 32.5829 32.3429 32.6403 32.1668C32.7109 31.9503 32.5691 31.2143 32.4003 30.921C32.3291 30.7974 32.2291 30.5587 32.1779 30.3905C32.0689 30.0324 31.9192 29.7723 31.7479 29.6436C31.5724 29.5118 30.8426 28.6867 30.4314 28.1552C30.2265 27.8903 30.0034 27.65 29.8959 27.578C29.6798 27.4335 29.1253 27.2209 28.3927 27.0016C27.3925 26.7022 27.1558 26.628 27.1118 26.6008C27.0873 26.5854 27.1039 26.3888 27.1495 26.1555C27.2838 25.4694 27.2793 25.3782 27.0471 24.072C26.8859 23.1658 26.8303 22.7456 26.8198 22.3579C26.8087 21.9509 26.6792 20.1609 26.651 20.0253C26.6276 19.9127 27.1536 20.0226 27.5108 20.2048C27.6534 20.2776 27.9551 20.3691 28.2245 20.4213C28.6302 20.4999 28.7381 20.5409 29.0498 20.7353C29.4723 20.9988 29.7225 21.0657 30.0516 21.0033C30.6984 20.8806 30.8963 20.3322 30.6479 19.3514C30.5187 18.8411 30.4655 18.7748 29.7784 18.2664C29.4817 18.0468 29.1148 17.7343 28.9628 17.5719C28.486 17.0621 28.0651 16.6768 27.7048 16.4203C27.5135 16.2841 27.2802 16.0733 27.1864 15.952C27.0926 15.8306 26.9444 15.68 26.8571 15.6172L26.6984 15.5031L26.7139 15.2758C26.7299 15.0424 26.663 14.6343 26.5838 14.4835C26.5226 14.3666 26.4539 14.3902 26.3371 14.5687L26.2378 14.7204L26.3411 14.5989L26.4445 14.4774L26.4103 14.5867C26.3914 14.6468 26.3196 14.8176 26.2506 14.9661C26.1814 15.1147 26.1212 15.2446 26.1164 15.2549C26.1116 15.2652 26.0968 15.2668 26.0835 15.2585C26.0701 15.25 26.0902 15.1459 26.1281 15.0268L26.1971 14.8105L26.1147 14.949C26.0695 15.0252 26.0217 15.0801 26.0085 15.0712C25.9954 15.0621 25.9451 14.9254 25.8968 14.7673C25.8 14.4502 25.7752 14.4109 25.6828 14.4273C25.6021 14.4417 25.4071 14.8891 25.3225 15.2539C25.2477 15.5772 25.2706 15.5619 24.6581 15.6972C24.3973 15.7547 24.1747 15.8275 24.0842 15.8847C23.9518 15.9685 23.8934 16.034 23.9758 16.0065C24.143 15.9506 24.0865 16.0152 23.8643 16.134C23.7133 16.2147 23.5816 16.2919 23.5716 16.3055C23.5616 16.3192 23.6942 16.2962 23.8661 16.2544L24.1788 16.1786L24.021 16.277C23.9342 16.3311 23.696 16.5256 23.4915 16.7091C23.2871 16.8926 23.0454 17.075 22.9545 17.1146C22.8238 17.1713 22.8077 17.1889 22.8773 17.1985C22.9469 17.2081 22.9193 17.2374 22.7476 17.3372L22.5295 17.4636L22.7717 17.3955C22.9049 17.358 23.0161 17.3385 23.019 17.3522C23.0219 17.3659 22.9243 17.451 22.8021 17.5414C22.6799 17.6318 22.5544 17.7274 22.5231 17.7538C22.4918 17.7803 22.3469 17.8793 22.2011 17.9738C21.9462 18.1392 21.8365 18.2497 22.0467 18.1294C22.1028 18.0973 22.2089 18.0528 22.2824 18.0304C22.4845 17.9689 22.6569 17.8909 22.7058 17.8387C22.7299 17.8129 22.7858 17.7925 22.83 17.7934C22.8928 17.7945 22.8822 17.816 22.7812 17.8913C22.7101 17.9443 22.5766 18.0259 22.4846 18.0726C21.997 18.3199 21.747 18.4818 21.3986 18.7763C21.2348 18.9148 21.2532 18.9123 21.5606 18.754C21.8168 18.6221 22.4583 18.3455 22.5326 18.3349C22.6437 18.319 22.2413 18.5667 22.0109 18.656C21.6569 18.7932 21.5595 18.8737 21.7904 18.8383L21.9633 18.8118L21.7466 18.9297C21.6275 18.9945 21.5227 19.0576 21.5138 19.0697C21.5049 19.082 21.6622 19.0513 21.8634 19.0016C22.0645 18.9519 22.2311 18.9205 22.2334 18.9319C22.2357 18.9431 22.104 19.0291 21.9406 19.1229C21.7773 19.2167 21.6662 19.3013 21.6937 19.311C21.7211 19.3207 21.6475 19.4043 21.5299 19.4968C21.4123 19.5893 21.3181 19.6744 21.3206 19.6859C21.323 19.6974 21.3587 19.6814 21.4002 19.6503C21.4417 19.6191 21.5951 19.5616 21.7413 19.5223L22.0071 19.451L21.7697 19.6162C21.6391 19.707 21.4316 19.8129 21.3084 19.8516C21.1853 19.8903 21.0206 19.9576 20.9427 20.0012L20.8009 20.0805L21.0246 20.0436C21.1477 20.0232 21.2664 20.0248 21.2885 20.0471C21.3108 20.0695 21.3078 20.0802 21.282 20.0711C21.2346 20.0544 20.8256 20.3065 20.8341 20.3472C20.8367 20.3594 20.9412 20.3392 21.0665 20.3024C21.3164 20.229 21.5404 20.2233 21.5125 20.291C21.5027 20.3148 21.4295 20.3458 21.3497 20.3601C21.1854 20.3894 20.6929 20.5748 20.5434 20.6637C20.4673 20.7089 20.5486 20.7046 20.8925 20.6453C21.139 20.6028 21.3337 20.5777 21.3251 20.5895C21.3166 20.6012 21.1187 20.6545 20.8854 20.7079C20.6522 20.7613 20.3971 20.8337 20.3186 20.8686C20.1835 20.929 20.1897 20.9304 20.4354 20.8942L20.6949 20.8561L20.4098 20.9634C20.1391 21.0654 20.1176 21.0678 19.9827 21.0107L19.8406 20.9506L19.9831 20.7716C20.2143 20.4809 20.2396 20.1646 20.0567 19.8503C19.7423 19.3098 19.537 19.2809 18.9325 19.6922L18.6392 19.8917L18.1584 19.851C17.894 19.8285 17.5946 19.7801 17.4931 19.7433C17.3917 19.7066 17.2916 19.6795 17.2708 19.6833C17.2324 19.6901 17.1263 19.0906 17.0941 18.6842C17.0787 18.4901 17.0925 18.4471 17.2035 18.3448C17.2953 18.26 17.3923 18.2166 17.5539 18.1878C17.7207 18.1581 17.8401 18.1028 18.0256 17.9696C18.3141 17.7623 18.4268 17.5612 18.38 17.3367C18.3493 17.1889 18.3512 17.1864 18.565 17.1012C18.6839 17.0538 18.9385 16.9518 19.1307 16.8744C19.3229 16.797 19.8232 16.5981 20.2423 16.4325C20.6613 16.2669 21.4304 15.9626 21.9514 15.7565C22.4724 15.5503 23.3806 15.1919 23.9698 14.96C26.1921 14.0852 27.6475 13.4995 28.9465 12.9574C30.6506 12.2462 32.6423 11.443 32.8002 11.4033C32.91 11.3757 33.2585 11.2502 33.5747 11.1244C34.2264 10.8652 34.2803 10.8503 34.2961 10.9262C34.304 10.9638 34.5677 10.8286 35.143 10.4922C35.6024 10.2235 35.9896 9.9875 36.0033 9.96773C36.017 9.94797 35.8756 9.96985 35.6891 10.0162C35.5027 10.0626 35.0539 10.154 34.6921 10.2194C34.0577 10.3341 34.0356 10.341 34.0772 10.4119C34.1099 10.4677 34.0976 10.4947 34.0256 10.5243C33.873 10.5872 32.5471 11.1141 31.1929 11.6499C30.502 11.9232 29.2237 12.4315 28.3523 12.7793C27.4808 13.1272 26.0918 13.6817 25.2656 14.0114C24.4394 14.3412 23.2271 14.8262 22.5715 15.0891C21.916 15.3519 21.3048 15.5896 21.2133 15.6172C21.1218 15.6448 20.8886 15.7318 20.6951 15.8105C20.316 15.9645 19.5295 16.2758 18.5099 16.6754C18.1585 16.8131 17.8227 16.947 17.7637 16.9729C17.6661 17.0157 17.6564 17.0106 17.6564 16.9163C17.6562 16.8246 17.6353 16.8113 17.4752 16.8004C17.1925 16.7813 16.9277 16.905 16.6944 17.1648L16.4991 17.3824L16.2776 17.0412C16.1558 16.8536 16.0412 16.6743 16.0229 16.6428C15.9989 16.6015 16.0468 16.5541 16.1943 16.4731C16.3933 16.3638 16.931 15.9122 16.9672 15.824C16.9771 15.7999 16.9178 15.6478 16.8353 15.4859C16.7529 15.3241 16.6606 15.072 16.6301 14.9258C16.5688 14.6312 16.3455 14.1605 16.1665 13.9486C16.0175 13.7724 15.7189 13.586 15.5 13.533C15.2819 13.48 14.7074 13.5594 14.4319 13.6804ZM14.784 13.7655L14.5631 13.8819L14.8271 13.8391C15.3018 13.7621 15.3549 13.7741 15.5433 14C15.7468 14.2443 15.9979 14.6722 16.031 14.8314C16.0584 14.9633 16.0009 15.0085 15.6677 15.1162C15.4902 15.1736 15.4718 15.1887 15.5418 15.2194C15.6176 15.2525 15.6221 15.2725 15.6008 15.48L15.5778 15.7047L15.4801 15.623C15.3496 15.5139 15.2625 15.3032 15.3129 15.2183C15.3347 15.1815 15.339 15.1429 15.3223 15.1325C15.2723 15.1011 15.17 15.4054 15.1948 15.5118C15.2152 15.5998 15.2219 15.6022 15.2536 15.5339C15.284 15.4684 15.3165 15.4997 15.4698 15.7422C15.569 15.8993 15.6473 16.0316 15.6437 16.0363C15.6402 16.0411 15.4525 16.0243 15.2266 15.999C14.2652 15.8913 14.0362 15.9022 14.414 16.0378C14.5308 16.0797 14.5851 16.1082 14.5346 16.1009C14.0948 16.0382 13.7963 15.9927 13.7819 15.9863C13.7724 15.982 13.783 15.8602 13.8054 15.7155C13.8279 15.5708 13.8396 15.2285 13.8314 14.9547C13.8106 14.259 13.805 14.2731 14.1198 14.2171C14.4014 14.167 14.9536 14.192 15.1416 14.2636C15.2062 14.2882 15.2792 14.2977 15.3042 14.2848C15.3762 14.2473 14.4681 14.0364 14.2607 14.0425L14.0727 14.048L14.1842 13.9653C14.3538 13.8395 14.5868 13.7367 14.8067 13.6906L15.0049 13.6491L14.784 13.7655ZM34.9253 10.3082C34.5499 10.4316 34.3736 10.4733 34.2963 10.4569C34.0704 10.4092 34.2334 10.3441 34.836 10.2411L35.4468 10.1368L34.9253 10.3082ZM32.3976 11.3348C32.3308 11.3672 32.1094 11.4597 31.9055 11.5405C31.7017 11.6211 31.2486 11.805 30.8985 11.949C29.9386 12.3439 28.8691 12.7723 28.0143 13.1041C27.3605 13.3579 26.8881 13.5476 25.9821 13.9203C25.8081 13.992 24.6676 14.438 24.0448 14.678C23.8406 14.7567 23.4507 14.9075 23.1784 15.013C22.9063 15.1186 22.4515 15.295 22.168 15.4049C21.8844 15.5148 21.4417 15.6887 21.1844 15.7911C20.927 15.8936 20.3423 16.1198 19.8849 16.2937C19.4276 16.4676 19.0069 16.6277 18.9501 16.6494C18.8933 16.6711 18.8545 16.6774 18.8639 16.6634C18.8733 16.6494 19.353 16.4486 19.9299 16.2171C20.507 15.9856 21.2373 15.6881 21.5531 15.5561C22.2225 15.2762 23.5501 14.7441 24.4331 14.4019C24.7733 14.27 25.4495 14.0005 25.9355 13.8031C26.4215 13.6057 27.1345 13.3214 27.5201 13.1713C27.9056 13.0213 28.3415 12.851 28.4888 12.7929C28.6361 12.7349 29.0258 12.5835 29.3548 12.4564C29.6839 12.3295 30.2777 12.0988 30.6745 11.9439C31.993 11.4291 32.7683 11.1551 32.3976 11.3348ZM14.1896 14.8613C14.2761 14.9128 15.2073 14.8526 15.1249 14.8009C15.0901 14.7791 14.3835 14.7895 14.2466 14.8138C14.1822 14.8252 14.1601 14.8437 14.1896 14.8613ZM15.9625 15.2755C15.9589 15.3351 15.9368 15.4736 15.9134 15.5836L15.8708 15.7835L15.8478 15.5606L15.8248 15.3376L15.7869 15.5715L15.749 15.8052L15.7196 15.5422C15.7034 15.3974 15.6956 15.2641 15.7024 15.2459C15.709 15.2276 15.7717 15.2025 15.8417 15.1901C15.9572 15.1695 15.9683 15.1774 15.9625 15.2755ZM16.0668 15.5267L16.028 15.6729L16.0125 15.4743C15.9912 15.2026 16.0165 15.1016 16.0666 15.2584C16.088 15.3255 16.0881 15.4463 16.0668 15.5267ZM14.0972 16.1412C14.4669 16.1994 14.8976 16.3048 14.9604 16.3525C14.9884 16.3739 15.0341 16.4367 15.062 16.492C15.1113 16.5901 15.1086 16.5926 14.9583 16.5882C14.8734 16.5857 14.6573 16.543 14.4779 16.4934C14.2985 16.4438 14.01 16.3729 13.8368 16.3358C13.5925 16.2835 13.518 16.2496 13.5045 16.1848C13.489 16.1101 13.5047 16.1011 13.6539 16.0996C13.7457 16.0986 13.9451 16.1173 14.0972 16.1412ZM13.8517 16.5665C14.1284 16.6814 14.4478 16.9369 14.5516 17.1264C14.5861 17.1892 14.6105 17.2454 14.6061 17.2514C14.6017 17.2574 14.5197 17.2428 14.4241 17.219C14.2745 17.1817 13.7878 17.1662 13.6328 17.1938C13.5268 17.2127 13.6046 17.2762 13.7378 17.2795C13.8777 17.2828 14.2153 17.3771 14.1936 17.4068C14.1873 17.4154 14.0307 17.4135 13.8454 17.4025C13.3704 17.3743 12.9825 17.4505 12.6398 17.6391C12.4874 17.723 12.342 17.7954 12.3167 17.7999C12.2874 17.8051 12.2649 17.7398 12.2548 17.6204C12.2358 17.3961 12.3616 17.1191 12.5525 16.9648L12.686 16.857L12.5565 17.0193C12.4389 17.1667 12.361 17.3297 12.3753 17.3988C12.3784 17.4134 12.4448 17.3266 12.5228 17.206C12.658 16.9969 12.9107 16.7917 13.3 16.575C13.528 16.448 13.5648 16.4474 13.8517 16.5665ZM14.8577 16.7558C14.9551 16.7753 15.0935 16.7923 15.1653 16.7937C15.2798 16.7959 15.315 16.8277 15.4535 17.0539C15.5402 17.1956 15.6216 17.3664 15.6345 17.4335L15.6579 17.5555L15.574 17.4466C15.4911 17.3389 15.4906 17.3403 15.5344 17.5681C15.5732 17.7692 15.5673 17.8051 15.4891 17.8491C15.3268 17.9404 14.8428 18.1084 14.807 18.086C14.7878 18.0739 14.7994 17.9632 14.8331 17.8401C14.9259 17.5002 14.8424 17.1617 14.5919 16.8608C14.486 16.7337 14.398 16.6227 14.3962 16.6142C14.3944 16.6056 14.4577 16.626 14.5368 16.6594C14.6158 16.693 14.7603 16.7362 14.8577 16.7558ZM25.62 14.841C25.5435 15.2123 25.3751 15.6085 25.3485 15.4803C25.3244 15.3645 25.5751 14.653 25.6443 14.6406C25.6541 14.6389 25.6431 14.7291 25.62 14.841ZM13.5282 17.5839C13.4311 17.6274 13.4336 17.6297 13.5834 17.6345C13.6697 17.6372 13.8475 17.6622 13.9784 17.69C14.2137 17.7399 14.2175 17.743 14.2904 17.949C14.331 18.0637 14.3972 18.2136 14.4377 18.2821C14.5029 18.3925 14.5018 18.4209 14.4283 18.5315C14.3826 18.6002 14.3159 18.719 14.28 18.7955C14.2079 18.9493 14.1121 19.4154 14.1481 19.438C14.1606 19.4459 14.2292 19.3315 14.3006 19.184C14.435 18.9063 14.6679 18.6195 14.7743 18.6005C14.8685 18.5837 15.0451 18.8346 15.123 19.0958C15.1829 19.2966 15.1826 19.3535 15.1207 19.4856C15.0177 19.7059 14.7279 19.9749 14.5264 20.0375L14.3564 20.0902L14.4927 20.1425C14.6378 20.1982 14.5806 20.2341 14.4202 20.1879C14.3088 20.1558 14.1563 19.959 14.1245 19.8063C14.111 19.7414 14.0325 19.6516 13.9215 19.5741C13.6893 19.412 13.4207 19.0893 13.2461 18.7626C13.0914 18.4731 12.9316 17.861 12.9762 17.7282C13.008 17.6334 13.1656 17.5756 13.4548 17.5523C13.607 17.5401 13.6168 17.5443 13.5282 17.5839ZM12.9031 18.0773C12.9424 18.2803 13.0075 18.5288 13.0477 18.6295C13.0966 18.7519 13.1057 18.8153 13.0752 18.8207C13.0501 18.8252 13.0211 18.7882 13.0108 18.7386C13.0005 18.6891 12.9365 18.5851 12.8684 18.5077C12.8005 18.4301 12.7101 18.2713 12.6677 18.1547C12.5966 17.9595 12.5975 17.9338 12.6788 17.8311C12.7275 17.7698 12.7816 17.7171 12.7993 17.7139C12.817 17.7107 12.8637 17.8743 12.9031 18.0773ZM17.2889 17.0597C16.9792 17.2872 16.9592 17.4384 17.2207 17.5761L17.3521 17.6454L17.245 17.666C17.1468 17.6849 17.1451 17.6899 17.2241 17.726C17.3473 17.7825 17.3399 17.7963 17.1365 17.8904C16.9364 17.983 16.8794 17.9742 16.5949 17.8083C16.4447 17.7206 16.433 17.7586 16.5577 17.9298L16.6363 18.0377L16.3042 18.2743C16.0202 18.4768 15.9637 18.5037 15.9128 18.4604C15.8643 18.4191 15.8494 18.4396 15.8308 18.572C15.8171 18.6706 15.7651 18.7694 15.6982 18.8242C15.5754 18.9247 15.5744 18.9237 15.5297 18.6517C15.5188 18.5855 15.485 18.5079 15.4545 18.4793C15.4138 18.4412 15.4101 18.4815 15.4406 18.6304C15.4914 18.8787 15.4634 19.0852 15.3693 19.1559C15.265 19.2342 15.2663 19.2356 15.1834 18.9714C15.1412 18.8371 15.0727 18.6272 15.0312 18.5051C14.9585 18.2911 14.9595 18.2817 15.0591 18.2387C15.116 18.2141 15.2024 18.2056 15.2511 18.2196C15.3098 18.2365 15.3627 18.2272 15.4077 18.192C15.4553 18.1549 15.5363 18.1467 15.6772 18.1648C15.8715 18.1899 15.8859 18.1857 16.0751 18.048C16.1831 17.9694 16.4088 17.7369 16.5766 17.5312C16.9272 17.1018 17.0576 16.9979 17.2979 16.9564L17.4701 16.9267L17.2889 17.0597ZM13.6241 18.0211C13.6797 18.3087 13.9764 18.8666 14.0654 18.8507C14.152 18.8353 13.9121 18.2593 13.7103 17.998L13.5894 17.8414L13.6241 18.0211ZM24.0352 16.618C23.7593 16.8903 23.4979 17.4581 22.9987 18.869C22.8004 19.4296 22.6159 19.8607 22.4679 20.1092C22.3433 20.3188 22.2317 20.4919 22.2201 20.4939C22.2084 20.4961 22.3218 20.2297 22.472 19.9021C22.7489 19.2982 22.8344 19.0838 22.9944 18.5911C23.1366 18.1529 23.4907 17.2901 23.6173 17.0729C23.7422 16.8587 24.0654 16.4908 24.1402 16.4775C24.1654 16.473 24.1181 16.5363 24.0352 16.618ZM27.4369 16.5583C27.8698 16.8419 28.201 17.1181 28.4256 17.3828C28.5248 17.4996 28.7254 17.7147 28.8714 17.8607C29.2387 18.228 29.2546 18.249 29.0657 18.1182C28.9161 18.0145 28.0846 17.2583 28.022 17.1689C27.9859 17.1174 27.7566 16.923 27.4987 16.7253C27.2272 16.5172 26.9884 16.2946 26.979 16.2407C26.9751 16.2183 27.0014 16.2315 27.0375 16.2698C27.0736 16.3082 27.2533 16.438 27.4369 16.5583ZM16.9873 18.3553C16.8928 18.4309 16.6757 18.5924 16.5048 18.7141C16.2209 18.9164 15.8514 19.2025 15.5355 19.4645C15.4675 19.521 15.41 19.5578 15.4077 19.5464C15.3984 19.502 16.1115 18.8812 16.4437 18.6445C16.9599 18.2767 17.3359 18.0766 16.9873 18.3553ZM12.877 19.0593C12.7713 19.1221 12.3742 19.2493 12.4012 19.2118C12.4252 19.1783 12.7421 19.0552 12.8707 19.0294L12.9564 19.0123L12.877 19.0593ZM13.4742 19.3375C13.5384 19.4224 13.6698 19.557 13.7661 19.6368C13.8624 19.7165 13.9496 19.822 13.96 19.8711C13.9987 20.0546 14.1432 20.2603 14.2962 20.3493C14.429 20.4266 14.4794 20.4335 14.6125 20.3921C14.7007 20.3648 14.8531 20.2625 14.9562 20.1615C15.0582 20.0617 15.1657 19.9759 15.1952 19.9709C15.2248 19.9658 15.3589 19.9872 15.4932 20.0185C15.6818 20.0622 15.7489 20.0996 15.7875 20.1824C15.815 20.2413 15.846 20.3065 15.8563 20.3273C15.8666 20.348 16.0791 20.3894 16.3284 20.4192C16.6165 20.4537 16.7177 20.4777 16.606 20.485C16.3639 20.5008 14.9352 20.6436 14.5099 20.6944C14.0899 20.7447 14.1701 20.7848 14.6494 20.7644C14.8391 20.7563 15.0626 20.7699 15.1461 20.7947L15.298 20.8398L14.9153 20.9286C14.544 21.0149 14.5395 21.0171 14.766 21.0051C15.4714 20.9677 15.7926 20.9873 15.9915 21.0798C16.1388 21.1483 16.198 21.2017 16.2145 21.2811C16.2458 21.4317 16.3392 21.4772 16.6343 21.4854C16.7745 21.4893 16.8831 21.5011 16.8754 21.5115C16.8678 21.5221 16.6462 21.5493 16.3831 21.572C16.12 21.5947 15.4966 21.6735 14.9978 21.7469L14.0908 21.8806L14.0167 21.7112C13.9143 21.4773 13.9489 20.7705 14.0637 20.7501C14.0852 20.7463 14.0506 20.697 13.9868 20.6408C13.7718 20.4509 13.5044 20.0597 13.3385 19.6925C13.161 19.2994 13.151 19.22 13.2765 19.1977C13.33 19.1882 13.3967 19.2354 13.4742 19.3375ZM17.0282 19.4356C17.1435 20.051 17.2013 20.2274 17.2147 20.0048C17.2182 19.9463 17.2373 19.8956 17.2572 19.8921C17.277 19.8885 17.4183 19.9189 17.5712 19.9594C17.7241 20 17.8783 20.0287 17.9139 20.0232C17.9495 20.0177 18.1459 20.0268 18.3502 20.0436L18.7217 20.0739L18.8813 19.9476C19.0229 19.8357 19.0605 19.8232 19.2135 19.8376C19.3308 19.8486 19.4224 19.8344 19.5 19.7931C19.759 19.6554 19.8174 19.7867 19.5959 20.0084C19.435 20.1696 19.2241 20.2422 19.115 20.1738C19.0701 20.1456 19.0429 20.1509 19.003 20.1959C18.96 20.2444 18.9404 20.2396 18.8958 20.17C18.852 20.1013 18.846 20.1282 18.865 20.3074L18.8887 20.5303L18.5334 20.5811C18.338 20.6091 18.0901 20.6226 17.9825 20.6111L17.7868 20.5903L18.0433 20.5375L18.2998 20.4848L18.0275 20.4504C17.8778 20.4314 17.7109 20.3975 17.6564 20.3749C17.5158 20.3167 17.4271 20.3395 17.4854 20.4191C17.5112 20.4542 17.5718 20.6145 17.62 20.7753C17.7242 21.1221 17.7192 21.1204 18.3307 21.0177C18.8595 20.929 19.0012 20.9807 19.2861 21.3661C19.3969 21.5159 19.542 21.6955 19.6084 21.7653C19.6749 21.835 19.7301 21.8957 19.731 21.9001C19.7319 21.9044 19.6444 21.9171 19.5366 21.9282C19.3532 21.9471 19.3308 21.9622 19.1895 22.1615C19.1065 22.2786 18.9821 22.4158 18.9131 22.4661C18.7641 22.5748 18.1917 22.7298 18.1381 22.6758C18.1182 22.6559 18.0412 22.4621 17.9669 22.2454C17.8421 21.8808 17.8297 21.8604 17.8012 21.9716C17.7753 22.0726 17.7469 21.9727 17.6247 21.3511L17.479 20.6103L17.2561 20.3433C17.1335 20.1966 17.0219 20.0228 17.0081 19.9571C16.9677 19.7637 16.8697 18.8051 16.89 18.8015C16.9003 18.7996 16.9624 19.085 17.0282 19.4356ZM21.4812 19.3871C21.4501 19.4146 21.4441 19.4337 21.4678 19.4295C21.4914 19.4253 21.5362 19.3993 21.5672 19.3718C21.5982 19.3442 21.6043 19.3251 21.5806 19.3294C21.557 19.3336 21.5122 19.3596 21.4812 19.3871ZM21.4616 19.9935C21.4501 20.0093 21.4133 20.0173 21.3799 20.0113C21.343 20.0047 21.3512 19.9935 21.4009 19.9827C21.4459 19.9729 21.4732 19.9778 21.4616 19.9935ZM29.98 18.7087C30.2611 18.9475 30.3113 19.0408 30.4216 19.5292C30.5277 19.999 30.5164 20.308 30.3855 20.5143C30.2883 20.6673 30.2761 20.6353 30.2988 20.2873C30.3249 19.8867 30.1931 19.4553 29.9534 19.1573C29.7662 18.9246 29.6313 18.5541 29.7274 18.537C29.7503 18.5329 29.8639 18.6102 29.98 18.7087ZM14.8004 21.9193C15.0632 21.9096 15.3549 21.9134 15.4485 21.9276L15.6189 21.9534L15.3196 22.0145L15.0203 22.0756L15.2638 22.0676C15.832 22.0492 16.2895 22.0592 16.3639 22.0918C16.4111 22.1124 16.4595 22.1899 16.4828 22.282L16.522 22.4375L16.8139 22.4478L17.1057 22.4581L16.8282 22.5169C16.0751 22.6765 15.0837 22.999 14.5848 23.2468C14.4685 23.3047 14.3559 23.3411 14.3347 23.3278C14.2738 23.2896 14.1403 22.5577 14.1444 22.2839C14.1494 21.9381 14.1536 21.9231 14.2432 21.9303C14.287 21.9338 14.5378 21.9289 14.8004 21.9193ZM20.9001 20.8785C20.9019 20.8869 20.8646 20.9006 20.8173 20.9091C20.7701 20.9175 20.728 20.9082 20.7239 20.8883C20.7197 20.8685 20.757 20.8547 20.8066 20.8577C20.8563 20.8608 20.8984 20.8701 20.9001 20.8785ZM20.0368 21.4424C20.0378 21.4472 20.0008 21.4678 19.9545 21.4883C19.8914 21.5163 19.8431 21.4978 19.7609 21.4141C19.5976 21.2477 19.6163 21.2285 19.8365 21.3365C19.9457 21.3901 20.0359 21.4377 20.0368 21.4424ZM20.5327 21.162C20.5927 21.1723 20.6077 21.1896 20.5782 21.2148C20.554 21.2354 20.475 21.2348 20.4026 21.2135C20.2945 21.1818 20.2864 21.1723 20.3571 21.1608C20.4045 21.153 20.4836 21.1536 20.5327 21.162ZM26.4612 21.0415C26.5191 21.5519 26.5696 22.1269 26.5734 22.3192C26.5846 22.8824 26.6543 23.4682 26.7846 24.0938C26.9321 24.8027 26.979 25.5153 26.9025 25.8834C26.8713 26.0327 26.8391 26.1507 26.8307 26.1454C26.8223 26.1402 26.8324 25.975 26.8533 25.7784C26.8878 25.4529 26.874 25.3224 26.6997 24.3197C26.485 23.085 26.465 22.9199 26.453 22.2787C26.4482 22.0298 26.418 21.5057 26.3858 21.1141C26.3189 20.3023 26.3082 20.0835 26.3361 20.1011C26.347 20.1079 26.4032 20.5311 26.4612 21.0415ZM20.124 21.5309C20.1445 21.5515 20.189 21.5523 20.223 21.5327C20.257 21.5131 20.3588 21.5061 20.4493 21.5171L20.6138 21.5371L20.4182 21.6684L20.2226 21.7997L20.0795 21.7006C20.0007 21.6461 19.9326 21.5839 19.9281 21.5623C19.9171 21.5095 20.0773 21.4837 20.124 21.5309ZM20.5952 21.8763C20.4601 22.0266 20.4634 22.026 20.3161 21.9273L20.1944 21.8458L20.4491 21.8006L20.7037 21.7554L20.5952 21.8763ZM20.0553 22.1087C20.1357 22.1564 20.2423 22.2429 20.292 22.3009C20.4052 22.4328 20.4829 22.8296 20.4288 22.9995C20.3591 23.2183 20.0997 23.5182 19.7865 23.742C19.4461 23.9851 19.3369 24.012 19.6194 23.783C19.8635 23.5851 20.2007 23.1419 20.2659 22.9331C20.3695 22.6019 20.1577 22.2263 19.794 22.0957L19.6012 22.0266L19.7552 22.0243C19.8398 22.023 19.9749 22.0609 20.0553 22.1087ZM13.9369 23.8514C14.0209 23.8948 14.1734 24.0263 14.2759 24.1438C14.5868 24.4999 14.8188 24.6389 15.225 24.7125L15.5826 24.7773L15.3565 24.7972C15.0094 24.8277 14.6188 24.7043 14.2526 24.4484L13.9372 24.228L13.713 24.5056C13.3604 24.9425 12.8238 25.4437 12.2029 25.9164C10.8263 26.9646 10.693 27.2445 10.7796 28.9065C10.8728 30.6978 10.6829 31.3583 9.85915 32.1063C9.41112 32.5132 9.31086 32.6976 9.15428 33.4031C9.06119 33.8227 8.84501 34.3156 8.62386 34.6124C8.46652 34.8235 7.91803 35.2628 7.78122 35.2872C7.73511 35.2954 7.7372 35.3189 7.79107 35.399C7.916 35.5843 8.05892 36.1909 8.01747 36.3598L7.98037 36.5109L7.92459 36.2602C7.874 36.033 7.76713 35.8043 7.57707 35.5168C7.52097 35.4319 7.49043 35.4203 7.4121 35.454C7.2429 35.5271 7.30124 35.4664 7.60685 35.2516C7.9874 34.9843 8.20258 34.7518 8.40825 34.3857C8.61012 34.0265 8.66073 33.8653 8.7484 33.3029C8.84097 32.7091 8.93613 32.5352 9.39824 32.1151C9.75132 31.7939 9.89421 31.5884 10.0304 31.2048C10.1496 30.8694 10.2781 30.0072 10.2723 29.5813C10.2705 29.4463 10.2413 29.0544 10.2075 28.7104C10.0997 27.6153 10.121 27.048 10.2842 26.6641C10.4838 26.1945 10.9249 25.6531 11.7512 24.8633C12.3575 24.284 12.9669 23.925 13.5194 23.8219C13.7432 23.7801 13.8078 23.7846 13.9369 23.8514ZM9.03217 25.1337C8.21635 25.5677 7.54921 26.1792 7.33389 26.6901C7.27876 26.8209 7.20447 27.1389 7.16877 27.3966C7.07132 28.1013 6.85287 28.5092 6.17314 29.2557L5.88306 29.5742L6.21473 29.1244C6.75621 28.39 6.94906 27.9546 7.04552 27.2488C7.07218 27.0537 7.13294 26.7986 7.18054 26.6819C7.30858 26.368 7.74547 25.8889 8.2004 25.5637C8.42077 25.406 9.24741 24.9589 9.35369 24.9399C9.38911 24.9334 9.24449 25.0207 9.03217 25.1337ZM20.7461 23.426C20.6938 23.5856 20.3328 24.0617 20.1813 24.1708C19.9604 24.3298 19.4882 24.5789 19.4091 24.5783C19.3633 24.5778 19.4233 24.5292 19.5512 24.4631C20.0004 24.231 20.1962 24.0643 20.4788 23.6727C20.631 23.4617 20.7626 23.2918 20.7712 23.2952C20.7799 23.2986 20.7686 23.3574 20.7461 23.426ZM8.87286 25.8599C8.86468 25.8696 8.81404 25.9075 8.76037 25.9442C8.66837 26.0069 8.66682 26.0063 8.73332 25.9339C8.79122 25.8709 8.92188 25.8016 8.87286 25.8599ZM14.2991 25.0556C14.6664 25.2197 15.2225 25.3196 15.704 25.3077C15.8076 25.3052 15.9429 25.329 16.0048 25.3607C16.1171 25.4182 16.1171 25.4182 15.8442 25.4682C15.3329 25.5619 14.8331 25.4831 14.4007 25.2405C14.2055 25.131 14.0592 25.0032 14.1173 24.9929C14.1336 24.99 14.2155 25.0182 14.2991 25.0556ZM24.0521 23.5701C24.3119 23.6202 24.9348 24.0628 25.4323 24.5505C25.8223 24.9328 26.1383 25.5142 26.0583 25.7021C26.0243 25.7817 25.7316 25.4869 25.285 24.9231C24.8724 24.4022 24.7734 24.3141 24.434 24.1644C24.1383 24.0341 23.8365 23.9992 23.3989 24.0448C22.9865 24.0877 22.877 24.0523 22.9814 23.9097C23.1406 23.6923 23.7253 23.5069 24.0521 23.5701ZM7.50462 27.3479C7.4719 27.6772 7.38984 28.0312 7.28343 28.3024C7.1904 28.5392 6.70715 29.2446 6.62823 29.2586C6.60773 29.2622 6.68392 29.1252 6.79754 28.9541C6.9112 28.783 7.00037 28.6246 6.99569 28.6021C6.991 28.5796 7.00872 28.5281 7.035 28.4875C7.14402 28.3196 7.31397 27.762 7.35692 27.4313C7.41275 27.0017 7.42181 26.9748 7.47984 27.0659C7.50494 27.1054 7.5161 27.2323 7.50462 27.3479ZM6.46746 27.5132C6.40381 27.592 6.33223 27.6599 6.30842 27.6642C6.24228 27.676 6.35271 27.4573 6.43047 27.4226C6.57342 27.3589 6.57976 27.3742 6.46746 27.5132ZM17.2199 25.5447C17.1906 25.6162 17.3282 25.6227 17.7646 25.5703C18.0276 25.5388 18.1639 25.5077 18.1583 25.481C18.1463 25.4231 17.9997 25.418 17.5924 25.4612C17.3671 25.485 17.232 25.5154 17.2199 25.5447ZM5.1631 29.5059C5.15036 29.5233 5.14554 29.5644 5.15238 29.5973C5.1674 29.6695 5.21426 29.6156 5.21017 29.5307C5.20694 29.464 5.19741 29.459 5.1631 29.5059ZM24.3423 27.3572C24.7998 27.6648 25.2467 27.8122 25.9696 27.8938C26.3137 27.9327 26.8459 27.9593 27.1524 27.9528C27.8936 27.9372 28.5496 27.9685 28.8577 28.0341C29.2644 28.1209 29.681 28.3586 29.9279 28.6447C30.1929 28.9519 30.4942 29.4103 30.7247 29.8571C30.9529 30.2994 30.9953 30.3599 31.3273 30.7191C31.4808 30.8852 31.6303 31.0747 31.6595 31.1401C31.7148 31.2642 31.9007 31.3884 32.1013 31.4353C32.3491 31.4933 31.9056 31.5287 31.6109 31.4746C31.4541 31.4458 31.3202 31.4298 31.3134 31.4392C31.3065 31.4485 31.3967 31.5098 31.5135 31.5754L31.726 31.6946L31.6865 31.9295C31.6647 32.0587 31.6275 32.1745 31.6037 32.1869C31.4798 32.2513 30.932 31.8135 30.8912 31.6174C30.8784 31.556 30.8935 31.4177 30.9247 31.3099C30.9781 31.125 30.9749 31.0988 30.8689 30.8542C30.807 30.7114 30.5287 30.2172 30.2504 29.7559C29.678 28.8069 29.638 28.7675 29.0268 28.549C28.5177 28.3671 28.121 28.3034 27.2051 28.2561C25.9326 28.1904 25.5846 28.1553 25.2246 28.0565C24.6654 27.9032 24.0651 27.4631 23.8586 27.0553C23.8127 26.9647 23.816 26.9651 23.9333 27.0627C24.0006 27.1187 24.1847 27.2513 24.3423 27.3572ZM18.2041 28.4757C18.2619 28.7574 18.5481 29.4337 18.6318 29.4861C18.7026 29.5306 18.5351 28.9375 18.3803 28.5963C18.2036 28.2069 18.14 28.1633 18.2041 28.4757ZM14.8987 29.9565C14.9495 30.1901 14.8861 30.3293 14.5121 30.8051C14.0549 31.3865 13.9468 31.5886 13.9877 31.7846C14.0403 32.0378 14.3705 32.1833 16.0159 32.6782C16.7152 32.8885 17.1304 33.0772 17.2643 33.2454C17.3506 33.3537 17.404 33.3723 17.731 33.4073C17.934 33.429 18.187 33.4785 18.2931 33.5173L18.486 33.5878L18.3312 33.5933C18.0467 33.6032 17.5592 33.6291 17.5119 33.6367C17.4817 33.6415 17.4884 33.7235 17.5312 33.8698C17.5848 34.0533 17.6415 34.1378 17.8344 34.3224C18.3174 34.7845 18.3218 34.8172 17.8662 34.5603C17.6389 34.4323 17.4139 34.3215 17.3659 34.3141C17.2911 34.3026 17.2763 34.2722 17.263 34.1019C17.2384 33.7873 17.0645 33.5147 16.7745 33.3356C16.5553 33.2002 15.9199 32.9287 15.8511 32.941C15.8356 32.9438 15.644 32.8837 15.4255 32.8075C15.207 32.7314 14.8372 32.6387 14.6037 32.6016C14.0018 32.506 13.7568 32.4334 13.561 32.2926C13.409 32.1833 13.3893 32.1512 13.3842 32.0044C13.3757 31.7579 13.5912 31.3683 14.1284 30.659C14.5887 30.0512 14.6941 29.8475 14.6583 29.6352C14.6345 29.4942 14.8652 29.8025 14.8987 29.9565ZM5.57271 31.3251C5.56593 31.3605 5.55278 31.3906 5.54349 31.3923C5.53421 31.3939 5.521 31.3684 5.51417 31.3356C5.50734 31.3028 5.52048 31.2725 5.54339 31.2685C5.56625 31.2644 5.57946 31.2899 5.57271 31.3251ZM5.98961 31.2818C5.9809 31.2891 5.92958 31.3479 5.87564 31.4125C5.82171 31.4772 5.77341 31.5103 5.76839 31.4863C5.75483 31.421 5.85834 31.2949 5.93686 31.2809C5.97455 31.2742 5.99831 31.2746 5.98961 31.2818ZM18.1869 29.391C18.1669 29.4265 18.1512 29.5052 18.1521 29.566C18.1533 29.6574 18.2007 29.7057 18.426 29.8451C18.7336 30.0354 18.8532 30.0141 18.5547 29.8221C18.4072 29.7272 18.3456 29.6545 18.2926 29.5123C18.2381 29.3665 18.2154 29.3405 18.1869 29.391ZM23.6225 28.8197C23.8365 29.1913 23.9503 29.78 23.9299 30.4078C23.8851 31.7805 23.6885 32.2517 22.8897 32.9008C21.6296 33.9248 20.751 34.6658 20.6282 34.8086C20.5173 34.9375 20.4973 34.9893 20.5342 35.0524C20.5987 35.1627 20.8236 35.3551 21.0112 35.4606C21.1218 35.5228 21.1406 35.5446 21.0755 35.5353C20.947 35.5169 20.7213 35.4258 20.5326 35.316L20.3725 35.2229L20.3689 35.455C20.3669 35.5826 20.3576 35.6884 20.348 35.6901C20.3385 35.6918 20.287 35.642 20.2338 35.5794C20.1176 35.4429 20.0233 35.0481 20.0541 34.8273C20.0768 34.664 20.1271 34.6202 20.813 34.1667C21.5665 33.6684 22.8245 32.6329 22.9971 32.3688C23.1341 32.1594 23.2057 31.9104 23.2924 31.3432C23.4124 30.5577 23.5037 28.9084 23.444 28.6051C23.4263 28.5152 23.4941 28.5969 23.6225 28.8197ZM18.9259 29.7108C18.7642 29.9357 18.7615 29.9454 18.8695 29.9174C18.9318 29.9013 19.0204 29.848 19.0664 29.799C19.1223 29.7392 19.1267 29.7224 19.0799 29.7479C18.9848 29.7995 18.9812 29.7455 19.0708 29.6143C19.1116 29.5546 19.1338 29.4987 19.1202 29.4903C19.1067 29.4817 19.0193 29.581 18.9259 29.7108ZM19.5028 29.9989C19.5513 30.3325 19.5502 30.3751 19.4964 30.2478C19.4037 30.0287 19.3785 29.8816 19.4059 29.7208C19.4191 29.6437 19.433 29.5841 19.437 29.5885C19.441 29.5929 19.4706 29.7776 19.5028 29.9989ZM18.2078 29.9854C18.2196 30.0314 18.2318 30.039 18.2389 30.0049C18.2453 29.9739 18.2366 29.9398 18.2195 29.9292C18.2025 29.9185 18.1973 29.9438 18.2078 29.9854ZM19.7778 29.6899C19.9682 29.7178 19.9765 29.7496 19.8159 29.8359C19.6352 29.933 19.6192 29.9303 19.5916 29.7974C19.5634 29.662 19.5684 29.6592 19.7778 29.6899ZM6.82157 36.2389C6.89297 36.4848 6.91259 36.6276 6.89396 36.7664C6.87986 36.8711 6.86125 36.9348 6.85259 36.9079C6.82961 36.8368 6.63248 35.8834 6.61386 35.7532C6.59892 35.6491 6.60169 35.6502 6.66082 35.7721C6.69535 35.8434 6.76768 36.0535 6.82157 36.2389Z" fill="#E5D2A5"/>
</g>
<defs>
<clipPath id="clip0_971_303">
<rect width="42" height="49" rx="3" fill="white"/>
</clipPath>
</defs>
</svg>
