<svg width="40" height="40" viewBox="0 0 40 40" fill="none" xmlns="http://www.w3.org/2000/svg">
<g clip-path="url(#clip0_971_255)">
<path d="M20.0002 3.3335C16.7038 3.3335 13.4815 4.31098 10.7407 6.14234C7.99985 7.97369 5.86364 10.5767 4.60218 13.6221C3.34072 16.6675 3.01066 20.0187 3.65375 23.2517C4.29684 26.4847 5.88418 29.4544 8.21506 31.7853C10.5459 34.1162 13.5156 35.7035 16.7487 36.3466C19.9817 36.9897 23.3328 36.6596 26.3782 35.3982C29.4237 34.1367 32.0266 32.0005 33.858 29.2597C35.6894 26.5188 36.6668 23.2965 36.6668 20.0002C36.6668 17.8115 36.2357 15.6442 35.3982 13.6221C34.5606 11.6 33.3329 9.76269 31.7853 8.21505C30.2376 6.66741 28.4003 5.43975 26.3782 4.60217C24.3561 3.76459 22.1889 3.3335 20.0002 3.3335ZM27.1668 16.0168L19.5502 26.0168C19.3949 26.2185 19.1955 26.382 18.9673 26.4946C18.739 26.6073 18.488 26.6662 18.2335 26.6668C17.9803 26.6682 17.7302 26.6119 17.5021 26.5021C17.2739 26.3924 17.0738 26.2321 16.9168 26.0335L12.8502 20.8502C12.5783 20.501 12.4563 20.0581 12.511 19.6189C12.5657 19.1798 12.7926 18.7803 13.1418 18.5085C13.491 18.2366 13.9339 18.1147 14.3731 18.1694C14.8122 18.2241 15.2117 18.451 15.4835 18.8002L18.2002 22.2668L24.5002 13.9335C24.6337 13.7584 24.8004 13.6113 24.9907 13.5006C25.1811 13.39 25.3914 13.3179 25.6096 13.2885C25.8278 13.2591 26.0497 13.2729 26.2625 13.3293C26.4754 13.3856 26.6751 13.4833 26.8502 13.6168C27.0253 13.7503 27.1723 13.917 27.283 14.1074C27.3937 14.2977 27.4658 14.508 27.4952 14.7262C27.5246 14.9445 27.5107 15.1663 27.4544 15.3792C27.3981 15.5921 27.3003 15.7917 27.1668 15.9668V16.0168Z" fill="#B23633"/>
</g>
<defs>
<clipPath id="clip0_971_255">
<rect width="40" height="40" fill="white"/>
</clipPath>
</defs>
</svg>
