<svg width="29" height="29" viewBox="0 0 29 29" fill="none" xmlns="http://www.w3.org/2000/svg">
<path d="M28.8695 23.1118L28.7252 22.6769C28.3833 21.6607 27.2628 20.601 26.2333 20.3218L22.4234 19.281C21.3902 18.9999 19.9163 19.3778 19.1604 20.1337L17.7815 21.5126C12.7703 20.1585 8.84067 16.2288 7.48839 11.2185L8.86735 9.83958C9.62329 9.08364 10.0012 7.61175 9.72011 6.57854L8.68119 2.76669C8.4001 1.73536 7.33839 0.614823 6.32421 0.276722L5.88929 0.130493C4.87316 -0.207608 3.424 0.134322 2.66812 0.890202L0.60548 2.95473C0.23699 3.32127 0.00148004 4.36967 0.00148004 4.3735C-0.070662 10.9222 2.49716 17.2316 7.12944 21.8639C11.7504 26.4848 18.0361 29.0489 24.5658 28.9938C24.5999 28.9938 25.6787 28.7621 26.0472 28.3955L28.1098 26.3328C28.8657 25.577 29.2076 24.1279 28.8695 23.1118Z" fill="#E5D2A5"/>
</svg>
