<svg width="29" height="29" viewBox="0 0 29 29" fill="none" xmlns="http://www.w3.org/2000/svg">
<path fill-rule="evenodd" clip-rule="evenodd" d="M14.4958 0C6.5022 0 0 6.50402 0 14.4999C0 17.6709 1.02264 20.6118 2.76105 22.9988L0.954336 28.386L6.52768 26.6048C8.81999 28.1221 11.5555 29 14.5042 29C22.4978 29 29 22.4957 29 14.5001C29 6.50428 22.4978 0.00023969 14.5042 0.00023969L14.4958 0ZM10.4478 7.36529C10.1666 6.69191 9.95352 6.66642 9.52757 6.6491C9.38255 6.64068 9.22092 6.63226 9.04174 6.63226C8.4876 6.63226 7.90822 6.79417 7.55876 7.15215C7.13281 7.58688 6.076 8.60114 6.076 10.6812C6.076 12.7612 7.59291 14.7729 7.79734 15.0544C8.01043 15.3354 10.7546 19.6658 15.0155 21.4307C18.3475 22.8116 19.3363 22.6836 20.0946 22.5217C21.2024 22.2831 22.5916 21.4644 22.9411 20.4758C23.2905 19.4868 23.2905 18.6429 23.1881 18.4639C23.0859 18.2849 22.8044 18.1829 22.3785 17.9695C21.9526 17.7563 19.8815 16.7334 19.4895 16.597C19.1059 16.4522 18.7396 16.5034 18.45 16.9126C18.0409 17.4838 17.6405 18.0636 17.3165 18.4129C17.0608 18.6857 16.6431 18.7199 16.2938 18.5748C15.8251 18.379 14.5129 17.9182 12.8935 16.4777C11.6407 15.3611 10.7886 13.9718 10.5416 13.5542C10.2943 13.1281 10.5161 12.8805 10.7118 12.6506C10.9249 12.3862 11.1294 12.1987 11.3425 11.9514C11.5556 11.7044 11.6749 11.5764 11.8112 11.2865C11.9563 11.0052 11.8538 10.7153 11.7516 10.5022C11.6493 10.289 10.7972 8.209 10.4478 7.36529Z" fill="#E5D2A5"/>
</svg>
