<svg width="56" height="56" viewBox="0 0 56 56" fill="none" xmlns="http://www.w3.org/2000/svg">
<g clip-path="url(#clip0_1047_983)">
<path d="M24.2567 52.9014L23.7318 53.4262L23.7316 53.4265C23.1437 54.0145 23.1437 54.9713 23.7316 55.5593C24.3195 56.147 25.2763 56.147 25.8643 55.5592L25.8645 55.559L26.4429 54.9807L24.2567 52.9014Z" fill="#AB090D"/>
<path d="M45.4859 35.3558L35.7634 25.6329C35.5024 25.3719 35.1553 25.2281 34.7862 25.2281C34.4171 25.2281 34.0702 25.3719 33.8093 25.6329C33.2705 26.1717 33.2707 27.0482 33.8093 27.5871L43.532 37.3098C43.793 37.5707 44.1401 37.7145 44.5091 37.7145C44.8782 37.7145 45.2252 37.5707 45.4864 37.3097C45.7471 37.049 45.8908 36.702 45.8906 36.3329C45.8906 35.9637 45.7469 35.6166 45.4859 35.3558Z" fill="#AB090D"/>
<path d="M42.0246 37.4816C42.0243 37.4809 42.0239 37.4802 42.0233 37.4796L33.1511 28.6073L25.8685 29.7874C25.3464 29.8725 24.9124 30.2555 24.7631 30.7633L22.395 38.8396C22.1806 39.5708 22.601 40.3401 23.3321 40.5544C24.0633 40.7689 24.8328 40.3482 25.047 39.6171L26.9099 33.4316C26.9754 33.2142 27.1592 33.0532 27.3831 33.017L32.5113 32.1856C32.8346 32.1328 33.1395 32.3529 33.192 32.6765C33.2445 33.0001 33.0248 33.3049 32.7011 33.3573L31.5913 33.5372L40.5095 42.1653L40.6876 41.9873C40.6888 41.986 40.6897 41.9847 40.6907 41.9835L42.0245 40.6498C42.8979 39.7765 42.8979 38.3551 42.0246 37.4816Z" fill="#AB090D"/>
<path d="M42.0642 45.3212L30.1289 33.774L27.9394 34.1291L26.1848 39.9551C25.858 41.0703 24.831 41.7973 23.7198 41.7973C23.481 41.7975 23.2386 41.7639 22.9981 41.6934C21.6389 41.295 20.8573 39.865 21.2558 38.5057L23.6241 30.4289C23.7082 30.1428 23.8417 29.8785 24.0129 29.6441L22.5444 29.2031L14.0716 38.1114C14.0699 38.1132 14.069 38.1152 14.0673 38.1169C13.6466 38.5593 13.4232 39.1389 13.4385 39.7493C13.4538 40.3596 13.7057 40.9274 14.148 41.3483L15.6662 42.8124C15.6676 42.8139 15.6691 42.8147 15.6706 42.816C15.6715 42.8169 15.6721 42.8181 15.6731 42.8191L17.8048 44.875L18.6808 45.7418C18.6821 45.7433 18.6838 45.7441 18.6852 45.7454C18.6864 45.7467 18.6872 45.748 18.6884 45.7493L21.6724 48.702L21.6725 48.7021L21.6727 48.7022L24.3704 51.3717L28.4888 55.2882C28.489 55.2884 28.4892 55.2886 28.4895 55.2888C29.1396 55.9072 30.1715 55.8817 30.7903 55.2313C31.0897 54.9167 31.2487 54.504 31.2379 54.0693C31.227 53.6367 31.0489 53.2342 30.7367 52.9351L29.5377 51.7947C29.3002 51.5689 29.2907 51.1933 29.5165 50.9558C29.7422 50.7181 30.118 50.7087 30.3555 50.9347L31.547 52.0679C31.5481 52.0689 31.5495 52.0696 31.5505 52.0706C31.555 52.0749 31.5592 52.0795 31.5637 52.0838L32.1793 52.6692C32.8292 53.2876 33.8613 53.2619 34.4798 52.612C35.0979 51.9619 35.0721 50.9297 34.4221 50.311C34.4218 50.3107 34.4215 50.3103 34.4213 50.31L33.2804 49.2246C33.0429 48.9987 33.0335 48.6231 33.2594 48.3856C33.4854 48.1482 33.8611 48.1388 34.0984 48.3646L35.9221 50.0994C36.5892 50.7342 37.6668 50.7305 38.2748 50.0913C38.5681 49.7832 38.7179 49.3665 38.6968 48.9177C38.676 48.4732 38.483 48.0457 38.1677 47.7444C38.1635 47.7403 38.1595 47.7364 38.1554 47.7321L36.815 46.4576C36.5775 46.2318 36.568 45.8562 36.7939 45.6186C37.0196 45.3813 37.3951 45.3714 37.6329 45.5975L38.9828 46.8811C38.9875 46.8856 38.9923 46.8901 38.9968 46.8949L39.8214 47.6791C40.4715 48.297 41.5036 48.2716 42.1218 47.6215C42.4218 47.3065 42.5808 46.8938 42.57 46.4594C42.5591 46.0249 42.3795 45.6208 42.0642 45.3212Z" fill="#AB090D"/>
<path d="M16.9754 45.7239L15.2581 44.0677L14.816 44.5099C14.8158 44.51 14.8157 44.5102 14.8156 44.5105C14.5308 44.7952 14.374 45.1739 14.374 45.5767C14.374 45.9796 14.5308 46.3581 14.8156 46.6426C15.1003 46.9275 15.4791 47.0844 15.8819 47.0845H15.8822C16.2846 47.0845 16.6627 46.9281 16.9472 46.644C16.9475 46.6438 16.9478 46.6435 16.9481 46.6431L16.9483 46.6427L17.4237 46.1675L16.9754 45.7239Z" fill="#AB090D"/>
<path d="M21.2552 49.9589L20.7598 50.4544L20.7595 50.4548C20.4749 50.7393 20.3181 51.118 20.3181 51.5209C20.3181 51.924 20.4749 52.3025 20.7597 52.5871C21.0444 52.8719 21.4231 53.0288 21.826 53.0288C22.2289 53.0288 22.6074 52.872 22.892 52.5873C22.8925 52.5868 22.8931 52.5864 22.8936 52.586L23.3992 52.0802L21.2552 49.9589Z" fill="#AB090D"/>
<path d="M22.123 25.8735C21.859 25.6224 21.5133 25.4841 21.1494 25.4841C20.7584 25.4841 20.3946 25.6401 20.1251 25.9234L10.4978 36.0455C10.2376 36.3189 10.0996 36.6774 10.1091 37.0548C10.1186 37.4324 10.2744 37.7835 10.5479 38.0436C10.8117 38.2944 11.1573 38.4325 11.5212 38.4325C11.9126 38.4325 12.2764 38.2766 12.5458 37.9931L22.1731 27.8711C22.4334 27.5977 22.5715 27.2394 22.562 26.8621C22.5525 26.4847 22.3966 26.1336 22.123 25.8735Z" fill="#AB090D"/>
<path d="M18.2674 47.0023L17.7883 47.4813C17.788 47.4817 17.7877 47.4822 17.7873 47.4826C17.7868 47.483 17.7863 47.4834 17.7858 47.4839C17.5022 47.7684 17.3459 48.1464 17.3459 48.5486C17.3459 48.9517 17.5027 49.3303 17.7874 49.6148C18.3754 50.203 19.3321 50.203 19.9202 49.6151C19.9205 49.6148 19.9208 49.6146 19.9212 49.6142L20.4115 49.1239L18.2674 47.0023Z" fill="#AB090D"/>
<path d="M10.0299 22.5447V23.4969C10.0299 23.8573 10.3237 24.1506 10.6849 24.1506H16.0545C16.4157 24.1506 16.7096 23.8573 16.7096 23.4969V22.5447H10.0299Z" fill="#AB090D"/>
<path d="M24.6599 22.5447V23.4969H24.6598C24.6598 23.8573 24.9537 24.1506 25.315 24.1506H30.6847C31.0459 24.1506 31.3398 23.8573 31.3398 23.4969V22.5447H24.6599Z" fill="#AB090D"/>
<path d="M39.29 22.5447V23.4969H39.2899C39.2899 23.8573 39.5839 24.1506 39.9452 24.1506H45.3146C45.6758 24.1506 45.9696 23.8573 45.9696 23.4969V22.5447H39.29Z" fill="#AB090D"/>
<path d="M48.634 18.172H48.6234H5.77344V19.7643C5.77344 20.6429 6.48822 21.3577 7.36693 21.3577H9.43509C9.43544 21.3577 9.4358 21.3576 9.43627 21.3576C9.43675 21.3576 9.43699 21.3577 9.43746 21.3577H17.3019C17.3022 21.3577 17.3026 21.3576 17.3031 21.3576C17.3036 21.3576 17.3038 21.3577 17.3043 21.3577H24.0652C24.0655 21.3577 24.0659 21.3576 24.0664 21.3576C24.0668 21.3576 24.0671 21.3577 24.0676 21.3577H31.9321C31.9325 21.3577 31.9329 21.3576 31.9333 21.3576C31.9337 21.3576 31.9341 21.3577 31.9345 21.3577H38.6955C38.6959 21.3577 38.6964 21.3576 38.6967 21.3576C38.6971 21.3576 38.6975 21.3577 38.6979 21.3577H46.5622C46.5626 21.3577 46.563 21.3576 46.5634 21.3576C46.5637 21.3576 46.5642 21.3577 46.5646 21.3577H48.6236H48.6237H48.6238C49.512 21.3577 50.2265 20.6429 50.2265 19.7643V18.172H48.634Z" fill="#AB090D"/>
<path d="M27.9998 0L8.2832 16.9854H47.7163L27.9998 0ZM27.9998 15.3771C25.1546 15.3771 22.8401 13.0625 22.8401 10.2173C22.8401 7.37101 25.1546 5.05644 27.9998 5.05644C30.8449 5.05644 33.1595 7.37101 33.1595 10.2173C33.1595 13.0625 30.8449 15.3771 27.9998 15.3771Z" fill="#AB090D"/>
<path d="M27.9997 6.24353C25.8088 6.24353 24.0264 8.02599 24.0264 10.2169C24.0264 12.4078 25.8088 14.1901 27.9997 14.1901C30.1905 14.1901 31.9729 12.4078 31.9729 10.2169C31.9729 8.02587 30.1905 6.24353 27.9997 6.24353Z" fill="#AB090D"/>
</g>
<defs>
<clipPath id="clip0_1047_983">
<rect width="56" height="56" fill="white"/>
</clipPath>
</defs>
</svg>
