<svg width="43" height="43" viewBox="0 0 43 43" fill="none" xmlns="http://www.w3.org/2000/svg">
<path d="M34.0418 32.25H21.5002C20.4252 32.25 19.7085 31.5333 19.7085 30.4583C19.7085 29.3833 20.4252 28.6667 21.5002 28.6667H34.0418C35.1168 28.6667 35.8335 29.3833 35.8335 30.4583C35.8335 31.5333 35.1168 32.25 34.0418 32.25Z" fill="black"/>
<path d="M34.0415 23.2917H8.95817C7.88317 23.2917 7.1665 22.575 7.1665 21.5C7.1665 20.425 7.88317 19.7083 8.95817 19.7083H34.0415C35.1165 19.7083 35.8332 20.425 35.8332 21.5C35.8332 22.575 35.1165 23.2917 34.0415 23.2917Z" fill="black"/>
<path d="M34.0415 14.3333H8.95817C7.88317 14.3333 7.1665 13.6167 7.1665 12.5417C7.1665 11.4667 7.88317 10.75 8.95817 10.75H34.0415C35.1165 10.75 35.8332 11.4667 35.8332 12.5417C35.8332 13.6167 35.1165 14.3333 34.0415 14.3333Z" fill="black"/>
</svg>
