<svg width="24" height="29" viewBox="0 0 24 29" fill="none" xmlns="http://www.w3.org/2000/svg">
<path fill-rule="evenodd" clip-rule="evenodd" d="M11.1811 0.638125C10.4358 1.38652 9.08053 2.39129 7.92702 3.05047C5.93566 4.18836 4.10622 4.68561 1.44206 4.81289C-0.226708 4.89265 -0.120425 4.81088 0.170687 5.78995C0.366845 6.44975 0.443275 6.7777 0.693634 8.03255C0.828392 8.7079 0.860681 9.70726 0.864489 13.3192C0.867032 15.7689 0.914773 17.977 0.97056 18.2263C1.02645 18.4755 1.1176 18.9201 1.17318 19.2143C1.46736 20.7708 2.2792 22.3022 3.33398 23.2902C4.25411 24.1522 5.24315 24.8522 7.47605 26.2222C8.60281 26.9134 11.1773 28.5297 11.8216 28.9502C11.9234 29.0166 12.0265 29.0166 12.1279 28.9502C12.6128 28.6325 15.1803 27.0066 15.6272 26.7343C20.0647 24.03 21.1212 23.1393 22.0009 21.36C22.4437 20.4646 22.6006 19.9456 22.8875 18.4277C23.0767 17.4267 23.1058 16.8712 23.1027 14.3331C23.1007 12.718 23.0704 11.2881 23.0355 11.1555C22.9427 10.8041 23.1644 8.2308 23.3632 7.3508C23.572 6.4266 23.8108 5.56915 23.9495 5.246C24.0166 5.0893 24.0169 4.96958 23.9502 4.90614C23.8935 4.85227 23.3792 4.81541 22.8071 4.82407C21.3946 4.84562 19.2944 4.49539 18.2577 4.06541C18.0743 3.98928 17.8957 3.92705 17.861 3.92705C17.8263 3.92705 17.4763 3.78355 17.0831 3.60803C15.88 3.07131 14.092 1.87139 13.057 0.906185C12.5223 0.407729 12.0244 -0.00010068 11.9505 1.86439e-08C11.8767 0.000100718 11.5304 0.287293 11.1811 0.638125Z" fill="#B23633"/>
<path fill-rule="evenodd" clip-rule="evenodd" d="M8.32448 8.0965C8.11914 8.1891 7.98863 8.31535 7.94166 8.4667C7.92875 8.5081 7.92033 8.64365 7.92291 8.76785C7.93091 9.15825 7.8743 9.39705 7.7527 9.48535C7.70788 9.5179 7.6826 9.55845 7.68492 9.59425C7.68797 9.64235 7.65859 9.66731 7.49696 9.75386C7.11124 9.96036 6.9207 10.2387 6.97647 10.5138C7.00065 10.6328 7.05558 10.6792 7.13146 10.6448C7.17307 10.6258 7.18113 10.6349 7.19909 10.7212C7.2103 10.775 7.26213 10.8881 7.31426 10.9727C7.44271 11.181 7.44424 11.1999 7.3357 11.239C7.00707 11.3573 6.98385 11.3716 6.99154 11.4505C7.00475 11.5854 7.05679 11.5945 7.2902 11.5029C7.51334 11.4153 7.51955 11.4166 7.54757 11.5548C7.56821 11.6563 7.78235 12.013 7.91517 12.167C8.02176 12.2906 8.0295 12.3073 8.01002 12.3701C7.97067 12.4967 7.98637 12.7072 8.04572 12.8486C8.10981 13.0015 8.10429 12.9675 8.11255 13.2579C8.1165 13.3955 8.13562 13.5376 8.15985 13.6097L8.2005 13.7305L8.03045 13.7621C7.83491 13.7985 7.66596 13.896 7.66048 13.9756C7.65859 14.003 7.65485 14.0257 7.65211 14.0262C7.52013 14.0504 7.13973 14.2444 6.93966 14.3897C6.83907 14.4627 6.83818 14.4629 6.73764 14.435C6.54052 14.3804 6.30779 14.3898 5.85087 14.471C5.35456 14.5592 5.22662 14.6059 4.89577 14.8197C4.55524 15.0398 4.31903 15.2446 4.22337 15.4027C4.08604 15.6297 3.66685 16.1502 3.50445 16.2954C3.42253 16.3687 3.31411 16.4813 3.26353 16.5456L3.17157 16.6627L3.25951 16.5892C3.47494 16.4092 3.53826 16.3618 3.55172 16.3704C3.58144 16.3896 3.5335 16.5851 3.45249 16.7753C3.3884 16.9258 3.32904 17.0133 3.20109 17.146C3.10893 17.2415 3.02674 17.3405 3.0184 17.366C3.00414 17.4096 3.00869 17.4086 3.09166 17.3499C3.14028 17.3154 3.18742 17.2859 3.19636 17.2843C3.20531 17.2827 3.13073 17.398 3.03061 17.5406C2.7943 17.8772 2.77241 17.9295 2.80639 18.0764C2.82129 18.1409 2.83252 18.1663 2.8313 18.1329C2.82622 17.9916 2.83549 17.955 2.9031 17.8488C2.96459 17.7523 3.06789 17.6499 3.1118 17.6418C3.15052 17.6347 3.12764 17.7006 3.06411 17.779C3.01834 17.8355 2.99258 17.899 2.99287 17.9546C2.99321 18.02 2.9529 18.0986 2.83054 18.2713C2.68053 18.4828 2.67485 18.4957 2.7584 18.4347C2.8083 18.3982 2.87947 18.3366 2.91661 18.2978C3.01438 18.1955 3.03237 18.2051 2.95458 18.3181C2.91752 18.3719 2.89832 18.4139 2.9119 18.4114C2.92549 18.4089 2.94809 18.391 2.96213 18.3717C2.9827 18.3433 2.98694 18.3496 2.98395 18.4043C2.97899 18.4957 3.0031 18.4857 3.0364 18.3825C3.05665 18.3198 3.06805 18.308 3.08077 18.3365C3.09019 18.3576 3.08959 18.4002 3.07943 18.4313C3.06681 18.47 3.06857 18.4811 3.08501 18.4668C3.11085 18.4442 3.12621 18.4757 3.10433 18.5064C3.09704 18.5166 3.09647 18.5565 3.10303 18.595C3.11056 18.6393 3.12195 18.6552 3.13396 18.6383C3.18743 18.5633 3.18993 18.6224 3.13988 18.7775L3.0838 18.9511L3.16884 18.8394C3.21561 18.7779 3.26362 18.7104 3.2755 18.6894C3.28741 18.6683 3.30929 18.6555 3.32413 18.6609C3.33898 18.6662 3.38353 18.6427 3.42314 18.6085C3.46278 18.5744 3.50066 18.55 3.50734 18.5543C3.51403 18.5586 3.45522 18.6469 3.37666 18.7505C3.25095 18.9163 3.24119 18.9376 3.29531 18.9277C3.32915 18.9215 3.43576 18.8757 3.53225 18.8259C3.62875 18.7761 3.70932 18.7434 3.71131 18.7532C3.7133 18.763 3.67711 18.8078 3.63087 18.8527C3.58462 18.8976 3.53072 18.9599 3.51111 18.9911C3.47598 19.047 3.47633 19.0474 3.5338 19.0188C3.59179 18.99 3.5918 18.9904 3.53343 19.0804C3.47824 19.1655 3.48299 19.1629 3.6115 19.0385C3.68675 18.9656 3.7929 18.8614 3.84737 18.807C3.90184 18.7526 3.96596 18.6925 3.98987 18.6735C4.03259 18.6395 4.03278 18.6401 4.00154 18.7155C3.98406 18.7577 4.01427 18.7236 4.06866 18.6397C4.16362 18.4933 4.19407 18.4286 4.35491 18.0319C4.44511 17.8093 4.59481 17.5128 4.61152 17.5235C4.61841 17.528 4.62317 17.5961 4.62208 17.6748C4.62101 17.7536 4.625 17.8557 4.63095 17.9016C4.6369 17.9476 4.63819 18.0078 4.63383 18.0355L4.62589 18.0858L4.65734 18.0312C4.76834 17.8384 4.83222 17.5385 4.81563 17.2878C4.81103 17.2183 4.83534 17.0434 4.86965 16.8992C4.93616 16.6197 4.97491 16.5279 4.97309 16.654C4.97218 16.7172 4.97594 16.7131 4.99987 16.6247C5.01519 16.5681 5.04299 16.4585 5.06167 16.3811C5.09355 16.2489 5.24845 15.8719 5.33292 15.7208L5.37099 15.6528L5.35003 15.7544C5.3385 15.8102 5.3187 15.8896 5.30601 15.9307L5.28299 16.0054L5.34377 15.9441C5.42503 15.8622 5.52772 15.7051 5.63116 15.5046C5.71963 15.333 5.76403 15.2999 5.95141 15.2657L6.03552 15.2503L5.94372 15.4198C5.68709 15.8938 5.66128 16.1421 5.76819 17.1073C5.82191 17.5926 5.80069 17.9339 5.69151 18.3393C5.62505 18.586 5.55269 18.6947 5.29115 18.9409C5.03107 19.1856 4.96512 19.3026 4.90274 19.6299C4.84608 19.9272 4.79119 20.0801 4.65468 20.3211C4.45695 20.6701 4.2696 20.8423 3.95253 20.9667C3.77313 21.037 3.74208 21.0849 3.72563 21.3169C3.7136 21.4861 3.77342 21.8567 3.83029 21.9652C3.87605 22.0525 4.00997 22.0735 4.27166 22.0344C4.59876 21.9855 4.72771 21.93 4.81033 21.8028C4.92935 21.6195 5.02374 21.4857 5.11231 21.3747C5.17198 21.2998 5.22397 21.1789 5.28341 20.9769C5.42171 20.5065 5.52762 20.2957 5.8335 19.8821C6.15475 19.4476 6.73969 18.7596 7.07622 18.4204C7.55836 17.9344 7.79973 17.6796 7.89105 17.5602L7.985 17.4374L8.08959 17.4526C8.14715 17.461 8.23553 17.4608 8.28593 17.4522C8.40174 17.4324 8.42554 17.4575 8.40869 17.5817C8.39847 17.6568 8.33411 17.761 8.14405 18.0103C7.75849 18.516 7.64494 18.7526 7.68734 18.9617C7.72995 19.1716 7.98611 19.3021 8.4871 19.369C8.71182 19.399 8.76423 19.4147 9.18807 19.5791C9.80029 19.8165 9.93038 19.9283 9.91721 20.2061L9.91089 20.339L10.013 20.3965C10.0691 20.4282 10.1863 20.4905 10.2734 20.5351C10.3605 20.5796 10.4763 20.6535 10.5306 20.6992C10.585 20.7449 10.652 20.7838 10.6795 20.7855C10.7527 20.7901 10.8711 20.6935 10.9044 20.6022C10.9436 20.4941 10.9097 20.0937 10.8414 19.8607C10.8109 19.7567 10.7665 19.5917 10.7427 19.494C10.7103 19.3613 10.6816 19.298 10.6294 19.244C10.5503 19.1624 10.4922 19.1447 10.2128 19.1169C9.9892 19.0948 9.66547 19.0279 9.50163 18.9699C9.33779 18.912 9.1481 18.8114 9.14151 18.779C9.13188 18.7314 9.45518 18.3083 9.67532 18.0804C9.80561 17.9457 9.93285 17.7808 10.0166 17.6385C10.1683 17.3805 10.2321 17.3284 10.4048 17.3216L10.5237 17.317L10.4826 17.1937C10.4599 17.1259 10.3967 16.9963 10.3422 16.9057C10.1421 16.5736 10.0599 16.3401 9.94681 15.783C9.88356 15.4714 9.8488 15.348 9.80272 15.2718C9.7618 15.2041 9.73868 15.1305 9.73188 15.0466L9.72182 14.9219L9.49726 14.7962C9.26048 14.6638 8.75712 14.3492 8.93022 14.4418C9.24363 14.6095 9.24316 14.6102 8.96377 14.389C8.88325 14.3253 8.77165 14.217 8.71583 14.1483C8.66 14.0796 8.57295 13.9929 8.52239 13.9556C8.47183 13.9183 8.43992 13.8796 8.4515 13.8694C8.50011 13.8269 9.03992 13.6748 9.33095 13.6216L9.64536 13.5641L9.70065 13.67C9.79245 13.846 9.90246 13.9823 10.1175 14.1866C10.3168 14.3759 10.4727 14.5677 10.4878 14.6424C10.4952 14.6788 10.483 14.6848 10.3339 14.718C10.2643 14.7334 10.2255 14.7085 9.86402 14.4159C9.6473 14.2405 9.44397 14.0798 9.41216 14.0587C9.38029 14.0377 9.52333 14.1984 9.72999 14.416L10.1057 14.8115L9.89599 14.9568L10.1448 14.9157C10.3153 14.8876 10.3713 14.8846 10.3228 14.9062C10.2555 14.9363 10.2571 14.937 10.3549 14.9219C10.4115 14.9132 10.4953 14.9063 10.5412 14.9066L10.6247 14.9072L10.6541 15.1079C10.6743 15.2465 10.6738 15.3172 10.6524 15.3363C10.6353 15.3516 10.4877 15.3895 10.3243 15.4207C10.0546 15.4722 10.0348 15.479 10.1089 15.495C10.1538 15.5047 10.2826 15.5139 10.3951 15.5153C10.5076 15.5168 10.6056 15.5218 10.6129 15.5265C10.6201 15.5311 10.577 15.5449 10.517 15.5571C10.4155 15.5777 10.4133 15.5796 10.4861 15.5846C10.5292 15.5876 10.5946 15.5909 10.6314 15.592C10.696 15.5939 10.6987 15.5985 10.7018 15.71C10.7036 15.7738 10.7291 15.981 10.7585 16.1704C10.7879 16.3599 10.8095 16.5319 10.8066 16.5526C10.8028 16.5788 10.7244 16.5378 10.5474 16.4167L10.2937 16.2432L10.4798 16.4657C10.5821 16.5881 10.7209 16.7541 10.7883 16.8345C10.8595 16.9195 10.9176 17.0145 10.9271 17.0614C10.9361 17.1057 10.988 17.217 11.0424 17.3086C11.1328 17.4605 11.1388 17.4793 11.1109 17.523C11.0941 17.5494 11.0846 17.6268 11.0898 17.6951C11.0998 17.8269 11.0974 17.8297 10.9265 17.8825C10.8866 17.8948 10.9214 17.8954 11.0039 17.8838L11.1539 17.8627L11.0469 17.9052C10.9879 17.9286 10.8809 17.9544 10.809 17.9625C10.6614 17.9791 10.6615 18.0057 10.8091 18.02C10.8659 18.0254 10.922 18.0491 10.9415 18.0758C10.9736 18.1201 10.9905 18.1193 11.3096 18.0597C11.6499 17.9961 11.751 17.9546 11.7368 17.8844C11.7321 17.8612 11.7564 17.8448 11.8102 17.8346C11.9166 17.8144 12.0697 17.7095 12.1063 17.6316C12.1483 17.5424 12.1099 17.3783 12.0367 17.3348C11.9793 17.3006 11.9841 17.2981 12.2984 17.1987C12.6574 17.0852 13.2773 16.9407 13.3815 16.9462C13.4703 16.9509 13.4821 17.0082 13.4714 17.3819C13.4595 17.8002 13.4255 18.1069 13.3835 18.1739C13.3632 18.2063 13.3309 18.3532 13.3118 18.5004C13.246 19.0051 13.1847 19.1562 12.9658 19.3523C12.6304 19.6527 12.0751 20.091 11.8624 20.2232C11.5359 20.4262 11.4805 20.4834 11.4576 20.6411C11.4301 20.8312 11.4879 21.1055 11.5755 21.2011C11.6637 21.2973 11.8824 21.3811 12.0512 21.3835C12.2999 21.3869 12.3991 21.3113 12.5828 20.978C12.6201 20.9104 12.6946 20.8379 12.8022 20.7643C12.9249 20.6805 13.0065 20.5964 13.1318 20.4243C13.2233 20.2985 13.4388 20.0324 13.6104 19.8331C13.7821 19.6337 13.9577 19.4244 14.0007 19.3679C14.1201 19.2108 14.2144 18.9824 14.261 18.7374C14.3746 18.1404 14.4982 17.7379 14.6511 17.4667C14.7379 17.3127 14.8218 17.0456 14.8227 16.9201C14.8234 16.8284 14.8345 16.8259 15.1391 16.8487C15.2683 16.8584 15.534 16.8754 15.7296 16.8864C16.3496 16.9216 16.7318 17.0043 17.0046 17.1626C17.1271 17.2337 17.1488 17.2601 17.2779 17.4952C17.7808 18.4106 17.7962 18.4455 17.7446 18.5551C17.7037 18.6421 17.744 18.8422 17.8223 18.9402C17.9479 19.0976 18.2656 19.2533 18.4465 19.2461C18.6156 19.2394 18.794 19.1417 18.8271 19.0375C18.8678 18.9093 18.786 18.4737 18.6886 18.3001C18.6476 18.227 18.5899 18.0857 18.5604 17.9862C18.4975 17.7742 18.4112 17.6203 18.3124 17.5441C18.2111 17.4661 17.7902 16.9778 17.553 16.6632C17.4348 16.5065 17.3062 16.3642 17.2441 16.3216C17.1195 16.2361 16.7996 16.1103 16.377 15.9805C15.8002 15.8033 15.6636 15.7594 15.6383 15.7433C15.6241 15.7342 15.6337 15.6178 15.66 15.4797C15.7374 15.0737 15.7349 15.0197 15.6009 14.2466C15.508 13.7103 15.4759 13.4616 15.4698 13.2322C15.4634 12.9913 15.3887 11.9319 15.3725 11.8517C15.3589 11.785 15.6623 11.8501 15.8684 11.9579C15.9506 12.001 16.1247 12.0551 16.28 12.086C16.5141 12.1325 16.5763 12.1568 16.7561 12.2719C16.9998 12.4278 17.1441 12.4674 17.3339 12.4305C17.707 12.3579 17.8212 12.0333 17.6779 11.4528C17.6033 11.1508 17.5727 11.1116 17.1763 10.8107C17.0052 10.6807 16.7936 10.4958 16.7059 10.3996C16.4309 10.0979 16.1881 9.86985 15.9803 9.71805C15.8699 9.63745 15.7354 9.5127 15.6813 9.4409C15.6272 9.36905 15.5417 9.27991 15.4913 9.24275L15.3998 9.17525L15.4088 9.0407C15.418 8.90255 15.3794 8.66105 15.3337 8.5718C15.2984 8.5026 15.2588 8.5166 15.1914 8.6222L15.1341 8.712L15.2533 8.5682L15.2336 8.63291C15.2227 8.66846 15.1813 8.7695 15.1415 8.8574C15.1016 8.94535 15.0669 9.02225 15.0641 9.02835C15.0613 9.03445 15.0528 9.03541 15.0451 9.03045C15.0374 9.02545 15.049 8.9638 15.0709 8.89335L15.1106 8.76535L15.0631 8.8473C15.037 8.8924 15.0095 8.9249 15.0019 8.9196C14.9943 8.91425 14.9653 8.83335 14.9375 8.73975C14.8816 8.5521 14.8673 8.5288 14.814 8.53855C14.7675 8.54705 14.655 8.81185 14.6062 9.02775C14.563 9.2191 14.5762 9.21005 14.223 9.2901C14.0725 9.32415 13.9441 9.36725 13.8919 9.40105C13.8155 9.4507 13.7819 9.48945 13.8294 9.47315C13.9258 9.44005 13.8932 9.4783 13.7651 9.5486C13.678 9.5964 13.602 9.64211 13.5963 9.65016C13.5905 9.65826 13.667 9.6446 13.7661 9.6199L13.9465 9.575L13.8555 9.63326C13.8054 9.66531 13.668 9.78041 13.5501 9.889C13.4321 9.99761 13.2927 10.1056 13.2403 10.129C13.1649 10.1626 13.1556 10.173 13.1958 10.1787C13.2359 10.1843 13.22 10.2017 13.121 10.2607L12.9952 10.3356L13.1349 10.2953C13.2117 10.2731 13.2758 10.2615 13.2775 10.2696C13.2792 10.2777 13.2229 10.3281 13.1524 10.3816C13.0819 10.4351 13.0095 10.4917 12.9915 10.5073C12.9734 10.523 12.8899 10.5816 12.8058 10.6375C12.6587 10.7354 12.5954 10.8008 12.7167 10.7296C12.749 10.7106 12.8102 10.6843 12.8526 10.671C12.9692 10.6346 13.0687 10.5885 13.0968 10.5575C13.1107 10.5423 13.143 10.5302 13.1685 10.5307C13.2047 10.5314 13.1986 10.5441 13.1403 10.5887C13.0993 10.6201 13.0223 10.6683 12.9693 10.696C12.688 10.8423 12.5438 10.9382 12.3429 11.1125C12.2484 11.1944 12.259 11.1929 12.4363 11.0993C12.5841 11.0212 12.9541 10.8575 12.9969 10.8512C13.061 10.8418 12.8289 10.9884 12.6961 11.0413C12.4918 11.1225 12.4357 11.1701 12.5689 11.1492L12.6686 11.1335L12.5436 11.2033C12.4749 11.2416 12.4145 11.2789 12.4093 11.2861C12.4042 11.2934 12.4949 11.2752 12.611 11.2458C12.727 11.2164 12.823 11.1978 12.8243 11.2045C12.8257 11.2112 12.7497 11.2621 12.6555 11.3176C12.5613 11.3731 12.4972 11.4232 12.513 11.4289C12.5289 11.4347 12.4865 11.4841 12.4186 11.5389C12.3508 11.5936 12.2964 11.644 12.2979 11.6508C12.2992 11.6576 12.3199 11.6481 12.3438 11.6297C12.3677 11.6113 12.4562 11.5772 12.5405 11.554L12.6938 11.5118L12.5569 11.6095C12.4816 11.6633 12.3619 11.726 12.2909 11.7489C12.2198 11.7718 12.1249 11.8116 12.0799 11.8374L11.9981 11.8843L12.1271 11.8625C12.1981 11.8504 12.2666 11.8514 12.2794 11.8646C12.2922 11.8778 12.2905 11.8842 12.2756 11.8788C12.2483 11.8689 12.0124 12.0181 12.0173 12.0422C12.0187 12.0494 12.079 12.0374 12.1513 12.0157C12.2954 11.9722 12.4246 11.9688 12.4086 12.0089C12.4029 12.023 12.3607 12.0414 12.3147 12.0498C12.2199 12.0671 11.9358 12.1769 11.8496 12.2295C11.8057 12.2562 11.8526 12.2537 12.0509 12.2186C12.1931 12.1935 12.3054 12.1786 12.3005 12.1856C12.2955 12.1925 12.1814 12.224 12.0469 12.2556C11.9124 12.2872 11.7652 12.3301 11.7199 12.3508C11.642 12.3865 11.6456 12.3873 11.7873 12.3659L11.9369 12.3434L11.7725 12.4069C11.6164 12.4672 11.604 12.4686 11.5262 12.4349L11.4442 12.3993L11.5264 12.2933C11.6598 12.1213 11.6744 11.9341 11.5689 11.7481C11.3875 11.4282 11.2691 11.4111 10.9204 11.6545L10.7513 11.7726L10.4739 11.7485C10.3214 11.7352 10.1487 11.7065 10.0902 11.6848C10.0316 11.663 9.97393 11.647 9.96192 11.6492C9.9398 11.6533 9.87861 11.2985 9.86002 11.058C9.85112 10.9431 9.85907 10.9176 9.92311 10.8571C9.97609 10.8069 10.032 10.7812 10.1252 10.7642C10.2215 10.7466 10.2903 10.7139 10.3973 10.635C10.5637 10.5123 10.6287 10.3933 10.6017 10.2605C10.584 10.173 10.5851 10.1715 10.7084 10.1211C10.777 10.093 10.9238 10.0326 11.0348 9.9868C11.1456 9.941 11.4342 9.82331 11.6759 9.7253C11.9176 9.62725 12.3612 9.44721 12.6617 9.3252C12.9622 9.20315 13.4861 8.99105 13.8259 8.8538C15.1078 8.33605 15.9472 7.98945 16.6965 7.6686C17.6794 7.2477 18.8283 6.7723 18.9193 6.74885C18.9827 6.7325 19.1837 6.6582 19.3661 6.58375C19.7419 6.43035 19.7731 6.42155 19.7822 6.46645C19.7867 6.4887 19.9389 6.4087 20.2706 6.2096C20.5357 6.05055 20.759 5.9109 20.7669 5.8992C20.7748 5.8875 20.6932 5.90045 20.5857 5.9279C20.4781 5.95535 20.2193 6.00945 20.0106 6.04815C19.6447 6.116 19.6319 6.1201 19.6559 6.16205C19.6748 6.1951 19.6677 6.21105 19.6261 6.2286C19.5381 6.26585 18.7733 6.57765 17.9922 6.89475C17.5937 7.0565 16.8564 7.35735 16.3538 7.5632C15.8511 7.7691 15.0499 8.09725 14.5733 8.2924C14.0968 8.4876 13.3975 8.7746 13.0194 8.9302C12.6413 9.08575 12.2887 9.22645 12.236 9.24275C12.1832 9.2591 12.0487 9.31061 11.9371 9.35715C11.7184 9.44831 11.2647 9.63256 10.6766 9.86905C10.474 9.95055 10.2803 10.0298 10.2463 10.0451C10.19 10.0705 10.1844 10.0675 10.1843 10.0116C10.1842 9.95735 10.1722 9.94945 10.0798 9.94305C9.91679 9.9317 9.76401 10.0049 9.62945 10.1587L9.5168 10.2875L9.38904 10.0856C9.31878 9.97451 9.25269 9.8684 9.24216 9.84975C9.2283 9.8253 9.2559 9.79726 9.34101 9.74931C9.45576 9.68466 9.76596 9.41736 9.78681 9.36516C9.79255 9.35091 9.75832 9.26085 9.71076 9.16505C9.66321 9.0693 9.60996 8.9201 9.59237 8.83356C9.55704 8.65921 9.42822 8.38066 9.32494 8.25525C9.23905 8.15096 9.06678 8.04065 8.94055 8.00925C8.81473 7.9779 8.48337 8.02485 8.32448 8.0965ZM8.4001 8.21575L8.55241 8.1904C8.82621 8.14485 8.85686 8.15195 8.96551 8.28565C9.0829 8.4302 9.22773 8.6835 9.24684 8.7777C9.26264 8.85575 9.22946 8.8825 9.03729 8.94625C8.93486 8.98026 8.92427 8.98915 8.96467 9.00731C9.00838 9.02691 9.01096 9.03875 8.99869 9.16155L8.98542 9.29455L8.92906 9.2462C8.85375 9.1816 8.80357 9.05696 8.83264 9.00665C8.84517 8.98491 8.84765 8.96206 8.83806 8.9559C8.8092 8.93731 8.75016 9.1174 8.76449 9.1804C8.77629 9.23245 8.78013 9.2339 8.7984 9.19345C8.81594 9.1547 8.83469 9.17325 8.92311 9.31675C8.98036 9.4097 9.02549 9.488 9.02344 9.4908C9.02139 9.49366 8.91311 9.4837 8.78282 9.4687C8.22831 9.405 8.09623 9.41146 8.3141 9.4917C8.38151 9.51651 8.41279 9.53335 8.38367 9.52905C8.13004 9.49191 7.95782 9.465 7.9495 9.4612C7.94403 9.45865 7.95014 9.38655 7.96309 9.30095C7.97605 9.2153 7.98279 9.0127 7.9781 8.85065C7.96609 8.4389 7.96288 8.4473 8.14441 8.41415C8.30683 8.38445 8.62535 8.3993 8.73378 8.44165C8.77107 8.4562 8.8132 8.46185 8.82758 8.4542C8.86913 8.432 8.34533 8.3072 8.22568 8.3108L8.11724 8.31405L8.1816 8.2651C8.2794 8.19065 8.41379 8.1298 8.54061 8.10255L8.65495 8.07795L8.4001 8.21575ZM20.1451 6.1007C19.9285 6.17375 19.8269 6.1984 19.7823 6.1887C19.652 6.1605 19.746 6.12195 20.0936 6.061L20.4459 5.99925L20.1451 6.1007ZM18.6871 6.70825C18.6486 6.72745 18.5209 6.7822 18.4033 6.83C18.2857 6.87775 18.0243 6.98655 17.8224 7.0718C17.2688 7.3055 16.6518 7.55905 16.1588 7.7554C15.7817 7.90565 15.5092 8.0179 14.9866 8.2385C14.8863 8.2809 14.2284 8.54486 13.8692 8.6869C13.7514 8.73351 13.5265 8.82275 13.3695 8.8852C13.2125 8.9477 12.9502 9.05205 12.7866 9.1171C12.6231 9.18215 12.3677 9.28506 12.2193 9.34571C12.0708 9.40635 11.7336 9.54021 11.4698 9.64316C11.206 9.74606 10.9633 9.84081 10.9306 9.85365C10.8978 9.8665 10.8754 9.8702 10.8809 9.86195C10.8862 9.85365 11.1629 9.7348 11.4957 9.5978C11.8286 9.4608 12.2498 9.28475 12.432 9.2066C12.8181 9.04095 13.5839 8.72606 14.0931 8.52351C14.2894 8.44546 14.6794 8.28595 14.9597 8.1691C15.2401 8.0523 15.6513 7.884 15.8737 7.7952C16.0961 7.7064 16.3476 7.6056 16.4325 7.57125C16.5174 7.5369 16.7422 7.4473 16.932 7.3721C17.1218 7.29695 17.4644 7.16045 17.6932 7.06875C18.4537 6.7641 18.9009 6.6019 18.6871 6.70825ZM8.1847 8.7954C8.23458 8.8259 8.7717 8.79026 8.72415 8.75965C8.70408 8.74675 8.29651 8.7529 8.21757 8.7673C8.18044 8.77405 8.16769 8.785 8.1847 8.7954ZM9.20729 9.04055C9.20524 9.0758 9.19249 9.1578 9.17896 9.2229L9.15442 9.3412L9.12787 9.0773L9.08416 9.35405L9.0672 9.19835C9.05783 9.1127 9.05335 9.0338 9.05725 9.023C9.06109 9.0122 9.09727 8.99735 9.13762 8.99C9.20424 8.9778 9.21066 8.9825 9.20729 9.04055ZM9.26749 9.18921L9.24511 9.27575L9.23615 9.1582C9.22388 8.9974 9.23847 8.9376 9.26733 9.0304C9.27971 9.07015 9.27976 9.14161 9.26749 9.18921ZM8.13141 9.5529C8.34465 9.5873 8.59307 9.6497 8.6293 9.67795C8.64541 9.6906 8.6718 9.72775 8.68791 9.7605C8.71635 9.81855 8.71477 9.82005 8.62809 9.81745C8.57911 9.81595 8.45445 9.7907 8.35097 9.76135C8.24748 9.73195 8.08111 9.69 7.98121 9.66805C7.84028 9.6371 7.7973 9.61705 7.78951 9.5787C7.78056 9.53446 7.78961 9.52915 7.87572 9.52825C7.92865 9.52765 8.04367 9.53875 8.13141 9.5529ZM7.98979 9.80461C8.14937 9.87261 8.33364 10.0238 8.39352 10.136C8.41337 10.1731 8.42749 10.2064 8.42491 10.21C8.42238 10.2135 8.37509 10.2049 8.31995 10.1908C8.23368 10.1687 7.95293 10.1595 7.86356 10.1759C7.80236 10.1871 7.84728 10.2246 7.92412 10.2266C8.0048 10.2286 8.1995 10.2844 8.18702 10.3019C8.18339 10.307 8.09301 10.3059 7.98616 10.2994C7.7122 10.2827 7.48843 10.3278 7.29078 10.4394C7.20288 10.4891 7.11898 10.5319 7.1044 10.5346C7.08749 10.5377 7.07453 10.499 7.06869 10.4284C7.05773 10.2956 7.13031 10.1317 7.24043 10.0404L7.31742 9.9765L7.24269 10.0726C7.17486 10.1598 7.12994 10.2563 7.13821 10.2972C7.14 10.3058 7.17828 10.2545 7.22326 10.1831C7.30126 10.0593 7.44703 9.93791 7.67159 9.8096C7.8031 9.73446 7.82432 9.73411 7.98979 9.80461ZM8.57005 9.9166C8.62624 9.92815 8.70608 9.93825 8.74748 9.93905C8.81352 9.94035 8.83385 9.9592 8.91369 10.0931C8.96372 10.1769 9.01069 10.278 9.01812 10.3177L9.0316 10.3899L8.9832 10.3255C8.93538 10.2618 8.93512 10.2626 8.9604 10.3974C8.98273 10.5164 8.97936 10.5377 8.93423 10.5637C8.84064 10.6177 8.56147 10.7172 8.54082 10.7039C8.52971 10.6967 8.53645 10.6312 8.55588 10.5584C8.60939 10.3572 8.56126 10.1569 8.41674 9.97875C8.35565 9.90355 8.30488 9.83785 8.30388 9.8328C8.30283 9.82775 8.33933 9.8398 8.38494 9.8596C8.43054 9.87945 8.51386 9.90506 8.57005 9.9166ZM14.7778 8.7834C14.7336 9.0031 14.6365 9.23761 14.6212 9.16175C14.6073 9.0932 14.7519 8.6721 14.7918 8.6648C14.7974 8.66375 14.7911 8.71715 14.7778 8.7834ZM7.8032 10.4067C7.74717 10.4325 7.74864 10.4339 7.83501 10.4367C7.88483 10.4383 7.98737 10.4531 8.06289 10.4695C8.19861 10.4991 8.20077 10.5009 8.24285 10.6228C8.26623 10.6907 8.30446 10.7794 8.32779 10.82C8.3654 10.8853 8.36476 10.9021 8.32237 10.9676C8.29604 11.0082 8.25754 11.0785 8.23684 11.1238C8.19524 11.2148 8.13999 11.4907 8.16074 11.5041C8.16796 11.5087 8.20756 11.4411 8.24874 11.3537C8.32627 11.1894 8.46056 11.0197 8.52197 11.0084C8.57627 10.9985 8.67812 11.147 8.72309 11.3015C8.75764 11.4204 8.75743 11.4541 8.72178 11.5323C8.66232 11.6626 8.49516 11.8218 8.37893 11.8589L8.28092 11.8901L8.3595 11.921C8.44323 11.954 8.41021 11.9752 8.31768 11.9479C8.25343 11.9289 8.16548 11.8124 8.14715 11.7221C8.13936 11.6836 8.09407 11.6305 8.03003 11.5846C7.8961 11.4887 7.74116 11.2977 7.64047 11.1043C7.55126 10.933 7.45909 10.5708 7.48479 10.4922C7.50312 10.4361 7.59402 10.4018 7.76086 10.3881C7.84865 10.3808 7.85429 10.3833 7.8032 10.4067ZM7.44261 10.6988C7.46531 10.8189 7.50286 10.966 7.52603 11.0256C7.55426 11.098 7.55952 11.1355 7.54188 11.1387C7.52745 11.1414 7.5107 11.1195 7.50475 11.0902C7.4988 11.0609 7.46188 10.9993 7.42265 10.9535C7.38347 10.9076 7.33133 10.8136 7.30684 10.7446C7.26587 10.6291 7.26634 10.6138 7.31326 10.5531C7.34133 10.5168 7.37256 10.4856 7.38278 10.4837C7.39294 10.4818 7.41991 10.5786 7.44261 10.6988ZM9.9724 10.0965C9.79371 10.2311 9.78218 10.3206 9.93301 10.4021L10.0088 10.4431L9.94707 10.4553C9.8904 10.4665 9.8894 10.4695 9.93501 10.4909C10.0061 10.5243 10.0018 10.5325 9.88445 10.5882C9.76906 10.6429 9.7362 10.6378 9.57205 10.5396C9.48541 10.4877 9.47867 10.5101 9.55061 10.6115L9.59596 10.6753L9.40442 10.8154C9.24058 10.9352 9.20798 10.9511 9.17864 10.9255C9.15068 10.901 9.14204 10.9132 9.13135 10.9915C9.12345 11.0499 9.09343 11.1084 9.05488 11.1408C8.98405 11.2003 8.98347 11.1997 8.95766 11.0387C8.95139 10.9995 8.93186 10.9536 8.91427 10.9367C8.89083 10.9141 8.88867 10.938 8.90626 11.0261C8.9356 11.1731 8.91943 11.2953 8.86513 11.3371C8.80499 11.3835 8.80572 11.3843 8.75791 11.2279C8.73357 11.1484 8.69408 11.0242 8.67011 10.952C8.62819 10.8253 8.62877 10.8197 8.68623 10.7943C8.71904 10.7797 8.76886 10.7747 8.79698 10.783C8.83084 10.793 8.86134 10.7875 8.8873 10.7666C8.91474 10.7447 8.96145 10.7398 9.04277 10.7506C9.15484 10.7654 9.16311 10.7629 9.27228 10.6814C9.33453 10.6349 9.46472 10.4973 9.56151 10.3756C9.76375 10.1214 9.83895 10.0599 9.97756 10.0354L10.0769 10.0178L9.9724 10.0965ZM7.8585 10.6655C7.89057 10.8357 8.06173 11.1659 8.11308 11.1565C8.16301 11.1474 8.0246 10.8065 7.90822 10.6518L7.83849 10.5592L7.8585 10.6655ZM13.8636 9.8351C13.7045 9.99621 13.5538 10.3323 13.2658 11.1673C13.1514 11.4991 13.045 11.7542 12.9596 11.9013C12.8878 12.0254 12.8234 12.1278 12.8167 12.129C12.81 12.1303 12.8754 11.9726 12.962 11.7787C13.1217 11.4213 13.171 11.2944 13.2633 11.0029C13.3454 10.7435 13.5496 10.2329 13.6226 10.1043C13.6947 9.97755 13.8811 9.75981 13.9242 9.75191C13.9387 9.74926 13.9114 9.78671 13.8636 9.8351ZM15.8258 9.79975C16.0755 9.9676 16.2665 10.1311 16.3961 10.2877C16.4533 10.3569 16.569 10.4842 16.6532 10.5706C16.865 10.788 16.8742 10.8004 16.7653 10.723C16.679 10.6616 16.1994 10.214 16.1632 10.1611C16.1424 10.1307 16.0102 10.0156 15.8614 9.8986C15.7048 9.7754 15.5671 9.64365 15.5616 9.6118C15.5594 9.59851 15.5745 9.60631 15.5954 9.629C15.6162 9.65175 15.7198 9.72855 15.8258 9.79975ZM9.7984 10.8633C9.74389 10.908 9.61866 11.0036 9.52012 11.0756C9.35633 11.1954 9.1432 11.3647 8.96103 11.5198C8.9218 11.5532 8.88862 11.575 8.8873 11.5682C8.88193 11.5419 9.29324 11.1745 9.48483 11.0345C9.7826 10.8168 9.99947 10.6984 9.7984 10.8633ZM7.4276 11.28C7.36661 11.3171 7.13758 11.3924 7.15311 11.3702C7.16696 11.3504 7.34976 11.2775 7.42396 11.2623L7.47336 11.2521L7.4276 11.28ZM7.77202 11.4446C7.8091 11.4948 7.88488 11.5745 7.94039 11.6217C7.99595 11.6689 8.04625 11.7313 8.05225 11.7604C8.07458 11.869 8.15795 11.9907 8.24616 12.0434C8.32279 12.0892 8.35186 12.0932 8.42865 12.0688C8.47947 12.0526 8.56742 11.992 8.62688 11.9323C8.6857 11.8732 8.74769 11.8224 8.76475 11.8195C8.78181 11.8165 8.85913 11.8291 8.9366 11.8476C9.0454 11.8735 9.08411 11.8956 9.10639 11.9446C9.12224 11.9795 9.14009 12.0181 9.14604 12.0304C9.15199 12.0426 9.27454 12.0671 9.41837 12.0848C9.58453 12.1052 9.64288 12.1194 9.57847 12.1237C9.43886 12.1331 8.61476 12.2176 8.36945 12.2477C8.12719 12.2774 8.17343 12.3012 8.44992 12.2891C8.55931 12.2843 8.68823 12.2923 8.73642 12.307L8.824 12.3337L8.60328 12.3863C8.3891 12.4373 8.38651 12.4386 8.51718 12.4315C8.92406 12.4094 9.10928 12.421 9.22404 12.4758C9.30899 12.5163 9.34311 12.5479 9.35265 12.5949C9.37071 12.684 9.42459 12.7109 9.5948 12.7158C9.67569 12.7181 9.73831 12.7251 9.73388 12.7313C9.72946 12.7375 9.60164 12.7536 9.44992 12.7671C9.29814 12.7805 8.93855 12.8271 8.65084 12.8706L8.12772 12.9497L8.08496 12.8494C8.02592 12.711 8.04583 12.2927 8.11208 12.2806C8.12446 12.2784 8.1045 12.2492 8.06774 12.2159C7.94371 12.1035 7.78946 11.872 7.69376 11.6547C7.59138 11.4221 7.58564 11.3751 7.65801 11.3619C7.68887 11.3562 7.72737 11.3842 7.77202 11.4446ZM9.82199 11.5027C9.88851 11.8669 9.92184 11.9713 9.92959 11.8395C9.93159 11.8049 9.94259 11.7749 9.95407 11.7728C9.9655 11.7707 10.047 11.7887 10.1352 11.8127C10.2234 11.8367 10.3124 11.8537 10.3329 11.8504C10.3534 11.8472 10.4667 11.8526 10.5845 11.8625L10.7988 11.8804L10.8909 11.8057C10.9726 11.7395 10.9943 11.7321 11.0825 11.7406C11.1501 11.7471 11.203 11.7387 11.2477 11.7142C11.3971 11.6327 11.4308 11.7104 11.3031 11.8417C11.2102 11.9371 11.0886 11.98 11.0257 11.9395C10.9998 11.9229 10.9841 11.926 10.9611 11.9526C10.9363 11.9813 10.9249 11.9785 10.8992 11.9373C10.874 11.8966 10.8705 11.9126 10.8814 12.0186L10.8951 12.1505L10.6902 12.1806C10.5775 12.1972 10.4345 12.2052 10.3724 12.1984L10.2596 12.186L10.5555 12.1236L10.3984 12.1032C10.312 12.092 10.2158 12.0719 10.1844 12.0586C10.1033 12.0241 10.0521 12.0376 10.0857 12.0847C10.1006 12.1055 10.1356 12.2004 10.1634 12.2955C10.2235 12.5008 10.2206 12.4998 10.5733 12.439C10.8783 12.3865 10.96 12.4171 11.1244 12.6452C11.1883 12.7339 11.272 12.8402 11.3103 12.8815C11.3486 12.9227 11.3804 12.9586 11.381 12.9612C11.3815 12.9638 11.331 12.9713 11.2688 12.9779C11.163 12.989 11.1501 12.998 11.0687 13.1159C11.0207 13.1853 10.949 13.2664 10.9092 13.2962C10.8233 13.3606 10.4931 13.4523 10.4622 13.4203C10.4507 13.4085 10.4063 13.2939 10.3634 13.1656C10.2914 12.9498 10.2843 12.9377 10.2679 13.0036C10.2529 13.0633 10.2366 13.0042 10.166 12.6363L10.082 12.1979L9.95344 12.0399C9.88272 11.953 9.81836 11.8502 9.81041 11.8113C9.78713 11.6968 9.73057 11.1295 9.74231 11.1274C9.74821 11.1263 9.78407 11.2952 9.82199 11.5027ZM12.3905 11.4739C12.3726 11.4902 12.3691 11.5015 12.3828 11.499C12.3964 11.4966 12.4222 11.4812 12.4401 11.4649C12.458 11.4486 12.4615 11.4373 12.4478 11.4398C12.4342 11.4423 12.4084 11.4577 12.3905 11.4739ZM12.3792 11.8328C12.3726 11.8422 12.3514 11.8469 12.3321 11.8434C12.3108 11.8395 12.3155 11.8328 12.3442 11.8264C12.3701 11.8206 12.3859 11.8235 12.3792 11.8328ZM17.2926 11.0725C17.4548 11.2138 17.4837 11.269 17.5474 11.5581C17.6086 11.8361 17.602 12.019 17.5265 12.1411C17.4705 12.2316 17.4634 12.2127 17.4765 12.0067C17.4916 11.7696 17.4155 11.5143 17.2773 11.3379C17.1693 11.2002 17.0915 10.981 17.1469 10.9708C17.1602 10.9684 17.2257 11.0142 17.2926 11.0725ZM8.53703 12.9726C8.6886 12.9669 8.85686 12.9691 8.91084 12.9775L9.00911 12.9928L8.66385 13.0651L8.8043 13.0604C9.13203 13.0495 9.39594 13.0554 9.43881 13.0747C9.46603 13.0869 9.494 13.1328 9.50743 13.1873L9.53002 13.2793L9.8667 13.2915L9.70666 13.3263C9.27223 13.4207 8.70039 13.6116 8.41264 13.7583C8.34554 13.7925 8.28061 13.8141 8.26839 13.8062C8.23326 13.7836 8.15627 13.3504 8.15864 13.1884C8.16153 12.9837 8.16395 12.9748 8.21562 12.9791C8.24084 12.9812 8.38551 12.9783 8.53703 12.9726ZM12.0553 12.3566C12.0563 12.3616 12.0349 12.3697 12.0076 12.3747C11.9803 12.3797 11.9561 12.3742 11.9537 12.3624C11.9513 12.3507 11.9728 12.3425 12.0014 12.3443C12.0301 12.3461 12.0543 12.3517 12.0553 12.3566ZM11.5574 12.6904C11.558 12.6932 11.5366 12.7054 11.5099 12.7175C11.4735 12.7341 11.4456 12.7231 11.3982 12.6736C11.304 12.5751 11.3148 12.5638 11.4419 12.6277C11.5048 12.6594 11.5569 12.6876 11.5574 12.6904ZM11.8434 12.5244C11.878 12.5305 11.8867 12.5407 11.8696 12.5556C11.8557 12.5678 11.8101 12.5675 11.7684 12.5549C11.706 12.5361 11.7013 12.5305 11.7421 12.5237C11.7695 12.5191 11.8151 12.5194 11.8434 12.5244ZM15.263 12.4531C15.2964 12.7552 15.3255 13.0955 15.3277 13.2093C15.3342 13.5426 15.3744 13.8893 15.4495 14.2596C15.5346 14.6791 15.5616 15.1008 15.5175 15.3187C15.4995 15.4071 15.481 15.4769 15.4761 15.4738C15.4713 15.4707 15.4771 15.3729 15.4891 15.2566C15.509 15.0639 15.5011 14.9867 15.4005 14.3932C15.2767 13.6625 15.2652 13.5648 15.2582 13.1853C15.2555 13.038 15.2381 12.7278 15.2195 12.4961C15.1809 12.0156 15.1747 11.8861 15.1908 11.8965C15.1971 11.9006 15.2295 12.151 15.263 12.4531ZM11.6077 12.7427C11.6195 12.7549 11.6451 12.7554 11.6648 12.7438C11.6844 12.7322 11.7431 12.7281 11.7953 12.7346L11.8902 12.7464L11.6646 12.9018L11.582 12.8432C11.5365 12.8109 11.4973 12.7741 11.4947 12.7613C11.4884 12.7301 11.5807 12.7148 11.6077 12.7427ZM11.8794 12.9471C11.8015 13.0361 11.8034 13.0358 11.7184 12.9773L11.6483 12.9291L11.9421 12.8756L11.8794 12.9471ZM11.568 13.0847C11.6144 13.1129 11.6759 13.1641 11.7046 13.1984C11.7698 13.2765 11.8147 13.5114 11.7835 13.6119C11.7433 13.7414 11.5936 13.9189 11.413 14.0513C11.2167 14.1952 11.1537 14.2111 11.3166 14.0756C11.4574 13.9585 11.6519 13.6962 11.6895 13.5726C11.7493 13.3766 11.6271 13.1543 11.4173 13.077L11.3061 13.0361L11.3949 13.0347C11.4437 13.034 11.5217 13.0564 11.568 13.0847ZM8.03893 14.1161C8.08738 14.1418 8.17533 14.2196 8.23447 14.2891C8.4138 14.4999 8.54762 14.5822 8.78192 14.6257L8.98815 14.6641L8.85776 14.6759C8.65758 14.6939 8.43228 14.6209 8.22104 14.4694L8.03909 14.339L7.90979 14.5033C7.7064 14.7618 7.3969 15.0585 7.03878 15.3382C6.24475 15.9586 6.16786 16.1243 6.21779 17.1079C6.27156 18.168 6.16202 18.5589 5.68688 19.0016C5.42845 19.2425 5.37063 19.3516 5.28031 19.7691C5.22661 20.0175 5.10192 20.3092 4.97436 20.4848C4.88361 20.6098 4.56723 20.8698 4.48833 20.8842C4.46173 20.8891 4.46293 20.903 4.494 20.9504C4.56606 21.0601 4.6485 21.4191 4.6246 21.519L4.60319 21.6084L4.57102 21.4601C4.54184 21.3256 4.4802 21.1903 4.37057 21.0201C4.33821 20.9698 4.3206 20.963 4.27541 20.9829C4.17782 21.0262 4.21147 20.9903 4.38775 20.8632C4.60725 20.7049 4.73137 20.5673 4.84999 20.3507C4.96644 20.1381 4.99563 20.0427 5.0462 19.7098C5.09959 19.3584 5.15448 19.2555 5.42103 19.0068C5.62468 18.8168 5.7071 18.6951 5.78568 18.4681C5.8544 18.2696 5.9285 17.7593 5.92518 17.5072C5.92413 17.4274 5.90733 17.1954 5.88779 16.9918C5.82565 16.3437 5.83792 16.008 5.93203 15.7808C6.04715 15.5028 6.30163 15.1824 6.77824 14.715C7.12794 14.3721 7.47942 14.1597 7.79809 14.0986C7.92723 14.0739 7.96446 14.0766 8.03893 14.1161ZM5.20987 14.875C4.73931 15.1319 4.3545 15.4938 4.2303 15.7961C4.1985 15.8736 4.15565 16.0617 4.13506 16.2143C4.07885 16.6313 3.95285 16.8727 3.56078 17.3145L3.39346 17.5031L3.58477 17.2368C3.89709 16.8022 4.00833 16.5445 4.06397 16.1268C4.07935 16.0113 4.11439 15.8603 4.14185 15.7913C4.2157 15.6055 4.4677 15.322 4.73011 15.1295C4.85722 15.0362 5.33402 14.7716 5.39533 14.7603C5.41576 14.7565 5.33234 14.8081 5.20987 14.875ZM11.9665 13.8643C11.9363 13.9588 11.7281 14.2406 11.6407 14.3051C11.5133 14.3992 11.2409 14.5467 11.1953 14.5463C11.1689 14.546 11.2035 14.5172 11.2773 14.4781C11.5364 14.3408 11.6493 14.2421 11.8123 14.0103C11.9001 13.8855 11.976 13.7849 11.981 13.7869C11.986 13.7889 11.9794 13.8237 11.9665 13.8643ZM5.11798 15.3048C5.11326 15.3105 5.08406 15.333 5.0531 15.3547C5.00003 15.3918 4.99914 15.3914 5.0375 15.3486C5.07089 15.3113 5.14626 15.2703 5.11798 15.3048ZM8.24785 14.8288C8.45972 14.9259 8.7805 14.985 9.0582 14.978C9.11797 14.9765 9.19602 14.9906 9.23168 15.0093C9.29645 15.0434 9.29645 15.0434 9.13909 15.073C8.84417 15.1284 8.55588 15.0818 8.30646 14.9382C8.19387 14.8734 8.1095 14.7978 8.14299 14.7917C8.15237 14.79 8.19961 14.8066 8.24785 14.8288ZM13.8734 13.9496C14.0233 13.9793 14.3825 14.2412 14.6695 14.5298C14.8945 14.7561 15.0768 15.1002 15.0306 15.2114C15.011 15.2585 14.8421 15.084 14.5846 14.7504C14.3466 14.4421 14.2895 14.3899 14.0937 14.3013C13.9231 14.2242 13.749 14.2036 13.4967 14.2305C13.2588 14.2559 13.1956 14.235 13.2558 14.1506C13.3477 14.0219 13.6849 13.9122 13.8734 13.9496ZM4.32878 16.1854C4.30991 16.3803 4.26257 16.5899 4.2012 16.7503C4.14754 16.8905 3.8688 17.308 3.82328 17.3163C3.81145 17.3184 3.8554 17.2373 3.92093 17.1361C3.9865 17.0348 4.03793 16.941 4.03523 16.9277C4.03253 16.9144 4.04274 16.8839 4.0579 16.8599C4.12079 16.7605 4.21881 16.4305 4.24358 16.2348C4.27579 15.9806 4.28102 15.9646 4.31449 16.0186C4.32896 16.0419 4.3354 16.117 4.32878 16.1854ZM3.73055 16.2833C3.69383 16.3299 3.65254 16.3701 3.63881 16.3726C3.60066 16.3796 3.66436 16.2502 3.70921 16.2297C3.79166 16.1919 3.79532 16.201 3.73055 16.2833ZM9.93259 15.1182C9.91568 15.1606 9.99505 15.1644 10.2468 15.1334C10.3985 15.1147 10.4771 15.0964 10.4739 15.0805C10.4669 15.0463 10.3823 15.0433 10.1474 15.0688C10.0175 15.0829 9.93954 15.1009 9.93259 15.1182ZM2.97819 17.4626C2.97084 17.4729 2.96806 17.4973 2.972 17.5167C2.98067 17.5594 3.00769 17.5275 3.00533 17.4773C3.00347 17.4378 2.99798 17.4349 2.97819 17.4626ZM14.0408 16.191C14.3047 16.373 14.5624 16.4602 14.9794 16.5085C15.1779 16.5316 15.4849 16.5473 15.6616 16.5434C16.0892 16.5342 16.4676 16.5527 16.6453 16.5916C16.8799 16.6429 17.1202 16.7836 17.2626 16.9529C17.4154 17.1347 17.5892 17.4061 17.7222 17.6705C17.8538 17.9322 17.8782 17.9681 18.0697 18.1806C18.1583 18.279 18.2445 18.3911 18.2614 18.4298C18.2932 18.5033 18.4005 18.5768 18.5162 18.6045C18.6592 18.6388 18.4033 18.6598 18.2333 18.6278C18.1429 18.6107 18.0657 18.6013 18.0617 18.6068C18.0578 18.6123 18.1098 18.6486 18.1772 18.6874L18.2997 18.758L18.2769 18.897C18.2644 18.9735 18.2429 19.042 18.2292 19.0493C18.1577 19.0875 17.8418 18.8284 17.8182 18.7123C17.8108 18.676 17.8195 18.5941 17.8375 18.5303C17.8683 18.4209 17.8665 18.4054 17.8054 18.2606C17.7697 18.1761 17.6091 17.8836 17.4486 17.6106C17.1185 17.0489 17.0954 17.0256 16.7428 16.8963C16.4492 16.7887 16.2204 16.7509 15.692 16.7229C14.9581 16.6841 14.7573 16.6633 14.5497 16.6048C14.2272 16.5141 13.8809 16.2536 13.7618 16.0123C13.7353 15.9587 13.7372 15.9589 13.8049 16.0166C13.8437 16.0498 13.9499 16.1283 14.0408 16.191ZM10.5003 16.8529C10.5336 17.0196 10.6987 17.4199 10.7469 17.4509C10.7878 17.4772 10.6912 17.1262 10.6019 16.9243C10.5 16.6938 10.4633 16.668 10.5003 16.8529ZM8.5937 17.7293C8.62298 17.8676 8.58643 17.9499 8.37072 18.2315C8.10702 18.5756 8.04467 18.6952 8.06821 18.8112C8.0986 18.9611 8.28903 19.0472 9.2381 19.3401C9.64146 19.4646 9.88092 19.5762 9.95818 19.6758C10.008 19.7399 10.0388 19.7509 10.2274 19.7716C10.3445 19.7845 10.4904 19.8138 10.5516 19.8367L10.6629 19.8784L10.5736 19.8817C10.4095 19.8876 10.1283 19.9029 10.101 19.9074C10.0836 19.9102 10.0875 19.9588 10.1121 20.0453C10.143 20.1539 10.1757 20.204 10.287 20.3132C10.5656 20.5867 10.5681 20.606 10.3053 20.454C10.1743 20.3783 10.0444 20.3127 10.0168 20.3083C9.97367 20.3015 9.96514 20.2835 9.95745 20.1827C9.94323 19.9965 9.84295 19.8352 9.67569 19.7292C9.54924 19.649 9.18275 19.4884 9.14304 19.4956C9.13409 19.4973 9.0236 19.4617 8.89757 19.4166C8.77155 19.3716 8.55825 19.3167 8.42354 19.2948C8.07637 19.2382 7.93507 19.1952 7.82211 19.1119C7.73442 19.0472 7.7231 19.0282 7.72015 18.9413C7.71525 18.7954 7.83954 18.5649 8.14942 18.1451C8.4149 17.7854 8.47568 17.6648 8.45503 17.5392C8.44129 17.4557 8.57437 17.6382 8.5937 17.7293ZM3.21445 18.5393C3.21054 18.5602 3.20295 18.5781 3.1976 18.5791C3.19224 18.58 3.18463 18.5649 3.18069 18.5455C3.17674 18.5261 3.18433 18.5082 3.19754 18.5058C3.21073 18.5034 3.21834 18.5185 3.21445 18.5393ZM3.45492 18.5137C3.4499 18.518 3.42029 18.5528 3.38918 18.591C3.35807 18.6293 3.33022 18.6489 3.32732 18.6347C3.31949 18.5961 3.3792 18.5214 3.42449 18.5131C3.44623 18.5092 3.45993 18.5094 3.45492 18.5137ZM10.4904 17.3946C10.4788 17.4156 10.4698 17.4622 10.4703 17.4982C10.471 17.5523 10.4983 17.5809 10.6282 17.6634C10.8057 17.776 10.8747 17.7634 10.7025 17.6498C10.6174 17.5936 10.5819 17.5506 10.5513 17.4664C10.5199 17.3801 10.5068 17.3647 10.4904 17.3946ZM13.6256 17.0565C13.749 17.2764 13.8147 17.6248 13.8029 17.9964C13.7771 18.8088 13.6637 19.0877 13.203 19.4719C12.4761 20.0779 11.9693 20.5165 11.8985 20.601C11.8345 20.6772 11.823 20.7079 11.8443 20.7453C11.8815 20.8105 12.0112 20.9244 12.1194 20.9868C12.1832 21.0236 12.1941 21.0365 12.1565 21.031C12.0824 21.0202 11.9522 20.9662 11.8434 20.9013L11.751 20.8462L11.7489 20.9835C11.7478 21.059 11.7424 21.1217 11.7369 21.1227C11.7314 21.1237 11.7017 21.0942 11.671 21.0571C11.604 20.9764 11.5496 20.7427 11.5673 20.612C11.5805 20.5154 11.6095 20.4895 12.0051 20.2211C12.4397 19.9262 13.1653 19.3133 13.2649 19.157C13.3439 19.0331 13.3852 18.8857 13.4352 18.55C13.5044 18.0851 13.5571 17.109 13.5226 16.9295C13.5125 16.8763 13.5515 16.9246 13.6256 17.0565ZM10.9166 17.5839C10.8234 17.717 10.8218 17.7227 10.8841 17.7062C10.92 17.6966 10.9711 17.6651 10.9976 17.6361C11.0299 17.6007 11.0324 17.5908 11.0054 17.6059C10.9506 17.6364 10.9485 17.6044 11.0002 17.5268C11.0237 17.4914 11.0365 17.4584 11.0287 17.4534C11.0209 17.4483 10.9704 17.5071 10.9166 17.5839ZM11.2494 17.7544C11.2773 17.9518 11.2767 17.977 11.2457 17.9017C11.1922 17.772 11.1777 17.685 11.1935 17.5898C11.2011 17.5442 11.2091 17.5089 11.2114 17.5115C11.2137 17.5141 11.2308 17.6234 11.2494 17.7544ZM10.5024 17.7464C10.5092 17.7736 10.5162 17.7781 10.5203 17.7579C10.524 17.7396 10.519 17.7194 10.5092 17.7131C10.4994 17.7068 10.4964 17.7218 10.5024 17.7464ZM11.408 17.5715C11.5178 17.588 11.5226 17.6069 11.4299 17.6579C11.3257 17.7154 11.3165 17.7138 11.3006 17.6351C11.2843 17.555 11.2872 17.5534 11.408 17.5715ZM3.9348 21.4475C3.97598 21.593 3.9873 21.6775 3.97655 21.7597C3.96842 21.8216 3.95768 21.8593 3.95269 21.8434C3.93944 21.8013 3.82573 21.2371 3.81499 21.16C3.80637 21.0984 3.80797 21.0991 3.84207 21.1712C3.86199 21.2134 3.90371 21.3377 3.9348 21.4475Z" fill="#E5D2A5"/>
</svg>
