<svg width="16" height="16" viewBox="0 0 16 16" fill="none" xmlns="http://www.w3.org/2000/svg">
<path d="M14.2668 12.4L10.8668 9L10.4002 9.46667L9.7335 8.8C10.3335 8 10.6668 7.06667 10.6668 6C10.6668 3.4 8.60016 1.33334 6.00016 1.33334C3.40016 1.33334 1.3335 3.4 1.3335 6C1.3335 8.6 3.40016 10.6667 6.00016 10.6667C7.06683 10.6667 8.00016 10.3333 8.80016 9.73334L9.46683 10.4L9.00016 10.8667L12.4002 14.2667C12.9335 14.8 13.7335 14.8 14.2668 14.2667C14.8002 13.7333 14.8002 12.9333 14.2668 12.4ZM6.00016 9.33334C4.1335 9.33334 2.66683 7.86667 2.66683 6C2.66683 4.13334 4.1335 2.66667 6.00016 2.66667C7.86683 2.66667 9.3335 4.13334 9.3335 6C9.3335 7.86667 7.86683 9.33334 6.00016 9.33334Z" fill="white"/>
</svg>
