<svg width="71" height="83" viewBox="0 0 71 83" fill="none" xmlns="http://www.w3.org/2000/svg">
<g clip-path="url(#clip0_987_1319)">
<path fill-rule="evenodd" clip-rule="evenodd" d="M32.7693 1.81796C30.5851 3.95006 26.613 6.81255 23.2323 8.69048C17.3961 11.9322 12.0344 13.3488 4.22635 13.7115C-0.664431 13.9387 -0.35294 13.7057 0.500246 16.495C1.07514 18.3747 1.29914 19.309 2.03288 22.884C2.42783 24.808 2.52246 27.655 2.53362 37.9451C2.54107 44.9241 2.68099 51.2147 2.84449 51.9248C3.0083 52.6349 3.27543 53.9014 3.43831 54.7397C4.3005 59.174 6.6798 63.5367 9.77113 66.3515C12.4678 68.8071 15.3665 70.8015 21.9106 74.7044C25.2129 76.6737 32.7582 81.2782 34.6463 82.4762C34.9448 82.6655 35.247 82.6655 35.5441 82.4762C36.9654 81.5711 44.49 76.939 45.7998 76.1634C58.8051 68.4591 61.9015 65.9215 64.4796 60.8526C65.7773 58.3017 66.2371 56.8231 67.078 52.4986C67.6324 49.647 67.7179 48.0643 67.7087 40.8335C67.7028 36.2322 67.6141 32.1587 67.5117 31.7809C67.2399 30.7797 67.8896 23.4487 68.4722 20.9417C69.0841 18.3088 69.7839 15.866 70.1904 14.9453C70.3871 14.4989 70.388 14.1578 70.1926 13.9771C70.0265 13.8236 68.519 13.7186 66.8425 13.7433C62.7026 13.8047 56.5475 12.8069 53.5091 11.5819C52.9715 11.3651 52.4482 11.1878 52.3466 11.1878C52.2449 11.1878 51.2189 10.779 50.0666 10.2789C46.5406 8.74986 41.3005 5.33139 38.267 2.58163C36.6999 1.16158 35.2407 -0.000286828 35.0241 5.31146e-08C34.8079 0.000286934 33.7931 0.81847 32.7693 1.81796Z" fill="#B23633"/>
<path fill-rule="evenodd" clip-rule="evenodd" d="M27.8324 21.9265C27.2306 22.1903 26.8482 22.55 26.7105 22.9811C26.6727 23.0991 26.648 23.4853 26.6555 23.8391C26.679 24.9513 26.5131 25.6316 26.1567 25.8832C26.0253 25.9759 25.9512 26.0914 25.958 26.1934C25.967 26.3305 25.8809 26.4015 25.4072 26.6481C24.2767 27.2364 23.7183 28.0293 23.8817 28.8131C23.9526 29.1521 24.1136 29.2843 24.336 29.1862C24.4579 29.1322 24.4815 29.1581 24.5342 29.4038C24.567 29.5571 24.7189 29.8795 24.8717 30.1203C25.2482 30.7138 25.2527 30.7678 24.9345 30.8792C23.9714 31.216 23.9033 31.2568 23.9259 31.4817C23.9646 31.866 24.1171 31.8919 24.8012 31.631C25.4552 31.3814 25.4734 31.385 25.5555 31.7787C25.616 32.068 26.2436 33.0842 26.6328 33.5229C26.9452 33.8751 26.9679 33.9225 26.9108 34.1014C26.7955 34.4622 26.8415 35.0618 27.0155 35.4647C27.2033 35.9003 27.1871 35.8033 27.2113 36.6307C27.2229 37.0228 27.2789 37.4276 27.3499 37.6329L27.4691 37.977L26.9707 38.0672C26.3976 38.1708 25.9025 38.4485 25.8864 38.6755C25.8809 38.7534 25.8699 38.8182 25.8619 38.8196C25.4751 38.8884 24.3602 39.4412 23.7739 39.855C23.479 40.0632 23.4764 40.0637 23.1818 39.9842C22.604 39.8286 21.922 39.8555 20.5829 40.0868C19.1283 40.3381 18.7533 40.4711 17.7837 41.0802C16.7857 41.7073 16.0934 42.2907 15.813 42.7411C15.4105 43.3878 14.182 44.8707 13.706 45.2843C13.4659 45.493 13.1482 45.8138 13 45.9971L12.7304 46.3306L12.9882 46.1212C13.6195 45.6084 13.8051 45.4734 13.8446 45.498C13.9317 45.5526 13.7912 46.1095 13.5537 46.6515C13.3659 47.0803 13.1919 47.3296 12.8169 47.7075C12.5468 47.9795 12.306 48.2616 12.2815 48.3344C12.2397 48.4584 12.2531 48.4556 12.4962 48.2884C12.6387 48.1902 12.7769 48.1062 12.8031 48.1015C12.8293 48.0969 12.6107 48.4255 12.3173 48.8318C11.6247 49.7907 11.5606 49.9397 11.6602 50.3581C11.7039 50.5419 11.7367 50.6142 11.7332 50.5192C11.7183 50.1167 11.7455 50.0122 11.9436 49.7098C12.1238 49.4349 12.4266 49.143 12.5552 49.1201C12.6687 49.0999 12.6017 49.2875 12.4155 49.511C12.2814 49.6719 12.2059 49.8528 12.2067 50.0111C12.2077 50.1974 12.0896 50.4215 11.731 50.9133C11.2913 51.516 11.2747 51.5526 11.5195 51.3789C11.6658 51.275 11.8743 51.0995 11.9832 50.9888C12.2698 50.6974 12.3225 50.7248 12.0945 51.0467C11.9859 51.1999 11.9296 51.3196 11.9694 51.3125C12.0092 51.3055 12.0755 51.2545 12.1166 51.1994C12.1769 51.1185 12.1893 51.1366 12.1806 51.2924C12.166 51.5526 12.2367 51.5242 12.3343 51.2303C12.3936 51.0517 12.427 51.018 12.4643 51.0991C12.4919 51.1592 12.4902 51.2807 12.4604 51.3692C12.4234 51.4794 12.4286 51.5112 12.4767 51.4703C12.5525 51.4059 12.5975 51.4957 12.5334 51.5831C12.512 51.6122 12.5103 51.7259 12.5295 51.8357C12.5516 51.9617 12.585 52.0072 12.6202 51.959C12.7769 51.7452 12.7843 51.9137 12.6376 52.3555L12.4732 52.8502L12.7224 52.5318C12.8595 52.3566 13.0002 52.1643 13.035 52.1045C13.0699 52.0445 13.1341 52.008 13.1775 52.0233C13.2211 52.0385 13.3517 51.9714 13.4677 51.8741C13.5839 51.7768 13.6949 51.7073 13.7145 51.7196C13.7341 51.7318 13.5617 51.9834 13.3315 52.2787C12.9631 52.751 12.9345 52.8117 13.0931 52.7835C13.1923 52.7658 13.5047 52.6354 13.7875 52.4933C14.0703 52.3515 14.3064 52.2583 14.3123 52.2862C14.3181 52.3143 14.2121 52.4418 14.0765 52.5697C13.941 52.6978 13.783 52.8751 13.7255 52.9641C13.6226 53.1232 13.6236 53.1245 13.7921 53.043C13.962 52.9609 13.962 52.962 13.791 53.2184C13.6292 53.4608 13.6431 53.4534 14.0198 53.099C14.2403 52.8913 14.5514 52.5946 14.7111 52.4396C14.8707 52.2847 15.0586 52.1134 15.1287 52.0592C15.2539 51.9623 15.2544 51.9642 15.1629 52.179C15.1117 52.2991 15.2002 52.2019 15.3596 51.963C15.6379 51.5459 15.7272 51.3616 16.1985 50.2313C16.4629 49.5973 16.9016 48.7525 16.9506 48.7831C16.9708 48.7958 16.9847 48.9898 16.9815 49.2141C16.9784 49.4386 16.9901 49.7293 17.0075 49.8603C17.025 49.9912 17.0288 50.1628 17.016 50.2416L16.9927 50.3849L17.0849 50.2293C17.4102 49.6802 17.5974 48.8257 17.5488 48.1116C17.5353 47.9135 17.6066 47.4153 17.7071 47.0045C17.902 46.2082 18.0156 45.9466 18.0103 46.306C18.0076 46.486 18.0186 46.4742 18.0888 46.2223C18.1337 46.0612 18.2152 45.749 18.2699 45.5285C18.3633 45.1519 18.8173 44.0778 19.0649 43.6474L19.1764 43.4535L19.115 43.7429C19.0812 43.9021 19.0232 44.1281 18.986 44.2452L18.9185 44.4582L19.0966 44.2835C19.3348 44.0501 19.6358 43.6025 19.9389 43.0314C20.1982 42.5426 20.3283 42.4483 20.8775 42.3507L21.124 42.3068L20.855 42.7897C20.1028 44.1402 20.0272 44.8475 20.3405 47.5972C20.498 48.9799 20.4358 49.9523 20.1158 51.1072C19.921 51.81 19.7089 52.1197 18.9425 52.821C18.1802 53.5182 17.9869 53.8516 17.8041 54.784C17.638 55.6308 17.4772 56.0664 17.0771 56.753C16.4976 57.7473 15.9485 58.238 15.0193 58.5923C14.4935 58.7927 14.4025 58.9292 14.3542 59.59C14.319 60.0721 14.4943 61.1278 14.661 61.4369C14.7951 61.6856 15.1876 61.7454 15.9545 61.6341C16.9132 61.4947 17.2911 61.3368 17.5333 60.9744C17.8821 60.4522 18.1587 60.071 18.4183 59.7546C18.5932 59.5414 18.7455 59.197 18.9198 58.6213C19.3251 57.2812 19.6355 56.6808 20.5319 55.5024C21.4735 54.2647 23.1878 52.3046 24.1741 51.3383C25.5871 49.9537 26.2945 49.2277 26.5621 48.8876L26.8375 48.5378L27.144 48.5811C27.3127 48.605 27.5717 48.6045 27.7194 48.5798C28.0589 48.5234 28.1286 48.5951 28.0792 48.9487C28.0493 49.1627 27.8607 49.4596 27.3036 50.1699C26.1736 51.6106 25.8409 52.2845 25.9651 52.8802C26.09 53.4782 26.8407 53.85 28.3091 54.0406C28.9677 54.1261 29.1212 54.1708 30.3634 54.6391C32.1577 55.3155 32.539 55.634 32.5004 56.4254L32.4818 56.804L32.781 56.968C32.9455 57.0581 33.2889 57.2358 33.5442 57.3627C33.7997 57.4896 34.1389 57.7 34.2982 57.8303C34.4575 57.9605 34.6538 58.0712 34.7346 58.0761C34.9491 58.0892 35.2961 57.8141 35.3935 57.5539C35.5086 57.2459 35.4091 56.1053 35.209 55.4415C35.1196 55.1453 34.9895 54.6752 34.9196 54.3968C34.8248 54.0187 34.7407 53.8385 34.5876 53.6846C34.3559 53.4521 34.1855 53.4016 33.3666 53.3225C32.7114 53.2594 31.7626 53.0688 31.2824 52.9037C30.8022 52.7388 30.2463 52.4522 30.227 52.3599C30.1987 52.2241 31.1463 51.0188 31.7914 50.3696C32.1733 49.9857 32.5462 49.5161 32.7916 49.1106C33.2361 48.3757 33.4234 48.2271 33.9295 48.2079L34.278 48.1946L34.1573 47.8434C34.0908 47.6502 33.9057 47.281 33.746 47.023C33.1596 46.0769 32.9186 45.4115 32.5871 43.8244C32.4017 42.9368 32.2999 42.5853 32.1648 42.3681C32.0449 42.1753 31.9771 41.9657 31.9572 41.7265L31.9277 41.3712L31.2696 41.0133C30.5757 40.6361 29.1004 39.7397 29.6077 40.0036C30.5263 40.4814 30.5249 40.4834 29.7061 39.8532C29.4701 39.6716 29.143 39.363 28.9794 39.1673C28.8158 38.9717 28.5606 38.7247 28.4125 38.6185C28.2643 38.5122 28.1708 38.4018 28.2047 38.3729C28.3472 38.2518 29.9292 37.8184 30.7822 37.6668L31.7036 37.503L31.8657 37.8048C32.1347 38.3062 32.4572 38.6945 33.0874 39.2764C33.6714 39.8157 34.1284 40.3623 34.1727 40.575C34.1943 40.6787 34.1585 40.6958 33.7216 40.7903C33.5177 40.8344 33.4038 40.7633 32.3445 39.9298C31.7093 39.4301 31.1134 38.9722 31.0202 38.9122C30.9268 38.8522 31.346 39.3102 31.9517 39.93L33.0528 41.0569L32.7455 41.264L32.4382 41.4708L33.1673 41.3537C33.6671 41.2735 33.8312 41.265 33.6892 41.3266C33.4919 41.4123 33.4965 41.4144 33.7832 41.3714C33.9489 41.3464 34.1946 41.3268 34.3292 41.3276L34.5739 41.3294L34.66 41.9011C34.7193 42.296 34.7177 42.4974 34.6551 42.552C34.6051 42.5954 34.1724 42.7035 33.6935 42.7923C32.9031 42.939 32.845 42.9584 33.0622 43.0041C33.1937 43.0317 33.5712 43.0578 33.9009 43.0619C34.2308 43.066 34.518 43.0803 34.5391 43.0937C34.5604 43.1069 34.434 43.1462 34.2582 43.1809C33.9607 43.2395 33.9543 43.2451 34.1678 43.2593C34.2939 43.2679 34.4856 43.2773 34.5936 43.2804C34.7829 43.2858 34.7907 43.2988 34.7998 43.6165C34.8051 43.7982 34.8799 44.3885 34.9661 44.9282C35.0522 45.4681 35.1155 45.9581 35.1068 46.0171C35.0959 46.0917 34.8661 45.9748 34.3474 45.6299L33.6036 45.1356L34.1491 45.7695C34.449 46.1182 34.8559 46.591 35.0533 46.8202C35.262 47.0623 35.4322 47.3328 35.4601 47.4665C35.4865 47.5928 35.6387 47.9097 35.7982 48.1707C36.0629 48.6035 36.0805 48.6572 35.9987 48.7817C35.9494 48.8567 35.9216 49.0774 35.9369 49.272C35.9664 49.6473 35.9591 49.6554 35.4584 49.8057C35.3414 49.8409 35.4435 49.8426 35.6853 49.8095L36.1249 49.7494L35.8111 49.8705C35.6384 49.9372 35.3248 50.0105 35.1139 50.0336C34.6815 50.0809 34.6816 50.1568 35.1142 50.1974C35.2808 50.2129 35.4453 50.2805 35.5023 50.3565C35.5964 50.4826 35.6458 50.4805 36.581 50.3105C37.5784 50.1293 37.8749 50.0111 37.8331 49.8111C37.8193 49.7452 37.8905 49.6984 38.0484 49.6692C38.36 49.6118 38.8087 49.3128 38.9161 49.091C39.0393 48.8368 38.9266 48.3694 38.7121 48.2453C38.544 48.1479 38.5581 48.1408 39.4791 47.8578C40.5312 47.5344 42.3479 47.1227 42.6534 47.1384C42.9136 47.1518 42.9482 47.3149 42.917 48.3795C42.882 49.5714 42.7822 50.445 42.6594 50.6359C42.5998 50.7283 42.5052 51.1468 42.449 51.566C42.2564 53.004 42.0766 53.4345 41.4349 53.9932C40.4522 54.8488 38.8246 56.0976 38.2014 56.4743C37.2444 57.0526 37.082 57.2155 37.015 57.6648C36.9343 58.2063 37.1036 58.9879 37.3605 59.2602C37.6189 59.5341 38.2599 59.773 38.7547 59.7797C39.4835 59.7895 39.7743 59.574 40.3127 58.6245C40.4218 58.432 40.6402 58.2253 40.9557 58.0158C41.3153 57.7771 41.5543 57.5375 41.9216 57.047C42.1899 56.6886 42.8213 55.9307 43.3243 55.3628C43.8275 54.7947 44.3421 54.1984 44.468 54.0375C44.8179 53.5899 45.0944 52.9393 45.231 52.2412C45.5641 50.5406 45.9262 49.3939 46.3742 48.6213C46.6286 48.1825 46.8745 47.4214 46.8773 47.0641C46.8793 46.8028 46.9118 46.7957 47.8044 46.8606C48.1832 46.8881 48.962 46.9366 49.5351 46.968C51.3521 47.0682 52.4725 47.3039 53.2719 47.7549C53.6309 47.9573 53.6946 48.0327 54.0729 48.7023C55.5467 51.3103 55.5919 51.4098 55.4406 51.722C55.3207 51.9697 55.4389 52.5398 55.6683 52.8191C56.0364 53.2674 56.9676 53.711 57.4978 53.6906C57.9934 53.6715 58.5162 53.393 58.6132 53.0962C58.7326 52.7311 58.4928 51.4901 58.2075 50.9955C58.0872 50.7871 57.9181 50.3847 57.8316 50.1011C57.6473 49.4973 57.3942 49.0587 57.1046 48.8418C56.808 48.6196 55.5743 47.2283 54.8791 46.3322C54.5327 45.8856 54.1557 45.4803 53.9739 45.359C53.6085 45.1154 52.6712 44.7569 51.4327 44.3871C49.7419 43.8823 49.3417 43.7572 49.2675 43.7113C49.226 43.6854 49.2541 43.3539 49.3311 42.9605C49.5581 41.8037 49.5506 41.65 49.158 39.4475C48.8856 37.9196 48.7915 37.2111 48.7737 36.5574C48.755 35.8711 48.5362 32.8532 48.4885 32.6245C48.4488 32.4347 49.338 32.62 49.942 32.9272C50.1829 33.0499 50.693 33.2041 51.1484 33.2922C51.8343 33.4246 52.0166 33.4939 52.5435 33.8216C53.2578 34.2659 53.6807 34.3787 54.237 34.2735C55.3304 34.0666 55.665 33.1419 55.2451 31.4882C55.0267 30.6279 54.9368 30.5161 53.7752 29.6588C53.2737 29.2886 52.6534 28.7617 52.3964 28.4878C51.5904 27.6283 50.8789 26.9786 50.2698 26.5461C49.9465 26.3165 49.5521 25.9611 49.3936 25.7565C49.2349 25.5518 48.9844 25.2979 48.8369 25.192L48.5686 24.9997L48.5948 24.6164C48.6218 24.2228 48.5087 23.5348 48.3749 23.2806C48.2713 23.0834 48.1553 23.1233 47.9578 23.4241L47.7899 23.68L47.9646 23.4751L48.1394 23.2703L48.0815 23.4546C48.0497 23.5559 47.9282 23.8438 47.8115 24.0942C47.6947 24.3448 47.5928 24.5638 47.5848 24.5812C47.5766 24.5986 47.5516 24.6013 47.5291 24.5872C47.5065 24.573 47.5405 24.3973 47.6045 24.1966L47.7211 23.832L47.5818 24.0654C47.5054 24.1939 47.4246 24.2865 47.4023 24.2714C47.3801 24.2562 47.2951 24.0257 47.2136 23.759C47.0498 23.2244 47.008 23.1581 46.8518 23.1858C46.7153 23.21 46.3857 23.9644 46.2427 24.5795C46.1162 25.1247 46.1549 25.0989 45.1195 25.3269C44.6786 25.4239 44.3023 25.5467 44.1493 25.643C43.9255 25.7845 43.8269 25.8949 43.9661 25.8484C44.2487 25.7541 44.1532 25.8631 43.7776 26.0634C43.5223 26.1995 43.2996 26.3297 43.2828 26.3527C43.266 26.3757 43.4901 26.3369 43.7807 26.2665L44.3092 26.1386L44.0425 26.3045C43.8957 26.3958 43.493 26.7237 43.1474 27.0331C42.8019 27.3425 42.3933 27.6501 42.2396 27.7167C42.0187 27.8124 41.9914 27.8421 42.1091 27.8583C42.2267 27.8744 42.1801 27.9238 41.8898 28.0921L41.5212 28.3053L41.9306 28.1905C42.1558 28.1273 42.3437 28.0943 42.3487 28.1174C42.3535 28.1405 42.1885 28.2839 41.982 28.4364C41.7754 28.5888 41.5632 28.75 41.5103 28.7946C41.4575 28.8392 41.2125 29.0061 40.966 29.1655C40.5351 29.4443 40.3496 29.6308 40.705 29.4278C40.7998 29.3738 40.9792 29.2987 41.1034 29.261C41.4451 29.1573 41.7365 29.0258 41.8191 28.9376C41.8599 28.8942 41.9545 28.8598 42.0292 28.8613C42.1354 28.8631 42.1173 28.8994 41.9466 29.0264C41.8264 29.1158 41.6007 29.2533 41.4453 29.3321C40.6209 29.749 40.1983 30.0221 39.6095 30.5186C39.3326 30.7521 39.3636 30.7478 39.8833 30.481C40.3164 30.2587 41.4008 29.7922 41.5263 29.7743C41.7142 29.7476 41.034 30.1652 40.6445 30.3158C40.046 30.5471 39.8814 30.6829 40.2718 30.6232L40.564 30.5784L40.1977 30.7773C39.9963 30.8866 39.8192 30.9928 39.8041 31.0133C39.7891 31.034 40.0549 30.9823 40.3951 30.8985C40.7351 30.8146 41.0167 30.7618 41.0205 30.7809C41.0245 30.7998 40.8018 30.9448 40.5257 31.1029C40.2496 31.261 40.0617 31.4038 40.1082 31.4202C40.1546 31.4365 40.0302 31.5774 39.8314 31.7334C39.6326 31.8894 39.4733 32.0328 39.4775 32.0522C39.4815 32.0716 39.542 32.0446 39.6121 31.9922C39.6822 31.9397 39.9416 31.8427 40.1887 31.7764L40.6381 31.6562L40.2367 31.9347C40.016 32.0878 39.6652 32.2664 39.457 32.3317C39.2488 32.3969 38.9705 32.5103 38.8387 32.5839L38.599 32.7175L38.9771 32.6553C39.1852 32.621 39.386 32.6237 39.4233 32.6613C39.461 32.699 39.4559 32.7171 39.4122 32.7017C39.3321 32.6735 38.6408 33.0986 38.6551 33.1672C38.6595 33.1878 38.8362 33.1537 39.048 33.0918C39.4704 32.968 39.849 32.9583 39.8019 33.0725C39.7854 33.1125 39.6616 33.165 39.5267 33.189C39.2489 33.2383 38.4164 33.551 38.1637 33.7008C38.0351 33.7771 38.1725 33.7699 38.7538 33.6699C39.1705 33.5983 39.4997 33.5558 39.4852 33.5758C39.4707 33.5954 39.1362 33.6853 38.7419 33.7753C38.3477 33.8654 37.9164 33.9874 37.7837 34.0464C37.5553 34.1481 37.5658 34.1505 37.9811 34.0896L38.4198 34.0253L37.9379 34.2062C37.4802 34.3782 37.444 34.3822 37.2158 34.286L36.9757 34.1846L37.2165 33.8827C37.6074 33.3926 37.6502 32.8594 37.341 32.3294C36.8095 31.4182 36.4623 31.3694 35.4405 32.0629L34.9448 32.3992L34.132 32.3305C33.685 32.2926 33.1789 32.211 33.0072 32.149C32.8358 32.0871 32.6666 32.0415 32.6314 32.0478C32.5666 32.0593 32.3872 31.0485 32.3327 30.3634C32.3067 30.036 32.33 29.9635 32.5177 29.791C32.6729 29.648 32.8368 29.5749 33.11 29.5263C33.392 29.4762 33.5938 29.383 33.9074 29.1584C34.3951 28.8089 34.5856 28.4698 34.5066 28.0914C34.4546 27.8421 34.4578 27.8379 34.8193 27.6942C35.0203 27.6143 35.4506 27.4422 35.7756 27.3118C36.1005 27.1813 36.9462 26.846 37.6547 26.5668C38.363 26.2874 39.6632 25.7745 40.5439 25.4269C41.4246 25.0792 42.9599 24.475 43.9559 24.0839C47.7127 22.6089 50.173 21.6215 52.3689 20.7074C55.2497 19.5083 58.6166 18.154 58.8835 18.0872C59.0692 18.0406 59.6583 17.8289 60.1928 17.6168C61.2944 17.1798 61.3856 17.1547 61.4123 17.2826C61.4256 17.346 61.8715 17.1181 62.8439 16.5509C63.6206 16.0978 64.2752 15.6999 64.2983 15.6666C64.3215 15.6332 64.0824 15.6701 63.7672 15.7483C63.452 15.8265 62.6934 15.9807 62.0817 16.0909C61.0093 16.2842 60.972 16.2959 61.0422 16.4154C61.0976 16.5096 61.0768 16.555 60.955 16.605C60.6971 16.7111 58.4557 17.5994 56.1664 18.5028C54.9984 18.9636 52.8375 19.8207 51.3645 20.4072C49.8912 20.9937 47.5431 21.9286 46.1464 22.4846C44.7499 23.0407 42.7004 23.8583 41.5922 24.3016C40.484 24.7448 39.4508 25.1456 39.2962 25.192C39.1415 25.2386 38.7473 25.3853 38.4201 25.5179C37.7792 25.7776 36.4497 26.3025 34.7261 26.9763C34.1321 27.2085 33.5644 27.4343 33.4647 27.4778C33.2997 27.5501 33.2834 27.5415 33.2832 27.3824C33.2829 27.2279 33.2476 27.2053 32.977 27.1871C32.4991 27.1548 32.0514 27.3633 31.657 27.8015L31.3269 28.1684L30.9524 27.5931C30.7465 27.2767 30.5528 26.9744 30.5219 26.9213C30.4813 26.8517 30.5622 26.7717 30.8116 26.6351C31.148 26.451 32.0571 25.6894 32.1182 25.5407C32.135 25.5001 32.0347 25.2436 31.8953 24.9707C31.7559 24.6979 31.5999 24.2728 31.5483 24.0263C31.4448 23.5296 31.0672 22.736 30.7646 22.3787C30.5128 22.0816 30.008 21.7674 29.638 21.6779C29.2693 21.5886 28.2981 21.7224 27.8324 21.9265ZM28.4276 22.0699L28.0541 22.2662L28.5004 22.194C29.3029 22.0642 29.3927 22.0844 29.7111 22.4653C30.0552 22.8772 30.4796 23.5988 30.5357 23.8671C30.582 24.0895 30.4847 24.1657 29.9215 24.3473C29.6213 24.4442 29.5903 24.4695 29.7087 24.5213C29.8368 24.5771 29.8443 24.6109 29.8084 24.9607L29.7695 25.3396L29.6043 25.2019C29.3836 25.0178 29.2365 24.6627 29.3217 24.5194C29.3585 24.4574 29.3657 24.3923 29.3376 24.3748C29.253 24.3218 29.08 24.8349 29.122 25.0144C29.1566 25.1627 29.1678 25.1668 29.2214 25.0516C29.2728 24.9412 29.3277 24.994 29.5869 25.4028C29.7547 25.6677 29.887 25.8907 29.8809 25.8987C29.8749 25.9068 29.5576 25.8785 29.1757 25.8357C27.5506 25.6543 27.1635 25.6726 27.802 25.9013C27.9996 25.9719 28.0913 26.0199 28.0059 26.0077C27.2626 25.9018 26.7579 25.8252 26.7335 25.8144C26.7174 25.8071 26.7353 25.6017 26.7733 25.3578C26.8113 25.1138 26.831 24.5366 26.8173 24.075C26.7821 22.9019 26.7727 22.9259 27.3047 22.8314C27.7807 22.7468 28.7142 22.7891 29.032 22.9098C29.1413 22.9512 29.2648 22.9673 29.3069 22.9455C29.4287 22.8823 27.8935 22.5267 27.5429 22.537L27.2251 22.5463L27.4137 22.4068C27.7003 22.1947 28.0942 22.0213 28.4659 21.9437L28.801 21.8736L28.4276 22.0699ZM62.476 16.2406C61.8413 16.4487 61.5434 16.519 61.4126 16.4913C61.0308 16.411 61.3063 16.3012 62.325 16.1275L63.3576 15.9516L62.476 16.2406ZM58.203 17.9715C58.09 18.0262 57.7157 18.1822 57.3711 18.3183C57.0266 18.4544 56.2605 18.7643 55.6688 19.0072C54.0461 19.673 52.2381 20.3953 50.7931 20.9547C49.6878 21.3828 48.8893 21.7025 47.3577 22.331C47.0635 22.4518 45.1356 23.2038 44.0828 23.6085C43.7375 23.7412 43.0784 23.9955 42.6182 24.1734C42.1581 24.3515 41.3893 24.6487 40.91 24.8341C40.4306 25.0194 39.6823 25.3125 39.2472 25.4853C38.8121 25.6581 37.8237 26.0394 37.0505 26.3327C36.2774 26.6259 35.5663 26.8958 35.4703 26.9324C35.3743 26.969 35.3087 26.9796 35.3246 26.9561C35.3404 26.9324 36.1513 26.5938 37.1266 26.2035C38.1021 25.8132 39.3367 25.3117 39.8706 25.089C41.0022 24.6171 43.2465 23.72 44.7391 23.143C45.3143 22.9206 46.4573 22.4662 47.2789 22.1333C48.1005 21.8006 49.3058 21.3211 49.9576 21.0681C50.6094 20.8151 51.3462 20.5279 51.5952 20.4301C51.8442 20.3322 52.5029 20.077 53.0592 19.8627C53.6155 19.6486 54.6193 19.2598 55.2901 18.9985C57.5189 18.1306 58.8296 17.6685 58.203 17.9715ZM27.4228 23.9176C27.569 24.0045 29.1431 23.9029 29.0038 23.8157C28.945 23.779 27.7505 23.7965 27.5191 23.8375C27.4103 23.8567 27.3729 23.8879 27.4228 23.9176ZM30.4198 24.616C30.4137 24.7164 30.3764 24.95 30.3367 25.1355L30.2648 25.4725L30.2259 25.0966L30.187 24.7207L30.1229 25.115L30.0589 25.5091L30.0092 25.0655C29.9817 24.8215 29.9686 24.5968 29.98 24.566C29.9913 24.5352 30.0973 24.4929 30.2156 24.472C30.4108 24.4372 30.4296 24.4506 30.4198 24.616ZM30.5962 25.0395L30.5306 25.286L30.5043 24.9512C30.4684 24.4931 30.5111 24.3227 30.5957 24.5871C30.632 24.7003 30.6321 24.9039 30.5962 25.0395ZM27.2666 26.0756C27.8915 26.1736 28.6196 26.3514 28.7258 26.4319C28.773 26.4679 28.8504 26.5737 28.8976 26.667C28.9809 26.8324 28.9763 26.8367 28.7222 26.8293C28.5787 26.825 28.2134 26.7531 27.9101 26.6695C27.6068 26.5857 27.1192 26.4662 26.8264 26.4037C26.4134 26.3155 26.2874 26.2584 26.2646 26.1491C26.2383 26.0231 26.2649 26.008 26.5172 26.0054C26.6723 26.0037 27.0094 26.0353 27.2666 26.0756ZM26.8515 26.7927C27.3192 26.9864 27.8593 27.4172 28.0348 27.7367C28.093 27.8425 28.1343 27.9374 28.1268 27.9475C28.1194 27.9576 27.9808 27.933 27.8192 27.8928C27.5663 27.83 26.7435 27.8038 26.4816 27.8503C26.3022 27.8822 26.4339 27.9892 26.6591 27.9948C26.8955 28.0005 27.4662 28.1594 27.4296 28.2094C27.4189 28.224 27.1541 28.2207 26.8409 28.2022C26.038 28.1546 25.3822 28.2831 24.8029 28.6012C24.5453 28.7426 24.2994 28.8647 24.2566 28.8722C24.2071 28.8811 24.1691 28.771 24.152 28.5697C24.1199 28.1914 24.3326 27.7244 24.6553 27.4643L24.881 27.2824L24.662 27.556C24.4632 27.8046 24.3315 28.0795 24.3557 28.1959C24.361 28.2206 24.4732 28.0743 24.605 27.8709C24.8336 27.5183 25.2608 27.1724 25.919 26.8069C26.3044 26.5928 26.3666 26.5918 26.8515 26.7927ZM28.5521 27.1118C28.7168 27.1447 28.9508 27.1734 29.0721 27.1757C29.2657 27.1794 29.3253 27.2331 29.5593 27.6145C29.7059 27.8533 29.8436 28.1414 29.8653 28.2545L29.9049 28.4601L29.763 28.2765C29.6229 28.0951 29.6221 28.0973 29.6962 28.4815C29.7616 28.8205 29.7517 28.8811 29.6195 28.9553C29.3452 29.1091 28.527 29.3925 28.4665 29.3547C28.4339 29.3342 28.4537 29.1476 28.5106 28.94C28.6674 28.367 28.5264 27.7962 28.1028 27.2888C27.9238 27.0746 27.775 26.8874 27.7721 26.873C27.769 26.8586 27.876 26.893 28.0096 26.9494C28.1433 27.0059 28.3875 27.0789 28.5521 27.1118ZM46.7456 23.8834C46.6162 24.5093 46.3316 25.1774 46.2866 24.9613C46.2458 24.766 46.6697 23.5663 46.7866 23.5455C46.8032 23.5425 46.7846 23.6946 46.7456 23.8834ZM26.3047 28.508C26.1405 28.5814 26.1448 28.5854 26.3979 28.5933C26.5439 28.5979 26.8444 28.6401 27.0658 28.6869C27.4635 28.7711 27.4699 28.7764 27.5932 29.1237C27.6617 29.3171 27.7738 29.5698 27.8421 29.6853C27.9524 29.8715 27.9505 29.9194 27.8263 30.1058C27.7491 30.2216 27.6362 30.4219 27.5756 30.551C27.4537 30.8102 27.2917 31.5962 27.3526 31.6343C27.3737 31.6475 27.4898 31.4548 27.6105 31.2059C27.8377 30.7377 28.2313 30.2542 28.4112 30.2222C28.5704 30.1938 28.8689 30.6169 29.0007 31.0572C29.1019 31.3958 29.1013 31.4918 28.9968 31.7146C28.8226 32.0859 28.3327 32.5395 27.992 32.645L27.7048 32.7339L27.9351 32.8221C28.1805 32.916 28.0837 32.9765 27.8125 32.8986C27.6242 32.8446 27.3664 32.5127 27.3127 32.2553C27.2899 32.1458 27.1572 31.9944 26.9695 31.8637C26.577 31.5904 26.1229 31.0462 25.8278 30.4954C25.5663 30.0074 25.2962 28.9754 25.3715 28.7514C25.4252 28.5916 25.6916 28.4941 26.1806 28.4549C26.4379 28.4342 26.4544 28.4413 26.3047 28.508ZM25.2479 29.34C25.3144 29.6823 25.4244 30.1013 25.4924 30.2711C25.5751 30.4775 25.5905 30.5843 25.5388 30.5934C25.4965 30.601 25.4474 30.5387 25.43 30.4551C25.4126 30.3716 25.3044 30.1963 25.1894 30.0656C25.0745 29.9349 24.9217 29.6671 24.85 29.4705C24.7299 29.1415 24.7313 29.098 24.8688 28.9249C24.9511 28.8215 25.0426 28.7326 25.0725 28.7272C25.1023 28.722 25.1813 28.9977 25.2479 29.34ZM32.6621 27.6243C32.1384 28.0077 32.1046 28.2627 32.5467 28.4949L32.7689 28.6117L32.5879 28.6465C32.4218 28.6784 32.4189 28.6868 32.5525 28.7477C32.7608 28.8429 32.7482 28.8663 32.4044 29.0249C32.0662 29.1809 31.9699 29.1662 31.4888 28.8865C31.2349 28.7386 31.2151 28.8026 31.426 29.0913L31.5588 29.2732L30.9975 29.6722C30.5173 30.0137 30.4218 30.059 30.3358 29.986C30.2538 29.9162 30.2285 29.9508 30.1972 30.174C30.174 30.3404 30.0861 30.5069 29.9731 30.5994C29.7655 30.7688 29.7638 30.767 29.6882 30.3085C29.6698 30.1968 29.6125 30.0661 29.561 30.0178C29.4923 29.9535 29.486 30.0215 29.5375 30.2726C29.6235 30.6913 29.5761 31.0394 29.417 31.1586C29.2407 31.2907 29.2429 31.293 29.1027 30.8475C29.0314 30.621 28.9156 30.2672 28.8454 30.0614C28.7225 29.7006 28.7242 29.6846 28.8926 29.6121C28.9888 29.5706 29.1348 29.5563 29.2172 29.5799C29.3165 29.6084 29.4058 29.5927 29.4819 29.5333C29.5624 29.4708 29.6993 29.457 29.9376 29.4876C30.266 29.5299 30.2903 29.5228 30.6102 29.2906C30.7927 29.1581 31.1742 28.7661 31.4579 28.4193C32.0506 27.6952 32.271 27.52 32.6772 27.4501L32.9683 27.4001L32.6621 27.6243ZM26.4668 29.2452C26.5608 29.7302 27.0624 30.6708 27.2129 30.644C27.3592 30.618 26.9536 29.6469 26.6125 29.2063L26.4081 28.9423L26.4668 29.2452ZM44.0664 26.8796C43.6001 27.3385 43.1582 28.2959 42.3143 30.6749C41.979 31.62 41.6672 32.3469 41.417 32.766C41.2064 33.1194 41.0177 33.4113 40.9981 33.4147C40.9784 33.4182 41.1701 32.9691 41.424 32.4167C41.8921 31.3985 42.0366 31.037 42.307 30.2064C42.5475 29.4675 43.146 28.0127 43.3601 27.6465C43.5713 27.2854 44.1175 26.6651 44.2441 26.6425C44.2865 26.635 44.2066 26.7417 44.0664 26.8796ZM49.817 26.7789C50.5489 27.2571 51.1087 27.7227 51.4884 28.169C51.656 28.366 51.9951 28.7287 52.2419 28.9748C52.8629 29.5942 52.8897 29.6295 52.5705 29.409C52.3176 29.2341 50.9119 27.959 50.806 27.8083C50.7451 27.7216 50.3575 27.3938 49.9215 27.0605C49.4624 26.7095 49.0588 26.3342 49.0429 26.2434C49.0363 26.2055 49.0807 26.2277 49.1418 26.2924C49.2028 26.3572 49.5066 26.576 49.817 26.7789ZM32.1522 29.8087C31.9924 29.9362 31.6254 30.2085 31.3366 30.4136C30.8566 30.7548 30.2319 31.2373 29.698 31.679C29.583 31.7741 29.4858 31.8362 29.4819 31.817C29.4662 31.7421 30.6717 30.6954 31.2332 30.2964C32.1059 29.6762 32.7415 29.3389 32.1522 29.8087ZM25.2039 30.9958C25.0251 31.1017 24.3539 31.3162 24.3994 31.2529C24.44 31.1964 24.9758 30.9888 25.1932 30.9454L25.338 30.9165L25.2039 30.9958ZM26.2133 31.4649C26.322 31.6079 26.5441 31.835 26.7068 31.9694C26.8696 32.1039 27.017 32.2817 27.0346 32.3644C27.1 32.674 27.3444 33.0207 27.6029 33.1708C27.8275 33.3011 27.9127 33.3127 28.1377 33.243C28.2867 33.1969 28.5444 33.0244 28.7187 32.8542C28.8911 32.6859 29.0728 32.5412 29.1228 32.5328C29.1728 32.5243 29.3994 32.5603 29.6264 32.613C29.9453 32.6868 30.0587 32.7497 30.124 32.8893C30.1705 32.9888 30.2228 33.0986 30.2403 33.1336C30.2577 33.1685 30.6169 33.2383 31.0384 33.2886C31.5254 33.3469 31.6964 33.3873 31.5076 33.3996C31.0984 33.4262 28.6832 33.6669 27.9642 33.7527C27.2542 33.8375 27.3898 33.9051 28.2001 33.8706C28.5207 33.857 28.8985 33.8799 29.0397 33.9218L29.2964 33.9978L28.6495 34.1476C28.0218 34.293 28.0142 34.2967 28.3972 34.2765C29.5897 34.2135 30.1325 34.2466 30.4688 34.4025C30.7178 34.5179 30.8178 34.6079 30.8458 34.7418C30.8987 34.9958 31.0566 35.0725 31.5555 35.0863C31.7925 35.093 31.976 35.1128 31.9631 35.1304C31.9501 35.1482 31.5755 35.1941 31.1308 35.2324C30.686 35.2706 29.6321 35.4035 28.7889 35.5273L27.2558 35.7526L27.1305 35.467C26.9574 35.0727 27.0158 33.881 27.2099 33.8466C27.2462 33.8402 27.1877 33.7571 27.08 33.6622C26.7165 33.342 26.2644 32.6825 25.984 32.0634C25.6839 31.4006 25.6671 31.2667 25.8792 31.2291C25.9696 31.213 26.0824 31.2927 26.2133 31.4649ZM32.2213 31.6303C32.4162 32.6678 32.514 32.9653 32.5366 32.5899C32.5425 32.4913 32.5748 32.4059 32.6084 32.3999C32.6419 32.3939 32.8808 32.445 33.1392 32.5134C33.3977 32.5818 33.6584 32.6302 33.7186 32.621C33.7788 32.6117 34.1108 32.6271 34.4561 32.6553L35.0842 32.7064L35.354 32.4935C35.5933 32.3049 35.6569 32.2838 35.9155 32.308C36.1138 32.3265 36.2686 32.3026 36.3998 32.233C36.8377 32.0008 36.9365 32.2221 36.562 32.596C36.2899 32.8678 35.9334 32.9902 35.7491 32.8748C35.6731 32.8274 35.6271 32.8363 35.5597 32.9121C35.487 32.9939 35.4538 32.9858 35.3785 32.8684C35.3044 32.7526 35.2942 32.798 35.3263 33.1002L35.3665 33.4759L34.7659 33.5617C34.4356 33.6088 34.0164 33.6316 33.8345 33.6122L33.5038 33.5771L33.9373 33.4882L34.3709 33.3993L33.9106 33.3412C33.6575 33.3093 33.3754 33.252 33.2834 33.214C33.0457 33.1158 32.8957 33.1543 32.9943 33.2885C33.0378 33.3476 33.1403 33.6179 33.2218 33.889C33.3979 34.4738 33.3894 34.4709 34.4232 34.2978C35.3171 34.1483 35.5566 34.2354 36.0383 34.8851C36.2256 35.1378 36.4708 35.4407 36.5832 35.5583C36.6955 35.6758 36.7888 35.7781 36.7903 35.7855C36.7919 35.7928 36.644 35.8143 36.4617 35.833C36.1516 35.8647 36.1138 35.8902 35.875 36.2263C35.7346 36.4238 35.5244 36.655 35.4077 36.7399C35.1558 36.9232 34.1882 37.1845 34.0976 37.0935C34.0639 37.0598 33.9338 36.7332 33.8082 36.3678C33.5972 35.7531 33.5762 35.7186 33.528 35.9062C33.4843 36.0764 33.4363 35.9079 33.2297 34.8599L32.9833 33.6108L32.6066 33.1607C32.3993 32.9133 32.2107 32.6203 32.1873 32.5094C32.1191 32.1834 31.9534 30.5672 31.9878 30.5611C32.0051 30.5579 32.1102 31.0391 32.2213 31.6303ZM39.749 31.5484C39.6965 31.5948 39.6863 31.627 39.7263 31.6199C39.7663 31.6129 39.8419 31.569 39.8944 31.5226C39.9469 31.4761 39.9571 31.4439 39.9171 31.4511C39.8771 31.4582 39.8015 31.5021 39.749 31.5484ZM39.716 32.5708C39.6965 32.5975 39.6343 32.611 39.5778 32.6009C39.5153 32.5898 39.5292 32.5708 39.6133 32.5526C39.6893 32.5361 39.7354 32.5443 39.716 32.5708ZM54.116 30.4047C54.5912 30.8072 54.6761 30.9645 54.8626 31.7881C55.0419 32.5802 55.0228 33.1012 54.8015 33.449C54.6372 33.707 54.6166 33.653 54.655 33.0663C54.6991 32.3908 54.4763 31.6635 54.0711 31.1609C53.7547 30.7686 53.5266 30.144 53.6891 30.1151C53.7278 30.1082 53.9198 30.2386 54.116 30.4047ZM28.4554 35.8179C28.8996 35.8016 29.3927 35.808 29.5509 35.832L29.8389 35.8754L29.333 35.9784L28.827 36.0814L29.2387 36.068C30.1992 36.0369 30.9726 36.0539 31.0983 36.1087C31.1781 36.1435 31.26 36.2743 31.2994 36.4295L31.3656 36.6916L31.8591 36.709L32.3523 36.7264L31.8833 36.8255C30.6101 37.0946 28.9342 37.6385 28.0908 38.0562C27.8942 38.1538 27.7039 38.2152 27.668 38.1927C27.5651 38.1283 27.3394 36.8943 27.3464 36.4327C27.3549 35.8496 27.362 35.8243 27.5134 35.8365C27.5873 35.8424 28.0113 35.8341 28.4554 35.8179ZM38.7667 34.0631C38.7697 34.0772 38.7067 34.1004 38.6267 34.1146C38.5469 34.1287 38.4758 34.1131 38.4688 34.0796C38.4617 34.0461 38.5247 34.0229 38.6087 34.028C38.6926 34.0332 38.7638 34.049 38.7667 34.0631ZM37.3074 35.0139C37.3091 35.0219 37.2464 35.0566 37.1682 35.0913C37.0615 35.1384 36.9799 35.1072 36.8409 34.9662C36.5648 34.6856 36.5965 34.6532 36.9687 34.8353C37.1533 34.9256 37.3058 35.0059 37.3074 35.0139ZM38.1456 34.5411C38.247 34.5584 38.2724 34.5876 38.2225 34.63C38.1816 34.6648 38.0481 34.6638 37.9257 34.6279C37.7429 34.5745 37.7292 34.5585 37.8488 34.539C37.9289 34.5259 38.0626 34.5269 38.1456 34.5411ZM48.1676 34.3379C48.2655 35.1985 48.3508 36.168 48.3573 36.4922C48.3763 37.4417 48.494 38.4295 48.7143 39.4844C48.9636 40.6797 49.0429 41.881 48.9136 42.5017C48.8609 42.7535 48.8064 42.9524 48.7922 42.9435C48.778 42.9347 48.7952 42.6562 48.8304 42.3248C48.8887 41.7759 48.8654 41.5558 48.5708 39.8652C48.2079 37.7833 48.1741 37.505 48.1537 36.424C48.1457 36.0043 48.0946 35.1206 48.0401 34.4604C47.927 33.0915 47.9089 32.7227 47.9561 32.7523C47.9745 32.7638 48.0696 33.4773 48.1676 34.3379ZM37.4548 35.163C37.4894 35.1978 37.5645 35.1991 37.6221 35.1662C37.6795 35.1331 37.8516 35.1213 38.0046 35.1398L38.2827 35.1736L37.9521 35.3949L37.6215 35.6163L37.3795 35.4492C37.2463 35.3573 37.1311 35.2524 37.1236 35.216C37.105 35.127 37.3758 35.0836 37.4548 35.163ZM38.2512 35.7454C38.0229 35.9989 38.0285 35.9979 37.7794 35.8314L37.5738 35.6939L38.0043 35.6177L38.4347 35.5417L38.2512 35.7454ZM37.3386 36.1372C37.4745 36.2177 37.6547 36.3636 37.7388 36.4613C37.93 36.6838 38.0614 37.3529 37.97 37.6393C37.8522 38.0081 37.4136 38.5138 36.8842 38.8911C36.3087 39.3011 36.1241 39.3464 36.6017 38.9603C37.0143 38.6266 37.5844 37.8793 37.6946 37.5274C37.8697 36.9688 37.5117 36.3355 36.8968 36.1154L36.571 35.9989L36.8312 35.9949C36.9743 35.9928 37.2027 36.0567 37.3386 36.1372ZM26.9956 39.0756C27.1376 39.1488 27.3953 39.3706 27.5686 39.5686C28.0942 40.169 28.4864 40.4035 29.1731 40.5275L29.7775 40.6368L29.3954 40.6704C28.8087 40.7218 28.1484 40.5137 27.5293 40.0822L26.996 39.7106L26.6171 40.1787C26.021 40.9153 25.1139 41.7604 24.0643 42.5574C21.7372 44.3247 21.5119 44.7968 21.6582 47.5989C21.8158 50.6192 21.4948 51.7328 20.1022 52.994C19.3448 53.6802 19.1754 53.991 18.9107 55.1806C18.7533 55.8881 18.3879 56.7191 18.014 57.2195C17.748 57.5755 16.8208 58.3162 16.5895 58.3574C16.5116 58.3712 16.5151 58.4108 16.6062 58.5458C16.8174 58.8584 17.059 59.8811 16.9889 60.1659L16.9262 60.4206L16.8319 59.9979C16.7464 59.6149 16.5657 59.2293 16.2444 58.7444C16.1496 58.6013 16.098 58.5817 15.9655 58.6386C15.6795 58.7618 15.7781 58.6595 16.2948 58.2974C16.9381 57.8466 17.3018 57.4546 17.6495 56.8374C17.9908 56.2317 18.0763 55.9599 18.2245 55.0116C18.381 54.0105 18.5419 53.7172 19.3231 53.0089C19.9199 52.4674 20.1615 52.1209 20.3918 51.4742C20.5932 50.9086 20.8104 49.4549 20.8006 48.7366C20.7976 48.5092 20.7483 47.8484 20.6911 47.2683C20.5089 45.4219 20.5449 44.4654 20.8207 43.8182C21.1581 43.0263 21.9039 42.1134 23.3008 40.7818C24.3256 39.805 25.3558 39.1998 26.2897 39.0259C26.6682 38.9554 26.7773 38.9631 26.9956 39.0756ZM18.7042 41.2376C17.3251 41.9695 16.1973 43.0005 15.8333 43.8619C15.7401 44.0825 15.6146 44.6186 15.5542 45.0532C15.3895 46.2413 15.0202 46.929 13.8711 48.1877L13.3807 48.7248L13.9414 47.9663C14.8568 46.728 15.1828 45.994 15.3459 44.8039C15.3909 44.475 15.4936 44.0448 15.5741 43.8481C15.7905 43.3187 16.5291 42.5111 17.2982 41.9627C17.6707 41.6969 19.0681 40.943 19.2478 40.9109C19.3076 40.9 19.0632 41.0472 18.7042 41.2376ZM38.5063 38.3584C38.4179 38.6275 37.8076 39.4303 37.5516 39.6142C37.1782 39.8823 36.3799 40.3023 36.2462 40.3012C36.1688 40.3003 36.2702 40.2184 36.4864 40.107C37.2458 39.7157 37.5767 39.4345 38.0544 38.7743C38.3117 38.4186 38.5343 38.1322 38.5488 38.1379C38.5635 38.1436 38.5443 38.2427 38.5063 38.3584ZM18.4349 42.4621C18.4211 42.4785 18.3355 42.5424 18.2448 42.6042C18.0892 42.7099 18.0866 42.7089 18.199 42.5869C18.2969 42.4807 18.5178 42.3638 18.4349 42.4621ZM27.6079 41.106C28.2288 41.3828 29.1689 41.5511 29.9828 41.5311C30.158 41.5269 30.3867 41.567 30.4912 41.6204C30.6811 41.7174 30.6811 41.7174 30.2199 41.8017C29.3555 41.9597 28.5106 41.8268 27.7796 41.4178C27.4496 41.2332 27.2024 41.0177 27.3005 41.0003C27.328 40.9955 27.4665 41.0429 27.6079 41.106ZM44.0951 38.6014C44.5343 38.6859 45.5872 39.432 46.4283 40.2543C47.0876 40.899 47.6218 41.8792 47.4865 42.196C47.429 42.3303 46.9342 41.8332 46.1793 40.8826C45.4818 40.0043 45.3145 39.8558 44.7406 39.6033C44.2408 39.3837 43.7306 39.3249 42.9909 39.4016C42.2937 39.474 42.1085 39.4143 42.2851 39.1739C42.5543 38.8074 43.5426 38.4948 44.0951 38.6014ZM16.1219 44.971C16.0666 45.5262 15.9279 46.1232 15.748 46.5803C15.5908 46.9797 14.7738 48.169 14.6404 48.1926C14.6058 48.1988 14.7346 47.9677 14.9266 47.6793C15.1188 47.3907 15.2695 47.1236 15.2616 47.0857C15.2537 47.0478 15.2836 46.9609 15.3281 46.8925C15.5124 46.6094 15.7997 45.6692 15.8723 45.1116C15.9666 44.3874 15.982 44.3419 16.0801 44.4956C16.1225 44.5621 16.1414 44.7761 16.1219 44.971ZM14.3687 45.2497C14.2611 45.3826 14.1401 45.4972 14.0998 45.5043C13.988 45.5242 14.1747 45.1554 14.3061 45.097C14.5478 44.9895 14.5585 45.0154 14.3687 45.2497ZM32.5454 41.9306C32.4959 42.0513 32.7285 42.0622 33.4663 41.9738C33.9108 41.9206 34.1412 41.8684 34.1318 41.8232C34.1114 41.7256 33.8636 41.7171 33.175 41.7899C32.7942 41.83 32.5658 41.8812 32.5454 41.9306ZM12.1637 48.6096C12.1421 48.6389 12.134 48.7083 12.1455 48.7637C12.1709 48.8854 12.2501 48.7945 12.2432 48.6515C12.2378 48.5389 12.2217 48.5305 12.1637 48.6096ZM44.5857 44.9868C45.3591 45.5053 46.1145 45.7538 47.3366 45.8914C47.9182 45.9571 48.8179 46.0018 49.336 45.9909C50.589 45.9647 51.698 46.0174 52.2188 46.128C52.9064 46.2743 53.6107 46.6752 54.028 47.1575C54.4759 47.6754 54.9853 48.4485 55.375 49.2017C55.7607 49.9474 55.8324 50.0496 56.3936 50.6551C56.6532 50.9353 56.9058 51.2548 56.9552 51.365C57.0486 51.5743 57.3629 51.7837 57.7021 51.8627C58.121 51.9605 57.3712 52.0203 56.873 51.929C56.608 51.8804 56.3817 51.8535 56.3701 51.8693C56.3585 51.885 56.5109 51.9884 56.7084 52.0989L57.0676 52.2999L57.0008 52.696C56.964 52.9138 56.9011 53.1091 56.8609 53.1299C56.6515 53.2386 55.7254 52.5005 55.6564 52.1697C55.6348 52.0663 55.6603 51.833 55.713 51.6512C55.8033 51.3395 55.7979 51.2954 55.6187 50.8829C55.5141 50.6421 55.0436 49.8088 54.5732 49.0311C53.6056 47.431 53.538 47.3646 52.5046 46.9962C51.6441 46.6896 50.9735 46.582 49.4251 46.5023C47.2741 46.3916 46.6857 46.3323 46.0771 46.1658C45.1319 45.9073 44.1171 45.1653 43.7679 44.4777C43.6904 44.325 43.696 44.3255 43.8942 44.4901C44.0081 44.5847 44.3192 44.8082 44.5857 44.9868ZM34.2092 46.8726C34.3069 47.3475 34.7907 48.4878 34.9321 48.5762C35.0519 48.6512 34.7687 47.6512 34.507 47.0759C34.2084 46.4193 34.1008 46.3458 34.2092 46.8726ZM28.6215 49.3694C28.7073 49.7632 28.6002 49.9979 27.9679 50.8001C27.1951 51.7804 27.0124 52.1211 27.0814 52.4516C27.1704 52.8787 27.7286 53.124 30.5101 53.9584C31.6922 54.3129 32.394 54.631 32.6205 54.9146C32.7663 55.0974 32.8566 55.1287 33.4093 55.1877C33.7526 55.2243 34.1803 55.3078 34.3596 55.3732L34.6858 55.492L34.424 55.5012C33.9431 55.518 33.119 55.5616 33.039 55.5744C32.988 55.5826 32.9994 55.7209 33.0716 55.9674C33.1622 56.2768 33.2581 56.4194 33.5842 56.7307C34.4007 57.5097 34.4081 57.5648 33.6379 57.1318C33.2537 56.916 32.8733 56.7291 32.7922 56.7166C32.6658 56.6972 32.6408 56.6459 32.6183 56.3589C32.5766 55.8284 32.2827 55.3687 31.7925 55.0668C31.4219 54.8384 30.3478 54.3807 30.2315 54.4014C30.2052 54.4061 29.8814 54.3048 29.512 54.1763C29.1427 54.048 28.5176 53.8917 28.1228 53.8292C27.1053 53.668 26.6912 53.5456 26.3601 53.3083C26.1031 53.124 26.0699 53.0698 26.0613 52.8223C26.0469 52.4066 26.4112 51.7498 27.3194 50.5538C28.0974 49.5291 28.2756 49.1856 28.2151 48.8277C28.1748 48.5899 28.5648 49.1097 28.6215 49.3694ZM12.8561 51.677C12.8446 51.7365 12.8224 51.7874 12.8067 51.7902C12.791 51.7929 12.7687 51.7499 12.7572 51.6947C12.7456 51.6392 12.7678 51.5883 12.8065 51.5814C12.8452 51.5746 12.8675 51.6176 12.8561 51.677ZM13.5609 51.6039C13.5461 51.6162 13.4594 51.7153 13.3682 51.8243C13.277 51.9334 13.1954 51.9892 13.1869 51.9486C13.164 51.8387 13.3389 51.626 13.4717 51.6024C13.5354 51.5911 13.5756 51.5918 13.5609 51.6039ZM34.1801 48.4159C34.1463 48.4757 34.1198 48.6084 34.1213 48.711C34.1233 48.865 34.2034 48.9465 34.5842 49.1815C35.1042 49.5024 35.3064 49.4665 34.8018 49.1428C34.5524 48.9826 34.4484 48.8601 34.3587 48.6204C34.2667 48.3745 34.2283 48.3307 34.1801 48.4159ZM43.3688 47.4526C43.7306 48.0791 43.923 49.0717 43.8885 50.1303C43.8128 52.4448 43.4804 53.2392 42.1301 54.3337C39.9998 56.0602 38.5147 57.3097 38.3071 57.5504C38.1196 57.7677 38.0858 57.8551 38.1481 57.9615C38.2572 58.1474 38.6374 58.4718 38.9544 58.6497C39.1415 58.7545 39.1733 58.7913 39.0632 58.7756C38.8459 58.7447 38.4644 58.591 38.1455 58.406L37.8748 58.249L37.8687 58.6403C37.8653 58.8554 37.8496 59.0339 37.8334 59.0367C37.8173 59.0396 37.7303 58.9557 37.6403 58.85C37.444 58.6199 37.2845 57.9543 37.3365 57.5819C37.375 57.3066 37.46 57.2328 38.6195 56.4681C39.8932 55.628 42.0199 53.8819 42.3116 53.4368C42.5432 53.0836 42.6643 52.6637 42.8108 51.7075C43.0136 50.383 43.168 47.6022 43.067 47.0908C43.0372 46.9393 43.1518 47.0769 43.3688 47.4526ZM35.4294 48.955C35.1561 49.3342 35.1514 49.3506 35.334 49.3034C35.4393 49.2762 35.589 49.1863 35.6668 49.1037C35.7614 49.003 35.7688 48.9747 35.6897 49.0177C35.529 49.1046 35.5228 49.0136 35.6744 48.7923C35.7432 48.6916 35.7809 48.5975 35.7579 48.5832C35.735 48.5688 35.5872 48.7362 35.4294 48.955ZM36.4046 49.4409C36.4866 50.0033 36.4847 50.0751 36.3938 49.8605C36.2371 49.491 36.1945 49.243 36.2408 48.972C36.2631 48.8419 36.2867 48.7415 36.2933 48.7489C36.3001 48.7563 36.3501 49.0677 36.4046 49.4409ZM34.2155 49.4181C34.2354 49.4956 34.2559 49.5084 34.268 49.4509C34.2788 49.3987 34.2641 49.3412 34.2352 49.3232C34.2065 49.3053 34.1977 49.3479 34.2155 49.4181ZM36.8695 48.9198C37.1913 48.9668 37.2054 49.0205 36.9339 49.166C36.6284 49.3296 36.6014 49.3251 36.5546 49.101C36.5071 48.8728 36.5154 48.8681 36.8695 48.9198ZM14.9673 59.962C15.088 60.3765 15.1211 60.6174 15.0896 60.8515C15.0658 61.0279 15.0344 61.1353 15.0197 61.0901C14.9809 60.9701 14.6476 59.3626 14.6161 59.1431C14.5909 58.9675 14.5956 58.9695 14.6955 59.175C14.7539 59.2951 14.8762 59.6494 14.9673 59.962Z" fill="#E5D2A5"/>
</g>
<defs>
<clipPath id="clip0_987_1319">
<rect width="71" height="82.6182" fill="white"/>
</clipPath>
</defs>
</svg>
