<svg width="40" height="40" viewBox="0 0 40 40" fill="none" xmlns="http://www.w3.org/2000/svg">
<g clip-path="url(#clip0_1213_2116)">
<path d="M20 0C8.94609 0 0 8.94531 0 20C0 31.0539 8.94531 40 20 40C31.0539 40 40 31.0547 40 20C40 8.94609 31.0547 0 20 0ZM15.2411 28.4367C15.2411 28.4367 8.33313 21.5259 7.83656 21.0303C6.73195 19.9257 6.73195 18.1282 7.83656 17.0245C8.94398 15.9171 10.7349 15.9171 11.8423 17.0245L16.3145 21.4967C16.8706 22.0528 17.7731 22.049 18.3245 21.4901L28.1441 11.529C29.2477 10.4093 31.0509 10.4017 32.164 11.5148C33.2601 12.6109 33.2667 14.4009 32.1781 15.5055C21.5146 26.3248 19.4895 28.4358 19.4895 28.4358C18.3188 29.6064 16.4127 29.6074 15.2411 28.4367Z" fill="#49B94D"/>
</g>
<defs>
<clipPath id="clip0_1213_2116">
<rect width="40" height="40" fill="white"/>
</clipPath>
</defs>
</svg>
