<svg width="35" height="35" viewBox="0 0 35 35" fill="none" xmlns="http://www.w3.org/2000/svg">
<g clip-path="url(#clip0_985_1222)">
<path d="M17.4997 0C7.83502 0 0 7.83514 0 17.4998C0 27.1642 7.83491 35 17.4995 35C27.164 35 34.9998 27.1642 34.9998 17.4998C34.9998 7.83514 27.1642 0 17.4997 0ZM24.8824 19.4249H19.251V25.3129C19.2506 26.3003 18.4503 27.1006 17.4627 27.1006C16.4748 27.1006 15.6745 26.3003 15.6745 25.3123V19.4249H10.1929C9.20526 19.4246 8.40528 18.6242 8.4047 17.6367C8.4047 16.6493 9.20538 15.8487 10.1929 15.8484L15.6744 15.8488V10.6232C15.6744 9.63552 16.475 8.83496 17.4624 8.83496C18.4503 8.83496 19.251 9.63564 19.2506 10.6232L19.251 15.8483L24.8818 15.8489C25.8695 15.8483 26.6704 16.6492 26.6701 17.6371C26.6704 18.6248 25.8695 19.4249 24.8824 19.4249Z" fill="#E5D2A5"/>
</g>
<defs>
<clipPath id="clip0_985_1222">
<rect width="35" height="35" rx="3" fill="white"/>
</clipPath>
</defs>
</svg>
