<svg width="22" height="22" viewBox="0 0 22 22" fill="none" xmlns="http://www.w3.org/2000/svg">
<g clip-path="url(#clip0_929_1652)">
<path d="M21.901 17.5351L21.7915 17.2051C21.5322 16.4343 20.6821 15.6303 19.9012 15.4185L17.0108 14.6289C16.227 14.4157 15.1089 14.7024 14.5355 15.2758L13.4894 16.3219C9.68778 15.2946 6.70672 12.3135 5.68085 8.5126L6.72696 7.46649C7.30043 6.89302 7.58712 5.77641 7.37388 4.9926L6.58573 2.10085C6.37249 1.31847 5.56705 0.468401 4.79768 0.21191L4.46774 0.100978C3.69688 -0.155512 2.59752 0.103883 2.02409 0.67731L0.459329 2.2435C0.179786 2.52157 0.00112279 3.31691 0.00112279 3.31981C-0.0536056 8.28779 1.89439 13.0742 5.40854 16.5884C8.91407 20.0939 13.6825 22.0391 18.6361 21.9973C18.662 21.9973 19.4804 21.8215 19.7599 21.5434L21.3247 19.9786C21.8981 19.4052 22.1575 18.3059 21.901 17.5351Z" fill="#B23633"/>
</g>
<defs>
<clipPath id="clip0_929_1652">
<rect width="22" height="22" fill="white"/>
</clipPath>
</defs>
</svg>
